<svg width="163" height="26" viewBox="0 0 163 26" fill="none" xmlns="http://www.w3.org/2000/svg">
<path d="M1.566 18.6719V5.98187H12.042V18.6719H10.548V7.25987H3.042V18.6719H1.566ZM18.6995 18.8339C17.8475 18.8339 17.1095 18.6479 16.4855 18.2759C15.8615 17.9039 15.3755 17.3819 15.0275 16.7099C14.6915 16.0259 14.5235 15.2219 14.5235 14.2979C14.5235 13.3739 14.6915 12.5759 15.0275 11.9039C15.3755 11.2199 15.8615 10.6919 16.4855 10.3199C17.1095 9.94787 17.8475 9.76187 18.6995 9.76187C19.5395 9.76187 20.2715 9.94787 20.8955 10.3199C21.5315 10.6919 22.0175 11.2199 22.3535 11.9039C22.7015 12.5759 22.8755 13.3739 22.8755 14.2979C22.8755 15.2219 22.7015 16.0259 22.3535 16.7099C22.0175 17.3819 21.5315 17.9039 20.8955 18.2759C20.2715 18.6479 19.5395 18.8339 18.6995 18.8339ZM18.6995 17.6639C19.5155 17.6639 20.1695 17.3759 20.6615 16.7999C21.1535 16.2119 21.3995 15.3779 21.3995 14.2979C21.3995 13.2059 21.1535 12.3719 20.6615 11.7959C20.1695 11.2199 19.5155 10.9319 18.6995 10.9319C17.8715 10.9319 17.2115 11.2199 16.7195 11.7959C16.2395 12.3719 15.9995 13.2059 15.9995 14.2979C15.9995 15.3779 16.2395 16.2119 16.7195 16.7999C17.2115 17.3759 17.8715 17.6639 18.6995 17.6639ZM24.2868 21.0119V17.5019H25.2048C25.6248 16.8899 25.9248 16.1879 26.1048 15.3959C26.2848 14.5919 26.3748 13.6259 26.3748 12.4979V9.92387H32.5668V17.5019H33.9528V21.0119H32.6928V18.6719H25.5288V21.0119H24.2868ZM26.6088 17.5019H31.1808V11.0759H27.6708V12.7499C27.6708 13.6499 27.5808 14.5199 27.4008 15.3599C27.2208 16.1999 26.9568 16.9139 26.6088 17.5019ZM35.9111 21.9119V9.92387H37.3331V11.4899C37.5971 10.9499 37.9871 10.5299 38.5031 10.2299C39.0311 9.91787 39.6431 9.76187 40.3391 9.76187C41.1191 9.76187 41.7971 9.94787 42.3731 10.3199C42.9611 10.6799 43.4111 11.2019 43.7231 11.8859C44.0471 12.5579 44.2091 13.3619 44.2091 14.2979C44.2091 15.2219 44.0471 16.0259 43.7231 16.7099C43.4111 17.3819 42.9611 17.9039 42.3731 18.2759C41.7971 18.6479 41.1191 18.8339 40.3391 18.8339C39.6671 18.8339 39.0671 18.6839 38.5391 18.3839C38.0111 18.0839 37.6211 17.6699 37.3691 17.1419V21.9119H35.9111ZM40.0331 17.6639C40.8491 17.6639 41.5031 17.3759 41.9951 16.7999C42.4871 16.2119 42.7331 15.3779 42.7331 14.2979C42.7331 13.2059 42.4871 12.3719 41.9951 11.7959C41.5031 11.2199 40.8491 10.9319 40.0331 10.9319C39.2171 10.9319 38.5631 11.2199 38.0711 11.7959C37.5791 12.3719 37.3331 13.2059 37.3331 14.2979C37.3331 15.3779 37.5791 16.2119 38.0711 16.7999C38.5631 17.3759 39.2171 17.6639 40.0331 17.6639ZM50.217 18.8339C49.365 18.8339 48.627 18.6479 48.003 18.2759C47.379 17.9039 46.893 17.3819 46.545 16.7099C46.209 16.0259 46.041 15.2219 46.041 14.2979C46.041 13.3739 46.209 12.5759 46.545 11.9039C46.893 11.2199 47.379 10.6919 48.003 10.3199C48.627 9.94787 49.365 9.76187 50.217 9.76187C51.057 9.76187 51.789 9.94787 52.413 10.3199C53.049 10.6919 53.535 11.2199 53.871 11.9039C54.219 12.5759 54.393 13.3739 54.393 14.2979C54.393 15.2219 54.219 16.0259 53.871 16.7099C53.535 17.3819 53.049 17.9039 52.413 18.2759C51.789 18.6479 51.057 18.8339 50.217 18.8339ZM50.217 17.6639C51.033 17.6639 51.687 17.3759 52.179 16.7999C52.671 16.2119 52.917 15.3779 52.917 14.2979C52.917 13.2059 52.671 12.3719 52.179 11.7959C51.687 11.2199 51.033 10.9319 50.217 10.9319C49.389 10.9319 48.729 11.2199 48.237 11.7959C47.757 12.3719 47.517 13.2059 47.517 14.2979C47.517 15.3779 47.757 16.2119 48.237 16.7999C48.729 17.3759 49.389 17.6639 50.217 17.6639ZM60.4484 18.8339C59.1524 18.8339 58.1264 18.4079 57.3704 17.5559C56.6144 16.7039 56.2364 15.4679 56.2364 13.8479V12.4979C56.2364 10.7579 56.5844 9.43787 57.2804 8.53787C57.9764 7.62587 59.0324 6.97787 60.4484 6.59387L63.5624 5.71187L64.0484 6.91787L60.5564 7.85387C59.5844 8.11787 58.8524 8.59187 58.3604 9.27587C57.8804 9.94787 57.6404 10.7759 57.6404 11.7599V11.7959C57.9164 11.2079 58.3244 10.7459 58.8644 10.4099C59.4044 10.0619 60.0404 9.88787 60.7724 9.88787C61.5284 9.88787 62.1944 10.0679 62.7704 10.4279C63.3464 10.7879 63.7904 11.3039 64.1024 11.9759C64.4264 12.6359 64.5884 13.4159 64.5884 14.3159C64.5884 15.2279 64.4144 16.0259 64.0664 16.7099C63.7304 17.3819 63.2504 17.9039 62.6264 18.2759C62.0144 18.6479 61.2884 18.8339 60.4484 18.8339ZM60.3944 17.6639C61.2464 17.6639 61.9124 17.3819 62.3924 16.8179C62.8724 16.2419 63.1124 15.4199 63.1124 14.3519C63.1124 13.3079 62.8724 12.4979 62.3924 11.9219C61.9124 11.3459 61.2524 11.0579 60.4124 11.0579C59.5724 11.0579 58.9124 11.3399 58.4324 11.9039C57.9524 12.4679 57.7124 13.2419 57.7124 14.2259C57.7124 15.3539 57.9464 16.2119 58.4144 16.7999C58.8824 17.3759 59.5424 17.6639 60.3944 17.6639ZM66.9537 18.6719V9.92387H68.4117V13.5599H73.1817V9.92387H74.6397V18.6719H73.1817V14.7479H68.4117V18.6719H66.9537ZM81.4781 18.8339C80.0981 18.8339 79.0061 18.4319 78.2021 17.6279C77.3981 16.8119 76.9961 15.7079 76.9961 14.3159C76.9961 13.4159 77.1761 12.6239 77.5361 11.9399C77.8961 11.2439 78.3881 10.7099 79.0121 10.3379C79.6481 9.95387 80.3801 9.76187 81.2081 9.76187C82.3961 9.76187 83.3261 10.1459 83.9981 10.9139C84.6701 11.6699 85.0061 12.7139 85.0061 14.0459V14.6039H78.4181C78.4661 15.5999 78.7541 16.3619 79.2821 16.8899C79.8101 17.4059 80.5421 17.6639 81.4781 17.6639C82.0061 17.6639 82.5101 17.5859 82.9901 17.4299C83.4701 17.2619 83.9261 16.9919 84.3581 16.6199L84.8621 17.6459C84.4661 18.0179 83.9621 18.3119 83.3501 18.5279C82.7381 18.7319 82.1141 18.8339 81.4781 18.8339ZM81.2441 10.8419C80.4161 10.8419 79.7621 11.0999 79.2821 11.6159C78.8021 12.1319 78.5201 12.8099 78.4361 13.6499H83.7461C83.7101 12.7619 83.4761 12.0719 83.0441 11.5799C82.6241 11.0879 82.0241 10.8419 81.2441 10.8419ZM91.234 18.8339C89.854 18.8339 88.762 18.4319 87.958 17.6279C87.154 16.8119 86.752 15.7079 86.752 14.3159C86.752 13.4159 86.932 12.6239 87.292 11.9399C87.652 11.2439 88.144 10.7099 88.768 10.3379C89.404 9.95387 90.136 9.76187 90.964 9.76187C92.152 9.76187 93.082 10.1459 93.754 10.9139C94.426 11.6699 94.762 12.7139 94.762 14.0459V14.6039H88.174C88.222 15.5999 88.51 16.3619 89.038 16.8899C89.566 17.4059 90.298 17.6639 91.234 17.6639C91.762 17.6639 92.266 17.5859 92.746 17.4299C93.226 17.2619 93.682 16.9919 94.114 16.6199L94.618 17.6459C94.222 18.0179 93.718 18.3119 93.106 18.5279C92.494 18.7319 91.87 18.8339 91.234 18.8339ZM91 10.8419C90.172 10.8419 89.518 11.0999 89.038 11.6159C88.558 12.1319 88.276 12.8099 88.192 13.6499H93.502C93.466 12.7619 93.232 12.0719 92.8 11.5799C92.38 11.0879 91.78 10.8419 91 10.8419Z" fill="#5F5452"/>
<path d="M162.354 14.0254C162.549 13.8302 162.549 13.5136 162.354 13.3183L159.172 10.1363C158.976 9.94108 158.66 9.94108 158.464 10.1363C158.269 10.3316 158.269 10.6482 158.464 10.8434L161.293 13.6719L158.464 16.5003C158.269 16.6956 158.269 17.0121 158.464 17.2074C158.66 17.4027 158.976 17.4027 159.172 17.2074L162.354 14.0254ZM113 14.1719H162V13.1719H113V14.1719Z" fill="#C08E71"/>
</svg>
