<svg width="131" height="108" viewBox="0 0 131 108" fill="none" xmlns="http://www.w3.org/2000/svg">
<circle cx="53" cy="54.6719" r="53" fill="#EBD1B9"/>
<mask id="path-2-inside-1_944_13" fill="white">
<path d="M63.5391 38.5179C61.5963 44.0583 56.9114 44.9726 56.7718 48.0003C56.7718 48.0003 55.549 45.8118 56.6386 44.3152C58.1924 42.2062 60.3027 41.9925 61.9543 38.1386C63.5994 34.2993 62.7263 31.5689 62.6191 30.5578C62.6191 30.5578 65.1131 34.0216 63.5391 38.5179Z"/>
<path d="M46.6229 45.5716C46.2121 45.5716 45.8754 45.2494 45.8678 44.8414C45.8609 44.5038 45.8299 44.1033 45.7953 43.6493C45.6693 41.9911 45.4773 39.486 46.2154 36.9333C47.1476 33.6905 54.3355 25.9422 54.6398 25.6149C54.9245 25.313 55.4027 25.2923 55.7084 25.5686C56.0152 25.848 56.0347 26.3212 55.7524 26.6264C53.7396 28.7893 48.3611 34.9346 47.6688 37.3441C47.0058 39.6401 47.1772 41.8926 47.3025 43.5372C47.3396 44.0212 47.3711 44.4517 47.3786 44.8114C47.3862 45.2219 47.0549 45.5641 46.6377 45.5716C46.6319 45.5716 46.6283 45.5716 46.6229 45.5716Z"/>
<path d="M87.4951 81.274C87.1566 81.274 86.8455 81.0452 86.7625 80.7018C86.6647 80.3014 86.9122 79.8966 87.3201 79.7981C90.764 78.9722 94.8638 76.4371 99.1718 72.4711C99.4771 72.1906 99.9543 72.2085 100.24 72.51C100.525 72.8116 100.509 73.2838 100.202 73.5646C97.0651 76.4521 92.3456 80.1283 87.6738 81.2501C87.6128 81.2647 87.5554 81.274 87.4951 81.274Z"/>
<path d="M113.971 53.7709C113.894 53.7709 113.811 53.7573 113.731 53.732C113.335 53.5992 113.122 53.1748 113.255 52.7851C113.692 51.5166 113.93 50.4009 113.964 49.4719C114.106 45.7407 110.755 44.0451 108.061 42.6831C107.041 42.1663 106.162 41.7237 105.622 41.2147C104.541 40.2033 104.088 39.0097 103.651 37.8537C103.304 36.935 102.973 36.0703 102.342 35.2383C101.615 34.2836 100.532 34.4795 99.3899 34.7946C98.8413 34.9438 98.166 35.1262 97.8249 34.5123C97.6842 34.2614 97.6556 33.9655 97.6102 33.5144C97.5499 32.8973 97.4608 32.0518 97.0677 31.3801C96.8642 31.0307 96.2672 30.5449 95.4154 30.6448C95.0195 30.6912 94.6661 30.7705 94.2839 30.8554C93.4801 31.0303 92.4785 31.2488 90.7731 31.2859C89.8181 31.3037 88.4362 30.9375 87.5797 29.0765C87.2837 28.442 87.0434 27.5904 86.7911 26.691C86.2865 24.9043 85.6578 22.6804 84.4617 21.893C82.8592 20.8383 80.1295 21.8798 76.9739 23.079C71.4254 25.1852 63.8333 28.0758 57.0963 20.8562C53.6924 17.2128 49.1538 14.2969 43.6071 12.1879C36.8787 9.63351 29.7663 11.9416 29.6949 11.9652C29.3015 12.0998 28.8701 11.8874 28.738 11.4976C28.6034 11.1061 28.8156 10.6821 29.2116 10.549C29.5205 10.4476 36.8964 8.0352 44.1496 10.7927C49.9139 12.9841 54.6442 16.0301 58.2069 19.8433C64.2434 26.313 70.7158 23.8539 76.4289 21.6821C79.9801 20.3347 83.0465 19.1665 85.2986 20.6484C86.9632 21.7449 87.6432 24.1573 88.246 26.2877C88.4845 27.1285 88.7065 27.9263 88.953 28.4534C89.5175 29.6709 90.2473 29.7993 90.7428 29.7904C92.2988 29.7572 93.178 29.5648 93.9558 29.3946C94.3893 29.3004 94.7881 29.2137 95.2353 29.1633C96.7111 28.9735 97.8906 29.8011 98.3757 30.6331C98.921 31.5635 99.0358 32.6107 99.108 33.3217C100.173 33.0318 102.193 32.5629 103.548 34.3392C104.312 35.3414 104.714 36.3975 105.066 37.3326C105.477 38.4187 105.832 39.3585 106.66 40.1322C107.043 40.4906 107.872 40.9089 108.749 41.3525C111.498 42.7445 115.655 44.8464 115.475 49.5294C115.433 50.6037 115.168 51.861 114.687 53.2637C114.581 53.5749 114.287 53.7709 113.971 53.7709Z"/>
<path d="M41.3609 75.489C41.1772 75.489 40.9939 75.4245 40.8488 75.2903C36.4061 71.239 32.9048 67.4553 29.8301 63.3805C24.2061 55.9207 22.5928 46.9968 22.2286 40.8244C22.2045 40.4122 22.5232 40.061 22.9393 40.0356C23.3443 40.0028 23.7128 40.3258 23.7377 40.738C24.0888 46.7056 25.6408 55.3229 31.0414 62.4875C34.0587 66.4845 37.5012 70.2057 41.8738 74.1942C42.1799 74.4733 42.1993 74.9454 41.9167 75.2488C41.7673 75.408 41.5648 75.489 41.3609 75.489Z"/>
<path d="M75.4139 105.672C75.3381 105.672 75.2641 105.662 75.1887 105.639C74.7902 105.518 74.5679 105.099 74.6903 104.705C77.5347 95.5395 67.985 84.2347 57.8747 72.2664C50.4133 63.434 42.6982 54.2978 39.0839 45.0963C37.5182 41.1124 36.3485 36.7609 35.2162 32.553C32.3101 21.75 29.3046 10.5812 19.3438 4.18785C18.9941 3.96229 18.8945 3.50045 19.1226 3.15424C19.3492 2.80768 19.8181 2.70912 20.1678 2.93326C30.6148 9.64034 33.6964 21.0947 36.6762 32.1693C37.7976 36.3355 38.9569 40.6481 40.4919 44.5541C44.0167 53.5258 51.652 62.566 59.0355 71.3089C69.4139 83.5966 79.2174 95.2062 76.1358 105.144C76.0329 105.466 75.7355 105.672 75.4139 105.672Z"/>
<path d="M64.692 21.6504C64.3477 21.6504 64.0348 21.4127 63.9564 21.0632C62.5607 14.8162 58.7778 9.76596 53.0175 6.45846C45.0493 1.88179 33.5849 0.868851 23.8136 3.86833C23.4112 3.99503 22.991 3.77127 22.868 3.37688C22.7434 2.98249 22.9661 2.56415 23.3657 2.44173C33.5207 -0.680168 45.4579 0.389149 53.7765 5.1664C59.9126 8.68876 63.9427 14.0753 65.4323 20.7406C65.5196 21.1439 65.2644 21.5426 64.8565 21.6321C64.802 21.6429 64.7476 21.6504 64.692 21.6504Z"/>
<path d="M106.542 94.7627C106.438 94.7627 106.335 94.7431 106.234 94.6985C98.8081 91.4346 96.7851 88.2902 94.477 80.5002C94.3579 80.1044 94.5874 79.6879 94.9891 79.5726C95.3926 79.453 95.8081 79.6844 95.9257 80.0791C98.1223 87.4896 99.9154 90.2885 106.849 93.3333C107.228 93.5007 107.4 93.9425 107.232 94.3209C107.105 94.5967 106.83 94.7627 106.542 94.7627Z"/>
<path d="M124.992 74.5925C124.636 74.5925 124.276 74.5539 123.914 74.4682L95.486 67.8872C95.0796 67.7944 94.8277 67.3925 94.9226 66.9906C95.0179 66.5873 95.4268 66.3332 95.8303 66.4335L124.258 73.0121C125.991 73.4168 127.729 72.3443 128.134 70.634L129.405 65.2667C129.809 63.555 128.731 61.8344 126.998 61.4339L98.5723 54.8553C98.1659 54.7625 97.9121 54.3578 98.0085 53.9573C98.1023 53.5555 98.5145 53.3017 98.9166 53.4002L127.343 59.9787C129.885 60.5673 131.471 63.0917 130.874 65.6076L129.604 70.9745C129.095 73.1317 127.143 74.5925 124.992 74.5925Z"/>
<path d="M123.853 71.7276C123.578 71.7276 123.297 71.6977 123.018 71.632C122.608 71.5392 122.356 71.1358 122.453 70.734C122.548 70.3321 122.961 70.0765 123.363 70.1768C124.525 70.4488 125.69 69.7314 125.961 68.5828C126.058 68.1809 126.468 67.924 126.87 68.0243C127.275 68.1199 127.529 68.5218 127.434 68.9237C127.036 70.5969 125.522 71.7276 123.853 71.7276Z"/>
<path d="M103.068 69.4361C103.009 69.4361 102.951 69.4314 102.893 69.415C102.486 69.3222 102.234 68.9204 102.331 68.5171L105.324 55.8706C105.42 55.4687 105.829 55.215 106.233 55.3149C106.639 55.4077 106.891 55.8096 106.795 56.2111L103.802 68.8594C103.72 69.2027 103.408 69.4361 103.068 69.4361Z"/>
<path d="M95.4993 67.7883C95.4751 67.7883 95.4492 67.7865 95.4239 67.7822L77.2426 66.0016C76.8258 65.9613 76.5237 65.5969 76.5659 65.1847C76.6063 64.7753 76.9795 64.4737 77.3906 64.5155L94.9146 66.2318L97.6519 54.6672L81.1789 48.5176C80.7862 48.3712 80.5913 47.9394 80.7393 47.5558C80.8858 47.1657 81.3222 46.9715 81.7119 47.1178L98.804 53.4993C99.1587 53.6335 99.3598 54.0026 99.2724 54.3688L96.2345 67.2119C96.1533 67.5521 95.8483 67.7883 95.4993 67.7883Z"/>
<path d="M77.3079 65.9017C77.2505 65.9017 77.1917 65.8985 77.1354 65.8835C76.7275 65.7878 76.4756 65.3878 76.572 64.9859C76.8138 63.964 77.4858 63.5457 77.977 63.2441C78.4148 62.9736 78.6144 62.8348 78.7079 62.4315C78.8047 62.025 78.6881 61.8143 78.4178 61.3814C78.1124 60.8946 77.6973 60.2269 77.9406 59.2036C78.1806 58.1818 78.8545 57.7667 79.3453 57.4633C79.7835 57.1928 79.9831 57.0553 80.078 56.6523C80.1718 56.2444 80.0553 56.0353 79.7849 55.5991C79.481 55.1109 79.066 54.4445 79.3074 53.4227C79.5492 52.3994 80.2213 51.9843 80.7125 51.6795C81.1507 51.4076 81.3503 51.2701 81.4452 50.8622C81.5444 50.4542 81.4268 50.2451 81.155 49.8093C80.8511 49.3225 80.4361 48.6561 80.6793 47.6311C80.7746 47.2278 81.1868 46.974 81.587 47.0753C81.992 47.1696 82.2457 47.5701 82.1519 47.9716C82.0541 48.3796 82.1717 48.5873 82.442 49.0248C82.7459 49.5131 83.161 50.1795 82.9178 51.2027C82.6745 52.226 82.0039 52.6428 81.5145 52.9448C81.0749 53.2182 80.8753 53.3552 80.7771 53.7646C80.6836 54.1683 80.7984 54.3774 81.0687 54.8132C81.3755 55.3 81.791 55.9678 81.5477 56.9925C81.3077 58.014 80.6338 58.4276 80.1459 58.7296C79.7044 59.0001 79.5066 59.1375 79.4117 59.5437C79.3168 59.9499 79.433 60.1593 79.7019 60.5966C80.0055 61.0834 80.4209 61.7487 80.1791 62.7702C79.9391 63.7949 79.267 64.2085 78.7758 64.5119C78.3376 64.7824 78.1395 64.9198 78.0402 65.326C77.9601 65.6704 77.6508 65.9017 77.3079 65.9017Z"/>
<path d="M93.3982 64.4367C93.3665 64.4367 93.3347 64.4366 93.3004 64.4302L81.1899 62.9099C80.7763 62.8577 80.4832 62.4825 80.5345 62.0732C80.5872 61.6638 80.9593 61.3786 81.3805 61.4261L93.491 62.9484C93.9046 63.0005 94.1995 63.3738 94.1479 63.785C94.0977 64.1615 93.7729 64.4367 93.3982 64.4367Z"/>
<path d="M95.2214 56.4356C95.1355 56.4356 95.0478 56.4207 94.9615 56.391L89.3138 54.3417C88.9211 54.1982 88.7186 53.7681 88.8637 53.384C89.007 52.9939 89.4466 52.7955 89.8321 52.9372L95.4831 54.9866C95.8743 55.1283 96.0754 55.5591 95.9299 55.9459C95.8198 56.2493 95.53 56.4356 95.2214 56.4356Z"/>
<path d="M119.32 70.7653C119.262 70.7653 119.203 70.7607 119.147 70.7475L110.207 68.6752C109.8 68.5828 109.548 68.1809 109.644 67.7776C109.74 67.3757 110.147 67.1202 110.551 67.2201L119.492 69.2906C119.898 69.3848 120.15 69.7881 120.055 70.1885C119.974 70.5326 119.664 70.7653 119.32 70.7653Z"/>
</mask>
<path d="M63.5391 38.5179C61.5963 44.0583 56.9114 44.9726 56.7718 48.0003C56.7718 48.0003 55.549 45.8118 56.6386 44.3152C58.1924 42.2062 60.3027 41.9925 61.9543 38.1386C63.5994 34.2993 62.7263 31.5689 62.6191 30.5578C62.6191 30.5578 65.1131 34.0216 63.5391 38.5179Z" fill="#C08E71"/>
<path d="M46.6229 45.5716C46.2121 45.5716 45.8754 45.2494 45.8678 44.8414C45.8609 44.5038 45.8299 44.1033 45.7953 43.6493C45.6693 41.9911 45.4773 39.486 46.2154 36.9333C47.1476 33.6905 54.3355 25.9422 54.6398 25.6149C54.9245 25.313 55.4027 25.2923 55.7084 25.5686C56.0152 25.848 56.0347 26.3212 55.7524 26.6264C53.7396 28.7893 48.3611 34.9346 47.6688 37.3441C47.0058 39.6401 47.1772 41.8926 47.3025 43.5372C47.3396 44.0212 47.3711 44.4517 47.3786 44.8114C47.3862 45.2219 47.0549 45.5641 46.6377 45.5716C46.6319 45.5716 46.6283 45.5716 46.6229 45.5716Z" fill="#C08E71"/>
<path d="M87.4951 81.274C87.1566 81.274 86.8455 81.0452 86.7625 80.7018C86.6647 80.3014 86.9122 79.8966 87.3201 79.7981C90.764 78.9722 94.8638 76.4371 99.1718 72.4711C99.4771 72.1906 99.9543 72.2085 100.24 72.51C100.525 72.8116 100.509 73.2838 100.202 73.5646C97.0651 76.4521 92.3456 80.1283 87.6738 81.2501C87.6128 81.2647 87.5554 81.274 87.4951 81.274Z" fill="#C08E71"/>
<path d="M113.971 53.7709C113.894 53.7709 113.811 53.7573 113.731 53.732C113.335 53.5992 113.122 53.1748 113.255 52.7851C113.692 51.5166 113.93 50.4009 113.964 49.4719C114.106 45.7407 110.755 44.0451 108.061 42.6831C107.041 42.1663 106.162 41.7237 105.622 41.2147C104.541 40.2033 104.088 39.0097 103.651 37.8537C103.304 36.935 102.973 36.0703 102.342 35.2383C101.615 34.2836 100.532 34.4795 99.3899 34.7946C98.8413 34.9438 98.166 35.1262 97.8249 34.5123C97.6842 34.2614 97.6556 33.9655 97.6102 33.5144C97.5499 32.8973 97.4608 32.0518 97.0677 31.3801C96.8642 31.0307 96.2672 30.5449 95.4154 30.6448C95.0195 30.6912 94.6661 30.7705 94.2839 30.8554C93.4801 31.0303 92.4785 31.2488 90.7731 31.2859C89.8181 31.3037 88.4362 30.9375 87.5797 29.0765C87.2837 28.442 87.0434 27.5904 86.7911 26.691C86.2865 24.9043 85.6578 22.6804 84.4617 21.893C82.8592 20.8383 80.1295 21.8798 76.9739 23.079C71.4254 25.1852 63.8333 28.0758 57.0963 20.8562C53.6924 17.2128 49.1538 14.2969 43.6071 12.1879C36.8787 9.63351 29.7663 11.9416 29.6949 11.9652C29.3015 12.0998 28.8701 11.8874 28.738 11.4976C28.6034 11.1061 28.8156 10.6821 29.2116 10.549C29.5205 10.4476 36.8964 8.0352 44.1496 10.7927C49.9139 12.9841 54.6442 16.0301 58.2069 19.8433C64.2434 26.313 70.7158 23.8539 76.4289 21.6821C79.9801 20.3347 83.0465 19.1665 85.2986 20.6484C86.9632 21.7449 87.6432 24.1573 88.246 26.2877C88.4845 27.1285 88.7065 27.9263 88.953 28.4534C89.5175 29.6709 90.2473 29.7993 90.7428 29.7904C92.2988 29.7572 93.178 29.5648 93.9558 29.3946C94.3893 29.3004 94.7881 29.2137 95.2353 29.1633C96.7111 28.9735 97.8906 29.8011 98.3757 30.6331C98.921 31.5635 99.0358 32.6107 99.108 33.3217C100.173 33.0318 102.193 32.5629 103.548 34.3392C104.312 35.3414 104.714 36.3975 105.066 37.3326C105.477 38.4187 105.832 39.3585 106.66 40.1322C107.043 40.4906 107.872 40.9089 108.749 41.3525C111.498 42.7445 115.655 44.8464 115.475 49.5294C115.433 50.6037 115.168 51.861 114.687 53.2637C114.581 53.5749 114.287 53.7709 113.971 53.7709Z" fill="#C08E71"/>
<path d="M41.3609 75.489C41.1772 75.489 40.9939 75.4245 40.8488 75.2903C36.4061 71.239 32.9048 67.4553 29.8301 63.3805C24.2061 55.9207 22.5928 46.9968 22.2286 40.8244C22.2045 40.4122 22.5232 40.061 22.9393 40.0356C23.3443 40.0028 23.7128 40.3258 23.7377 40.738C24.0888 46.7056 25.6408 55.3229 31.0414 62.4875C34.0587 66.4845 37.5012 70.2057 41.8738 74.1942C42.1799 74.4733 42.1993 74.9454 41.9167 75.2488C41.7673 75.408 41.5648 75.489 41.3609 75.489Z" fill="#C08E71"/>
<path d="M75.4139 105.672C75.3381 105.672 75.2641 105.662 75.1887 105.639C74.7902 105.518 74.5679 105.099 74.6903 104.705C77.5347 95.5395 67.985 84.2347 57.8747 72.2664C50.4133 63.434 42.6982 54.2978 39.0839 45.0963C37.5182 41.1124 36.3485 36.7609 35.2162 32.553C32.3101 21.75 29.3046 10.5812 19.3438 4.18785C18.9941 3.96229 18.8945 3.50045 19.1226 3.15424C19.3492 2.80768 19.8181 2.70912 20.1678 2.93326C30.6148 9.64034 33.6964 21.0947 36.6762 32.1693C37.7976 36.3355 38.9569 40.6481 40.4919 44.5541C44.0167 53.5258 51.652 62.566 59.0355 71.3089C69.4139 83.5966 79.2174 95.2062 76.1358 105.144C76.0329 105.466 75.7355 105.672 75.4139 105.672Z" fill="#C08E71"/>
<path d="M64.692 21.6504C64.3477 21.6504 64.0348 21.4127 63.9564 21.0632C62.5607 14.8162 58.7778 9.76596 53.0175 6.45846C45.0493 1.88179 33.5849 0.868851 23.8136 3.86833C23.4112 3.99503 22.991 3.77127 22.868 3.37688C22.7434 2.98249 22.9661 2.56415 23.3657 2.44173C33.5207 -0.680168 45.4579 0.389149 53.7765 5.1664C59.9126 8.68876 63.9427 14.0753 65.4323 20.7406C65.5196 21.1439 65.2644 21.5426 64.8565 21.6321C64.802 21.6429 64.7476 21.6504 64.692 21.6504Z" fill="#C08E71"/>
<path d="M106.542 94.7627C106.438 94.7627 106.335 94.7431 106.234 94.6985C98.8081 91.4346 96.7851 88.2902 94.477 80.5002C94.3579 80.1044 94.5874 79.6879 94.9891 79.5726C95.3926 79.453 95.8081 79.6844 95.9257 80.0791C98.1223 87.4896 99.9154 90.2885 106.849 93.3333C107.228 93.5007 107.4 93.9425 107.232 94.3209C107.105 94.5967 106.83 94.7627 106.542 94.7627Z" fill="#C08E71"/>
<path d="M124.992 74.5925C124.636 74.5925 124.276 74.5539 123.914 74.4682L95.486 67.8872C95.0796 67.7944 94.8277 67.3925 94.9226 66.9906C95.0179 66.5873 95.4268 66.3332 95.8303 66.4335L124.258 73.0121C125.991 73.4168 127.729 72.3443 128.134 70.634L129.405 65.2667C129.809 63.555 128.731 61.8344 126.998 61.4339L98.5723 54.8553C98.1659 54.7625 97.9121 54.3578 98.0085 53.9573C98.1023 53.5555 98.5145 53.3017 98.9166 53.4002L127.343 59.9787C129.885 60.5673 131.471 63.0917 130.874 65.6076L129.604 70.9745C129.095 73.1317 127.143 74.5925 124.992 74.5925Z" fill="#C08E71"/>
<path d="M123.853 71.7276C123.578 71.7276 123.297 71.6977 123.018 71.632C122.608 71.5392 122.356 71.1358 122.453 70.734C122.548 70.3321 122.961 70.0765 123.363 70.1768C124.525 70.4488 125.69 69.7314 125.961 68.5828C126.058 68.1809 126.468 67.924 126.87 68.0243C127.275 68.1199 127.529 68.5218 127.434 68.9237C127.036 70.5969 125.522 71.7276 123.853 71.7276Z" fill="#C08E71"/>
<path d="M103.068 69.4361C103.009 69.4361 102.951 69.4314 102.893 69.415C102.486 69.3222 102.234 68.9204 102.331 68.5171L105.324 55.8706C105.42 55.4687 105.829 55.215 106.233 55.3149C106.639 55.4077 106.891 55.8096 106.795 56.2111L103.802 68.8594C103.72 69.2027 103.408 69.4361 103.068 69.4361Z" fill="#C08E71"/>
<path d="M95.4993 67.7883C95.4751 67.7883 95.4492 67.7865 95.4239 67.7822L77.2426 66.0016C76.8258 65.9613 76.5237 65.5969 76.5659 65.1847C76.6063 64.7753 76.9795 64.4737 77.3906 64.5155L94.9146 66.2318L97.6519 54.6672L81.1789 48.5176C80.7862 48.3712 80.5913 47.9394 80.7393 47.5558C80.8858 47.1657 81.3222 46.9715 81.7119 47.1178L98.804 53.4993C99.1587 53.6335 99.3598 54.0026 99.2724 54.3688L96.2345 67.2119C96.1533 67.5521 95.8483 67.7883 95.4993 67.7883Z" fill="#C08E71"/>
<path d="M77.3079 65.9017C77.2505 65.9017 77.1917 65.8985 77.1354 65.8835C76.7275 65.7878 76.4756 65.3878 76.572 64.9859C76.8138 63.964 77.4858 63.5457 77.977 63.2441C78.4148 62.9736 78.6144 62.8348 78.7079 62.4315C78.8047 62.025 78.6881 61.8143 78.4178 61.3814C78.1124 60.8946 77.6973 60.2269 77.9406 59.2036C78.1806 58.1818 78.8545 57.7667 79.3453 57.4633C79.7835 57.1928 79.9831 57.0553 80.078 56.6523C80.1718 56.2444 80.0553 56.0353 79.7849 55.5991C79.481 55.1109 79.066 54.4445 79.3074 53.4227C79.5492 52.3994 80.2213 51.9843 80.7125 51.6795C81.1507 51.4076 81.3503 51.2701 81.4452 50.8622C81.5444 50.4542 81.4268 50.2451 81.155 49.8093C80.8511 49.3225 80.4361 48.6561 80.6793 47.6311C80.7746 47.2278 81.1868 46.974 81.587 47.0753C81.992 47.1696 82.2457 47.5701 82.1519 47.9716C82.0541 48.3796 82.1717 48.5873 82.442 49.0248C82.7459 49.5131 83.161 50.1795 82.9178 51.2027C82.6745 52.226 82.0039 52.6428 81.5145 52.9448C81.0749 53.2182 80.8753 53.3552 80.7771 53.7646C80.6836 54.1683 80.7984 54.3774 81.0687 54.8132C81.3755 55.3 81.791 55.9678 81.5477 56.9925C81.3077 58.014 80.6338 58.4276 80.1459 58.7296C79.7044 59.0001 79.5066 59.1375 79.4117 59.5437C79.3168 59.9499 79.433 60.1593 79.7019 60.5966C80.0055 61.0834 80.4209 61.7487 80.1791 62.7702C79.9391 63.7949 79.267 64.2085 78.7758 64.5119C78.3376 64.7824 78.1395 64.9198 78.0402 65.326C77.9601 65.6704 77.6508 65.9017 77.3079 65.9017Z" fill="#C08E71"/>
<path d="M93.3982 64.4367C93.3665 64.4367 93.3347 64.4366 93.3004 64.4302L81.1899 62.9099C80.7763 62.8577 80.4832 62.4825 80.5345 62.0732C80.5872 61.6638 80.9593 61.3786 81.3805 61.4261L93.491 62.9484C93.9046 63.0005 94.1995 63.3738 94.1479 63.785C94.0977 64.1615 93.7729 64.4367 93.3982 64.4367Z" fill="#C08E71"/>
<path d="M95.2214 56.4356C95.1355 56.4356 95.0478 56.4207 94.9615 56.391L89.3138 54.3417C88.9211 54.1982 88.7186 53.7681 88.8637 53.384C89.007 52.9939 89.4466 52.7955 89.8321 52.9372L95.4831 54.9866C95.8743 55.1283 96.0754 55.5591 95.9299 55.9459C95.8198 56.2493 95.53 56.4356 95.2214 56.4356Z" fill="#C08E71"/>
<path d="M119.32 70.7653C119.262 70.7653 119.203 70.7607 119.147 70.7475L110.207 68.6752C109.8 68.5828 109.548 68.1809 109.644 67.7776C109.74 67.3757 110.147 67.1202 110.551 67.2201L119.492 69.2906C119.898 69.3848 120.15 69.7881 120.055 70.1885C119.974 70.5326 119.664 70.7653 119.32 70.7653Z" fill="#C08E71"/>
<path d="M63.5391 38.5179C61.5963 44.0583 56.9114 44.9726 56.7718 48.0003C56.7718 48.0003 55.549 45.8118 56.6386 44.3152C58.1924 42.2062 60.3027 41.9925 61.9543 38.1386C63.5994 34.2993 62.7263 31.5689 62.6191 30.5578C62.6191 30.5578 65.1131 34.0216 63.5391 38.5179Z" stroke="#C08E71" stroke-width="2" mask="url(#path-2-inside-1_944_13)"/>
<path d="M46.6229 45.5716C46.2121 45.5716 45.8754 45.2494 45.8678 44.8414C45.8609 44.5038 45.8299 44.1033 45.7953 43.6493C45.6693 41.9911 45.4773 39.486 46.2154 36.9333C47.1476 33.6905 54.3355 25.9422 54.6398 25.6149C54.9245 25.313 55.4027 25.2923 55.7084 25.5686C56.0152 25.848 56.0347 26.3212 55.7524 26.6264C53.7396 28.7893 48.3611 34.9346 47.6688 37.3441C47.0058 39.6401 47.1772 41.8926 47.3025 43.5372C47.3396 44.0212 47.3711 44.4517 47.3786 44.8114C47.3862 45.2219 47.0549 45.5641 46.6377 45.5716C46.6319 45.5716 46.6283 45.5716 46.6229 45.5716Z" stroke="#C08E71" stroke-width="2" mask="url(#path-2-inside-1_944_13)"/>
<path d="M87.4951 81.274C87.1566 81.274 86.8455 81.0452 86.7625 80.7018C86.6647 80.3014 86.9122 79.8966 87.3201 79.7981C90.764 78.9722 94.8638 76.4371 99.1718 72.4711C99.4771 72.1906 99.9543 72.2085 100.24 72.51C100.525 72.8116 100.509 73.2838 100.202 73.5646C97.0651 76.4521 92.3456 80.1283 87.6738 81.2501C87.6128 81.2647 87.5554 81.274 87.4951 81.274Z" stroke="#C08E71" stroke-width="2" mask="url(#path-2-inside-1_944_13)"/>
<path d="M113.971 53.7709C113.894 53.7709 113.811 53.7573 113.731 53.732C113.335 53.5992 113.122 53.1748 113.255 52.7851C113.692 51.5166 113.93 50.4009 113.964 49.4719C114.106 45.7407 110.755 44.0451 108.061 42.6831C107.041 42.1663 106.162 41.7237 105.622 41.2147C104.541 40.2033 104.088 39.0097 103.651 37.8537C103.304 36.935 102.973 36.0703 102.342 35.2383C101.615 34.2836 100.532 34.4795 99.3899 34.7946C98.8413 34.9438 98.166 35.1262 97.8249 34.5123C97.6842 34.2614 97.6556 33.9655 97.6102 33.5144C97.5499 32.8973 97.4608 32.0518 97.0677 31.3801C96.8642 31.0307 96.2672 30.5449 95.4154 30.6448C95.0195 30.6912 94.6661 30.7705 94.2839 30.8554C93.4801 31.0303 92.4785 31.2488 90.7731 31.2859C89.8181 31.3037 88.4362 30.9375 87.5797 29.0765C87.2837 28.442 87.0434 27.5904 86.7911 26.691C86.2865 24.9043 85.6578 22.6804 84.4617 21.893C82.8592 20.8383 80.1295 21.8798 76.9739 23.079C71.4254 25.1852 63.8333 28.0758 57.0963 20.8562C53.6924 17.2128 49.1538 14.2969 43.6071 12.1879C36.8787 9.63351 29.7663 11.9416 29.6949 11.9652C29.3015 12.0998 28.8701 11.8874 28.738 11.4976C28.6034 11.1061 28.8156 10.6821 29.2116 10.549C29.5205 10.4476 36.8964 8.0352 44.1496 10.7927C49.9139 12.9841 54.6442 16.0301 58.2069 19.8433C64.2434 26.313 70.7158 23.8539 76.4289 21.6821C79.9801 20.3347 83.0465 19.1665 85.2986 20.6484C86.9632 21.7449 87.6432 24.1573 88.246 26.2877C88.4845 27.1285 88.7065 27.9263 88.953 28.4534C89.5175 29.6709 90.2473 29.7993 90.7428 29.7904C92.2988 29.7572 93.178 29.5648 93.9558 29.3946C94.3893 29.3004 94.7881 29.2137 95.2353 29.1633C96.7111 28.9735 97.8906 29.8011 98.3757 30.6331C98.921 31.5635 99.0358 32.6107 99.108 33.3217C100.173 33.0318 102.193 32.5629 103.548 34.3392C104.312 35.3414 104.714 36.3975 105.066 37.3326C105.477 38.4187 105.832 39.3585 106.66 40.1322C107.043 40.4906 107.872 40.9089 108.749 41.3525C111.498 42.7445 115.655 44.8464 115.475 49.5294C115.433 50.6037 115.168 51.861 114.687 53.2637C114.581 53.5749 114.287 53.7709 113.971 53.7709Z" stroke="#C08E71" stroke-width="2" mask="url(#path-2-inside-1_944_13)"/>
<path d="M41.3609 75.489C41.1772 75.489 40.9939 75.4245 40.8488 75.2903C36.4061 71.239 32.9048 67.4553 29.8301 63.3805C24.2061 55.9207 22.5928 46.9968 22.2286 40.8244C22.2045 40.4122 22.5232 40.061 22.9393 40.0356C23.3443 40.0028 23.7128 40.3258 23.7377 40.738C24.0888 46.7056 25.6408 55.3229 31.0414 62.4875C34.0587 66.4845 37.5012 70.2057 41.8738 74.1942C42.1799 74.4733 42.1993 74.9454 41.9167 75.2488C41.7673 75.408 41.5648 75.489 41.3609 75.489Z" stroke="#C08E71" stroke-width="2" mask="url(#path-2-inside-1_944_13)"/>
<path d="M75.4139 105.672C75.3381 105.672 75.2641 105.662 75.1887 105.639C74.7902 105.518 74.5679 105.099 74.6903 104.705C77.5347 95.5395 67.985 84.2347 57.8747 72.2664C50.4133 63.434 42.6982 54.2978 39.0839 45.0963C37.5182 41.1124 36.3485 36.7609 35.2162 32.553C32.3101 21.75 29.3046 10.5812 19.3438 4.18785C18.9941 3.96229 18.8945 3.50045 19.1226 3.15424C19.3492 2.80768 19.8181 2.70912 20.1678 2.93326C30.6148 9.64034 33.6964 21.0947 36.6762 32.1693C37.7976 36.3355 38.9569 40.6481 40.4919 44.5541C44.0167 53.5258 51.652 62.566 59.0355 71.3089C69.4139 83.5966 79.2174 95.2062 76.1358 105.144C76.0329 105.466 75.7355 105.672 75.4139 105.672Z" stroke="#C08E71" stroke-width="2" mask="url(#path-2-inside-1_944_13)"/>
<path d="M64.692 21.6504C64.3477 21.6504 64.0348 21.4127 63.9564 21.0632C62.5607 14.8162 58.7778 9.76596 53.0175 6.45846C45.0493 1.88179 33.5849 0.868851 23.8136 3.86833C23.4112 3.99503 22.991 3.77127 22.868 3.37688C22.7434 2.98249 22.9661 2.56415 23.3657 2.44173C33.5207 -0.680168 45.4579 0.389149 53.7765 5.1664C59.9126 8.68876 63.9427 14.0753 65.4323 20.7406C65.5196 21.1439 65.2644 21.5426 64.8565 21.6321C64.802 21.6429 64.7476 21.6504 64.692 21.6504Z" stroke="#C08E71" stroke-width="2" mask="url(#path-2-inside-1_944_13)"/>
<path d="M106.542 94.7627C106.438 94.7627 106.335 94.7431 106.234 94.6985C98.8081 91.4346 96.7851 88.2902 94.477 80.5002C94.3579 80.1044 94.5874 79.6879 94.9891 79.5726C95.3926 79.453 95.8081 79.6844 95.9257 80.0791C98.1223 87.4896 99.9154 90.2885 106.849 93.3333C107.228 93.5007 107.4 93.9425 107.232 94.3209C107.105 94.5967 106.83 94.7627 106.542 94.7627Z" stroke="#C08E71" stroke-width="2" mask="url(#path-2-inside-1_944_13)"/>
<path d="M124.992 74.5925C124.636 74.5925 124.276 74.5539 123.914 74.4682L95.486 67.8872C95.0796 67.7944 94.8277 67.3925 94.9226 66.9906C95.0179 66.5873 95.4268 66.3332 95.8303 66.4335L124.258 73.0121C125.991 73.4168 127.729 72.3443 128.134 70.634L129.405 65.2667C129.809 63.555 128.731 61.8344 126.998 61.4339L98.5723 54.8553C98.1659 54.7625 97.9121 54.3578 98.0085 53.9573C98.1023 53.5555 98.5145 53.3017 98.9166 53.4002L127.343 59.9787C129.885 60.5673 131.471 63.0917 130.874 65.6076L129.604 70.9745C129.095 73.1317 127.143 74.5925 124.992 74.5925Z" stroke="#C08E71" stroke-width="2" mask="url(#path-2-inside-1_944_13)"/>
<path d="M123.853 71.7276C123.578 71.7276 123.297 71.6977 123.018 71.632C122.608 71.5392 122.356 71.1358 122.453 70.734C122.548 70.3321 122.961 70.0765 123.363 70.1768C124.525 70.4488 125.69 69.7314 125.961 68.5828C126.058 68.1809 126.468 67.924 126.87 68.0243C127.275 68.1199 127.529 68.5218 127.434 68.9237C127.036 70.5969 125.522 71.7276 123.853 71.7276Z" stroke="#C08E71" stroke-width="2" mask="url(#path-2-inside-1_944_13)"/>
<path d="M103.068 69.4361C103.009 69.4361 102.951 69.4314 102.893 69.415C102.486 69.3222 102.234 68.9204 102.331 68.5171L105.324 55.8706C105.42 55.4687 105.829 55.215 106.233 55.3149C106.639 55.4077 106.891 55.8096 106.795 56.2111L103.802 68.8594C103.72 69.2027 103.408 69.4361 103.068 69.4361Z" stroke="#C08E71" stroke-width="2" mask="url(#path-2-inside-1_944_13)"/>
<path d="M95.4993 67.7883C95.4751 67.7883 95.4492 67.7865 95.4239 67.7822L77.2426 66.0016C76.8258 65.9613 76.5237 65.5969 76.5659 65.1847C76.6063 64.7753 76.9795 64.4737 77.3906 64.5155L94.9146 66.2318L97.6519 54.6672L81.1789 48.5176C80.7862 48.3712 80.5913 47.9394 80.7393 47.5558C80.8858 47.1657 81.3222 46.9715 81.7119 47.1178L98.804 53.4993C99.1587 53.6335 99.3598 54.0026 99.2724 54.3688L96.2345 67.2119C96.1533 67.5521 95.8483 67.7883 95.4993 67.7883Z" stroke="#C08E71" stroke-width="2" mask="url(#path-2-inside-1_944_13)"/>
<path d="M77.3079 65.9017C77.2505 65.9017 77.1917 65.8985 77.1354 65.8835C76.7275 65.7878 76.4756 65.3878 76.572 64.9859C76.8138 63.964 77.4858 63.5457 77.977 63.2441C78.4148 62.9736 78.6144 62.8348 78.7079 62.4315C78.8047 62.025 78.6881 61.8143 78.4178 61.3814C78.1124 60.8946 77.6973 60.2269 77.9406 59.2036C78.1806 58.1818 78.8545 57.7667 79.3453 57.4633C79.7835 57.1928 79.9831 57.0553 80.078 56.6523C80.1718 56.2444 80.0553 56.0353 79.7849 55.5991C79.481 55.1109 79.066 54.4445 79.3074 53.4227C79.5492 52.3994 80.2213 51.9843 80.7125 51.6795C81.1507 51.4076 81.3503 51.2701 81.4452 50.8622C81.5444 50.4542 81.4268 50.2451 81.155 49.8093C80.8511 49.3225 80.4361 48.6561 80.6793 47.6311C80.7746 47.2278 81.1868 46.974 81.587 47.0753C81.992 47.1696 82.2457 47.5701 82.1519 47.9716C82.0541 48.3796 82.1717 48.5873 82.442 49.0248C82.7459 49.5131 83.161 50.1795 82.9178 51.2027C82.6745 52.226 82.0039 52.6428 81.5145 52.9448C81.0749 53.2182 80.8753 53.3552 80.7771 53.7646C80.6836 54.1683 80.7984 54.3774 81.0687 54.8132C81.3755 55.3 81.791 55.9678 81.5477 56.9925C81.3077 58.014 80.6338 58.4276 80.1459 58.7296C79.7044 59.0001 79.5066 59.1375 79.4117 59.5437C79.3168 59.9499 79.433 60.1593 79.7019 60.5966C80.0055 61.0834 80.4209 61.7487 80.1791 62.7702C79.9391 63.7949 79.267 64.2085 78.7758 64.5119C78.3376 64.7824 78.1395 64.9198 78.0402 65.326C77.9601 65.6704 77.6508 65.9017 77.3079 65.9017Z" stroke="#C08E71" stroke-width="2" mask="url(#path-2-inside-1_944_13)"/>
<path d="M93.3982 64.4367C93.3665 64.4367 93.3347 64.4366 93.3004 64.4302L81.1899 62.9099C80.7763 62.8577 80.4832 62.4825 80.5345 62.0732C80.5872 61.6638 80.9593 61.3786 81.3805 61.4261L93.491 62.9484C93.9046 63.0005 94.1995 63.3738 94.1479 63.785C94.0977 64.1615 93.7729 64.4367 93.3982 64.4367Z" stroke="#C08E71" stroke-width="2" mask="url(#path-2-inside-1_944_13)"/>
<path d="M95.2214 56.4356C95.1355 56.4356 95.0478 56.4207 94.9615 56.391L89.3138 54.3417C88.9211 54.1982 88.7186 53.7681 88.8637 53.384C89.007 52.9939 89.4466 52.7955 89.8321 52.9372L95.4831 54.9866C95.8743 55.1283 96.0754 55.5591 95.9299 55.9459C95.8198 56.2493 95.53 56.4356 95.2214 56.4356Z" stroke="#C08E71" stroke-width="2" mask="url(#path-2-inside-1_944_13)"/>
<path d="M119.32 70.7653C119.262 70.7653 119.203 70.7607 119.147 70.7475L110.207 68.6752C109.8 68.5828 109.548 68.1809 109.644 67.7776C109.74 67.3757 110.147 67.1202 110.551 67.2201L119.492 69.2906C119.898 69.3848 120.15 69.7881 120.055 70.1885C119.974 70.5326 119.664 70.7653 119.32 70.7653Z" stroke="#C08E71" stroke-width="2" mask="url(#path-2-inside-1_944_13)"/>
</svg>
