<svg width="61" height="62" viewBox="0 0 61 62" fill="none" xmlns="http://www.w3.org/2000/svg">
<circle cx="27.6694" cy="33.4121" r="27.6694" fill="#EBD1B9"/>
<mask id="path-2-inside-1_60_34" fill="white">
<path d="M33.0562 24.8661C32.0471 27.7678 29.6131 28.2475 29.5408 29.8324C29.5408 29.8324 28.9068 28.6864 29.4717 27.9024C30.2793 26.7978 31.3753 26.6866 32.2333 24.6681C33.0871 22.6575 32.6351 21.2258 32.5777 20.6985C32.5777 20.6985 33.8723 22.5114 33.0562 24.8661Z"/>
<path d="M24.2691 28.5613C24.0548 28.5613 23.8808 28.3916 23.8759 28.1772C23.8728 28.0018 23.8564 27.7916 23.8382 27.5536C23.773 26.6859 23.6735 25.374 24.0573 24.0369C24.5413 22.3383 28.275 18.2802 28.4334 18.1081C28.5802 17.9492 28.8288 17.9393 28.9875 18.0847C29.1468 18.2309 29.1577 18.4789 29.0111 18.6378C27.9651 19.7714 25.1715 22.9884 24.8121 24.2511C24.4667 25.4536 24.5563 26.6333 24.6207 27.4947C24.6409 27.7499 24.6566 27.9744 24.6615 28.1628C24.6654 28.3787 24.4935 28.557 24.2762 28.5611C24.274 28.5613 24.2716 28.5613 24.2691 28.5613Z"/>
<path d="M45.5009 47.2592C45.3243 47.2592 45.1642 47.1396 45.1203 46.9596C45.0693 46.7508 45.1979 46.5386 45.4083 46.487C51.2825 45.0649 59.0949 34.6784 59.2503 30.6039C59.3247 28.6495 57.5843 27.7616 56.1845 27.0481C55.6548 26.7784 55.1971 26.5453 54.9163 26.2791C54.3553 25.7495 54.1206 25.1244 53.8922 24.519C53.7126 24.0378 53.5423 23.5839 53.2127 23.149C52.8359 22.6499 52.2734 22.7523 51.6802 22.9158C51.3952 22.9942 51.0422 23.0912 50.8663 22.7687C50.7941 22.6373 50.7793 22.4809 50.7549 22.2463C50.7227 21.9231 50.6781 21.4802 50.4739 21.1282C50.3674 20.9452 50.055 20.6893 49.6156 20.7426C49.4091 20.7678 49.2263 20.8092 49.027 20.8531C48.6095 20.9453 48.09 21.0589 47.2026 21.0783C47.2001 21.0783 47.1964 21.0783 47.1947 21.0783C46.9813 21.0783 46.8064 20.9103 46.8025 20.6966C46.797 20.4798 46.9695 20.3015 47.1853 20.2958C47.9958 20.2787 48.4535 20.1777 48.8575 20.0887C49.0827 20.0394 49.2899 19.9932 49.5214 19.9659C50.2849 19.8766 50.9008 20.3007 51.1535 20.7357C51.4368 21.2245 51.4955 21.7739 51.5332 22.1446C52.0855 21.9952 53.1372 21.7481 53.8388 22.6781C54.2374 23.2032 54.4444 23.7568 54.6281 24.2444C54.8417 24.8139 55.0267 25.3069 55.4568 25.7114C55.6553 25.9 56.086 26.1183 56.5413 26.3514C57.9694 27.0804 60.1281 28.1813 60.0347 30.633C59.8517 35.4266 51.4721 45.8247 45.5941 47.2478C45.5628 47.2555 45.5322 47.2592 45.5009 47.2592Z"/>
<path d="M34.9159 18.0325C33.1902 18.0325 31.3971 17.4401 29.7093 15.6157C27.9405 13.7092 25.5841 12.1805 22.7011 11.0765C19.1973 9.73399 15.5126 10.9468 15.4749 10.9593C15.2684 11.0289 15.0457 10.9186 14.9775 10.715C14.9075 10.5101 15.0183 10.2871 15.2238 10.2183C15.3853 10.1643 19.2147 8.90235 22.9837 10.346C25.9781 11.4937 28.4349 13.0888 30.286 15.0861C33.4225 18.4752 36.7855 17.1859 39.7516 16.049C40.636 15.7103 41.4718 15.3897 42.222 15.2394C43.1283 15.057 43.8087 15.1417 44.3594 15.5084C44.5414 15.6282 44.59 15.8707 44.4693 16.0505C44.3508 16.2305 44.1059 16.2789 43.9255 16.16C43.5592 15.9159 43.0663 15.8675 42.3765 16.0068C41.6906 16.1443 40.8856 16.4535 40.0334 16.7807C38.5444 17.3517 36.7685 18.0316 34.9159 18.0325Z"/>
<path d="M21.5344 44.2301C21.4396 44.2301 21.3445 44.1964 21.2693 44.1252C18.9613 42.0034 17.1417 40.0218 15.5458 37.8891C12.6236 33.9813 11.7855 29.3075 11.5965 26.0742C11.584 25.8591 11.7493 25.6744 11.9661 25.6611C12.1631 25.6493 12.3681 25.8135 12.3804 26.0296C12.5625 29.1552 13.3698 33.6692 16.1752 37.4206C17.7421 39.5142 19.5305 41.4622 21.8023 43.5519C21.9617 43.6983 21.9709 43.9448 21.8243 44.1043C21.7463 44.1888 21.6413 44.2301 21.5344 44.2301Z"/>
<path d="M39.2231 60.0375C39.1854 60.0375 39.1478 60.0328 39.1086 60.021C38.9016 59.9576 38.7844 59.7386 38.8489 59.5313C40.3256 54.7324 35.3648 48.8107 30.1136 42.5419C26.238 37.915 22.2288 33.13 20.3521 28.3124C19.5391 26.2252 18.9309 23.9462 18.3424 21.743C16.8334 16.0851 15.2719 10.2347 10.0983 6.8861C9.9162 6.76871 9.8652 6.52702 9.9822 6.34551C10.1007 6.16475 10.3448 6.11315 10.5252 6.22886C15.9521 9.74331 17.5536 15.7407 19.101 21.5409C19.684 23.7246 20.2866 25.9824 21.0831 28.0281C22.9147 32.727 26.8812 37.461 30.7152 42.0392C36.1078 48.4757 41.2004 54.556 39.5989 59.7618C39.5473 59.9296 39.3919 60.0375 39.2231 60.0375Z"/>
<path d="M33.6549 16.032C33.476 16.032 33.3129 15.9077 33.2728 15.7253C32.5477 12.4535 30.5828 9.80766 27.5907 8.07632C23.4507 5.67915 17.4964 5.14716 12.4194 6.7196C12.2139 6.7854 11.9919 6.66893 11.9283 6.46219C11.8638 6.25507 11.9799 6.03676 12.1873 5.97171C17.4628 4.33589 23.6643 4.8976 27.9848 7.39871C31.1721 9.24426 33.2666 12.0639 34.0394 15.5563C34.0866 15.7677 33.9524 15.9765 33.7413 16.0234C33.713 16.0288 33.6832 16.032 33.6549 16.032Z"/>
<path d="M55.3949 54.3248C55.3416 54.3248 55.2874 54.3138 55.2355 54.291C51.3771 52.5815 50.3264 50.9348 49.1267 46.8549C49.0656 46.6469 49.1848 46.4293 49.3935 46.3682C49.6005 46.3055 49.8182 46.4261 49.88 46.6342C51.0219 50.5163 51.9525 51.9799 55.5542 53.5752C55.7528 53.6629 55.8415 53.8945 55.7528 54.0924C55.689 54.2379 55.5449 54.3248 55.3949 54.3248Z"/>
<path d="M48.8426 9.86176H42.6749C42.4897 9.86176 42.3279 9.73108 42.2904 9.54958L40.4063 0.471202C40.3624 0.259599 40.4987 0.0522946 40.7115 0.00874018C40.9241 -0.0368705 41.1313 0.100714 41.1754 0.312317L42.9942 9.07854H48.5224L50.3419 0.312317C50.3858 0.100714 50.5915 -0.0368705 50.8067 0.00874018C51.0186 0.0521077 51.1543 0.259599 51.111 0.471202L49.2269 9.54958C49.1894 9.73108 49.0286 9.86176 48.8426 9.86176Z"/>
<path d="M47.1524 12.9237H44.3651C44.1486 12.9237 43.9737 12.7484 43.9737 12.5317V9.47974C43.9737 9.26384 44.1486 9.0885 44.3651 9.0885H47.1524C47.3689 9.0885 47.5448 9.26384 47.5448 9.47974V12.5317C47.5448 12.7484 47.3689 12.9237 47.1524 12.9237ZM44.7583 12.1405H46.7594V9.87154H44.7583V12.1405Z"/>
<path d="M45.8757 28.6832C45.6601 28.6832 45.485 28.5079 45.485 28.2921V12.718C45.485 12.5013 45.6601 12.3267 45.8757 12.3267C46.0923 12.3267 46.2699 12.5013 46.2699 12.718V28.2921C46.2697 28.508 46.0923 28.6832 45.8757 28.6832Z"/>
<path d="M41.4641 33.1396C41.3604 33.1396 41.2584 33.1006 41.1808 33.0206C41.0308 32.8658 41.0349 32.617 41.1909 32.4674L43.8165 29.9383C43.9712 29.7888 44.2191 29.7919 44.3705 29.9476C44.5213 30.1026 44.5164 30.3505 44.3612 30.5015L41.7363 33.0301C41.6602 33.1038 41.5614 33.1396 41.4641 33.1396Z"/>
<path d="M47.6575 27.1712C47.5548 27.1712 47.4518 27.1314 47.375 27.0523C47.2252 26.8966 47.2284 26.6495 47.3845 26.4982L50.0085 23.9691C50.1639 23.8188 50.4142 23.822 50.564 23.9777C50.7155 24.1334 50.7108 24.3813 50.5554 24.5308L47.9298 27.0616C47.8546 27.1334 47.7558 27.1712 47.6575 27.1712Z"/>
<path d="M50.1341 33.2867C50.0322 33.2867 49.9285 33.2467 49.8523 33.1676L47.2903 30.5256C47.1405 30.3699 47.1444 30.1235 47.3006 29.9717C47.4551 29.8222 47.7046 29.8255 47.8561 29.982L50.4167 32.6231C50.5682 32.7788 50.5633 33.0252 50.4079 33.1772C50.3319 33.2499 50.2322 33.2867 50.1341 33.2867Z"/>
<path d="M44.1226 27.0857C44.0206 27.0857 43.9169 27.045 43.8408 26.9669L41.3275 24.3757C41.1777 24.2192 41.1816 23.9721 41.3378 23.8218C41.4923 23.6715 41.7426 23.6756 41.8926 23.8304L44.4059 26.4214C44.5559 26.5781 44.5518 26.8252 44.3956 26.9755C44.3204 27.0491 44.2214 27.0857 44.1226 27.0857Z"/>
<path d="M52.0049 28.9978C52.0017 28.9978 52.0002 28.9978 51.997 28.9978L48.3247 28.9362C48.1081 28.9322 47.9354 28.7545 47.9384 28.5378C47.9424 28.3242 48.1166 28.1537 48.3316 28.1537C48.3325 28.1537 48.335 28.1537 48.338 28.1537L52.0103 28.2156C52.2269 28.2195 52.4003 28.3971 52.3964 28.613C52.3932 28.8274 52.2175 28.9978 52.0049 28.9978Z"/>
<path d="M43.3646 28.8517C43.3622 28.8517 43.3599 28.8517 43.3567 28.8517L39.7408 28.7908C39.5235 28.7861 39.3508 28.6083 39.3555 28.3917C39.3594 28.178 39.5329 28.0083 39.7472 28.0083C39.7487 28.0083 39.7517 28.0083 39.7541 28.0083L43.3708 28.0692C43.5873 28.0724 43.7593 28.2507 43.7561 28.4666C43.7529 28.6812 43.5782 28.8517 43.3646 28.8517Z"/>
</mask>
<path d="M33.0562 24.8661C32.0471 27.7678 29.6131 28.2475 29.5408 29.8324C29.5408 29.8324 28.9068 28.6864 29.4717 27.9024C30.2793 26.7978 31.3753 26.6866 32.2333 24.6681C33.0871 22.6575 32.6351 21.2258 32.5777 20.6985C32.5777 20.6985 33.8723 22.5114 33.0562 24.8661Z" fill="#C08E71"/>
<path d="M24.2691 28.5613C24.0548 28.5613 23.8808 28.3916 23.8759 28.1772C23.8728 28.0018 23.8564 27.7916 23.8382 27.5536C23.773 26.6859 23.6735 25.374 24.0573 24.0369C24.5413 22.3383 28.275 18.2802 28.4334 18.1081C28.5802 17.9492 28.8288 17.9393 28.9875 18.0847C29.1468 18.2309 29.1577 18.4789 29.0111 18.6378C27.9651 19.7714 25.1715 22.9884 24.8121 24.2511C24.4667 25.4536 24.5563 26.6333 24.6207 27.4947C24.6409 27.7499 24.6566 27.9744 24.6615 28.1628C24.6654 28.3787 24.4935 28.557 24.2762 28.5611C24.274 28.5613 24.2716 28.5613 24.2691 28.5613Z" fill="#C08E71"/>
<path d="M45.5009 47.2592C45.3243 47.2592 45.1642 47.1396 45.1203 46.9596C45.0693 46.7508 45.1979 46.5386 45.4083 46.487C51.2825 45.0649 59.0949 34.6784 59.2503 30.6039C59.3247 28.6495 57.5843 27.7616 56.1845 27.0481C55.6548 26.7784 55.1971 26.5453 54.9163 26.2791C54.3553 25.7495 54.1206 25.1244 53.8922 24.519C53.7126 24.0378 53.5423 23.5839 53.2127 23.149C52.8359 22.6499 52.2734 22.7523 51.6802 22.9158C51.3952 22.9942 51.0422 23.0912 50.8663 22.7687C50.7941 22.6373 50.7793 22.4809 50.7549 22.2463C50.7227 21.9231 50.6781 21.4802 50.4739 21.1282C50.3674 20.9452 50.055 20.6893 49.6156 20.7426C49.4091 20.7678 49.2263 20.8092 49.027 20.8531C48.6095 20.9453 48.09 21.0589 47.2026 21.0783C47.2001 21.0783 47.1964 21.0783 47.1947 21.0783C46.9813 21.0783 46.8064 20.9103 46.8025 20.6966C46.797 20.4798 46.9695 20.3015 47.1853 20.2958C47.9958 20.2787 48.4535 20.1777 48.8575 20.0887C49.0827 20.0394 49.2899 19.9932 49.5214 19.9659C50.2849 19.8766 50.9008 20.3007 51.1535 20.7357C51.4368 21.2245 51.4955 21.7739 51.5332 22.1446C52.0855 21.9952 53.1372 21.7481 53.8388 22.6781C54.2374 23.2032 54.4444 23.7568 54.6281 24.2444C54.8417 24.8139 55.0267 25.3069 55.4568 25.7114C55.6553 25.9 56.086 26.1183 56.5413 26.3514C57.9694 27.0804 60.1281 28.1813 60.0347 30.633C59.8517 35.4266 51.4721 45.8247 45.5941 47.2478C45.5628 47.2555 45.5322 47.2592 45.5009 47.2592Z" fill="#C08E71"/>
<path d="M34.9159 18.0325C33.1902 18.0325 31.3971 17.4401 29.7093 15.6157C27.9405 13.7092 25.5841 12.1805 22.7011 11.0765C19.1973 9.73399 15.5126 10.9468 15.4749 10.9593C15.2684 11.0289 15.0457 10.9186 14.9775 10.715C14.9075 10.5101 15.0183 10.2871 15.2238 10.2183C15.3853 10.1643 19.2147 8.90235 22.9837 10.346C25.9781 11.4937 28.4349 13.0888 30.286 15.0861C33.4225 18.4752 36.7855 17.1859 39.7516 16.049C40.636 15.7103 41.4718 15.3897 42.222 15.2394C43.1283 15.057 43.8087 15.1417 44.3594 15.5084C44.5414 15.6282 44.59 15.8707 44.4693 16.0505C44.3508 16.2305 44.1059 16.2789 43.9255 16.16C43.5592 15.9159 43.0663 15.8675 42.3765 16.0068C41.6906 16.1443 40.8856 16.4535 40.0334 16.7807C38.5444 17.3517 36.7685 18.0316 34.9159 18.0325Z" fill="#C08E71"/>
<path d="M21.5344 44.2301C21.4396 44.2301 21.3445 44.1964 21.2693 44.1252C18.9613 42.0034 17.1417 40.0218 15.5458 37.8891C12.6236 33.9813 11.7855 29.3075 11.5965 26.0742C11.584 25.8591 11.7493 25.6744 11.9661 25.6611C12.1631 25.6493 12.3681 25.8135 12.3804 26.0296C12.5625 29.1552 13.3698 33.6692 16.1752 37.4206C17.7421 39.5142 19.5305 41.4622 21.8023 43.5519C21.9617 43.6983 21.9709 43.9448 21.8243 44.1043C21.7463 44.1888 21.6413 44.2301 21.5344 44.2301Z" fill="#C08E71"/>
<path d="M39.2231 60.0375C39.1854 60.0375 39.1478 60.0328 39.1086 60.021C38.9016 59.9576 38.7844 59.7386 38.8489 59.5313C40.3256 54.7324 35.3648 48.8107 30.1136 42.5419C26.238 37.915 22.2288 33.13 20.3521 28.3124C19.5391 26.2252 18.9309 23.9462 18.3424 21.743C16.8334 16.0851 15.2719 10.2347 10.0983 6.8861C9.9162 6.76871 9.8652 6.52702 9.9822 6.34551C10.1007 6.16475 10.3448 6.11315 10.5252 6.22886C15.9521 9.74331 17.5536 15.7407 19.101 21.5409C19.684 23.7246 20.2866 25.9824 21.0831 28.0281C22.9147 32.727 26.8812 37.461 30.7152 42.0392C36.1078 48.4757 41.2004 54.556 39.5989 59.7618C39.5473 59.9296 39.3919 60.0375 39.2231 60.0375Z" fill="#C08E71"/>
<path d="M33.6549 16.032C33.476 16.032 33.3129 15.9077 33.2728 15.7253C32.5477 12.4535 30.5828 9.80766 27.5907 8.07632C23.4507 5.67915 17.4964 5.14716 12.4194 6.7196C12.2139 6.7854 11.9919 6.66893 11.9283 6.46219C11.8638 6.25507 11.9799 6.03676 12.1873 5.97171C17.4628 4.33589 23.6643 4.8976 27.9848 7.39871C31.1721 9.24426 33.2666 12.0639 34.0394 15.5563C34.0866 15.7677 33.9524 15.9765 33.7413 16.0234C33.713 16.0288 33.6832 16.032 33.6549 16.032Z" fill="#C08E71"/>
<path d="M55.3949 54.3248C55.3416 54.3248 55.2874 54.3138 55.2355 54.291C51.3771 52.5815 50.3264 50.9348 49.1267 46.8549C49.0656 46.6469 49.1848 46.4293 49.3935 46.3682C49.6005 46.3055 49.8182 46.4261 49.88 46.6342C51.0219 50.5163 51.9525 51.9799 55.5542 53.5752C55.7528 53.6629 55.8415 53.8945 55.7528 54.0924C55.689 54.2379 55.5449 54.3248 55.3949 54.3248Z" fill="#C08E71"/>
<path d="M48.8426 9.86176H42.6749C42.4897 9.86176 42.3279 9.73108 42.2904 9.54958L40.4063 0.471202C40.3624 0.259599 40.4987 0.0522946 40.7115 0.00874018C40.9241 -0.0368705 41.1313 0.100714 41.1754 0.312317L42.9942 9.07854H48.5224L50.3419 0.312317C50.3858 0.100714 50.5915 -0.0368705 50.8067 0.00874018C51.0186 0.0521077 51.1543 0.259599 51.111 0.471202L49.2269 9.54958C49.1894 9.73108 49.0286 9.86176 48.8426 9.86176Z" fill="#C08E71"/>
<path d="M47.1524 12.9237H44.3651C44.1486 12.9237 43.9737 12.7484 43.9737 12.5317V9.47974C43.9737 9.26384 44.1486 9.0885 44.3651 9.0885H47.1524C47.3689 9.0885 47.5448 9.26384 47.5448 9.47974V12.5317C47.5448 12.7484 47.3689 12.9237 47.1524 12.9237ZM44.7583 12.1405H46.7594V9.87154H44.7583V12.1405Z" fill="#C08E71"/>
<path d="M45.8757 28.6832C45.6601 28.6832 45.485 28.5079 45.485 28.2921V12.718C45.485 12.5013 45.6601 12.3267 45.8757 12.3267C46.0923 12.3267 46.2699 12.5013 46.2699 12.718V28.2921C46.2697 28.508 46.0923 28.6832 45.8757 28.6832Z" fill="#C08E71"/>
<path d="M41.4641 33.1396C41.3604 33.1396 41.2584 33.1006 41.1808 33.0206C41.0308 32.8658 41.0349 32.617 41.1909 32.4674L43.8165 29.9383C43.9712 29.7888 44.2191 29.7919 44.3705 29.9476C44.5213 30.1026 44.5164 30.3505 44.3612 30.5015L41.7363 33.0301C41.6602 33.1038 41.5614 33.1396 41.4641 33.1396Z" fill="#C08E71"/>
<path d="M47.6575 27.1712C47.5548 27.1712 47.4518 27.1314 47.375 27.0523C47.2252 26.8966 47.2284 26.6495 47.3845 26.4982L50.0085 23.9691C50.1639 23.8188 50.4142 23.822 50.564 23.9777C50.7155 24.1334 50.7108 24.3813 50.5554 24.5308L47.9298 27.0616C47.8546 27.1334 47.7558 27.1712 47.6575 27.1712Z" fill="#C08E71"/>
<path d="M50.1341 33.2867C50.0322 33.2867 49.9285 33.2467 49.8523 33.1676L47.2903 30.5256C47.1405 30.3699 47.1444 30.1235 47.3006 29.9717C47.4551 29.8222 47.7046 29.8255 47.8561 29.982L50.4167 32.6231C50.5682 32.7788 50.5633 33.0252 50.4079 33.1772C50.3319 33.2499 50.2322 33.2867 50.1341 33.2867Z" fill="#C08E71"/>
<path d="M44.1226 27.0857C44.0206 27.0857 43.9169 27.045 43.8408 26.9669L41.3275 24.3757C41.1777 24.2192 41.1816 23.9721 41.3378 23.8218C41.4923 23.6715 41.7426 23.6756 41.8926 23.8304L44.4059 26.4214C44.5559 26.5781 44.5518 26.8252 44.3956 26.9755C44.3204 27.0491 44.2214 27.0857 44.1226 27.0857Z" fill="#C08E71"/>
<path d="M52.0049 28.9978C52.0017 28.9978 52.0002 28.9978 51.997 28.9978L48.3247 28.9362C48.1081 28.9322 47.9354 28.7545 47.9384 28.5378C47.9424 28.3242 48.1166 28.1537 48.3316 28.1537C48.3325 28.1537 48.335 28.1537 48.338 28.1537L52.0103 28.2156C52.2269 28.2195 52.4003 28.3971 52.3964 28.613C52.3932 28.8274 52.2175 28.9978 52.0049 28.9978Z" fill="#C08E71"/>
<path d="M43.3646 28.8517C43.3622 28.8517 43.3599 28.8517 43.3567 28.8517L39.7408 28.7908C39.5235 28.7861 39.3508 28.6083 39.3555 28.3917C39.3594 28.178 39.5329 28.0083 39.7472 28.0083C39.7487 28.0083 39.7517 28.0083 39.7541 28.0083L43.3708 28.0692C43.5873 28.0724 43.7593 28.2507 43.7561 28.4666C43.7529 28.6812 43.5782 28.8517 43.3646 28.8517Z" fill="#C08E71"/>
<path d="M33.0562 24.8661C32.0471 27.7678 29.6131 28.2475 29.5408 29.8324C29.5408 29.8324 28.9068 28.6864 29.4717 27.9024C30.2793 26.7978 31.3753 26.6866 32.2333 24.6681C33.0871 22.6575 32.6351 21.2258 32.5777 20.6985C32.5777 20.6985 33.8723 22.5114 33.0562 24.8661Z" stroke="#C08E71" stroke-width="1.04413" mask="url(#path-2-inside-1_60_34)"/>
<path d="M24.2691 28.5613C24.0548 28.5613 23.8808 28.3916 23.8759 28.1772C23.8728 28.0018 23.8564 27.7916 23.8382 27.5536C23.773 26.6859 23.6735 25.374 24.0573 24.0369C24.5413 22.3383 28.275 18.2802 28.4334 18.1081C28.5802 17.9492 28.8288 17.9393 28.9875 18.0847C29.1468 18.2309 29.1577 18.4789 29.0111 18.6378C27.9651 19.7714 25.1715 22.9884 24.8121 24.2511C24.4667 25.4536 24.5563 26.6333 24.6207 27.4947C24.6409 27.7499 24.6566 27.9744 24.6615 28.1628C24.6654 28.3787 24.4935 28.557 24.2762 28.5611C24.274 28.5613 24.2716 28.5613 24.2691 28.5613Z" stroke="#C08E71" stroke-width="1.04413" mask="url(#path-2-inside-1_60_34)"/>
<path d="M45.5009 47.2592C45.3243 47.2592 45.1642 47.1396 45.1203 46.9596C45.0693 46.7508 45.1979 46.5386 45.4083 46.487C51.2825 45.0649 59.0949 34.6784 59.2503 30.6039C59.3247 28.6495 57.5843 27.7616 56.1845 27.0481C55.6548 26.7784 55.1971 26.5453 54.9163 26.2791C54.3553 25.7495 54.1206 25.1244 53.8922 24.519C53.7126 24.0378 53.5423 23.5839 53.2127 23.149C52.8359 22.6499 52.2734 22.7523 51.6802 22.9158C51.3952 22.9942 51.0422 23.0912 50.8663 22.7687C50.7941 22.6373 50.7793 22.4809 50.7549 22.2463C50.7227 21.9231 50.6781 21.4802 50.4739 21.1282C50.3674 20.9452 50.055 20.6893 49.6156 20.7426C49.4091 20.7678 49.2263 20.8092 49.027 20.8531C48.6095 20.9453 48.09 21.0589 47.2026 21.0783C47.2001 21.0783 47.1964 21.0783 47.1947 21.0783C46.9813 21.0783 46.8064 20.9103 46.8025 20.6966C46.797 20.4798 46.9695 20.3015 47.1853 20.2958C47.9958 20.2787 48.4535 20.1777 48.8575 20.0887C49.0827 20.0394 49.2899 19.9932 49.5214 19.9659C50.2849 19.8766 50.9008 20.3007 51.1535 20.7357C51.4368 21.2245 51.4955 21.7739 51.5332 22.1446C52.0855 21.9952 53.1372 21.7481 53.8388 22.6781C54.2374 23.2032 54.4444 23.7568 54.6281 24.2444C54.8417 24.8139 55.0267 25.3069 55.4568 25.7114C55.6553 25.9 56.086 26.1183 56.5413 26.3514C57.9694 27.0804 60.1281 28.1813 60.0347 30.633C59.8517 35.4266 51.4721 45.8247 45.5941 47.2478C45.5628 47.2555 45.5322 47.2592 45.5009 47.2592Z" stroke="#C08E71" stroke-width="1.04413" mask="url(#path-2-inside-1_60_34)"/>
<path d="M34.9159 18.0325C33.1902 18.0325 31.3971 17.4401 29.7093 15.6157C27.9405 13.7092 25.5841 12.1805 22.7011 11.0765C19.1973 9.73399 15.5126 10.9468 15.4749 10.9593C15.2684 11.0289 15.0457 10.9186 14.9775 10.715C14.9075 10.5101 15.0183 10.2871 15.2238 10.2183C15.3853 10.1643 19.2147 8.90235 22.9837 10.346C25.9781 11.4937 28.4349 13.0888 30.286 15.0861C33.4225 18.4752 36.7855 17.1859 39.7516 16.049C40.636 15.7103 41.4718 15.3897 42.222 15.2394C43.1283 15.057 43.8087 15.1417 44.3594 15.5084C44.5414 15.6282 44.59 15.8707 44.4693 16.0505C44.3508 16.2305 44.1059 16.2789 43.9255 16.16C43.5592 15.9159 43.0663 15.8675 42.3765 16.0068C41.6906 16.1443 40.8856 16.4535 40.0334 16.7807C38.5444 17.3517 36.7685 18.0316 34.9159 18.0325Z" stroke="#C08E71" stroke-width="1.04413" mask="url(#path-2-inside-1_60_34)"/>
<path d="M21.5344 44.2301C21.4396 44.2301 21.3445 44.1964 21.2693 44.1252C18.9613 42.0034 17.1417 40.0218 15.5458 37.8891C12.6236 33.9813 11.7855 29.3075 11.5965 26.0742C11.584 25.8591 11.7493 25.6744 11.9661 25.6611C12.1631 25.6493 12.3681 25.8135 12.3804 26.0296C12.5625 29.1552 13.3698 33.6692 16.1752 37.4206C17.7421 39.5142 19.5305 41.4622 21.8023 43.5519C21.9617 43.6983 21.9709 43.9448 21.8243 44.1043C21.7463 44.1888 21.6413 44.2301 21.5344 44.2301Z" stroke="#C08E71" stroke-width="1.04413" mask="url(#path-2-inside-1_60_34)"/>
<path d="M39.2231 60.0375C39.1854 60.0375 39.1478 60.0328 39.1086 60.021C38.9016 59.9576 38.7844 59.7386 38.8489 59.5313C40.3256 54.7324 35.3648 48.8107 30.1136 42.5419C26.238 37.915 22.2288 33.13 20.3521 28.3124C19.5391 26.2252 18.9309 23.9462 18.3424 21.743C16.8334 16.0851 15.2719 10.2347 10.0983 6.8861C9.9162 6.76871 9.8652 6.52702 9.9822 6.34551C10.1007 6.16475 10.3448 6.11315 10.5252 6.22886C15.9521 9.74331 17.5536 15.7407 19.101 21.5409C19.684 23.7246 20.2866 25.9824 21.0831 28.0281C22.9147 32.727 26.8812 37.461 30.7152 42.0392C36.1078 48.4757 41.2004 54.556 39.5989 59.7618C39.5473 59.9296 39.3919 60.0375 39.2231 60.0375Z" stroke="#C08E71" stroke-width="1.04413" mask="url(#path-2-inside-1_60_34)"/>
<path d="M33.6549 16.032C33.476 16.032 33.3129 15.9077 33.2728 15.7253C32.5477 12.4535 30.5828 9.80766 27.5907 8.07632C23.4507 5.67915 17.4964 5.14716 12.4194 6.7196C12.2139 6.7854 11.9919 6.66893 11.9283 6.46219C11.8638 6.25507 11.9799 6.03676 12.1873 5.97171C17.4628 4.33589 23.6643 4.8976 27.9848 7.39871C31.1721 9.24426 33.2666 12.0639 34.0394 15.5563C34.0866 15.7677 33.9524 15.9765 33.7413 16.0234C33.713 16.0288 33.6832 16.032 33.6549 16.032Z" stroke="#C08E71" stroke-width="1.04413" mask="url(#path-2-inside-1_60_34)"/>
<path d="M55.3949 54.3248C55.3416 54.3248 55.2874 54.3138 55.2355 54.291C51.3771 52.5815 50.3264 50.9348 49.1267 46.8549C49.0656 46.6469 49.1848 46.4293 49.3935 46.3682C49.6005 46.3055 49.8182 46.4261 49.88 46.6342C51.0219 50.5163 51.9525 51.9799 55.5542 53.5752C55.7528 53.6629 55.8415 53.8945 55.7528 54.0924C55.689 54.2379 55.5449 54.3248 55.3949 54.3248Z" stroke="#C08E71" stroke-width="1.04413" mask="url(#path-2-inside-1_60_34)"/>
<path d="M48.8426 9.86176H42.6749C42.4897 9.86176 42.3279 9.73108 42.2904 9.54958L40.4063 0.471202C40.3624 0.259599 40.4987 0.0522946 40.7115 0.00874018C40.9241 -0.0368705 41.1313 0.100714 41.1754 0.312317L42.9942 9.07854H48.5224L50.3419 0.312317C50.3858 0.100714 50.5915 -0.0368705 50.8067 0.00874018C51.0186 0.0521077 51.1543 0.259599 51.111 0.471202L49.2269 9.54958C49.1894 9.73108 49.0286 9.86176 48.8426 9.86176Z" stroke="#C08E71" stroke-width="1.04413" mask="url(#path-2-inside-1_60_34)"/>
<path d="M47.1524 12.9237H44.3651C44.1486 12.9237 43.9737 12.7484 43.9737 12.5317V9.47974C43.9737 9.26384 44.1486 9.0885 44.3651 9.0885H47.1524C47.3689 9.0885 47.5448 9.26384 47.5448 9.47974V12.5317C47.5448 12.7484 47.3689 12.9237 47.1524 12.9237ZM44.7583 12.1405H46.7594V9.87154H44.7583V12.1405Z" stroke="#C08E71" stroke-width="1.04413" mask="url(#path-2-inside-1_60_34)"/>
<path d="M45.8757 28.6832C45.6601 28.6832 45.485 28.5079 45.485 28.2921V12.718C45.485 12.5013 45.6601 12.3267 45.8757 12.3267C46.0923 12.3267 46.2699 12.5013 46.2699 12.718V28.2921C46.2697 28.508 46.0923 28.6832 45.8757 28.6832Z" stroke="#C08E71" stroke-width="1.04413" mask="url(#path-2-inside-1_60_34)"/>
<path d="M41.4641 33.1396C41.3604 33.1396 41.2584 33.1006 41.1808 33.0206C41.0308 32.8658 41.0349 32.617 41.1909 32.4674L43.8165 29.9383C43.9712 29.7888 44.2191 29.7919 44.3705 29.9476C44.5213 30.1026 44.5164 30.3505 44.3612 30.5015L41.7363 33.0301C41.6602 33.1038 41.5614 33.1396 41.4641 33.1396Z" stroke="#C08E71" stroke-width="1.04413" mask="url(#path-2-inside-1_60_34)"/>
<path d="M47.6575 27.1712C47.5548 27.1712 47.4518 27.1314 47.375 27.0523C47.2252 26.8966 47.2284 26.6495 47.3845 26.4982L50.0085 23.9691C50.1639 23.8188 50.4142 23.822 50.564 23.9777C50.7155 24.1334 50.7108 24.3813 50.5554 24.5308L47.9298 27.0616C47.8546 27.1334 47.7558 27.1712 47.6575 27.1712Z" stroke="#C08E71" stroke-width="1.04413" mask="url(#path-2-inside-1_60_34)"/>
<path d="M50.1341 33.2867C50.0322 33.2867 49.9285 33.2467 49.8523 33.1676L47.2903 30.5256C47.1405 30.3699 47.1444 30.1235 47.3006 29.9717C47.4551 29.8222 47.7046 29.8255 47.8561 29.982L50.4167 32.6231C50.5682 32.7788 50.5633 33.0252 50.4079 33.1772C50.3319 33.2499 50.2322 33.2867 50.1341 33.2867Z" stroke="#C08E71" stroke-width="1.04413" mask="url(#path-2-inside-1_60_34)"/>
<path d="M44.1226 27.0857C44.0206 27.0857 43.9169 27.045 43.8408 26.9669L41.3275 24.3757C41.1777 24.2192 41.1816 23.9721 41.3378 23.8218C41.4923 23.6715 41.7426 23.6756 41.8926 23.8304L44.4059 26.4214C44.5559 26.5781 44.5518 26.8252 44.3956 26.9755C44.3204 27.0491 44.2214 27.0857 44.1226 27.0857Z" stroke="#C08E71" stroke-width="1.04413" mask="url(#path-2-inside-1_60_34)"/>
<path d="M52.0049 28.9978C52.0017 28.9978 52.0002 28.9978 51.997 28.9978L48.3247 28.9362C48.1081 28.9322 47.9354 28.7545 47.9384 28.5378C47.9424 28.3242 48.1166 28.1537 48.3316 28.1537C48.3325 28.1537 48.335 28.1537 48.338 28.1537L52.0103 28.2156C52.2269 28.2195 52.4003 28.3971 52.3964 28.613C52.3932 28.8274 52.2175 28.9978 52.0049 28.9978Z" stroke="#C08E71" stroke-width="1.04413" mask="url(#path-2-inside-1_60_34)"/>
<path d="M43.3646 28.8517C43.3622 28.8517 43.3599 28.8517 43.3567 28.8517L39.7408 28.7908C39.5235 28.7861 39.3508 28.6083 39.3555 28.3917C39.3594 28.178 39.5329 28.0083 39.7472 28.0083C39.7487 28.0083 39.7517 28.0083 39.7541 28.0083L43.3708 28.0692C43.5873 28.0724 43.7593 28.2507 43.7561 28.4666C43.7529 28.6812 43.5782 28.8517 43.3646 28.8517Z" stroke="#C08E71" stroke-width="1.04413" mask="url(#path-2-inside-1_60_34)"/>
</svg>
