<svg width="115" height="109" viewBox="0 0 115 109" fill="none" xmlns="http://www.w3.org/2000/svg">
<circle cx="53" cy="55.6719" r="53" fill="#EBD1B9"/>
<mask id="path-2-inside-1_944_7" fill="white">
<path d="M63.3179 38.8756C61.3837 44.4701 56.7225 45.3932 56.5836 48.4498C56.5836 48.4498 55.3675 46.2389 56.4514 44.7281C57.9974 42.6001 60.0969 42.3847 61.7406 38.4955C63.3776 34.6168 62.5096 31.8618 62.4011 30.8439C62.4011 30.8439 64.8827 34.3393 63.3179 38.8756Z"/>
<path d="M46.4848 45.9989C46.0768 45.9989 45.7421 45.6704 45.7331 45.2585C45.7277 44.9206 45.6968 44.5138 45.6624 44.0583C45.5367 42.3829 45.3453 39.8524 46.0797 37.2784C47.007 34.006 54.1601 26.1812 54.4628 25.8508C54.7447 25.5446 55.2217 25.5251 55.5255 25.8054C55.8308 26.0875 55.8509 26.5639 55.57 26.8701C53.5657 29.055 48.2154 35.2592 47.5255 37.6913C46.8658 40.011 47.0364 42.283 47.1617 43.9437C47.1987 44.4337 47.2307 44.868 47.2375 45.2315C47.2451 45.6462 46.9143 45.9899 46.5002 45.9989C46.4952 45.9989 46.4898 45.9989 46.4848 45.9989Z"/>
<path d="M87.1558 82.0388C86.8161 82.0388 86.5087 81.8079 86.4253 81.4627C86.3269 81.0585 86.5751 80.6513 86.9788 80.5518C98.2292 77.8088 113.193 57.7886 113.493 49.9349C113.635 46.1679 110.298 44.4564 107.618 43.0825C106.603 42.5608 105.727 42.1115 105.19 41.6016C104.116 40.5794 103.666 39.3728 103.23 38.2057C102.883 37.2815 102.557 36.4035 101.926 35.5654C101.201 34.6016 100.124 34.8023 98.9902 35.119C98.4461 35.2682 97.772 35.4555 97.4316 34.8325C97.2933 34.5807 97.2638 34.2791 97.2197 33.8251C97.1565 33.2021 97.0724 32.3485 96.681 31.6715C96.4766 31.3155 95.8687 30.8194 95.0373 30.9282C94.6419 30.9751 94.291 31.0551 93.9085 31.1408C93.1095 31.3174 92.1147 31.5375 90.4153 31.5768C89.418 31.5584 88.0917 31.2208 87.2384 29.3464C86.9461 28.7044 86.7058 27.8461 86.453 26.9367C85.9509 25.1362 85.3271 22.8894 84.1377 22.0945C82.5428 21.0284 79.8281 22.0765 76.6847 23.289C71.1663 25.4195 63.6081 28.3329 56.9067 21.0464C53.5194 17.3684 49.0037 14.4261 43.4842 12.2938C36.7692 9.70745 29.7124 12.0451 29.6413 12.0707C29.2466 12.2033 28.8214 11.9907 28.6892 11.5987C28.5552 11.202 28.7668 10.7754 29.1604 10.6428C29.4678 10.5354 36.808 8.10477 44.024 10.8856C49.7597 13.1005 54.4664 16.1743 58.0107 20.0238C64.0229 26.558 70.4635 24.0741 76.1442 21.8801C79.6762 20.52 82.7252 19.3407 84.9709 20.8367C86.625 21.9418 87.3038 24.3803 87.901 26.5325C88.1377 27.3813 88.361 28.1823 88.6052 28.7174C89.1644 29.9449 89.8755 30.0836 90.3851 30.0671C91.934 30.0321 92.811 29.8376 93.5835 29.6675C94.0155 29.571 94.4124 29.4852 94.8556 29.4326C96.3197 29.2452 97.4995 30.0765 97.9821 30.9145C98.5248 31.8557 98.6397 32.9142 98.7097 33.632C99.767 33.3383 101.781 32.8631 103.126 34.6578C103.888 35.6714 104.286 36.7371 104.637 37.6783C105.047 38.7761 105.4 39.7231 106.225 40.506C106.605 40.8663 107.429 41.29 108.302 41.7393C111.039 43.1431 115.173 45.2649 114.994 49.9926C114.642 59.2323 98.5923 79.2735 87.3329 82.018C87.2743 82.0327 87.2144 82.0388 87.1558 82.0388Z"/>
<path d="M41.2505 76.1997C41.0677 76.1997 40.8853 76.1334 40.7402 75.999C36.3204 71.9094 32.8372 68.0899 29.777 63.9791C24.1811 56.4468 22.575 47.4379 22.2127 41.2067C22.1893 40.7909 22.505 40.4346 22.9205 40.4091C23.3242 40.3759 23.6894 40.702 23.7142 41.1163C24.0644 47.1439 25.6086 55.8451 30.9815 63.0743C33.9846 67.1095 37.4092 70.8645 41.7597 74.8924C42.0643 75.1728 42.0837 75.6506 41.8028 75.9568C41.6552 76.1182 41.4527 76.1997 41.2505 76.1997Z"/>
<path d="M75.1321 106.672C75.0592 106.672 74.9849 106.66 74.9113 106.639C74.5144 106.515 74.291 106.092 74.4128 105.695C77.2424 96.4444 67.7416 85.0306 57.6817 72.9469C50.2574 64.0285 42.5814 54.8071 38.9836 45.5179C37.4264 41.4947 36.2621 37.1022 35.1352 32.8542C32.2431 21.9498 29.253 10.6727 19.3425 4.22032C18.9945 3.99405 18.8954 3.52495 19.1209 3.17797C19.3471 2.82667 19.8144 2.72721 20.1617 2.95493C30.5566 9.72587 33.6236 21.2875 36.5886 32.4694C37.7048 36.6767 38.8583 41.027 40.3853 44.9706C43.8925 54.0277 51.4889 63.154 58.8359 71.9801C69.1641 84.3849 78.9181 96.105 75.8504 106.138C75.752 106.461 75.4535 106.672 75.1321 106.672Z"/>
<path d="M64.4663 21.8488C64.1197 21.8488 63.8101 21.6088 63.7315 21.2575C62.3442 14.951 58.5805 9.85121 52.8484 6.51078C44.9178 1.89342 33.5101 0.869407 23.7891 3.89889C23.3909 4.02572 22.9707 3.79946 22.8482 3.40276C22.725 3.00318 22.9466 2.5809 23.3435 2.45875C33.4494 -0.692877 45.3279 0.386602 53.6037 5.20646C59.7089 8.762 63.72 14.2002 65.2007 20.9304C65.2901 21.3375 65.0341 21.7414 64.629 21.829C64.5729 21.8431 64.5198 21.8488 64.4663 21.8488Z"/>
<path d="M106.105 95.6589C106.004 95.6589 105.9 95.6377 105.8 95.5941C98.4102 92.3005 96.3969 89.1247 94.0996 81.2577C93.9832 80.8596 94.2116 80.4391 94.6099 80.3227C95.0068 80.2067 95.4269 80.4355 95.5426 80.8355C97.7279 88.3166 99.512 91.1396 106.411 94.2145C106.791 94.3849 106.962 94.8295 106.792 95.2111C106.668 95.4918 106.393 95.6589 106.105 95.6589Z"/>
<path d="M67.215 56.2375C66.9137 56.2375 66.6304 56.0566 66.5136 55.7597C66.3628 55.3706 66.5542 54.9346 66.9414 54.7822C73.6345 52.1569 78.273 46.5668 78.3186 46.5127C78.5833 46.1913 79.0552 46.1434 79.3769 46.4072C79.698 46.6723 79.7443 47.1476 79.48 47.4686C79.2825 47.7097 74.5574 53.4144 67.488 56.1859C67.3985 56.2209 67.3052 56.2375 67.215 56.2375Z"/>
<path d="M68.4781 54.9995L70.7452 57.2222L70.6709 57.3047L65.9573 56.6969C64.3822 56.7495 62.8074 56.8025 61.2326 56.8551C62.6393 56.1449 64.0461 55.4319 65.4538 54.7199L69.2987 51.9167L69.3992 51.9394L68.4781 54.9995Z"/>
<path d="M84.8457 64.9757C84.651 64.9757 84.4585 64.9033 84.3113 64.7527C84.019 64.4587 84.0211 63.9802 84.3156 63.6866C89.4224 58.6134 91.4688 51.6346 91.4881 51.5636C91.6038 51.164 92.024 50.933 92.4194 51.0476C92.8184 51.1622 93.0482 51.5802 92.9336 51.9812C92.8485 52.2813 90.7677 59.3989 85.374 64.7599C85.2281 64.9033 85.0374 64.9757 84.8457 64.9757Z"/>
<path d="M85.8129 63.2704L88.7732 64.4086L88.7369 64.5174L84.1698 65.8337C82.7448 66.5111 81.3216 67.188 79.8977 67.8622C80.9079 66.6497 81.9178 65.4359 82.9269 64.2249L85.3485 60.1188L85.4509 60.099L85.8129 63.2704Z"/>
</mask>
<path d="M63.3179 38.8756C61.3837 44.4701 56.7225 45.3932 56.5836 48.4498C56.5836 48.4498 55.3675 46.2389 56.4514 44.7281C57.9974 42.6001 60.0969 42.3847 61.7406 38.4955C63.3776 34.6168 62.5096 31.8618 62.4011 30.8439C62.4011 30.8439 64.8827 34.3393 63.3179 38.8756Z" fill="#C08E71"/>
<path d="M46.4848 45.9989C46.0768 45.9989 45.7421 45.6704 45.7331 45.2585C45.7277 44.9206 45.6968 44.5138 45.6624 44.0583C45.5367 42.3829 45.3453 39.8524 46.0797 37.2784C47.007 34.006 54.1601 26.1812 54.4628 25.8508C54.7447 25.5446 55.2217 25.5251 55.5255 25.8054C55.8308 26.0875 55.8509 26.5639 55.57 26.8701C53.5657 29.055 48.2154 35.2592 47.5255 37.6913C46.8658 40.011 47.0364 42.283 47.1617 43.9437C47.1987 44.4337 47.2307 44.868 47.2375 45.2315C47.2451 45.6462 46.9143 45.9899 46.5002 45.9989C46.4952 45.9989 46.4898 45.9989 46.4848 45.9989Z" fill="#C08E71"/>
<path d="M87.1558 82.0388C86.8161 82.0388 86.5087 81.8079 86.4253 81.4627C86.3269 81.0585 86.5751 80.6513 86.9788 80.5518C98.2292 77.8088 113.193 57.7886 113.493 49.9349C113.635 46.1679 110.298 44.4564 107.618 43.0825C106.603 42.5608 105.727 42.1115 105.19 41.6016C104.116 40.5794 103.666 39.3728 103.23 38.2057C102.883 37.2815 102.557 36.4035 101.926 35.5654C101.201 34.6016 100.124 34.8023 98.9902 35.119C98.4461 35.2682 97.772 35.4555 97.4316 34.8325C97.2933 34.5807 97.2638 34.2791 97.2197 33.8251C97.1565 33.2021 97.0724 32.3485 96.681 31.6715C96.4766 31.3155 95.8687 30.8194 95.0373 30.9282C94.6419 30.9751 94.291 31.0551 93.9085 31.1408C93.1095 31.3174 92.1147 31.5375 90.4153 31.5768C89.418 31.5584 88.0917 31.2208 87.2384 29.3464C86.9461 28.7044 86.7058 27.8461 86.453 26.9367C85.9509 25.1362 85.3271 22.8894 84.1377 22.0945C82.5428 21.0284 79.8281 22.0765 76.6847 23.289C71.1663 25.4195 63.6081 28.3329 56.9067 21.0464C53.5194 17.3684 49.0037 14.4261 43.4842 12.2938C36.7692 9.70745 29.7124 12.0451 29.6413 12.0707C29.2466 12.2033 28.8214 11.9907 28.6892 11.5987C28.5552 11.202 28.7668 10.7754 29.1604 10.6428C29.4678 10.5354 36.808 8.10477 44.024 10.8856C49.7597 13.1005 54.4664 16.1743 58.0107 20.0238C64.0229 26.558 70.4635 24.0741 76.1442 21.8801C79.6762 20.52 82.7252 19.3407 84.9709 20.8367C86.625 21.9418 87.3038 24.3803 87.901 26.5325C88.1377 27.3813 88.361 28.1823 88.6052 28.7174C89.1644 29.9449 89.8755 30.0836 90.3851 30.0671C91.934 30.0321 92.811 29.8376 93.5835 29.6675C94.0155 29.571 94.4124 29.4852 94.8556 29.4326C96.3197 29.2452 97.4995 30.0765 97.9821 30.9145C98.5248 31.8557 98.6397 32.9142 98.7097 33.632C99.767 33.3383 101.781 32.8631 103.126 34.6578C103.888 35.6714 104.286 36.7371 104.637 37.6783C105.047 38.7761 105.4 39.7231 106.225 40.506C106.605 40.8663 107.429 41.29 108.302 41.7393C111.039 43.1431 115.173 45.2649 114.994 49.9926C114.642 59.2323 98.5923 79.2735 87.3329 82.018C87.2743 82.0327 87.2144 82.0388 87.1558 82.0388Z" fill="#C08E71"/>
<path d="M41.2505 76.1997C41.0677 76.1997 40.8853 76.1334 40.7402 75.999C36.3204 71.9094 32.8372 68.0899 29.777 63.9791C24.1811 56.4468 22.575 47.4379 22.2127 41.2067C22.1893 40.7909 22.505 40.4346 22.9205 40.4091C23.3242 40.3759 23.6894 40.702 23.7142 41.1163C24.0644 47.1439 25.6086 55.8451 30.9815 63.0743C33.9846 67.1095 37.4092 70.8645 41.7597 74.8924C42.0643 75.1728 42.0837 75.6506 41.8028 75.9568C41.6552 76.1182 41.4527 76.1997 41.2505 76.1997Z" fill="#C08E71"/>
<path d="M75.1321 106.672C75.0592 106.672 74.9849 106.66 74.9113 106.639C74.5144 106.515 74.291 106.092 74.4128 105.695C77.2424 96.4444 67.7416 85.0306 57.6817 72.9469C50.2574 64.0285 42.5814 54.8071 38.9836 45.5179C37.4264 41.4947 36.2621 37.1022 35.1352 32.8542C32.2431 21.9498 29.253 10.6727 19.3425 4.22032C18.9945 3.99405 18.8954 3.52495 19.1209 3.17797C19.3471 2.82667 19.8144 2.72721 20.1617 2.95493C30.5566 9.72587 33.6236 21.2875 36.5886 32.4694C37.7048 36.6767 38.8583 41.027 40.3853 44.9706C43.8925 54.0277 51.4889 63.154 58.8359 71.9801C69.1641 84.3849 78.9181 96.105 75.8504 106.138C75.752 106.461 75.4535 106.672 75.1321 106.672Z" fill="#C08E71"/>
<path d="M64.4663 21.8488C64.1197 21.8488 63.8101 21.6088 63.7315 21.2575C62.3442 14.951 58.5805 9.85121 52.8484 6.51078C44.9178 1.89342 33.5101 0.869407 23.7891 3.89889C23.3909 4.02572 22.9707 3.79946 22.8482 3.40276C22.725 3.00318 22.9466 2.5809 23.3435 2.45875C33.4494 -0.692877 45.3279 0.386602 53.6037 5.20646C59.7089 8.762 63.72 14.2002 65.2007 20.9304C65.2901 21.3375 65.0341 21.7414 64.629 21.829C64.5729 21.8431 64.5198 21.8488 64.4663 21.8488Z" fill="#C08E71"/>
<path d="M106.105 95.6589C106.004 95.6589 105.9 95.6377 105.8 95.5941C98.4102 92.3005 96.3969 89.1247 94.0996 81.2577C93.9832 80.8596 94.2116 80.4391 94.6099 80.3227C95.0068 80.2067 95.4269 80.4355 95.5426 80.8355C97.7279 88.3166 99.512 91.1396 106.411 94.2145C106.791 94.3849 106.962 94.8295 106.792 95.2111C106.668 95.4918 106.393 95.6589 106.105 95.6589Z" fill="#C08E71"/>
<path d="M67.215 56.2375C66.9137 56.2375 66.6304 56.0566 66.5136 55.7597C66.3628 55.3706 66.5542 54.9346 66.9414 54.7822C73.6345 52.1569 78.273 46.5668 78.3186 46.5127C78.5833 46.1913 79.0552 46.1434 79.3769 46.4072C79.698 46.6723 79.7443 47.1476 79.48 47.4686C79.2825 47.7097 74.5574 53.4144 67.488 56.1859C67.3985 56.2209 67.3052 56.2375 67.215 56.2375Z" fill="#C08E71"/>
<path d="M68.4781 54.9995L70.7452 57.2222L70.6709 57.3047L65.9573 56.6969C64.3822 56.7495 62.8074 56.8025 61.2326 56.8551C62.6393 56.1449 64.0461 55.4319 65.4538 54.7199L69.2987 51.9167L69.3992 51.9394L68.4781 54.9995Z" fill="#C08E71"/>
<path d="M84.8457 64.9757C84.651 64.9757 84.4585 64.9033 84.3113 64.7527C84.019 64.4587 84.0211 63.9802 84.3156 63.6866C89.4224 58.6134 91.4688 51.6346 91.4881 51.5636C91.6038 51.164 92.024 50.933 92.4194 51.0476C92.8184 51.1622 93.0482 51.5802 92.9336 51.9812C92.8485 52.2813 90.7677 59.3989 85.374 64.7599C85.2281 64.9033 85.0374 64.9757 84.8457 64.9757Z" fill="#C08E71"/>
<path d="M85.8129 63.2704L88.7732 64.4086L88.7369 64.5174L84.1698 65.8337C82.7448 66.5111 81.3216 67.188 79.8977 67.8622C80.9079 66.6497 81.9178 65.4359 82.9269 64.2249L85.3485 60.1188L85.4509 60.099L85.8129 63.2704Z" fill="#C08E71"/>
<path d="M63.3179 38.8756C61.3837 44.4701 56.7225 45.3932 56.5836 48.4498C56.5836 48.4498 55.3675 46.2389 56.4514 44.7281C57.9974 42.6001 60.0969 42.3847 61.7406 38.4955C63.3776 34.6168 62.5096 31.8618 62.4011 30.8439C62.4011 30.8439 64.8827 34.3393 63.3179 38.8756Z" stroke="#C08E71" stroke-width="2" mask="url(#path-2-inside-1_944_7)"/>
<path d="M46.4848 45.9989C46.0768 45.9989 45.7421 45.6704 45.7331 45.2585C45.7277 44.9206 45.6968 44.5138 45.6624 44.0583C45.5367 42.3829 45.3453 39.8524 46.0797 37.2784C47.007 34.006 54.1601 26.1812 54.4628 25.8508C54.7447 25.5446 55.2217 25.5251 55.5255 25.8054C55.8308 26.0875 55.8509 26.5639 55.57 26.8701C53.5657 29.055 48.2154 35.2592 47.5255 37.6913C46.8658 40.011 47.0364 42.283 47.1617 43.9437C47.1987 44.4337 47.2307 44.868 47.2375 45.2315C47.2451 45.6462 46.9143 45.9899 46.5002 45.9989C46.4952 45.9989 46.4898 45.9989 46.4848 45.9989Z" stroke="#C08E71" stroke-width="2" mask="url(#path-2-inside-1_944_7)"/>
<path d="M87.1558 82.0388C86.8161 82.0388 86.5087 81.8079 86.4253 81.4627C86.3269 81.0585 86.5751 80.6513 86.9788 80.5518C98.2292 77.8088 113.193 57.7886 113.493 49.9349C113.635 46.1679 110.298 44.4564 107.618 43.0825C106.603 42.5608 105.727 42.1115 105.19 41.6016C104.116 40.5794 103.666 39.3728 103.23 38.2057C102.883 37.2815 102.557 36.4035 101.926 35.5654C101.201 34.6016 100.124 34.8023 98.9902 35.119C98.4461 35.2682 97.772 35.4555 97.4316 34.8325C97.2933 34.5807 97.2638 34.2791 97.2197 33.8251C97.1565 33.2021 97.0724 32.3485 96.681 31.6715C96.4766 31.3155 95.8687 30.8194 95.0373 30.9282C94.6419 30.9751 94.291 31.0551 93.9085 31.1408C93.1095 31.3174 92.1147 31.5375 90.4153 31.5768C89.418 31.5584 88.0917 31.2208 87.2384 29.3464C86.9461 28.7044 86.7058 27.8461 86.453 26.9367C85.9509 25.1362 85.3271 22.8894 84.1377 22.0945C82.5428 21.0284 79.8281 22.0765 76.6847 23.289C71.1663 25.4195 63.6081 28.3329 56.9067 21.0464C53.5194 17.3684 49.0037 14.4261 43.4842 12.2938C36.7692 9.70745 29.7124 12.0451 29.6413 12.0707C29.2466 12.2033 28.8214 11.9907 28.6892 11.5987C28.5552 11.202 28.7668 10.7754 29.1604 10.6428C29.4678 10.5354 36.808 8.10477 44.024 10.8856C49.7597 13.1005 54.4664 16.1743 58.0107 20.0238C64.0229 26.558 70.4635 24.0741 76.1442 21.8801C79.6762 20.52 82.7252 19.3407 84.9709 20.8367C86.625 21.9418 87.3038 24.3803 87.901 26.5325C88.1377 27.3813 88.361 28.1823 88.6052 28.7174C89.1644 29.9449 89.8755 30.0836 90.3851 30.0671C91.934 30.0321 92.811 29.8376 93.5835 29.6675C94.0155 29.571 94.4124 29.4852 94.8556 29.4326C96.3197 29.2452 97.4995 30.0765 97.9821 30.9145C98.5248 31.8557 98.6397 32.9142 98.7097 33.632C99.767 33.3383 101.781 32.8631 103.126 34.6578C103.888 35.6714 104.286 36.7371 104.637 37.6783C105.047 38.7761 105.4 39.7231 106.225 40.506C106.605 40.8663 107.429 41.29 108.302 41.7393C111.039 43.1431 115.173 45.2649 114.994 49.9926C114.642 59.2323 98.5923 79.2735 87.3329 82.018C87.2743 82.0327 87.2144 82.0388 87.1558 82.0388Z" stroke="#C08E71" stroke-width="2" mask="url(#path-2-inside-1_944_7)"/>
<path d="M41.2505 76.1997C41.0677 76.1997 40.8853 76.1334 40.7402 75.999C36.3204 71.9094 32.8372 68.0899 29.777 63.9791C24.1811 56.4468 22.575 47.4379 22.2127 41.2067C22.1893 40.7909 22.505 40.4346 22.9205 40.4091C23.3242 40.3759 23.6894 40.702 23.7142 41.1163C24.0644 47.1439 25.6086 55.8451 30.9815 63.0743C33.9846 67.1095 37.4092 70.8645 41.7597 74.8924C42.0643 75.1728 42.0837 75.6506 41.8028 75.9568C41.6552 76.1182 41.4527 76.1997 41.2505 76.1997Z" stroke="#C08E71" stroke-width="2" mask="url(#path-2-inside-1_944_7)"/>
<path d="M75.1321 106.672C75.0592 106.672 74.9849 106.66 74.9113 106.639C74.5144 106.515 74.291 106.092 74.4128 105.695C77.2424 96.4444 67.7416 85.0306 57.6817 72.9469C50.2574 64.0285 42.5814 54.8071 38.9836 45.5179C37.4264 41.4947 36.2621 37.1022 35.1352 32.8542C32.2431 21.9498 29.253 10.6727 19.3425 4.22032C18.9945 3.99405 18.8954 3.52495 19.1209 3.17797C19.3471 2.82667 19.8144 2.72721 20.1617 2.95493C30.5566 9.72587 33.6236 21.2875 36.5886 32.4694C37.7048 36.6767 38.8583 41.027 40.3853 44.9706C43.8925 54.0277 51.4889 63.154 58.8359 71.9801C69.1641 84.3849 78.9181 96.105 75.8504 106.138C75.752 106.461 75.4535 106.672 75.1321 106.672Z" stroke="#C08E71" stroke-width="2" mask="url(#path-2-inside-1_944_7)"/>
<path d="M64.4663 21.8488C64.1197 21.8488 63.8101 21.6088 63.7315 21.2575C62.3442 14.951 58.5805 9.85121 52.8484 6.51078C44.9178 1.89342 33.5101 0.869407 23.7891 3.89889C23.3909 4.02572 22.9707 3.79946 22.8482 3.40276C22.725 3.00318 22.9466 2.5809 23.3435 2.45875C33.4494 -0.692877 45.3279 0.386602 53.6037 5.20646C59.7089 8.762 63.72 14.2002 65.2007 20.9304C65.2901 21.3375 65.0341 21.7414 64.629 21.829C64.5729 21.8431 64.5198 21.8488 64.4663 21.8488Z" stroke="#C08E71" stroke-width="2" mask="url(#path-2-inside-1_944_7)"/>
<path d="M106.105 95.6589C106.004 95.6589 105.9 95.6377 105.8 95.5941C98.4102 92.3005 96.3969 89.1247 94.0996 81.2577C93.9832 80.8596 94.2116 80.4391 94.6099 80.3227C95.0068 80.2067 95.4269 80.4355 95.5426 80.8355C97.7279 88.3166 99.512 91.1396 106.411 94.2145C106.791 94.3849 106.962 94.8295 106.792 95.2111C106.668 95.4918 106.393 95.6589 106.105 95.6589Z" stroke="#C08E71" stroke-width="2" mask="url(#path-2-inside-1_944_7)"/>
<path d="M67.215 56.2375C66.9137 56.2375 66.6304 56.0566 66.5136 55.7597C66.3628 55.3706 66.5542 54.9346 66.9414 54.7822C73.6345 52.1569 78.273 46.5668 78.3186 46.5127C78.5833 46.1913 79.0552 46.1434 79.3769 46.4072C79.698 46.6723 79.7443 47.1476 79.48 47.4686C79.2825 47.7097 74.5574 53.4144 67.488 56.1859C67.3985 56.2209 67.3052 56.2375 67.215 56.2375Z" stroke="#C08E71" stroke-width="2" mask="url(#path-2-inside-1_944_7)"/>
<path d="M68.4781 54.9995L70.7452 57.2222L70.6709 57.3047L65.9573 56.6969C64.3822 56.7495 62.8074 56.8025 61.2326 56.8551C62.6393 56.1449 64.0461 55.4319 65.4538 54.7199L69.2987 51.9167L69.3992 51.9394L68.4781 54.9995Z" stroke="#C08E71" stroke-width="2" mask="url(#path-2-inside-1_944_7)"/>
<path d="M84.8457 64.9757C84.651 64.9757 84.4585 64.9033 84.3113 64.7527C84.019 64.4587 84.0211 63.9802 84.3156 63.6866C89.4224 58.6134 91.4688 51.6346 91.4881 51.5636C91.6038 51.164 92.024 50.933 92.4194 51.0476C92.8184 51.1622 93.0482 51.5802 92.9336 51.9812C92.8485 52.2813 90.7677 59.3989 85.374 64.7599C85.2281 64.9033 85.0374 64.9757 84.8457 64.9757Z" stroke="#C08E71" stroke-width="2" mask="url(#path-2-inside-1_944_7)"/>
<path d="M85.8129 63.2704L88.7732 64.4086L88.7369 64.5174L84.1698 65.8337C82.7448 66.5111 81.3216 67.188 79.8977 67.8622C80.9079 66.6497 81.9178 65.4359 82.9269 64.2249L85.3485 60.1188L85.4509 60.099L85.8129 63.2704Z" stroke="#C08E71" stroke-width="2" mask="url(#path-2-inside-1_944_7)"/>
</svg>
