<svg width="64" height="56" viewBox="0 0 64 56" fill="none" xmlns="http://www.w3.org/2000/svg">
<circle cx="27.6694" cy="27.6694" r="27.6694" fill="#EBD1B9"/>
<mask id="path-2-inside-1_60_122" fill="white">
<path d="M28.9798 35.6584C24.7551 35.6584 21.2225 34.531 17.5243 32.0019C13.3674 29.0995 9.58928 21.157 9.55244 21.0778C9.52697 21.0235 9.51423 20.9649 9.51423 20.9054C9.51423 20.7408 9.61475 20.5794 9.76798 20.5165C9.92061 20.4527 10.0977 20.4769 10.2149 20.594C10.2563 20.636 10.3203 20.6827 10.4052 20.7346L10.5331 20.8224C10.6201 20.8841 10.7016 20.9421 10.7771 20.9735C14.8824 23.5554 23.7907 26.2444 28.8182 26.4328C29.0527 26.4556 29.2592 26.4575 29.472 26.4552C29.6811 26.4556 29.8945 26.4556 30.1265 26.4345C35.1694 26.1519 44.6134 23.4537 48.4689 20.7073C48.5526 20.6389 48.649 20.5626 48.708 20.5046C48.8253 20.3873 49.0011 20.3539 49.1549 20.416C49.3083 20.4794 49.4083 20.628 49.4083 20.7936C49.4083 20.9187 49.371 21.0268 49.2972 21.1154C48.9327 21.8777 45.3337 29.2366 41.4225 31.9562C37.5354 34.6152 33.8746 35.7324 29.4634 35.6531C29.3127 35.6564 29.145 35.6584 28.9798 35.6584ZM10.963 22.0364C12.2153 24.387 15.0564 29.2803 17.9922 31.3306C21.6818 33.8534 25.1915 34.9238 29.4636 34.8359C29.638 34.8389 29.7942 34.8408 29.9499 34.8408C34.0202 34.8408 37.3116 33.7762 40.9554 31.2835C43.8964 29.2389 46.688 24.3741 47.9209 22.0255C43.4807 24.6171 34.9147 26.9844 30.1878 27.2495C29.6966 27.2948 29.232 27.2956 28.7617 27.2476C23.7764 27.0619 15.3733 24.5806 10.963 22.0364Z"/>
<path d="M29.4723 27.2724C29.2362 27.2724 28.9975 27.272 28.7618 27.248C23.5531 27.054 14.6148 24.3542 10.3956 21.6953C10.298 21.6586 10.1701 21.5682 10.0578 21.4885L9.96357 21.4233C9.85031 21.3546 9.74823 21.2799 9.66436 21.201C9.06772 20.7912 8.63116 20.3489 8.40152 19.9193C8.33392 19.793 8.33706 19.6411 8.41054 19.5189C8.48362 19.3955 8.61549 19.3199 8.75873 19.3182C8.8226 19.3402 8.91822 19.3473 8.97034 19.3697C10.3214 19.9436 12.5053 20.1043 14.8654 19.7678C16.285 19.5655 17.5148 19.2817 18.7029 19.0074C20.361 18.6246 21.7933 18.2937 23.2862 18.2937C23.9291 18.2937 24.5359 18.3558 25.1396 18.4829C26.5908 18.7693 27.3489 19.1136 27.9578 19.3898C28.4736 19.6235 28.8468 19.7929 29.4754 19.8302C30.0466 19.7838 30.4151 19.6163 30.9248 19.3838C31.533 19.1064 32.2893 18.7617 33.7644 18.4606C34.3653 18.3341 34.9727 18.2725 35.616 18.2725C37.1101 18.2725 38.5424 18.6041 40.2014 18.9877C41.3835 19.2618 42.6062 19.5444 44.0141 19.7459C44.8119 19.8513 45.5886 19.9048 46.3172 19.9048C48.7533 19.9048 49.9328 19.3055 49.9448 19.2998C50.1035 19.2165 50.302 19.2468 50.4292 19.3764C50.5555 19.5058 50.583 19.7018 50.4956 19.8591C50.2528 20.2954 49.837 20.7305 49.2232 21.1889C49.1838 21.218 49.1409 21.2397 49.0962 21.2531C49.0568 21.2857 49.0149 21.3193 48.9731 21.3529C44.9877 24.194 35.3231 26.9628 30.1886 27.2507C29.9431 27.272 29.7064 27.2724 29.4723 27.2724ZM10.1828 20.5652C10.1944 20.575 10.2054 20.5843 10.2154 20.5941C10.2567 20.636 10.3208 20.6827 10.4056 20.7346L10.5336 20.8225C10.6206 20.8842 10.7021 20.9422 10.7775 20.9736C14.8829 23.5554 23.7911 26.2444 28.8186 26.4328C29.0531 26.4556 29.2597 26.4576 29.4725 26.4552C29.6815 26.4556 29.8949 26.4556 30.1269 26.4346C35.1699 26.1519 44.6138 23.4537 48.4694 20.7073C48.5477 20.6431 48.6371 20.5732 48.6961 20.5166C48.0818 20.6318 47.291 20.7216 46.3172 20.7216C46.3175 20.7216 46.3168 20.7216 46.3172 20.7216C45.5526 20.7216 44.7394 20.6655 43.9018 20.5552C42.4548 20.3481 41.1586 20.0479 40.0151 19.7832C38.4062 19.4105 37.0162 19.0882 35.6158 19.0882C35.0303 19.0882 34.4792 19.145 33.9313 19.2602C32.5458 19.5429 31.8361 19.8663 31.2657 20.1264C30.7232 20.3735 30.2541 20.5871 29.4809 20.6452C28.6452 20.5996 28.1693 20.3829 27.6177 20.1334C27.0473 19.8743 26.3376 19.5521 24.9754 19.2833C24.4227 19.1673 23.8715 19.1109 23.286 19.1109C21.8874 19.1109 20.4974 19.4316 18.8881 19.8037C17.7383 20.0684 16.4361 20.369 14.9816 20.5761C13.214 20.8289 11.5534 20.8217 10.1828 20.5652Z"/>
<path d="M10.1922 21.492C10.1303 21.492 10.068 21.4786 10.0092 21.4495C9.90337 21.3968 9.79599 21.3204 9.69097 21.242C9.58712 21.165 9.51423 21.0344 9.51423 20.9054C9.51423 20.7408 9.61475 20.5794 9.76798 20.5165C9.92061 20.4527 10.0977 20.4769 10.2149 20.594C10.2476 20.627 10.2949 20.6639 10.355 20.7036C10.508 20.7627 10.6154 20.9103 10.6154 21.0834C10.6154 21.3107 10.4308 21.501 10.2008 21.492C10.1979 21.492 10.1951 21.492 10.1922 21.492Z"/>
<path d="M48.7085 21.4475C48.5733 21.4475 48.4413 21.3813 48.3633 21.2607C48.25 21.085 48.2874 20.8523 48.4511 20.7211L48.4571 20.7158C48.5528 20.6389 48.6488 20.5626 48.708 20.5046C48.8253 20.3873 49.0011 20.3539 49.1549 20.416C49.3083 20.4794 49.4083 20.628 49.4083 20.7936C49.4083 20.9325 49.3626 21.0501 49.2722 21.1436C49.2572 21.1592 49.219 21.1955 49.2017 21.2089C49.0894 21.2931 49.004 21.3481 48.8929 21.4042C48.8341 21.4334 48.771 21.4475 48.7085 21.4475Z"/>
<path d="M43.9991 40.3386C43.9023 40.3386 43.8084 40.3047 43.7338 40.2422L41.5853 38.4309C41.502 38.3616 41.4506 38.2614 41.4408 38.1531C41.4318 38.0447 41.4671 37.9378 41.5369 37.855L43.2122 35.8824C43.3581 35.7104 43.6164 35.6876 43.7904 35.8342L45.9389 37.6455C46.1119 37.791 46.1337 38.049 45.9869 38.2216L44.3124 40.1946C44.2426 40.2772 44.1421 40.3287 44.0336 40.3375C44.022 40.3386 44.0108 40.3386 43.9991 40.3386ZM42.428 38.0709L43.9509 39.354L45.0953 38.0055L43.5733 36.722L42.428 38.0709Z"/>
<path d="M57.4928 55.3391C57.3989 55.3391 57.3051 55.3077 57.2279 55.2423L41.9376 42.3565C41.8553 42.2874 41.8032 42.1874 41.7942 42.0791C41.7852 41.9713 41.8197 41.8641 41.8898 41.7814L47.1575 35.5782C47.3031 35.4058 47.5611 35.3834 47.7353 35.5304L63.025 48.415C63.1976 48.5608 63.219 48.8185 63.0726 48.9909C62.9259 49.1628 62.6684 49.1853 62.4944 49.0387L47.5184 36.418L42.7813 41.9969L57.7583 54.6184C57.9309 54.7642 57.9527 55.0221 57.8063 55.194C57.7252 55.2901 57.6092 55.3391 57.4928 55.3391Z"/>
<path d="M42.5496 37.426C42.4559 37.426 42.3621 37.3946 42.2847 37.3292L33.2347 29.702C33.0617 29.5569 33.0404 29.2988 33.1867 29.1265C33.3323 28.9541 33.5906 28.932 33.7648 29.0783L42.8151 36.7049C42.9877 36.8507 43.0091 37.109 42.8627 37.281C42.7816 37.3766 42.6664 37.426 42.5496 37.426Z"/>
<path d="M45.4538 45.1928C45.3603 45.1928 45.2665 45.1617 45.1889 45.0963C45.0163 44.9509 44.9945 44.6924 45.1413 44.5204L47.9375 41.2267C48.0835 41.0539 48.3418 41.0315 48.5158 41.1785C48.6884 41.3239 48.7102 41.582 48.5638 41.7541L45.7671 45.0487C45.6862 45.1438 45.5708 45.1928 45.4538 45.1928Z"/>
<path d="M49.2005 48.3505C49.1071 48.3505 49.0128 48.3187 48.9356 48.2533C48.763 48.1078 48.7413 47.8498 48.8872 47.6774L51.6845 44.384C51.8305 44.2116 52.0879 44.1896 52.2623 44.3362C52.4349 44.482 52.4567 44.7393 52.3107 44.9117L49.5139 48.2058C49.4327 48.3011 49.3171 48.3505 49.2005 48.3505Z"/>
<path d="M52.9471 51.5079C52.8536 51.5079 52.7594 51.4769 52.6822 51.4115C52.51 51.2657 52.4882 51.0076 52.6346 50.836L55.4303 47.5415C55.5762 47.3695 55.8345 47.3463 56.0081 47.4937C56.1811 47.6391 56.2033 47.8968 56.0569 48.0693L53.2604 51.3639C53.1797 51.4588 53.0639 51.5079 52.9471 51.5079Z"/>
</mask>
<path d="M28.9798 35.6584C24.7551 35.6584 21.2225 34.531 17.5243 32.0019C13.3674 29.0995 9.58928 21.157 9.55244 21.0778C9.52697 21.0235 9.51423 20.9649 9.51423 20.9054C9.51423 20.7408 9.61475 20.5794 9.76798 20.5165C9.92061 20.4527 10.0977 20.4769 10.2149 20.594C10.2563 20.636 10.3203 20.6827 10.4052 20.7346L10.5331 20.8224C10.6201 20.8841 10.7016 20.9421 10.7771 20.9735C14.8824 23.5554 23.7907 26.2444 28.8182 26.4328C29.0527 26.4556 29.2592 26.4575 29.472 26.4552C29.6811 26.4556 29.8945 26.4556 30.1265 26.4345C35.1694 26.1519 44.6134 23.4537 48.4689 20.7073C48.5526 20.6389 48.649 20.5626 48.708 20.5046C48.8253 20.3873 49.0011 20.3539 49.1549 20.416C49.3083 20.4794 49.4083 20.628 49.4083 20.7936C49.4083 20.9187 49.371 21.0268 49.2972 21.1154C48.9327 21.8777 45.3337 29.2366 41.4225 31.9562C37.5354 34.6152 33.8746 35.7324 29.4634 35.6531C29.3127 35.6564 29.145 35.6584 28.9798 35.6584ZM10.963 22.0364C12.2153 24.387 15.0564 29.2803 17.9922 31.3306C21.6818 33.8534 25.1915 34.9238 29.4636 34.8359C29.638 34.8389 29.7942 34.8408 29.9499 34.8408C34.0202 34.8408 37.3116 33.7762 40.9554 31.2835C43.8964 29.2389 46.688 24.3741 47.9209 22.0255C43.4807 24.6171 34.9147 26.9844 30.1878 27.2495C29.6966 27.2948 29.232 27.2956 28.7617 27.2476C23.7764 27.0619 15.3733 24.5806 10.963 22.0364Z" fill="#C08E71"/>
<path d="M29.4723 27.2724C29.2362 27.2724 28.9975 27.272 28.7618 27.248C23.5531 27.054 14.6148 24.3542 10.3956 21.6953C10.298 21.6586 10.1701 21.5682 10.0578 21.4885L9.96357 21.4233C9.85031 21.3546 9.74823 21.2799 9.66436 21.201C9.06772 20.7912 8.63116 20.3489 8.40152 19.9193C8.33392 19.793 8.33706 19.6411 8.41054 19.5189C8.48362 19.3955 8.61549 19.3199 8.75873 19.3182C8.8226 19.3402 8.91822 19.3473 8.97034 19.3697C10.3214 19.9436 12.5053 20.1043 14.8654 19.7678C16.285 19.5655 17.5148 19.2817 18.7029 19.0074C20.361 18.6246 21.7933 18.2937 23.2862 18.2937C23.9291 18.2937 24.5359 18.3558 25.1396 18.4829C26.5908 18.7693 27.3489 19.1136 27.9578 19.3898C28.4736 19.6235 28.8468 19.7929 29.4754 19.8302C30.0466 19.7838 30.4151 19.6163 30.9248 19.3838C31.533 19.1064 32.2893 18.7617 33.7644 18.4606C34.3653 18.3341 34.9727 18.2725 35.616 18.2725C37.1101 18.2725 38.5424 18.6041 40.2014 18.9877C41.3835 19.2618 42.6062 19.5444 44.0141 19.7459C44.8119 19.8513 45.5886 19.9048 46.3172 19.9048C48.7533 19.9048 49.9328 19.3055 49.9448 19.2998C50.1035 19.2165 50.302 19.2468 50.4292 19.3764C50.5555 19.5058 50.583 19.7018 50.4956 19.8591C50.2528 20.2954 49.837 20.7305 49.2232 21.1889C49.1838 21.218 49.1409 21.2397 49.0962 21.2531C49.0568 21.2857 49.0149 21.3193 48.9731 21.3529C44.9877 24.194 35.3231 26.9628 30.1886 27.2507C29.9431 27.272 29.7064 27.2724 29.4723 27.2724ZM10.1828 20.5652C10.1944 20.575 10.2054 20.5843 10.2154 20.5941C10.2567 20.636 10.3208 20.6827 10.4056 20.7346L10.5336 20.8225C10.6206 20.8842 10.7021 20.9422 10.7775 20.9736C14.8829 23.5554 23.7911 26.2444 28.8186 26.4328C29.0531 26.4556 29.2597 26.4576 29.4725 26.4552C29.6815 26.4556 29.8949 26.4556 30.1269 26.4346C35.1699 26.1519 44.6138 23.4537 48.4694 20.7073C48.5477 20.6431 48.6371 20.5732 48.6961 20.5166C48.0818 20.6318 47.291 20.7216 46.3172 20.7216C46.3175 20.7216 46.3168 20.7216 46.3172 20.7216C45.5526 20.7216 44.7394 20.6655 43.9018 20.5552C42.4548 20.3481 41.1586 20.0479 40.0151 19.7832C38.4062 19.4105 37.0162 19.0882 35.6158 19.0882C35.0303 19.0882 34.4792 19.145 33.9313 19.2602C32.5458 19.5429 31.8361 19.8663 31.2657 20.1264C30.7232 20.3735 30.2541 20.5871 29.4809 20.6452C28.6452 20.5996 28.1693 20.3829 27.6177 20.1334C27.0473 19.8743 26.3376 19.5521 24.9754 19.2833C24.4227 19.1673 23.8715 19.1109 23.286 19.1109C21.8874 19.1109 20.4974 19.4316 18.8881 19.8037C17.7383 20.0684 16.4361 20.369 14.9816 20.5761C13.214 20.8289 11.5534 20.8217 10.1828 20.5652Z" fill="#C08E71"/>
<path d="M10.1922 21.492C10.1303 21.492 10.068 21.4786 10.0092 21.4495C9.90337 21.3968 9.79599 21.3204 9.69097 21.242C9.58712 21.165 9.51423 21.0344 9.51423 20.9054C9.51423 20.7408 9.61475 20.5794 9.76798 20.5165C9.92061 20.4527 10.0977 20.4769 10.2149 20.594C10.2476 20.627 10.2949 20.6639 10.355 20.7036C10.508 20.7627 10.6154 20.9103 10.6154 21.0834C10.6154 21.3107 10.4308 21.501 10.2008 21.492C10.1979 21.492 10.1951 21.492 10.1922 21.492Z" fill="#C08E71"/>
<path d="M48.7085 21.4475C48.5733 21.4475 48.4413 21.3813 48.3633 21.2607C48.25 21.085 48.2874 20.8523 48.4511 20.7211L48.4571 20.7158C48.5528 20.6389 48.6488 20.5626 48.708 20.5046C48.8253 20.3873 49.0011 20.3539 49.1549 20.416C49.3083 20.4794 49.4083 20.628 49.4083 20.7936C49.4083 20.9325 49.3626 21.0501 49.2722 21.1436C49.2572 21.1592 49.219 21.1955 49.2017 21.2089C49.0894 21.2931 49.004 21.3481 48.8929 21.4042C48.8341 21.4334 48.771 21.4475 48.7085 21.4475Z" fill="#C08E71"/>
<path d="M43.9991 40.3386C43.9023 40.3386 43.8084 40.3047 43.7338 40.2422L41.5853 38.4309C41.502 38.3616 41.4506 38.2614 41.4408 38.1531C41.4318 38.0447 41.4671 37.9378 41.5369 37.855L43.2122 35.8824C43.3581 35.7104 43.6164 35.6876 43.7904 35.8342L45.9389 37.6455C46.1119 37.791 46.1337 38.049 45.9869 38.2216L44.3124 40.1946C44.2426 40.2772 44.1421 40.3287 44.0336 40.3375C44.022 40.3386 44.0108 40.3386 43.9991 40.3386ZM42.428 38.0709L43.9509 39.354L45.0953 38.0055L43.5733 36.722L42.428 38.0709Z" fill="#C08E71"/>
<path d="M57.4928 55.3391C57.3989 55.3391 57.3051 55.3077 57.2279 55.2423L41.9376 42.3565C41.8553 42.2874 41.8032 42.1874 41.7942 42.0791C41.7852 41.9713 41.8197 41.8641 41.8898 41.7814L47.1575 35.5782C47.3031 35.4058 47.5611 35.3834 47.7353 35.5304L63.025 48.415C63.1976 48.5608 63.219 48.8185 63.0726 48.9909C62.9259 49.1628 62.6684 49.1853 62.4944 49.0387L47.5184 36.418L42.7813 41.9969L57.7583 54.6184C57.9309 54.7642 57.9527 55.0221 57.8063 55.194C57.7252 55.2901 57.6092 55.3391 57.4928 55.3391Z" fill="#C08E71"/>
<path d="M42.5496 37.426C42.4559 37.426 42.3621 37.3946 42.2847 37.3292L33.2347 29.702C33.0617 29.5569 33.0404 29.2988 33.1867 29.1265C33.3323 28.9541 33.5906 28.932 33.7648 29.0783L42.8151 36.7049C42.9877 36.8507 43.0091 37.109 42.8627 37.281C42.7816 37.3766 42.6664 37.426 42.5496 37.426Z" fill="#C08E71"/>
<path d="M45.4538 45.1928C45.3603 45.1928 45.2665 45.1617 45.1889 45.0963C45.0163 44.9509 44.9945 44.6924 45.1413 44.5204L47.9375 41.2267C48.0835 41.0539 48.3418 41.0315 48.5158 41.1785C48.6884 41.3239 48.7102 41.582 48.5638 41.7541L45.7671 45.0487C45.6862 45.1438 45.5708 45.1928 45.4538 45.1928Z" fill="#C08E71"/>
<path d="M49.2005 48.3505C49.1071 48.3505 49.0128 48.3187 48.9356 48.2533C48.763 48.1078 48.7413 47.8498 48.8872 47.6774L51.6845 44.384C51.8305 44.2116 52.0879 44.1896 52.2623 44.3362C52.4349 44.482 52.4567 44.7393 52.3107 44.9117L49.5139 48.2058C49.4327 48.3011 49.3171 48.3505 49.2005 48.3505Z" fill="#C08E71"/>
<path d="M52.9471 51.5079C52.8536 51.5079 52.7594 51.4769 52.6822 51.4115C52.51 51.2657 52.4882 51.0076 52.6346 50.836L55.4303 47.5415C55.5762 47.3695 55.8345 47.3463 56.0081 47.4937C56.1811 47.6391 56.2033 47.8968 56.0569 48.0693L53.2604 51.3639C53.1797 51.4588 53.0639 51.5079 52.9471 51.5079Z" fill="#C08E71"/>
<path d="M9.76798 20.5165L9.86705 20.758L9.86869 20.7574L9.76798 20.5165ZM49.1549 20.416L49.2547 20.1748L49.2526 20.1739L49.1549 20.416ZM9.77526 20.9054C9.77526 20.8388 9.81898 20.7778 9.86705 20.758L9.6689 20.275C9.41052 20.381 9.2532 20.6429 9.2532 20.9054H9.77526ZM9.86869 20.7574C9.93672 20.7289 9.99763 20.7459 10.0304 20.7786L10.3995 20.4094C10.1979 20.2079 9.90451 20.1765 9.66726 20.2757L9.86869 20.7574ZM48.8925 20.6892C48.9337 20.6481 48.9976 20.634 49.0572 20.6581L49.2526 20.1739C49.0046 20.0738 48.717 20.1265 48.5234 20.32L48.8925 20.6892ZM49.0552 20.6572C49.1117 20.6806 49.1472 20.7345 49.1472 20.7936H49.6693C49.6693 20.5215 49.5049 20.2783 49.2547 20.1748L49.0552 20.6572ZM17.5243 32.0019L17.2254 32.43L17.2296 32.4328L17.5243 32.0019ZM9.55244 21.0778L10.0259 20.8577L10.025 20.8559L9.55244 21.0778ZM10.2149 20.594L10.5856 20.2264L9.84299 20.9604L10.2149 20.594ZM10.4052 20.7346L10.7006 20.3042L10.6894 20.2965L10.6777 20.2893L10.4052 20.7346ZM10.5331 20.8224L10.8351 20.3965L10.8286 20.392L10.5331 20.8224ZM10.7771 20.9735L11.055 20.5316L11.0181 20.5084L10.9778 20.4916L10.7771 20.9735ZM28.8182 26.4328L28.8688 25.9132L28.8533 25.9116L28.8377 25.9111L28.8182 26.4328ZM29.472 26.4552L29.473 25.9331L29.4663 25.9332L29.472 26.4552ZM30.1265 26.4345L30.0973 25.9133L30.0882 25.9138L30.0792 25.9146L30.1265 26.4345ZM48.4689 20.7073L48.7718 21.1325L48.7858 21.1225L48.7991 21.1116L48.4689 20.7073ZM48.708 20.5046L49.074 20.8769L48.3426 20.1317L48.708 20.5046ZM49.2972 21.1154L48.8961 20.7812L48.8543 20.8313L48.8262 20.8903L49.2972 21.1154ZM41.4225 31.9562L41.7172 32.3871L41.7205 32.3848L41.4225 31.9562ZM29.4634 35.6531L29.4728 35.1311L29.4623 35.1309L29.4519 35.1312L29.4634 35.6531ZM10.963 22.0364L11.2239 21.5842L9.64546 20.6737L10.5023 22.2819L10.963 22.0364ZM17.9922 31.3306L17.6933 31.7586L17.6975 31.7615L17.9922 31.3306ZM29.4636 34.8359L29.4724 34.314L29.4626 34.3138L29.4529 34.314L29.4636 34.8359ZM40.9554 31.2835L41.2501 31.7144L41.2534 31.7122L40.9554 31.2835ZM47.9209 22.0255L48.3831 22.2682L49.2285 20.6578L47.6577 21.5746L47.9209 22.0255ZM30.1878 27.2495L30.1586 26.7283L30.1492 26.7288L30.1399 26.7296L30.1878 27.2495ZM28.7617 27.2476L28.8148 26.7282L28.798 26.7265L28.7812 26.7259L28.7617 27.2476ZM28.7618 27.248L28.8147 26.7286L28.798 26.7269L28.7812 26.7263L28.7618 27.248ZM10.3956 21.6953L10.674 21.2536L10.6291 21.2253L10.5794 21.2066L10.3956 21.6953ZM10.0578 21.4885L10.3599 21.0627L10.3548 21.0592L10.0578 21.4885ZM9.96357 21.4233L10.2606 20.994L10.2477 20.9851L10.2344 20.977L9.96357 21.4233ZM9.66436 21.201L10.022 20.8207L9.99288 20.7933L9.95991 20.7706L9.66436 21.201ZM8.40152 19.9193L8.86195 19.6732L8.8618 19.6729L8.40152 19.9193ZM8.41054 19.5189L8.85796 19.7879L8.8597 19.785L8.41054 19.5189ZM8.75873 19.3182L8.92914 18.8247L8.84322 18.795L8.75232 18.7962L8.75873 19.3182ZM8.97034 19.3697L8.76382 19.8492L8.76622 19.8502L8.97034 19.3697ZM14.8654 19.7678L14.7918 19.2509L14.7917 19.2509L14.8654 19.7678ZM18.7029 19.0074L18.8204 19.5161L18.8204 19.5161L18.7029 19.0074ZM25.1396 18.4829L25.0321 18.9938L25.0385 18.9951L25.1396 18.4829ZM27.9578 19.3898L27.7422 19.8653L27.7424 19.8654L27.9578 19.3898ZM29.4754 19.8302L29.4445 20.3514L29.4811 20.3536L29.5177 20.3506L29.4754 19.8302ZM30.9248 19.3838L30.7081 18.9088L30.7081 18.9088L30.9248 19.3838ZM33.7644 18.4606L33.8687 18.9722L33.8719 18.9715L33.7644 18.4606ZM40.2014 18.9877L40.3193 18.4791L40.319 18.4791L40.2014 18.9877ZM44.0141 19.7459L43.9401 20.2627L43.9457 20.2635L44.0141 19.7459ZM49.9448 19.2998L50.1683 19.7717L50.178 19.767L50.1875 19.762L49.9448 19.2998ZM50.4292 19.3764L50.8027 19.0116L50.8018 19.0108L50.4292 19.3764ZM50.4956 19.8591L50.9518 20.113L50.952 20.1126L50.4956 19.8591ZM49.2232 21.1889L49.5333 21.6088L49.5355 21.6072L49.2232 21.1889ZM49.0962 21.2531L48.9455 20.7533L48.8445 20.7837L48.7633 20.851L49.0962 21.2531ZM48.9731 21.3529L49.2762 21.778L49.2885 21.7692L49.3004 21.7596L48.9731 21.3529ZM30.1886 27.2507L30.1594 26.7295L30.1515 26.7299L30.1435 26.7306L30.1886 27.2507ZM10.1828 20.5652L10.2789 20.052L8.33486 19.6882L9.84603 20.9641L10.1828 20.5652ZM10.2154 20.5941L10.5873 20.2276L10.5801 20.2206L10.2154 20.5941ZM10.4056 20.7346L10.7011 20.3042L10.6898 20.2965L10.6781 20.2894L10.4056 20.7346ZM10.5336 20.8225L10.8356 20.3966L10.829 20.3921L10.5336 20.8225ZM10.7775 20.9736L11.0554 20.5316L11.0185 20.5084L10.9783 20.4917L10.7775 20.9736ZM28.8186 26.4328L28.8692 25.9132L28.8537 25.9117L28.8382 25.9111L28.8186 26.4328ZM29.4725 26.4552L29.4734 25.9331L29.4667 25.9332L29.4725 26.4552ZM30.1269 26.4346L30.0977 25.9133L30.0887 25.9138L30.0797 25.9146L30.1269 26.4346ZM48.4694 20.7073L48.7723 21.1325L48.7866 21.1223L48.8003 21.1111L48.4694 20.7073ZM48.6961 20.5166L49.0576 20.8932L50.3207 19.6808L48.5999 20.0035L48.6961 20.5166ZM43.9018 20.5552L43.8278 21.0721L43.8336 21.0728L43.9018 20.5552ZM40.0151 19.7832L39.8973 20.2918L39.8973 20.2918L40.0151 19.7832ZM33.9313 19.2602L34.0357 19.7717L34.0387 19.7711L33.9313 19.2602ZM31.2657 20.1264L31.4821 20.6015L31.4823 20.6014L31.2657 20.1264ZM29.4809 20.6452L29.4524 21.1665L29.4862 21.1684L29.5201 21.1658L29.4809 20.6452ZM27.6177 20.1334L27.4018 20.6087L27.4025 20.6091L27.6177 20.1334ZM24.9754 19.2833L24.8682 19.7942L24.8743 19.7954L24.9754 19.2833ZM18.8881 19.8037L19.0052 20.3124L19.0057 20.3123L18.8881 19.8037ZM14.9816 20.5761L14.908 20.0593L14.9077 20.0593L14.9816 20.5761ZM10.0092 21.4495L9.7764 21.9168L9.77765 21.9174L10.0092 21.4495ZM9.69097 21.242L10.0035 20.8237L10.0017 20.8224L9.69097 21.242ZM10.355 20.7036L10.0678 21.1395L10.1146 21.1703L10.1668 21.1905L10.355 20.7036ZM10.2008 21.492L10.2212 20.9704L10.211 20.97H10.2008V21.492ZM48.3633 21.2607L47.9245 21.5435L47.9248 21.5441L48.3633 21.2607ZM48.4511 20.7211L48.7776 21.1284L48.7854 21.1222L48.793 21.1156L48.4511 20.7211ZM48.4571 20.7158L48.1299 20.3091L48.1225 20.3151L48.1152 20.3213L48.4571 20.7158ZM49.2722 21.1436L49.6477 21.5063L49.6477 21.5063L49.2722 21.1436ZM49.2017 21.2089L49.5148 21.6268L49.5231 21.6204L49.2017 21.2089ZM48.8929 21.4042L49.1257 21.8715L49.128 21.8703L48.8929 21.4042ZM43.7338 40.2422L43.3972 40.6414L43.3987 40.6426L43.7338 40.2422ZM41.5853 38.4309L41.9218 38.0317L41.9192 38.0296L41.5853 38.4309ZM41.4408 38.1531L40.9206 38.1964L40.9209 38.2001L41.4408 38.1531ZM41.5369 37.855L41.1389 37.517L41.1377 37.5186L41.5369 37.855ZM43.2122 35.8824L43.6101 36.2203L43.6102 36.2202L43.2122 35.8824ZM43.7904 35.8342L44.1269 35.435L44.1268 35.4349L43.7904 35.8342ZM45.9389 37.6455L45.6024 38.0447L45.603 38.0452L45.9389 37.6455ZM45.9869 38.2216L45.5892 37.8834L45.5889 37.8838L45.9869 38.2216ZM44.3124 40.1946L43.9143 39.8568L43.9136 39.8577L44.3124 40.1946ZM44.0336 40.3375L43.9914 39.817L43.9809 39.8181L44.0336 40.3375ZM42.428 38.0709L42.03 37.733L41.6909 38.1325L42.0916 38.4701L42.428 38.0709ZM43.9509 39.354L43.6145 39.7532L44.0123 40.0884L44.3489 39.6918L43.9509 39.354ZM45.0953 38.0055L45.4934 38.3433L45.8323 37.944L45.4319 37.6064L45.0953 38.0055ZM43.5733 36.722L43.9098 36.3229L43.5121 35.9875L43.1753 36.3841L43.5733 36.722ZM57.2279 55.2423L57.5653 54.8439L57.5643 54.843L57.2279 55.2423ZM41.9376 42.3565L42.2741 41.9573L42.2733 41.9567L41.9376 42.3565ZM41.7942 42.0791L42.3145 42.0358L42.3144 42.0356L41.7942 42.0791ZM41.8898 41.7814L41.4919 41.4434L41.4915 41.4438L41.8898 41.7814ZM47.1575 35.5782L47.5554 35.9161L47.5563 35.9151L47.1575 35.5782ZM47.7353 35.5304L47.3986 35.9294L47.3989 35.9296L47.7353 35.5304ZM63.025 48.415L63.3619 48.0162L63.3614 48.0158L63.025 48.415ZM63.0726 48.9909L63.4698 49.3297L63.4706 49.3288L63.0726 48.9909ZM62.4944 49.0387L62.158 49.4379L62.158 49.4379L62.4944 49.0387ZM47.5184 36.418L47.8548 36.0188L47.4571 35.6836L47.1205 36.0801L47.5184 36.418ZM42.7813 41.9969L42.3834 41.659L42.0442 42.0584L42.4449 42.3961L42.7813 41.9969ZM57.7583 54.6184L58.0952 54.2195L58.0947 54.2191L57.7583 54.6184ZM57.8063 55.194L57.4087 54.8557L57.4075 54.8572L57.8063 55.194ZM42.2847 37.3292L42.6216 36.9304L42.6211 36.93L42.2847 37.3292ZM33.2347 29.702L33.5712 29.3028L33.5701 29.3019L33.2347 29.702ZM33.1867 29.1265L33.5847 29.4644L33.5856 29.4633L33.1867 29.1265ZM33.7648 29.0783L34.1012 28.679L34.1004 28.6784L33.7648 29.0783ZM42.8151 36.7049L43.152 36.3061L43.1515 36.3057L42.8151 36.7049ZM42.8627 37.281L42.4651 36.9426L42.4646 36.9433L42.8627 37.281ZM45.1889 45.0963L45.5253 44.6971L45.5253 44.6971L45.1889 45.0963ZM45.1413 44.5204L45.5384 44.8593L45.5393 44.8583L45.1413 44.5204ZM47.9375 41.2267L48.3355 41.5646L48.3363 41.5636L47.9375 41.2267ZM48.5158 41.1785L48.1789 41.5773L48.1794 41.5777L48.5158 41.1785ZM48.5638 41.7541L48.166 41.416L48.1658 41.4163L48.5638 41.7541ZM45.7671 45.0487L46.1647 45.3871L46.1651 45.3865L45.7671 45.0487ZM48.9356 48.2533L49.2731 47.8549L49.272 47.854L48.9356 48.2533ZM48.8872 47.6774L48.4893 47.3394L48.4888 47.34L48.8872 47.6774ZM51.6845 44.384L52.0824 44.722L52.0829 44.7214L51.6845 44.384ZM52.2623 44.3362L52.5992 43.9374L52.5983 43.9366L52.2623 44.3362ZM52.3107 44.9117L52.7087 45.2496L52.7091 45.2491L52.3107 44.9117ZM49.5139 48.2058L49.9113 48.5443L49.9118 48.5437L49.5139 48.2058ZM52.6822 51.4115L53.0196 51.0132L53.0195 51.0131L52.6822 51.4115ZM52.6346 50.836L53.0318 51.1748L53.0326 51.1738L52.6346 50.836ZM55.4303 47.5415L55.0323 47.2037L55.0322 47.2037L55.4303 47.5415ZM56.0081 47.4937L55.6702 47.8917L55.6722 47.8933L56.0081 47.4937ZM56.0569 48.0693L56.4549 48.4072L56.455 48.407L56.0569 48.0693ZM53.2604 51.3639L53.658 51.7022L53.6584 51.7017L53.2604 51.3639ZM28.9798 35.1363C24.8668 35.1363 21.4359 34.0445 17.819 31.571L17.2296 32.4328C21.0091 35.0176 24.6435 36.1804 28.9798 36.1804V35.1363ZM17.8232 31.5739C15.8386 30.1882 13.9017 27.5578 12.4365 25.2052C11.7101 24.0388 11.1105 22.9588 10.6904 22.1656C10.4804 21.7692 10.3155 21.4449 10.2022 21.2178C10.1456 21.1043 10.1019 21.0152 10.072 20.9536C10.057 20.9227 10.0455 20.8988 10.0376 20.8823C10.0291 20.8646 10.0256 20.8571 10.0259 20.8577L9.07901 21.2978C9.10356 21.3506 10.0672 23.3759 11.5502 25.7572C13.0225 28.1212 15.0531 30.9132 17.2254 32.43L17.8232 31.5739ZM10.025 20.8559C10.0328 20.8725 10.0363 20.8899 10.0363 20.9054H8.99216C8.99216 21.04 9.02111 21.1745 9.07984 21.2996L10.025 20.8559ZM9.84299 20.9604C9.9294 21.0481 10.0366 21.1211 10.1326 21.1799L10.6777 20.2893C10.6441 20.2688 10.6199 20.2525 10.6032 20.2402C10.5857 20.2272 10.5823 20.223 10.5868 20.2277L9.84299 20.9604ZM10.1097 21.165L10.2377 21.2528L10.8286 20.392L10.7006 20.3042L10.1097 21.165ZM10.2312 21.2483C10.3015 21.2982 10.4353 21.3967 10.5763 21.4555L10.9778 20.4916C10.9805 20.4928 10.9705 20.4887 10.9416 20.4701C10.9129 20.4517 10.8811 20.4292 10.8351 20.3966L10.2312 21.2483ZM10.4991 21.4155C12.6092 22.7425 15.9136 24.0763 19.3007 25.1004C22.6893 26.1249 26.2214 26.8579 28.7986 26.9545L28.8377 25.9111C26.3874 25.8192 22.9518 25.1135 19.6029 24.101C16.2528 23.088 13.0503 21.7864 11.055 20.5316L10.4991 21.4155ZM28.7676 26.9524C29.0296 26.9779 29.2578 26.9797 29.4778 26.9772L29.4663 25.9332C29.2607 25.9354 29.0758 25.9333 28.8688 25.9132L28.7676 26.9524ZM29.471 26.9773C29.6787 26.9777 29.9146 26.978 30.1737 26.9544L30.0792 25.9146C29.8744 25.9332 29.6835 25.9335 29.473 25.9331L29.471 26.9773ZM30.1557 26.9558C32.7342 26.8112 36.3999 26.054 39.8945 24.9944C43.3805 23.9374 46.7725 22.5567 48.7718 21.1325L48.166 20.2821C46.3098 21.6043 43.0521 22.9459 39.5915 23.9952C36.1395 25.0419 32.5616 25.7751 30.0973 25.9133L30.1557 26.9558ZM48.7991 21.1116C48.8672 21.0561 48.9925 20.957 49.074 20.8769L48.342 20.1323C48.3054 20.1683 48.238 20.2218 48.1387 20.3029L48.7991 21.1116ZM48.8862 20.7936C48.8862 20.8039 48.8848 20.8041 48.8869 20.7979C48.8879 20.7951 48.8893 20.7918 48.8912 20.7885C48.8931 20.7851 48.8949 20.7827 48.8961 20.7812L49.6982 21.4497C49.8573 21.2588 49.9303 21.0293 49.9303 20.7936H48.8862ZM48.8262 20.8903C48.6486 21.2618 47.6675 23.2722 46.2482 25.5234C44.8183 27.7915 42.9874 30.2322 41.1244 31.5276L41.7205 32.3848C43.7687 30.9606 45.693 28.362 47.1315 26.0802C48.5806 23.7816 49.5813 21.7314 49.7682 21.3406L48.8262 20.8903ZM41.1277 31.5253C37.3252 34.1264 33.7699 35.2083 29.4728 35.1311L29.454 36.1751C33.9794 36.2564 37.7456 35.1039 41.7172 32.3871L41.1277 31.5253ZM29.4519 35.1312C29.305 35.1344 29.1411 35.1363 28.9798 35.1363V36.1804C29.1489 36.1804 29.3204 36.1784 29.4749 36.175L29.4519 35.1312ZM10.5023 22.2819C11.1336 23.467 12.1678 25.2976 13.4177 27.0942C14.6604 28.8804 16.1474 30.6789 17.6933 31.7586L18.2911 30.9025C16.9013 29.9319 15.4998 28.2586 14.2749 26.4979C13.0572 24.7477 12.0447 22.9564 11.4238 21.791L10.5023 22.2819ZM17.6975 31.7615C21.4728 34.343 25.0885 35.4481 29.4743 35.3579L29.4529 34.314C25.2945 34.3995 21.8908 33.3639 18.2869 30.8996L17.6975 31.7615ZM29.4548 35.3579C29.6304 35.3609 29.7899 35.3629 29.9499 35.3629V34.3188C29.7984 34.3188 29.6456 34.3169 29.4724 34.314L29.4548 35.3579ZM29.9499 35.3629C34.1345 35.3629 37.5274 34.2611 41.2501 31.7144L40.6606 30.8526C37.0959 33.2912 33.906 34.3188 29.9499 34.3188V35.3629ZM41.2534 31.7122C42.803 30.6349 44.2793 28.844 45.5082 27.0652C46.7443 25.2761 47.7614 23.4526 48.3831 22.2682L47.4586 21.7829C46.8475 22.947 45.8524 24.7302 44.6492 26.4717C43.4388 28.2237 42.0488 29.8876 40.6574 30.8549L41.2534 31.7122ZM47.6577 21.5746C45.4908 22.8394 42.2856 24.0649 39.0171 25.0084C35.7494 25.9516 32.4679 26.5988 30.1586 26.7283L30.217 27.7708C32.6346 27.6352 35.9995 26.9662 39.3066 26.0115C42.6128 25.0572 45.9108 23.8032 48.184 22.4764L47.6577 21.5746ZM30.1399 26.7296C29.6792 26.7721 29.2486 26.7725 28.8148 26.7282L28.7087 27.7669C29.2154 27.8187 29.714 27.8175 30.2357 27.7694L30.1399 26.7296ZM28.7812 26.7259C26.3491 26.6353 23.0484 25.981 19.7938 25.0255C16.5401 24.0703 13.3798 22.8279 11.2239 21.5842L10.7021 22.4887C12.9565 23.7891 16.2029 25.0595 19.4997 26.0274C22.7955 26.995 26.189 27.6742 28.7423 27.7693L28.7812 26.7259ZM29.4723 26.7503C29.2325 26.7503 29.0199 26.7495 28.8147 26.7286L28.7089 27.7674C28.9751 27.7945 29.2398 27.7945 29.4723 27.7945V26.7503ZM28.7812 26.7263C26.2395 26.6316 22.7506 25.9214 19.3587 24.8962C15.9654 23.8706 12.7266 22.5472 10.674 21.2536L10.1173 22.1369C12.2838 23.5023 15.6238 24.8582 19.0566 25.8957C22.4908 26.9337 26.0754 27.6704 28.7423 27.7697L28.7812 26.7263ZM10.5794 21.2066C10.5825 21.2078 10.5629 21.1997 10.513 21.1679C10.4673 21.1387 10.4176 21.1037 10.3599 21.0627L9.75575 21.9143C9.8452 21.9778 10.0362 22.1178 10.2118 22.1839L10.5794 21.2066ZM10.3548 21.0592L10.2606 20.994L9.66656 21.8527L9.7608 21.9179L10.3548 21.0592ZM10.2344 20.977C10.1442 20.9223 10.0732 20.8688 10.022 20.8207L9.30672 21.5813C9.42322 21.6909 9.55638 21.7869 9.69276 21.8697L10.2344 20.977ZM9.95991 20.7706C9.40088 20.3867 9.0375 20.0016 8.86195 19.6732L7.9411 20.1653C8.22483 20.6962 8.73457 21.1958 9.36882 21.6313L9.95991 20.7706ZM8.8618 19.6729C8.87983 19.7066 8.88042 19.7505 8.85795 19.7879L7.96313 19.2499C7.7937 19.5316 7.78801 19.8793 7.94124 20.1656L8.8618 19.6729ZM8.8597 19.785C8.83916 19.8196 8.80247 19.8398 8.76513 19.8402L8.75232 18.7962C8.42852 18.8001 8.12809 18.9714 7.96137 19.2528L8.8597 19.785ZM8.58832 19.8117C8.63177 19.8267 8.67196 19.8363 8.69963 19.8423C8.72717 19.8484 8.75552 19.8537 8.77117 19.8566C8.79099 19.8604 8.79847 19.862 8.80213 19.8629C8.80757 19.8642 8.79046 19.8607 8.76382 19.8492L9.17686 18.8902C9.12417 18.8676 9.07555 18.8547 9.04642 18.8477C9.01549 18.8403 8.9853 18.8345 8.96672 18.831C8.94396 18.8266 8.93318 18.8246 8.92319 18.8224C8.91334 18.8203 8.91763 18.8207 8.92914 18.8247L8.58832 19.8117ZM8.76622 19.8502C10.2409 20.4767 12.5332 20.6277 14.9391 20.2846L14.7917 19.2509C12.4774 19.5809 10.4018 19.4106 9.17446 18.8892L8.76622 19.8502ZM14.9391 20.2846C16.3836 20.0788 17.6335 19.7901 18.8204 19.5161L18.5855 18.4987C17.396 18.7733 16.1865 19.0522 14.7918 19.2509L14.9391 20.2846ZM18.8204 19.5161C20.4901 19.1306 21.8633 18.8158 23.2862 18.8158V17.7717C21.7234 17.7717 20.2319 18.1186 18.5855 18.4987L18.8204 19.5161ZM23.2862 18.8158C23.8943 18.8158 24.4651 18.8744 25.0321 18.9938L25.2472 17.972C24.6068 17.8372 23.9638 17.7717 23.2862 17.7717V18.8158ZM25.0385 18.9951C26.4342 19.2705 27.1512 19.5972 27.7422 19.8653L28.1735 18.9144C27.5465 18.63 26.7473 18.268 25.2407 17.9707L25.0385 18.9951ZM27.7424 19.8654C28.263 20.1013 28.7122 20.3079 29.4445 20.3514L29.5063 19.3091C28.9815 19.2779 28.6841 19.1458 28.1733 18.9143L27.7424 19.8654ZM29.5177 20.3506C30.1891 20.296 30.6317 20.0913 31.1415 19.8588L30.7081 18.9088C30.1986 19.1413 29.9041 19.2716 29.4331 19.3099L29.5177 20.3506ZM31.1414 19.8588C31.7309 19.5899 32.4473 19.2622 33.8687 18.9722L33.66 17.9491C32.1313 18.2611 31.3351 18.6229 30.7081 18.9088L31.1414 19.8588ZM33.8719 18.9715C34.4358 18.8528 35.0071 18.7945 35.616 18.7945V17.7504C34.9383 17.7504 34.2948 17.8155 33.6568 17.9498L33.8719 18.9715ZM35.616 18.7945C37.04 18.7945 38.4131 19.11 40.0838 19.4963L40.319 18.4791C38.6717 18.0982 37.1801 17.7504 35.616 17.7504V18.7945ZM40.0835 19.4963C41.2645 19.7701 42.5074 20.0577 43.9401 20.2627L44.088 19.2291C42.7051 19.0312 41.5025 18.7534 40.3193 18.4791L40.0835 19.4963ZM43.9457 20.2635C44.764 20.3716 45.5636 20.4269 46.3172 20.4269V19.3827C45.6137 19.3827 44.8599 19.331 44.0824 19.2283L43.9457 20.2635ZM46.3172 20.4269C47.5785 20.4269 48.525 20.2716 49.1669 20.1109C49.4877 20.0305 49.7318 19.9489 49.9006 19.8849C49.9849 19.8529 50.0504 19.8254 50.0971 19.8047C50.1431 19.7843 50.1762 19.7679 50.1683 19.7717L49.7213 18.828C49.7195 18.8289 49.6597 18.8596 49.5305 18.9086C49.3986 18.9586 49.1933 19.0278 48.9132 19.098C48.3532 19.2383 47.4919 19.3827 46.3172 19.3827V20.4269ZM50.1875 19.762C50.1427 19.7856 50.091 19.7771 50.0565 19.742L50.8018 19.0108C50.513 18.7164 50.0644 18.6474 49.7021 18.8376L50.1875 19.762ZM50.0556 19.7411C50.0233 19.708 50.0128 19.6532 50.0392 19.6056L50.952 20.1126C51.1532 19.7504 51.0878 19.3036 50.8027 19.0116L50.0556 19.7411ZM50.0394 19.6053C49.8463 19.9524 49.4938 20.3353 48.9108 20.7706L49.5355 21.6072C50.1803 21.1257 50.6594 20.6384 50.9518 20.113L50.0394 19.6053ZM48.913 20.7689C48.9196 20.7641 48.9303 20.7579 48.9455 20.7533L49.2469 21.753C49.3515 21.7214 49.4479 21.6719 49.5333 21.6088L48.913 20.7689ZM48.7633 20.851C48.7275 20.8806 48.6892 20.9112 48.6459 20.9461L49.3004 21.7596C49.3405 21.7273 49.3861 21.6908 49.4291 21.6553L48.7633 20.851ZM48.6701 20.9278C46.7485 22.2976 43.4026 23.6805 39.8596 24.7598C36.3248 25.8367 32.6691 26.5888 30.1594 26.7295L30.2179 27.772C32.8425 27.6248 36.5864 26.8485 40.1639 25.7586C43.7332 24.6713 47.2123 23.2492 49.2762 21.778L48.6701 20.9278ZM30.1435 26.7306C29.9237 26.7497 29.7086 26.7503 29.4723 26.7503V27.7945C29.7042 27.7945 29.9625 27.7944 30.2337 27.7709L30.1435 26.7306ZM9.84603 20.9641C9.85163 20.9688 9.8538 20.9707 9.855 20.9718C9.85598 20.9726 9.85406 20.971 9.85057 20.9676L10.5801 20.2206C10.5548 20.1959 10.5302 20.1752 10.5196 20.1663L9.84603 20.9641ZM9.84343 20.9604C9.92984 21.0482 10.0371 21.1212 10.1331 21.1799L10.6781 20.2894C10.6446 20.2688 10.6204 20.2525 10.6037 20.2402C10.5861 20.2273 10.5827 20.2231 10.5873 20.2277L9.84343 20.9604ZM10.1101 21.1651L10.2381 21.2529L10.829 20.3921L10.7011 20.3042L10.1101 21.1651ZM10.2316 21.2484C10.302 21.2982 10.4358 21.3968 10.5767 21.4555L10.9783 20.4917C10.981 20.4928 10.9709 20.4887 10.9421 20.4701C10.9134 20.4517 10.8815 20.4292 10.8355 20.3966L10.2316 21.2484ZM10.4996 21.4155C12.6097 22.7425 15.914 24.0763 19.3012 25.1005C22.6897 26.125 26.2219 26.8579 28.7991 26.9545L28.8382 25.9111C26.3879 25.8193 22.9522 25.1135 19.6034 24.101C16.2532 23.0881 13.0507 21.7865 11.0554 20.5316L10.4996 21.4155ZM28.768 26.9524C29.0301 26.9779 29.2582 26.9797 29.4782 26.9773L29.4667 25.9332C29.2611 25.9355 29.0762 25.9334 28.8692 25.9132L28.768 26.9524ZM29.4715 26.9773C29.6791 26.9777 29.915 26.978 30.1742 26.9545L30.0797 25.9146C29.8748 25.9333 29.6839 25.9336 29.4734 25.9332L29.4715 26.9773ZM30.1561 26.9558C32.7347 26.8113 36.4003 26.0541 39.8949 24.9944C43.3809 23.9374 46.7729 22.5567 48.7723 21.1325L48.1665 20.2821C46.3103 21.6043 43.0525 22.9459 39.5919 23.9952C36.1399 25.042 32.5621 25.7752 30.0977 25.9133L30.1561 26.9558ZM48.8003 21.1111C48.8608 21.0615 48.979 20.9687 49.0576 20.8932L48.3346 20.1399C48.2952 20.1777 48.2347 20.2247 48.1385 20.3035L48.8003 21.1111ZM48.5999 20.0035C48.0173 20.1127 47.2587 20.1995 46.3172 20.1995V21.2436C47.3233 21.2436 48.1463 21.1508 48.7923 21.0297L48.5999 20.0035ZM46.3172 20.1995C46.3172 20.1995 46.3172 20.1995 46.3171 20.1995H46.3171C46.3171 20.1995 46.3171 20.1995 46.3171 20.1995C46.3171 20.1995 46.3171 20.1995 46.3171 20.1995C46.3171 20.1995 46.3171 20.1995 46.3171 20.1995H46.3171H46.3171H46.3171H46.3171H46.3171H46.3171C46.3171 20.1995 46.3171 20.1995 46.3171 20.1995C46.3171 20.1995 46.3171 20.1995 46.3171 20.1995C46.3171 20.1995 46.3171 20.1995 46.3171 20.1995H46.3171C46.3171 20.1995 46.3171 20.1995 46.3171 20.1995C46.3171 20.1995 46.3171 20.1995 46.3171 20.1995H46.3171C46.3171 20.1995 46.3171 20.1995 46.3171 20.1995C46.3171 20.1995 46.3171 20.1995 46.3171 20.1995C46.3171 20.1995 46.3171 20.1995 46.3171 20.1995H46.3171C46.3171 20.1995 46.3171 20.1995 46.3171 20.1995C46.3171 20.1995 46.3171 20.1995 46.3171 20.1995C46.3171 20.1995 46.3171 20.1995 46.3171 20.1995C46.3171 20.1995 46.3171 20.1995 46.3171 20.1995C46.317 20.1995 46.317 20.1995 46.317 20.1995H46.317H46.317H46.317C46.317 20.7216 46.317 21.2436 46.317 21.2436C46.317 21.2436 46.317 21.2436 46.317 21.2436C46.317 21.2436 46.317 21.2436 46.317 21.2436H46.317C46.317 21.2436 46.317 21.2436 46.3171 21.2436C46.3171 21.2436 46.3171 21.2436 46.3171 21.2436C46.3171 21.2436 46.3171 21.2436 46.3171 21.2436H46.3171H46.3171C46.3171 21.2436 46.3171 21.2436 46.3171 21.2436C46.3171 21.2436 46.3171 21.2436 46.3171 21.2436C46.3171 21.2436 46.3171 21.2436 46.3171 21.2436C46.3171 21.2436 46.3171 21.2436 46.3171 21.2436H46.3171H46.3171C46.3171 21.2436 46.3171 21.2436 46.3171 21.2436C46.3171 21.2436 46.3171 21.2436 46.3171 21.2436C46.3171 21.2436 46.3171 21.2436 46.3171 21.2436H46.3171C46.3171 21.2436 46.3171 21.2436 46.3171 21.2436H46.3171C46.3171 21.2436 46.3171 21.2436 46.3171 21.2436H46.3171C46.3171 21.2436 46.3171 21.2436 46.3171 21.2436H46.3171C46.3171 21.2436 46.3171 21.2436 46.3171 21.2436C46.3171 21.2436 46.3171 21.2436 46.3171 21.2436H46.3171C46.3171 21.2436 46.3171 21.2436 46.3171 21.2436C46.3171 21.2436 46.3171 21.2436 46.3171 21.2436H46.3172C46.3172 21.2436 46.3172 21.2436 46.3172 21.2436C46.3172 21.2436 46.3172 21.2436 46.3172 21.2436H46.3172C46.3172 21.2436 46.3172 21.2436 46.3172 21.2436C46.3172 21.2436 46.3172 21.2436 46.3172 21.2436H46.3172C46.3172 21.2436 46.3172 21.2436 46.3172 21.2436C46.3172 21.2436 46.3172 21.2436 46.3172 21.2436C46.3172 21.2436 46.3172 21.2436 46.3172 21.2436C46.3172 21.2436 46.3172 21.2436 46.3172 21.2436C46.3172 21.2436 46.3172 21.2436 46.3172 21.2436C46.3172 21.2436 46.3172 21.2436 46.3172 21.2436C46.3172 21.2436 46.3172 21.2436 46.3172 21.2436H46.3172C46.3172 21.2436 46.3172 21.2436 46.3172 21.2436C46.3172 21.2436 46.3172 21.2436 46.3172 21.2436C46.3172 21.2436 46.3172 21.2436 46.3172 21.2436C46.3172 21.2436 46.3172 21.2436 46.3172 21.2436C46.3172 21.2436 46.3172 21.2436 46.3172 21.2436C46.3172 21.2436 46.3172 21.2436 46.3172 21.2436H46.3172C46.3172 21.2436 46.3172 21.2436 46.3172 21.2436C46.3172 21.2436 46.3172 21.2436 46.3172 21.2436C46.3172 21.2436 46.3172 21.2436 46.3172 21.2436C46.3172 21.2436 46.3172 21.2436 46.3172 21.2436C46.3172 21.2436 46.3172 21.2436 46.3172 21.2436C46.3172 21.2436 46.3172 21.2436 46.3173 21.2436C46.3173 21.2436 46.3173 21.2436 46.3173 21.2436C46.3173 21.2436 46.3173 21.2436 46.3173 21.2436C46.3173 21.2436 46.3173 21.2436 46.3173 21.2436C46.3173 21.2436 46.3173 20.7216 46.3173 20.1995H46.3173C46.3173 20.1995 46.3173 20.1995 46.3173 20.1995C46.3173 20.1995 46.3173 20.1995 46.3173 20.1995H46.3172C46.3172 20.1995 46.3172 20.1995 46.3172 20.1995H46.3172C46.3172 20.1995 46.3172 20.1995 46.3172 20.1995H46.3172C46.3172 20.1995 46.3172 20.1995 46.3172 20.1995H46.3172H46.3172H46.3172H46.3172C46.3172 20.1995 46.3172 20.1995 46.3172 20.1995C46.3172 20.1995 46.3172 20.1995 46.3172 20.1995C46.3172 20.1995 46.3172 20.1995 46.3172 20.1995H46.3172C46.3172 20.1995 46.3172 20.1995 46.3172 20.1995C46.3172 20.1995 46.3172 20.1995 46.3172 20.1995C46.3172 20.1995 46.3172 20.1995 46.3172 20.1995H46.3172H46.3172H46.3172H46.3172C46.3172 20.1995 46.3172 20.1995 46.3172 20.1995C46.3172 20.1995 46.3172 20.1995 46.3172 20.1995C46.3172 20.1995 46.3172 20.1995 46.3172 20.1995C46.3172 20.1995 46.3172 20.1995 46.3172 20.1995H46.3172C46.3172 20.1995 46.3172 20.1995 46.3172 20.1995V21.2436C46.3172 21.2436 46.3172 21.2436 46.3172 21.2436H46.3172C46.3172 21.2436 46.3172 21.2436 46.3172 21.2436C46.3172 21.2436 46.3172 21.2436 46.3172 21.2436C46.3172 21.2436 46.3172 21.2436 46.3172 21.2436C46.3172 21.2436 46.3172 21.2436 46.3172 21.2436H46.3172H46.3172H46.3172H46.3172C46.3172 21.2436 46.3172 21.2436 46.3172 21.2436C46.3172 21.2436 46.3172 21.2436 46.3172 21.2436C46.3172 21.2436 46.3172 21.2436 46.3172 21.2436H46.3172C46.3172 21.2436 46.3172 21.2436 46.3172 21.2436C46.3172 21.2436 46.3172 21.2436 46.3172 21.2436C46.3172 21.2436 46.3172 21.2436 46.3172 21.2436H46.3172H46.3172H46.3172H46.3172C46.3172 21.2436 46.3172 21.2436 46.3172 21.2436H46.3172C46.3172 21.2436 46.3172 21.2436 46.3172 21.2436H46.3172C46.3172 21.2436 46.3172 21.2436 46.3172 21.2436H46.3173C46.3173 21.2436 46.3173 21.2436 46.3173 21.2436C46.3173 21.2436 46.3173 21.2436 46.3173 21.2436H46.3173C46.3173 20.7216 46.3173 20.1995 46.3173 20.1995C46.3173 20.1995 46.3173 20.1995 46.3173 20.1995C46.3173 20.1995 46.3173 20.1995 46.3173 20.1995C46.3173 20.1995 46.3173 20.1995 46.3173 20.1995C46.3172 20.1995 46.3172 20.1995 46.3172 20.1995C46.3172 20.1995 46.3172 20.1995 46.3172 20.1995C46.3172 20.1995 46.3172 20.1995 46.3172 20.1995C46.3172 20.1995 46.3172 20.1995 46.3172 20.1995C46.3172 20.1995 46.3172 20.1995 46.3172 20.1995C46.3172 20.1995 46.3172 20.1995 46.3172 20.1995H46.3172C46.3172 20.1995 46.3172 20.1995 46.3172 20.1995C46.3172 20.1995 46.3172 20.1995 46.3172 20.1995C46.3172 20.1995 46.3172 20.1995 46.3172 20.1995C46.3172 20.1995 46.3172 20.1995 46.3172 20.1995C46.3172 20.1995 46.3172 20.1995 46.3172 20.1995C46.3172 20.1995 46.3172 20.1995 46.3172 20.1995H46.3172C46.3172 20.1995 46.3172 20.1995 46.3172 20.1995C46.3172 20.1995 46.3172 20.1995 46.3172 20.1995C46.3172 20.1995 46.3172 20.1995 46.3172 20.1995C46.3172 20.1995 46.3172 20.1995 46.3172 20.1995C46.3172 20.1995 46.3172 20.1995 46.3172 20.1995C46.3172 20.1995 46.3172 20.1995 46.3172 20.1995C46.3172 20.1995 46.3172 20.1995 46.3172 20.1995H46.3172C46.3172 20.1995 46.3172 20.1995 46.3172 20.1995C46.3172 20.1995 46.3172 20.1995 46.3172 20.1995H46.3172C46.3172 20.1995 46.3172 20.1995 46.3172 20.1995C46.3172 20.1995 46.3172 20.1995 46.3172 20.1995H46.3171C46.3171 20.1995 46.3171 20.1995 46.3171 20.1995C46.3171 20.1995 46.3171 20.1995 46.3171 20.1995H46.3171C46.3171 20.1995 46.3171 20.1995 46.3171 20.1995C46.3171 20.1995 46.3171 20.1995 46.3171 20.1995H46.3171C46.3171 20.1995 46.3171 20.1995 46.3171 20.1995H46.3171C46.3171 20.1995 46.3171 20.1995 46.3171 20.1995H46.3171C46.3171 20.1995 46.3171 20.1995 46.3171 20.1995H46.3171C46.3171 20.1995 46.3171 20.1995 46.3171 20.1995C46.3171 20.1995 46.3171 20.1995 46.3171 20.1995C46.3171 20.1995 46.3171 20.1995 46.3171 20.1995H46.3171H46.3171C46.3171 20.1995 46.3171 20.1995 46.3171 20.1995C46.3171 20.1995 46.3171 20.1995 46.3171 20.1995C46.3171 20.1995 46.3171 20.1995 46.3171 20.1995C46.3171 20.1995 46.3171 20.1995 46.3171 20.1995H46.3171H46.3171C46.3171 20.1995 46.3171 20.1995 46.3171 20.1995C46.3171 20.1995 46.3171 20.1995 46.3171 20.1995C46.317 20.1995 46.317 20.1995 46.317 20.1995H46.317C46.317 20.1995 46.317 20.1995 46.317 20.1995C46.317 20.1995 46.317 20.1995 46.317 20.1995C46.317 20.1995 46.317 20.7216 46.317 21.2436H46.317H46.317H46.317C46.317 21.2436 46.317 21.2436 46.3171 21.2436C46.3171 21.2436 46.3171 21.2436 46.3171 21.2436C46.3171 21.2436 46.3171 21.2436 46.3171 21.2436C46.3171 21.2436 46.3171 21.2436 46.3171 21.2436C46.3171 21.2436 46.3171 21.2436 46.3171 21.2436H46.3171C46.3171 21.2436 46.3171 21.2436 46.3171 21.2436C46.3171 21.2436 46.3171 21.2436 46.3171 21.2436C46.3171 21.2436 46.3171 21.2436 46.3171 21.2436H46.3171C46.3171 21.2436 46.3171 21.2436 46.3171 21.2436C46.3171 21.2436 46.3171 21.2436 46.3171 21.2436H46.3171C46.3171 21.2436 46.3171 21.2436 46.3171 21.2436C46.3171 21.2436 46.3171 21.2436 46.3171 21.2436C46.3171 21.2436 46.3171 21.2436 46.3171 21.2436H46.3171H46.3171H46.3171H46.3171H46.3171H46.3171C46.3171 21.2436 46.3171 21.2436 46.3171 21.2436C46.3171 21.2436 46.3171 21.2436 46.3171 21.2436C46.3171 21.2436 46.3171 21.2436 46.3171 21.2436H46.3171C46.3172 21.2436 46.3172 21.2436 46.3172 21.2436V20.1995ZM46.3172 20.1995C45.5776 20.1995 44.7873 20.1453 43.9699 20.0376L43.8336 21.0728C44.6915 21.1858 45.5275 21.2436 46.3172 21.2436V20.1995ZM43.9757 20.0384C42.5537 19.8349 41.2778 19.5396 40.1328 19.2746L39.8973 20.2918C41.0394 20.5562 42.3558 20.8613 43.8278 21.072L43.9757 20.0384ZM40.1329 19.2746C38.5372 18.905 37.0869 18.5662 35.6158 18.5662V19.6103C36.9455 19.6103 38.2752 19.9161 39.8973 20.2918L40.1329 19.2746ZM35.6158 18.5662C34.9954 18.5662 34.4082 18.6265 33.8239 18.7493L34.0387 19.7711C34.5501 19.6636 35.0653 19.6103 35.6158 19.6103V18.5662ZM33.8269 18.7487C32.3879 19.0423 31.6383 19.3828 31.0492 19.6513L31.4823 20.6014C32.0339 20.3499 32.7037 20.0435 34.0357 19.7717L33.8269 18.7487ZM31.0493 19.6513C30.5151 19.8946 30.1171 20.0738 29.4417 20.1246L29.5201 21.1658C30.391 21.1003 30.9313 20.8524 31.4821 20.6015L31.0493 19.6513ZM29.5094 20.124C28.7749 20.0838 28.3724 19.9017 27.8328 19.6577L27.4025 20.6091C27.9662 20.864 28.5155 21.1153 29.4524 21.1665L29.5094 20.124ZM27.8336 19.658C27.2448 19.3907 26.4941 19.0508 25.0765 18.7711L24.8743 19.7954C26.1811 20.0533 26.8498 20.358 27.4018 20.6087L27.8336 19.658ZM25.0826 18.7723C24.4935 18.6487 23.9063 18.5888 23.286 18.5888V19.633C23.8366 19.633 24.3518 19.6859 24.8682 19.7942L25.0826 18.7723ZM23.286 18.5888C21.8169 18.5888 20.3669 18.9259 18.7705 19.295L19.0057 20.3123C20.6278 19.9373 21.9578 19.633 23.286 19.633V18.5888ZM18.771 19.2949C17.6195 19.56 16.3376 19.8557 14.908 20.0593L15.0552 21.093C16.5346 20.8823 17.8572 20.5768 19.0052 20.3124L18.771 19.2949ZM14.9077 20.0593C13.1828 20.306 11.5812 20.2958 10.2789 20.052L10.0868 21.0784C11.5257 21.3476 13.2453 21.3518 15.0555 21.0929L14.9077 20.0593ZM10.1922 20.97C10.2068 20.97 10.2242 20.9734 10.2407 20.9816L9.77765 21.9174C9.9117 21.9837 10.0537 22.0141 10.1922 22.0141V20.97ZM10.242 20.9822C10.1822 20.9524 10.1078 20.9017 10.0035 20.8237L9.37848 21.6602C9.48418 21.7392 9.6245 21.8411 9.7764 21.9168L10.242 20.9822ZM10.0017 20.8224C10.0146 20.832 10.0205 20.8404 10.0241 20.8472C10.0277 20.8539 10.0363 20.8729 10.0363 20.9054H8.99216C8.99216 21.2182 9.15892 21.4976 9.38025 21.6615L10.0017 20.8224ZM9.84425 20.9617C9.91224 21.0302 9.9921 21.0897 10.0678 21.1395L10.6422 20.2676C10.6216 20.254 10.6065 20.2431 10.5962 20.235C10.5855 20.2266 10.5829 20.2237 10.5856 20.2264L9.84425 20.9617ZM10.1668 21.1905C10.1249 21.1743 10.0934 21.1326 10.0934 21.0834H11.1375C11.1375 20.688 10.8912 20.3511 10.5432 20.2166L10.1668 21.1905ZM10.0934 21.0834C10.0934 21.0544 10.1052 21.0272 10.1253 21.0071C10.1467 20.9857 10.1817 20.9688 10.2212 20.9704L10.1804 22.0137C10.7257 22.035 11.1375 21.5875 11.1375 21.0834H10.0934ZM10.2008 20.97C10.1978 20.97 10.1952 20.97 10.1922 20.97V22.0141C10.1952 22.0141 10.1978 22.0141 10.2008 22.0141V20.97ZM48.7085 20.9254C48.7416 20.9254 48.7788 20.9418 48.8017 20.9773L47.9248 21.5441C48.1037 21.8208 48.405 21.9696 48.7085 21.9696V20.9254ZM48.8021 20.9778C48.8335 21.0266 48.8231 21.092 48.7776 21.1284L48.1245 20.3138C47.7518 20.6126 47.6665 21.1434 47.9245 21.5435L48.8021 20.9778ZM48.793 21.1156L48.7991 21.1104L48.1152 20.3213L48.1091 20.3266L48.793 21.1156ZM48.7843 21.1226C48.8683 21.0552 48.9909 20.9583 49.0733 20.8775L48.3426 20.1317C48.3066 20.1669 48.2373 20.2227 48.1299 20.3091L48.7843 21.1226ZM48.8862 20.7936C48.8862 20.7966 48.8861 20.7988 48.886 20.8002C48.8859 20.801 48.8858 20.8015 48.8858 20.8018C48.8857 20.8021 48.8857 20.8023 48.8857 20.8023C48.8857 20.8023 48.8857 20.8022 48.8858 20.8019C48.8859 20.8016 48.886 20.8012 48.8861 20.8007C48.8864 20.7996 48.8869 20.7982 48.8875 20.7965C48.8889 20.7929 48.8908 20.7893 48.8929 20.786C48.895 20.7828 48.8965 20.7811 48.8968 20.7808L49.6477 21.5063C49.8389 21.3084 49.9303 21.0577 49.9303 20.7936H48.8862ZM48.8968 20.7808C48.8978 20.7797 48.898 20.7796 48.8971 20.7805C48.8963 20.7813 48.895 20.7826 48.8933 20.7842C48.8898 20.7876 48.8855 20.7917 48.8812 20.7957C48.8767 20.7999 48.8733 20.803 48.8713 20.8048C48.8703 20.8057 48.8704 20.8056 48.8713 20.8049C48.8718 20.8044 48.8751 20.8016 48.8803 20.7975L49.5231 21.6204C49.5685 21.5849 49.6262 21.5285 49.6477 21.5063L48.8968 20.7808ZM48.8886 20.7912C48.7947 20.8616 48.7354 20.8989 48.6578 20.938L49.128 21.8703C49.2726 21.7974 49.3842 21.7246 49.5148 21.6267L48.8886 20.7912ZM48.6601 20.9369C48.6757 20.9291 48.6925 20.9254 48.7085 20.9254V21.9696C48.8495 21.9696 48.9926 21.9378 49.1257 21.8715L48.6601 20.9369ZM43.9991 39.8166C44.0246 39.8166 44.0494 39.8256 44.0688 39.8418L43.3987 40.6426C43.5674 40.7838 43.7799 40.8607 43.9991 40.8607V39.8166ZM44.0703 39.8431L41.9218 38.0317L41.2487 38.83L43.3973 40.6414L44.0703 39.8431ZM41.9192 38.0296C41.9457 38.0516 41.9585 38.0805 41.9608 38.1061L40.9209 38.2001C40.9428 38.4423 41.0582 38.6715 41.2513 38.8321L41.9192 38.0296ZM41.9611 38.1098C41.9638 38.1427 41.9529 38.1714 41.9361 38.1914L41.1377 37.5186C40.9813 37.7041 40.8998 37.9468 40.9206 38.1964L41.9611 38.1098ZM41.9348 38.1929L43.6101 36.2203L42.8142 35.5444L41.1389 37.5171L41.9348 38.1929ZM43.6102 36.2202C43.5709 36.2665 43.5009 36.2729 43.454 36.2334L44.1268 35.4349C43.7319 35.1022 43.1454 35.1543 42.8141 35.5445L43.6102 36.2202ZM43.4539 36.2333L45.6024 38.0447L46.2754 37.2464L44.1269 35.435L43.4539 36.2333ZM45.603 38.0452C45.5543 38.0043 45.5485 37.9313 45.5892 37.8834L46.3846 38.5598C46.7188 38.1668 46.6695 37.5777 46.2748 37.2459L45.603 38.0452ZM45.5889 37.8838L43.9143 39.8568L44.7104 40.5324L46.3849 38.5594L45.5889 37.8838ZM43.9136 39.8577C43.9342 39.8332 43.9625 39.8194 43.9914 39.8171L44.0757 40.8578C44.3217 40.8379 44.551 40.7211 44.7112 40.5315L43.9136 39.8577ZM43.9809 39.8181C43.9919 39.8169 44 39.8167 44.0031 39.8166C44.0046 39.8166 44.0053 39.8166 44.0045 39.8166C44.0036 39.8166 44.0023 39.8166 43.9991 39.8166V40.8607C44.0067 40.8607 44.0441 40.8611 44.0862 40.8569L43.9809 39.8181ZM42.0916 38.4701L43.6145 39.7532L44.2872 38.9548L42.7644 37.6717L42.0916 38.4701ZM44.3489 39.6918L45.4934 38.3433L44.6973 37.6677L43.5528 39.0162L44.3489 39.6918ZM45.4319 37.6064L43.9098 36.3229L43.2367 37.1211L44.7588 38.4046L45.4319 37.6064ZM43.1753 36.3841L42.03 37.733L42.826 38.4088L43.9713 37.0599L43.1753 36.3841ZM57.4928 54.817C57.5165 54.817 57.5437 54.8256 57.5653 54.8439L56.8905 55.6406C57.0665 55.7897 57.2814 55.8611 57.4928 55.8611V54.817ZM57.5643 54.843L42.2741 41.9573L41.6012 42.7557L56.8915 55.6415L57.5643 54.843ZM42.2733 41.9567C42.2974 41.9768 42.3119 42.0051 42.3145 42.0358L41.2739 42.1224C41.2945 42.3697 41.4133 42.5979 41.6019 42.7563L42.2733 41.9567ZM42.3144 42.0356C42.3171 42.0668 42.307 42.0965 42.2881 42.1189L41.4915 41.4438C41.3323 41.6317 41.2533 41.8758 41.2739 42.1226L42.3144 42.0356ZM42.2878 42.1193L47.5554 35.9161L46.7596 35.2403L41.4919 41.4434L42.2878 42.1193ZM47.5563 35.9151C47.5157 35.9632 47.4444 35.968 47.3986 35.9294L48.072 35.1314C47.6778 34.7987 47.0905 34.8485 46.7587 35.2413L47.5563 35.9151ZM47.3989 35.9296L62.6886 48.8142L63.3614 48.0158L48.0717 35.1312L47.3989 35.9296ZM62.6881 48.8138C62.64 48.7732 62.6342 48.7007 62.6747 48.6529L63.4706 49.3288C63.8039 48.9363 63.7553 48.3485 63.3619 48.0162L62.6881 48.8138ZM62.6755 48.652C62.7139 48.6069 62.7839 48.5999 62.8308 48.6394L62.158 49.4379C62.5529 49.7706 63.1378 49.7187 63.4698 49.3297L62.6755 48.652ZM62.8308 48.6395L47.8548 36.0188L47.182 36.8172L62.158 49.4379L62.8308 48.6395ZM47.1205 36.0801L42.3834 41.659L43.1793 42.3348L47.9164 36.7559L47.1205 36.0801ZM42.4449 42.3961L57.4219 55.0176L58.0947 54.2191L43.1178 41.5977L42.4449 42.3961ZM57.4214 55.0172C57.3742 54.9773 57.3669 54.9049 57.4087 54.8557L58.2039 55.5324C58.5385 55.1393 58.4876 54.551 58.0952 54.2195L57.4214 55.0172ZM57.4075 54.8572C57.4307 54.8297 57.4636 54.817 57.4928 54.817V55.8611C57.7548 55.8611 58.0197 55.7505 58.2052 55.5309L57.4075 54.8572ZM42.5496 36.904C42.5738 36.904 42.6007 36.9127 42.6216 36.9304L41.9478 37.728C42.1235 37.8764 42.3381 37.9481 42.5496 37.9481V36.904ZM42.6211 36.93L33.5712 29.3028L32.8983 30.1012L41.9482 37.7284L42.6211 36.93ZM33.5701 29.3019C33.6202 29.3439 33.6248 29.4172 33.5847 29.4644L32.7888 28.7885C32.456 29.1805 32.5032 29.77 32.8994 30.102L33.5701 29.3019ZM33.5856 29.4633C33.5444 29.5121 33.474 29.5158 33.4291 29.4781L34.1004 28.6784C33.7072 28.3483 33.1202 28.3961 32.7879 28.7896L33.5856 29.4633ZM33.4284 29.4775L42.4787 37.1041L43.1515 36.3057L34.1012 28.679L33.4284 29.4775ZM42.4782 37.1037C42.4303 37.0632 42.4239 36.991 42.4651 36.9426L43.2603 37.6193C43.5942 37.2269 43.5452 36.6382 43.152 36.3061L42.4782 37.1037ZM42.4646 36.9433C42.4864 36.9176 42.5189 36.904 42.5496 36.904V37.9481C42.8139 37.9481 43.0768 37.8356 43.2609 37.6186L42.4646 36.9433ZM45.4538 44.6707C45.4769 44.6707 45.5039 44.679 45.5253 44.6971L44.8524 45.4955C45.0291 45.6444 45.2438 45.7148 45.4538 45.7148V44.6707ZM45.5253 44.6971C45.5735 44.7377 45.5802 44.8104 45.5384 44.8593L44.7441 44.1816C44.4088 44.5745 44.459 45.1641 44.8525 45.4956L45.5253 44.6971ZM45.5393 44.8583L48.3355 41.5646L47.5396 40.8888L44.7433 44.1826L45.5393 44.8583ZM48.3363 41.5636C48.2965 41.6108 48.2254 41.6166 48.1789 41.5773L48.8527 40.7796C48.4581 40.4463 47.8706 40.4971 47.5388 40.8897L48.3363 41.5636ZM48.1794 41.5777C48.1311 41.537 48.1248 41.4645 48.166 41.416L48.9615 42.0923C49.2955 41.6994 49.2457 41.1107 48.8521 40.7792L48.1794 41.5777ZM48.1658 41.4163L45.3691 44.7108L46.1651 45.3865L48.9618 42.092L48.1658 41.4163ZM45.3696 44.7103C45.3926 44.6833 45.4252 44.6707 45.4538 44.6707V45.7148C45.7163 45.7148 45.9798 45.6042 46.1646 45.3871L45.3696 44.7103ZM49.2005 47.8284C49.2257 47.8284 49.2523 47.8373 49.2731 47.8549L48.5982 48.6516C48.7734 48.8 48.9884 48.8725 49.2005 48.8725V47.8284ZM49.272 47.854C49.3204 47.8948 49.3263 47.9668 49.2856 48.0148L48.4888 47.34C48.1563 47.7327 48.2056 48.3209 48.5993 48.6525L49.272 47.854ZM49.2851 48.0154L52.0824 44.722L51.2866 44.046L48.4893 47.3394L49.2851 48.0154ZM52.0829 44.7214C52.0423 44.7693 51.9713 44.7736 51.9264 44.7358L52.5983 43.9366C52.2045 43.6056 51.6186 43.654 51.2861 44.0466L52.0829 44.7214ZM51.9254 44.735C51.8781 44.695 51.8714 44.6227 51.9123 44.5743L52.7091 45.2491C53.042 44.8559 52.9918 44.269 52.5992 43.9374L51.9254 44.735ZM51.9128 44.5738L49.1159 47.8679L49.9118 48.5437L52.7087 45.2496L51.9128 44.5738ZM49.1164 47.8674C49.1383 47.8416 49.1702 47.8284 49.2005 47.8284V48.8725C49.464 48.8725 49.7271 48.7606 49.9113 48.5443L49.1164 47.8674ZM52.9471 50.9859C52.9695 50.9859 52.9968 50.9938 53.0196 51.0132L52.3448 51.8099C52.522 51.96 52.7378 52.03 52.9471 52.03V50.9859ZM53.0195 51.0131C53.0664 51.0528 53.0743 51.125 53.0318 51.1748L52.2374 50.4972C51.9021 50.8903 51.9535 51.4786 52.3449 51.81L53.0195 51.0131ZM53.0326 51.1738L55.8283 47.8793L55.0322 47.2037L52.2365 50.4983L53.0326 51.1738ZM55.8283 47.8793C55.7897 47.9248 55.7189 47.9329 55.6702 47.8917L56.346 47.0957C55.9501 46.7596 55.3628 46.8143 55.0323 47.2037L55.8283 47.8793ZM55.6722 47.8933C55.6244 47.8531 55.6176 47.7802 55.6588 47.7316L56.455 48.407C56.789 48.0133 56.7379 47.4251 56.344 47.094L55.6722 47.8933ZM55.6589 47.7315L52.8624 51.026L53.6584 51.7017L56.4549 48.4072L55.6589 47.7315ZM52.8628 51.0256C52.8861 50.9982 52.9183 50.9859 52.9471 50.9859V52.03C53.2094 52.03 53.4733 51.9193 53.658 51.7022L52.8628 51.0256Z" fill="#C08E71" mask="url(#path-2-inside-1_60_122)"/>
</svg>
