<svg width="115" height="118" viewBox="0 0 115 118" fill="none" xmlns="http://www.w3.org/2000/svg">
<circle cx="53" cy="64.6719" r="53" fill="#EBD1B9"/>
<mask id="path-2-inside-1_944_4" fill="white">
<path d="M63.3178 48.3022C61.3849 53.8603 56.7227 54.779 56.5841 57.815C56.5841 57.815 55.3698 55.6197 56.4519 54.118C57.9987 52.0023 60.0981 51.7892 61.7415 47.923C63.377 44.0717 62.5112 41.3293 62.4013 40.3193C62.4013 40.3193 64.8811 43.7917 63.3178 48.3022Z"/>
<path d="M46.4864 55.3803C46.0759 55.3803 45.7426 55.0551 45.7333 54.6444C45.7272 54.3086 45.6959 53.9058 45.6611 53.45C45.5361 51.7879 45.3454 49.275 46.0806 46.7139C47.0078 43.4602 54.1596 35.6871 54.463 35.3574C54.7442 35.053 55.2204 35.034 55.5243 35.3126C55.8295 35.5926 55.8504 36.0677 55.5695 36.3721C53.5659 38.5433 48.2149 44.7055 47.5264 47.1242C46.8649 49.4276 47.0366 51.6872 47.1598 53.3372C47.1985 53.8259 47.2287 54.256 47.238 54.6169C47.2456 55.0305 46.9163 55.372 46.5 55.3799C46.4957 55.3803 46.4911 55.3803 46.4864 55.3803Z"/>
<path d="M87.1553 91.1955C86.817 91.1955 86.5102 90.9664 86.4262 90.6216C86.3285 90.2216 86.5749 89.8152 86.9778 89.7164C98.2298 86.9923 113.194 67.0972 113.492 59.2927C113.634 55.5492 110.301 53.8484 107.619 52.4817C106.605 51.9651 105.728 51.5186 105.19 51.0087C104.116 49.9943 103.666 48.797 103.229 47.6372C102.884 46.7156 102.558 45.8462 101.927 45.013C101.205 44.057 100.128 44.2532 98.9915 44.5665C98.4456 44.7165 97.7694 44.9024 97.4325 44.2847C97.2942 44.033 97.2659 43.7333 97.2192 43.284C97.1574 42.6649 97.072 41.8166 96.6809 41.1424C96.4769 40.7919 95.8786 40.3017 95.0368 40.4037C94.6414 40.4521 94.2912 40.5312 93.9094 40.6154C93.1097 40.7919 92.1145 41.0096 90.4147 41.0468C90.4101 41.0468 90.4029 41.0468 90.3996 41.0468C89.9909 41.0468 89.6559 40.7249 89.6483 40.3157C89.6379 39.9003 89.9683 39.5587 90.3817 39.548C91.9342 39.515 92.8108 39.3217 93.5848 39.1513C94.0161 39.0568 94.4129 38.9683 94.8565 38.916C96.3188 38.7448 97.4986 39.5573 97.9827 40.3905C98.5254 41.3268 98.6377 42.3791 98.7099 43.0892C99.7679 42.8031 101.782 42.3297 103.126 44.1111C103.89 45.1168 104.286 46.1774 104.638 47.1112C105.047 48.2022 105.402 49.1464 106.225 49.9213C106.606 50.2825 107.431 50.7007 108.303 51.1472C111.038 52.5437 115.173 54.6523 114.994 59.3485C114.644 68.5305 98.5929 88.4478 87.3337 91.1737C87.2737 91.1884 87.2152 91.1955 87.1553 91.1955Z"/>
<path d="M66.88 35.2126C63.5745 35.2126 60.1398 34.0779 56.9069 30.5833C53.5189 26.9315 49.0053 24.0033 43.4829 21.8886C36.7715 19.317 29.7135 21.6401 29.6413 21.6641C29.2459 21.7973 28.8192 21.5861 28.6885 21.1961C28.5545 20.8037 28.7668 20.3765 29.1604 20.2447C29.4696 20.1413 36.8049 17.7241 44.0241 20.4893C49.7598 22.6878 54.4659 25.7431 58.0116 29.5689C64.0195 36.0605 70.4612 33.591 76.1427 31.4133C77.8367 30.7645 79.4377 30.1504 80.8746 29.8625C82.6106 29.5131 83.9139 29.6753 84.9687 30.3778C85.3174 30.6073 85.4105 31.0717 85.1792 31.4161C84.9522 31.761 84.4832 31.8537 84.1377 31.6259C83.4359 31.1583 82.4918 31.0656 81.1705 31.3324C79.8568 31.5959 78.3147 32.1881 76.6825 32.8147C73.8302 33.9086 70.4285 35.2108 66.88 35.2126Z"/>
<path d="M41.2482 85.3933C41.0665 85.3933 40.8844 85.3288 40.7404 85.1924C36.3195 81.1281 32.8341 77.3324 29.7772 73.2473C24.1797 65.7621 22.5744 56.8096 22.2124 50.6163C22.1884 50.2042 22.5051 49.8504 22.9203 49.825C23.2977 49.8024 23.6903 50.1168 23.714 50.5308C24.0627 56.5178 25.6091 65.1642 30.9828 72.35C33.984 76.3603 37.4098 80.0915 41.7614 84.0943C42.0666 84.3746 42.0843 84.8469 41.8034 85.1523C41.654 85.3142 41.4529 85.3933 41.2482 85.3933Z"/>
<path d="M75.1304 115.672C75.0582 115.672 74.986 115.663 74.9109 115.64C74.5145 115.519 74.29 115.099 74.4135 114.702C77.2421 105.51 67.7398 94.1674 57.6813 82.1596C50.2577 73.2969 42.5783 64.1314 38.9834 54.9035C37.4262 50.9055 36.2612 46.5401 35.1339 42.32C32.2436 31.4823 29.2524 20.2762 19.3425 13.862C18.9938 13.6371 18.8961 13.1742 19.1202 12.8265C19.3472 12.4803 19.8148 12.3814 20.1603 12.6031C30.5553 19.3349 33.623 30.8228 36.5869 41.9329C37.7038 46.1157 38.8581 50.4403 40.3837 54.3589C43.892 63.3594 51.4898 72.4272 58.8337 81.1968C69.163 93.5257 78.9178 105.172 75.8501 115.144C75.7513 115.465 75.4536 115.672 75.1304 115.672Z"/>
<path d="M64.4645 31.3808C64.1219 31.3808 63.8094 31.1427 63.7326 30.7932C62.3438 24.5261 58.5801 19.4582 52.8487 16.1418C44.9188 11.5501 33.5135 10.5311 23.7886 13.5431C23.395 13.6691 22.9697 13.446 22.848 13.05C22.7244 12.6533 22.9467 12.2351 23.3439 12.1105C33.4492 8.97715 45.3278 10.0531 53.6037 14.8439C59.7089 18.379 63.7207 23.7799 65.2011 30.4695C65.2916 30.8744 65.0345 31.2744 64.6301 31.3643C64.5758 31.3747 64.5187 31.3808 64.4645 31.3808Z"/>
<path d="M106.107 104.729C106.005 104.729 105.901 104.708 105.802 104.665C98.411 101.39 96.3984 98.236 94.1004 90.4211C93.9833 90.0226 94.2117 89.6058 94.6114 89.4887C95.0079 89.3688 95.4249 89.5997 95.5434 89.9982C97.7305 97.4343 99.5132 100.238 106.412 103.294C106.792 103.461 106.962 103.905 106.792 104.284C106.67 104.563 106.394 104.729 106.107 104.729Z"/>
<path d="M93.5561 19.5618H81.7422C81.3873 19.5618 81.0774 19.3115 81.0056 18.9638L77.3967 1.57445C77.3126 1.16913 77.5737 0.772044 77.9814 0.688617C78.3886 0.601251 78.7855 0.864789 78.8698 1.27011L82.3538 18.0615H92.9427L96.4281 1.27011C96.5122 0.864789 96.9061 0.601251 97.3184 0.688617C97.7242 0.771686 97.9842 1.16913 97.9013 1.57445L94.2924 18.9638C94.2206 19.3115 93.9124 19.5618 93.5561 19.5618Z"/>
<path d="M90.3186 25.4269H84.9797C84.5649 25.4269 84.2299 25.091 84.2299 24.676V18.83C84.2299 18.4165 84.5649 18.0806 84.9797 18.0806H90.3186C90.7334 18.0806 91.0702 18.4165 91.0702 18.83V24.676C91.0702 25.091 90.7334 25.4269 90.3186 25.4269ZM85.7328 23.9266H89.5658V19.5805H85.7328V23.9266Z"/>
<path d="M87.8732 55.6137C87.4602 55.6137 87.1248 55.2778 87.1248 54.8646V25.0328C87.1248 24.6178 87.4602 24.2833 87.8732 24.2833C88.288 24.2833 88.6282 24.6178 88.6282 25.0328V54.8646C88.6278 55.2782 88.288 55.6137 87.8732 55.6137Z"/>
<path d="M79.4228 64.1499C79.2242 64.1499 79.0288 64.075 78.8802 63.9218C78.5929 63.6253 78.6007 63.1488 78.8995 62.8623L83.9288 58.0178C84.2251 57.7314 84.6999 57.7375 84.9901 58.0357C85.2788 58.3325 85.2695 58.8073 84.9721 59.0966L79.9443 63.9401C79.7985 64.0811 79.6092 64.1499 79.4228 64.1499Z"/>
<path d="M91.2862 52.7175C91.0894 52.7175 90.8922 52.6412 90.745 52.4897C90.458 52.1915 90.4641 51.7181 90.7633 51.4285L95.7893 46.584C96.0871 46.2961 96.5665 46.3022 96.8535 46.6004C97.1436 46.8987 97.1346 47.3735 96.8369 47.6599L91.8077 52.5077C91.6637 52.6452 91.4744 52.7175 91.2862 52.7175Z"/>
<path d="M96.0301 64.4316C95.8347 64.4316 95.6361 64.3549 95.4903 64.2035L90.5828 59.1427C90.2958 58.8445 90.3034 58.3726 90.6025 58.0818C90.8984 57.7954 91.3765 57.8018 91.6666 58.1015L96.5713 63.1605C96.8615 63.4587 96.8521 63.9307 96.5544 64.2218C96.409 64.361 96.2179 64.4316 96.0301 64.4316Z"/>
<path d="M84.5152 52.5538C84.3198 52.5538 84.1212 52.4758 83.9754 52.3261L79.1612 47.3627C78.8743 47.063 78.8818 46.5897 79.181 46.3018C79.4769 46.0139 79.9564 46.0218 80.2437 46.3183L85.0578 51.2813C85.3451 51.5814 85.3372 52.0547 85.0381 52.3426C84.8941 52.4837 84.7045 52.5538 84.5152 52.5538Z"/>
<path d="M99.6135 56.2164C99.6074 56.2164 99.6045 56.2164 99.5984 56.2164L92.5641 56.0982C92.1493 56.0907 91.8185 55.7502 91.8243 55.3352C91.8318 54.926 92.1655 54.5994 92.5774 54.5994C92.5792 54.5994 92.5839 54.5994 92.5896 54.5994L99.6239 54.7179C100.039 54.7254 100.371 55.0656 100.363 55.4792C100.357 55.8898 100.021 56.2164 99.6135 56.2164Z"/>
<path d="M83.0633 55.9364C83.0586 55.9364 83.0542 55.9364 83.0481 55.9364L76.122 55.8197C75.7057 55.8108 75.3749 55.4703 75.3839 55.0553C75.3915 54.646 75.7237 54.3209 76.1342 54.3209C76.137 54.3209 76.1428 54.3209 76.1474 54.3209L83.0751 54.4376C83.4899 54.4437 83.8192 54.7853 83.8131 55.1989C83.807 55.6099 83.4723 55.9364 83.0633 55.9364Z"/>
</mask>
<path d="M63.3178 48.3022C61.3849 53.8603 56.7227 54.779 56.5841 57.815C56.5841 57.815 55.3698 55.6197 56.4519 54.118C57.9987 52.0023 60.0981 51.7892 61.7415 47.923C63.377 44.0717 62.5112 41.3293 62.4013 40.3193C62.4013 40.3193 64.8811 43.7917 63.3178 48.3022Z" fill="#C08E71"/>
<path d="M46.4864 55.3803C46.0759 55.3803 45.7426 55.0551 45.7333 54.6444C45.7272 54.3086 45.6959 53.9058 45.6611 53.45C45.5361 51.7879 45.3454 49.275 46.0806 46.7139C47.0078 43.4602 54.1596 35.6871 54.463 35.3574C54.7442 35.053 55.2204 35.034 55.5243 35.3126C55.8295 35.5926 55.8504 36.0677 55.5695 36.3721C53.5659 38.5433 48.2149 44.7055 47.5264 47.1242C46.8649 49.4276 47.0366 51.6872 47.1598 53.3372C47.1985 53.8259 47.2287 54.256 47.238 54.6169C47.2456 55.0305 46.9163 55.372 46.5 55.3799C46.4957 55.3803 46.4911 55.3803 46.4864 55.3803Z" fill="#C08E71"/>
<path d="M87.1553 91.1955C86.817 91.1955 86.5102 90.9664 86.4262 90.6216C86.3285 90.2216 86.5749 89.8152 86.9778 89.7164C98.2298 86.9923 113.194 67.0972 113.492 59.2927C113.634 55.5492 110.301 53.8484 107.619 52.4817C106.605 51.9651 105.728 51.5186 105.19 51.0087C104.116 49.9943 103.666 48.797 103.229 47.6372C102.884 46.7156 102.558 45.8462 101.927 45.013C101.205 44.057 100.128 44.2532 98.9915 44.5665C98.4456 44.7165 97.7694 44.9024 97.4325 44.2847C97.2942 44.033 97.2659 43.7333 97.2192 43.284C97.1574 42.6649 97.072 41.8166 96.6809 41.1424C96.4769 40.7919 95.8786 40.3017 95.0368 40.4037C94.6414 40.4521 94.2912 40.5312 93.9094 40.6154C93.1097 40.7919 92.1145 41.0096 90.4147 41.0468C90.4101 41.0468 90.4029 41.0468 90.3996 41.0468C89.9909 41.0468 89.6559 40.7249 89.6483 40.3157C89.6379 39.9003 89.9683 39.5587 90.3817 39.548C91.9342 39.515 92.8108 39.3217 93.5848 39.1513C94.0161 39.0568 94.4129 38.9683 94.8565 38.916C96.3188 38.7448 97.4986 39.5573 97.9827 40.3905C98.5254 41.3268 98.6377 42.3791 98.7099 43.0892C99.7679 42.8031 101.782 42.3297 103.126 44.1111C103.89 45.1168 104.286 46.1774 104.638 47.1112C105.047 48.2022 105.402 49.1464 106.225 49.9213C106.606 50.2825 107.431 50.7007 108.303 51.1472C111.038 52.5437 115.173 54.6523 114.994 59.3485C114.644 68.5305 98.5929 88.4478 87.3337 91.1737C87.2737 91.1884 87.2152 91.1955 87.1553 91.1955Z" fill="#C08E71"/>
<path d="M66.88 35.2126C63.5745 35.2126 60.1398 34.0779 56.9069 30.5833C53.5189 26.9315 49.0053 24.0033 43.4829 21.8886C36.7715 19.317 29.7135 21.6401 29.6413 21.6641C29.2459 21.7973 28.8192 21.5861 28.6885 21.1961C28.5545 20.8037 28.7668 20.3765 29.1604 20.2447C29.4696 20.1413 36.8049 17.7241 44.0241 20.4893C49.7598 22.6878 54.4659 25.7431 58.0116 29.5689C64.0195 36.0605 70.4612 33.591 76.1427 31.4133C77.8367 30.7645 79.4377 30.1504 80.8746 29.8625C82.6106 29.5131 83.9139 29.6753 84.9687 30.3778C85.3174 30.6073 85.4105 31.0717 85.1792 31.4161C84.9522 31.761 84.4832 31.8537 84.1377 31.6259C83.4359 31.1583 82.4918 31.0656 81.1705 31.3324C79.8568 31.5959 78.3147 32.1881 76.6825 32.8147C73.8302 33.9086 70.4285 35.2108 66.88 35.2126Z" fill="#C08E71"/>
<path d="M41.2482 85.3933C41.0665 85.3933 40.8844 85.3288 40.7404 85.1924C36.3195 81.1281 32.8341 77.3324 29.7772 73.2473C24.1797 65.7621 22.5744 56.8096 22.2124 50.6163C22.1884 50.2042 22.5051 49.8504 22.9203 49.825C23.2977 49.8024 23.6903 50.1168 23.714 50.5308C24.0627 56.5178 25.6091 65.1642 30.9828 72.35C33.984 76.3603 37.4098 80.0915 41.7614 84.0943C42.0666 84.3746 42.0843 84.8469 41.8034 85.1523C41.654 85.3142 41.4529 85.3933 41.2482 85.3933Z" fill="#C08E71"/>
<path d="M75.1304 115.672C75.0582 115.672 74.986 115.663 74.9109 115.64C74.5145 115.519 74.29 115.099 74.4135 114.702C77.2421 105.51 67.7398 94.1674 57.6813 82.1596C50.2577 73.2969 42.5783 64.1314 38.9834 54.9035C37.4262 50.9055 36.2612 46.5401 35.1339 42.32C32.2436 31.4823 29.2524 20.2762 19.3425 13.862C18.9938 13.6371 18.8961 13.1742 19.1202 12.8265C19.3472 12.4803 19.8148 12.3814 20.1603 12.6031C30.5553 19.3349 33.623 30.8228 36.5869 41.9329C37.7038 46.1157 38.8581 50.4403 40.3837 54.3589C43.892 63.3594 51.4898 72.4272 58.8337 81.1968C69.163 93.5257 78.9178 105.172 75.8501 115.144C75.7513 115.465 75.4536 115.672 75.1304 115.672Z" fill="#C08E71"/>
<path d="M64.4645 31.3808C64.1219 31.3808 63.8094 31.1427 63.7326 30.7932C62.3438 24.5261 58.5801 19.4582 52.8487 16.1418C44.9188 11.5501 33.5135 10.5311 23.7886 13.5431C23.395 13.6691 22.9697 13.446 22.848 13.05C22.7244 12.6533 22.9467 12.2351 23.3439 12.1105C33.4492 8.97715 45.3278 10.0531 53.6037 14.8439C59.7089 18.379 63.7207 23.7799 65.2011 30.4695C65.2916 30.8744 65.0345 31.2744 64.6301 31.3643C64.5758 31.3747 64.5187 31.3808 64.4645 31.3808Z" fill="#C08E71"/>
<path d="M106.107 104.729C106.005 104.729 105.901 104.708 105.802 104.665C98.411 101.39 96.3984 98.236 94.1004 90.4211C93.9833 90.0226 94.2117 89.6058 94.6114 89.4887C95.0079 89.3688 95.4249 89.5997 95.5434 89.9982C97.7305 97.4343 99.5132 100.238 106.412 103.294C106.792 103.461 106.962 103.905 106.792 104.284C106.67 104.563 106.394 104.729 106.107 104.729Z" fill="#C08E71"/>
<path d="M93.5561 19.5618H81.7422C81.3873 19.5618 81.0774 19.3115 81.0056 18.9638L77.3967 1.57445C77.3126 1.16913 77.5737 0.772044 77.9814 0.688617C78.3886 0.601251 78.7855 0.864789 78.8698 1.27011L82.3538 18.0615H92.9427L96.4281 1.27011C96.5122 0.864789 96.9061 0.601251 97.3184 0.688617C97.7242 0.771686 97.9842 1.16913 97.9013 1.57445L94.2924 18.9638C94.2206 19.3115 93.9124 19.5618 93.5561 19.5618Z" fill="#C08E71"/>
<path d="M90.3186 25.4269H84.9797C84.5649 25.4269 84.2299 25.091 84.2299 24.676V18.83C84.2299 18.4165 84.5649 18.0806 84.9797 18.0806H90.3186C90.7334 18.0806 91.0702 18.4165 91.0702 18.83V24.676C91.0702 25.091 90.7334 25.4269 90.3186 25.4269ZM85.7328 23.9266H89.5658V19.5805H85.7328V23.9266Z" fill="#C08E71"/>
<path d="M87.8732 55.6137C87.4602 55.6137 87.1248 55.2778 87.1248 54.8646V25.0328C87.1248 24.6178 87.4602 24.2833 87.8732 24.2833C88.288 24.2833 88.6282 24.6178 88.6282 25.0328V54.8646C88.6278 55.2782 88.288 55.6137 87.8732 55.6137Z" fill="#C08E71"/>
<path d="M79.4228 64.1499C79.2242 64.1499 79.0288 64.075 78.8802 63.9218C78.5929 63.6253 78.6007 63.1488 78.8995 62.8623L83.9288 58.0178C84.2251 57.7314 84.6999 57.7375 84.9901 58.0357C85.2788 58.3325 85.2695 58.8073 84.9721 59.0966L79.9443 63.9401C79.7985 64.0811 79.6092 64.1499 79.4228 64.1499Z" fill="#C08E71"/>
<path d="M91.2862 52.7175C91.0894 52.7175 90.8922 52.6412 90.745 52.4897C90.458 52.1915 90.4641 51.7181 90.7633 51.4285L95.7893 46.584C96.0871 46.2961 96.5665 46.3022 96.8535 46.6004C97.1436 46.8987 97.1346 47.3735 96.8369 47.6599L91.8077 52.5077C91.6637 52.6452 91.4744 52.7175 91.2862 52.7175Z" fill="#C08E71"/>
<path d="M96.0301 64.4316C95.8347 64.4316 95.6361 64.3549 95.4903 64.2035L90.5828 59.1427C90.2958 58.8445 90.3034 58.3726 90.6025 58.0818C90.8984 57.7954 91.3765 57.8018 91.6666 58.1015L96.5713 63.1605C96.8615 63.4587 96.8521 63.9307 96.5544 64.2218C96.409 64.361 96.2179 64.4316 96.0301 64.4316Z" fill="#C08E71"/>
<path d="M84.5152 52.5538C84.3198 52.5538 84.1212 52.4758 83.9754 52.3261L79.1612 47.3627C78.8743 47.063 78.8818 46.5897 79.181 46.3018C79.4769 46.0139 79.9564 46.0218 80.2437 46.3183L85.0578 51.2813C85.3451 51.5814 85.3372 52.0547 85.0381 52.3426C84.8941 52.4837 84.7045 52.5538 84.5152 52.5538Z" fill="#C08E71"/>
<path d="M99.6135 56.2164C99.6074 56.2164 99.6045 56.2164 99.5984 56.2164L92.5641 56.0982C92.1493 56.0907 91.8185 55.7502 91.8243 55.3352C91.8318 54.926 92.1655 54.5994 92.5774 54.5994C92.5792 54.5994 92.5839 54.5994 92.5896 54.5994L99.6239 54.7179C100.039 54.7254 100.371 55.0656 100.363 55.4792C100.357 55.8898 100.021 56.2164 99.6135 56.2164Z" fill="#C08E71"/>
<path d="M83.0633 55.9364C83.0586 55.9364 83.0542 55.9364 83.0481 55.9364L76.122 55.8197C75.7057 55.8108 75.3749 55.4703 75.3839 55.0553C75.3915 54.646 75.7237 54.3209 76.1342 54.3209C76.137 54.3209 76.1428 54.3209 76.1474 54.3209L83.0751 54.4376C83.4899 54.4437 83.8192 54.7853 83.8131 55.1989C83.807 55.6099 83.4723 55.9364 83.0633 55.9364Z" fill="#C08E71"/>
<path d="M63.3178 48.3022C61.3849 53.8603 56.7227 54.779 56.5841 57.815C56.5841 57.815 55.3698 55.6197 56.4519 54.118C57.9987 52.0023 60.0981 51.7892 61.7415 47.923C63.377 44.0717 62.5112 41.3293 62.4013 40.3193C62.4013 40.3193 64.8811 43.7917 63.3178 48.3022Z" stroke="#C08E71" stroke-width="2" mask="url(#path-2-inside-1_944_4)"/>
<path d="M46.4864 55.3803C46.0759 55.3803 45.7426 55.0551 45.7333 54.6444C45.7272 54.3086 45.6959 53.9058 45.6611 53.45C45.5361 51.7879 45.3454 49.275 46.0806 46.7139C47.0078 43.4602 54.1596 35.6871 54.463 35.3574C54.7442 35.053 55.2204 35.034 55.5243 35.3126C55.8295 35.5926 55.8504 36.0677 55.5695 36.3721C53.5659 38.5433 48.2149 44.7055 47.5264 47.1242C46.8649 49.4276 47.0366 51.6872 47.1598 53.3372C47.1985 53.8259 47.2287 54.256 47.238 54.6169C47.2456 55.0305 46.9163 55.372 46.5 55.3799C46.4957 55.3803 46.4911 55.3803 46.4864 55.3803Z" stroke="#C08E71" stroke-width="2" mask="url(#path-2-inside-1_944_4)"/>
<path d="M87.1553 91.1955C86.817 91.1955 86.5102 90.9664 86.4262 90.6216C86.3285 90.2216 86.5749 89.8152 86.9778 89.7164C98.2298 86.9923 113.194 67.0972 113.492 59.2927C113.634 55.5492 110.301 53.8484 107.619 52.4817C106.605 51.9651 105.728 51.5186 105.19 51.0087C104.116 49.9943 103.666 48.797 103.229 47.6372C102.884 46.7156 102.558 45.8462 101.927 45.013C101.205 44.057 100.128 44.2532 98.9915 44.5665C98.4456 44.7165 97.7694 44.9024 97.4325 44.2847C97.2942 44.033 97.2659 43.7333 97.2192 43.284C97.1574 42.6649 97.072 41.8166 96.6809 41.1424C96.4769 40.7919 95.8786 40.3017 95.0368 40.4037C94.6414 40.4521 94.2912 40.5312 93.9094 40.6154C93.1097 40.7919 92.1145 41.0096 90.4147 41.0468C90.4101 41.0468 90.4029 41.0468 90.3996 41.0468C89.9909 41.0468 89.6559 40.7249 89.6483 40.3157C89.6379 39.9003 89.9683 39.5587 90.3817 39.548C91.9342 39.515 92.8108 39.3217 93.5848 39.1513C94.0161 39.0568 94.4129 38.9683 94.8565 38.916C96.3188 38.7448 97.4986 39.5573 97.9827 40.3905C98.5254 41.3268 98.6377 42.3791 98.7099 43.0892C99.7679 42.8031 101.782 42.3297 103.126 44.1111C103.89 45.1168 104.286 46.1774 104.638 47.1112C105.047 48.2022 105.402 49.1464 106.225 49.9213C106.606 50.2825 107.431 50.7007 108.303 51.1472C111.038 52.5437 115.173 54.6523 114.994 59.3485C114.644 68.5305 98.5929 88.4478 87.3337 91.1737C87.2737 91.1884 87.2152 91.1955 87.1553 91.1955Z" stroke="#C08E71" stroke-width="2" mask="url(#path-2-inside-1_944_4)"/>
<path d="M66.88 35.2126C63.5745 35.2126 60.1398 34.0779 56.9069 30.5833C53.5189 26.9315 49.0053 24.0033 43.4829 21.8886C36.7715 19.317 29.7135 21.6401 29.6413 21.6641C29.2459 21.7973 28.8192 21.5861 28.6885 21.1961C28.5545 20.8037 28.7668 20.3765 29.1604 20.2447C29.4696 20.1413 36.8049 17.7241 44.0241 20.4893C49.7598 22.6878 54.4659 25.7431 58.0116 29.5689C64.0195 36.0605 70.4612 33.591 76.1427 31.4133C77.8367 30.7645 79.4377 30.1504 80.8746 29.8625C82.6106 29.5131 83.9139 29.6753 84.9687 30.3778C85.3174 30.6073 85.4105 31.0717 85.1792 31.4161C84.9522 31.761 84.4832 31.8537 84.1377 31.6259C83.4359 31.1583 82.4918 31.0656 81.1705 31.3324C79.8568 31.5959 78.3147 32.1881 76.6825 32.8147C73.8302 33.9086 70.4285 35.2108 66.88 35.2126Z" stroke="#C08E71" stroke-width="2" mask="url(#path-2-inside-1_944_4)"/>
<path d="M41.2482 85.3933C41.0665 85.3933 40.8844 85.3288 40.7404 85.1924C36.3195 81.1281 32.8341 77.3324 29.7772 73.2473C24.1797 65.7621 22.5744 56.8096 22.2124 50.6163C22.1884 50.2042 22.5051 49.8504 22.9203 49.825C23.2977 49.8024 23.6903 50.1168 23.714 50.5308C24.0627 56.5178 25.6091 65.1642 30.9828 72.35C33.984 76.3603 37.4098 80.0915 41.7614 84.0943C42.0666 84.3746 42.0843 84.8469 41.8034 85.1523C41.654 85.3142 41.4529 85.3933 41.2482 85.3933Z" stroke="#C08E71" stroke-width="2" mask="url(#path-2-inside-1_944_4)"/>
<path d="M75.1304 115.672C75.0582 115.672 74.986 115.663 74.9109 115.64C74.5145 115.519 74.29 115.099 74.4135 114.702C77.2421 105.51 67.7398 94.1674 57.6813 82.1596C50.2577 73.2969 42.5783 64.1314 38.9834 54.9035C37.4262 50.9055 36.2612 46.5401 35.1339 42.32C32.2436 31.4823 29.2524 20.2762 19.3425 13.862C18.9938 13.6371 18.8961 13.1742 19.1202 12.8265C19.3472 12.4803 19.8148 12.3814 20.1603 12.6031C30.5553 19.3349 33.623 30.8228 36.5869 41.9329C37.7038 46.1157 38.8581 50.4403 40.3837 54.3589C43.892 63.3594 51.4898 72.4272 58.8337 81.1968C69.163 93.5257 78.9178 105.172 75.8501 115.144C75.7513 115.465 75.4536 115.672 75.1304 115.672Z" stroke="#C08E71" stroke-width="2" mask="url(#path-2-inside-1_944_4)"/>
<path d="M64.4645 31.3808C64.1219 31.3808 63.8094 31.1427 63.7326 30.7932C62.3438 24.5261 58.5801 19.4582 52.8487 16.1418C44.9188 11.5501 33.5135 10.5311 23.7886 13.5431C23.395 13.6691 22.9697 13.446 22.848 13.05C22.7244 12.6533 22.9467 12.2351 23.3439 12.1105C33.4492 8.97715 45.3278 10.0531 53.6037 14.8439C59.7089 18.379 63.7207 23.7799 65.2011 30.4695C65.2916 30.8744 65.0345 31.2744 64.6301 31.3643C64.5758 31.3747 64.5187 31.3808 64.4645 31.3808Z" stroke="#C08E71" stroke-width="2" mask="url(#path-2-inside-1_944_4)"/>
<path d="M106.107 104.729C106.005 104.729 105.901 104.708 105.802 104.665C98.411 101.39 96.3984 98.236 94.1004 90.4211C93.9833 90.0226 94.2117 89.6058 94.6114 89.4887C95.0079 89.3688 95.4249 89.5997 95.5434 89.9982C97.7305 97.4343 99.5132 100.238 106.412 103.294C106.792 103.461 106.962 103.905 106.792 104.284C106.67 104.563 106.394 104.729 106.107 104.729Z" stroke="#C08E71" stroke-width="2" mask="url(#path-2-inside-1_944_4)"/>
<path d="M93.5561 19.5618H81.7422C81.3873 19.5618 81.0774 19.3115 81.0056 18.9638L77.3967 1.57445C77.3126 1.16913 77.5737 0.772044 77.9814 0.688617C78.3886 0.601251 78.7855 0.864789 78.8698 1.27011L82.3538 18.0615H92.9427L96.4281 1.27011C96.5122 0.864789 96.9061 0.601251 97.3184 0.688617C97.7242 0.771686 97.9842 1.16913 97.9013 1.57445L94.2924 18.9638C94.2206 19.3115 93.9124 19.5618 93.5561 19.5618Z" stroke="#C08E71" stroke-width="2" mask="url(#path-2-inside-1_944_4)"/>
<path d="M90.3186 25.4269H84.9797C84.5649 25.4269 84.2299 25.091 84.2299 24.676V18.83C84.2299 18.4165 84.5649 18.0806 84.9797 18.0806H90.3186C90.7334 18.0806 91.0702 18.4165 91.0702 18.83V24.676C91.0702 25.091 90.7334 25.4269 90.3186 25.4269ZM85.7328 23.9266H89.5658V19.5805H85.7328V23.9266Z" stroke="#C08E71" stroke-width="2" mask="url(#path-2-inside-1_944_4)"/>
<path d="M87.8732 55.6137C87.4602 55.6137 87.1248 55.2778 87.1248 54.8646V25.0328C87.1248 24.6178 87.4602 24.2833 87.8732 24.2833C88.288 24.2833 88.6282 24.6178 88.6282 25.0328V54.8646C88.6278 55.2782 88.288 55.6137 87.8732 55.6137Z" stroke="#C08E71" stroke-width="2" mask="url(#path-2-inside-1_944_4)"/>
<path d="M79.4228 64.1499C79.2242 64.1499 79.0288 64.075 78.8802 63.9218C78.5929 63.6253 78.6007 63.1488 78.8995 62.8623L83.9288 58.0178C84.2251 57.7314 84.6999 57.7375 84.9901 58.0357C85.2788 58.3325 85.2695 58.8073 84.9721 59.0966L79.9443 63.9401C79.7985 64.0811 79.6092 64.1499 79.4228 64.1499Z" stroke="#C08E71" stroke-width="2" mask="url(#path-2-inside-1_944_4)"/>
<path d="M91.2862 52.7175C91.0894 52.7175 90.8922 52.6412 90.745 52.4897C90.458 52.1915 90.4641 51.7181 90.7633 51.4285L95.7893 46.584C96.0871 46.2961 96.5665 46.3022 96.8535 46.6004C97.1436 46.8987 97.1346 47.3735 96.8369 47.6599L91.8077 52.5077C91.6637 52.6452 91.4744 52.7175 91.2862 52.7175Z" stroke="#C08E71" stroke-width="2" mask="url(#path-2-inside-1_944_4)"/>
<path d="M96.0301 64.4316C95.8347 64.4316 95.6361 64.3549 95.4903 64.2035L90.5828 59.1427C90.2958 58.8445 90.3034 58.3726 90.6025 58.0818C90.8984 57.7954 91.3765 57.8018 91.6666 58.1015L96.5713 63.1605C96.8615 63.4587 96.8521 63.9307 96.5544 64.2218C96.409 64.361 96.2179 64.4316 96.0301 64.4316Z" stroke="#C08E71" stroke-width="2" mask="url(#path-2-inside-1_944_4)"/>
<path d="M84.5152 52.5538C84.3198 52.5538 84.1212 52.4758 83.9754 52.3261L79.1612 47.3627C78.8743 47.063 78.8818 46.5897 79.181 46.3018C79.4769 46.0139 79.9564 46.0218 80.2437 46.3183L85.0578 51.2813C85.3451 51.5814 85.3372 52.0547 85.0381 52.3426C84.8941 52.4837 84.7045 52.5538 84.5152 52.5538Z" stroke="#C08E71" stroke-width="2" mask="url(#path-2-inside-1_944_4)"/>
<path d="M99.6135 56.2164C99.6074 56.2164 99.6045 56.2164 99.5984 56.2164L92.5641 56.0982C92.1493 56.0907 91.8185 55.7502 91.8243 55.3352C91.8318 54.926 92.1655 54.5994 92.5774 54.5994C92.5792 54.5994 92.5839 54.5994 92.5896 54.5994L99.6239 54.7179C100.039 54.7254 100.371 55.0656 100.363 55.4792C100.357 55.8898 100.021 56.2164 99.6135 56.2164Z" stroke="#C08E71" stroke-width="2" mask="url(#path-2-inside-1_944_4)"/>
<path d="M83.0633 55.9364C83.0586 55.9364 83.0542 55.9364 83.0481 55.9364L76.122 55.8197C75.7057 55.8108 75.3749 55.4703 75.3839 55.0553C75.3915 54.646 75.7237 54.3209 76.1342 54.3209C76.137 54.3209 76.1428 54.3209 76.1474 54.3209L83.0751 54.4376C83.4899 54.4437 83.8192 54.7853 83.8131 55.1989C83.807 55.6099 83.4723 55.9364 83.0633 55.9364Z" stroke="#C08E71" stroke-width="2" mask="url(#path-2-inside-1_944_4)"/>
</svg>
