<svg width="64" height="56" viewBox="0 0 64 56" fill="none" xmlns="http://www.w3.org/2000/svg">
<circle cx="27.6694" cy="27.6694" r="27.6694" fill="#EBD1B9"/>
<mask id="path-2-inside-1_60_23" fill="white">
<path d="M51.159 33.5494H34.9423C34.244 33.5494 33.5509 33.3952 32.9393 33.1034C31.3486 32.3576 30.3201 30.7569 30.3201 29.0279V26.5369C30.514 24.3501 31.5997 22.3523 33.3022 21.02C33.3013 21.02 33.3013 21.02 33.3013 21.02C33.2973 21.02 33.3334 20.9916 33.3678 20.9664C34.755 19.9014 36.3919 19.3484 38.118 19.3484H47.9471C49.6942 19.3484 51.3427 19.9141 52.7159 20.9829L52.7738 21.0301C54.589 22.4389 55.6926 24.6083 55.7661 26.9523C55.7756 27.0128 55.7763 27.1175 55.7763 27.2229V29.0279C55.7763 30.7844 54.7206 32.3969 53.0883 33.1332C52.4878 33.4093 51.8386 33.5494 51.159 33.5494ZM38.1181 20.135C36.5642 20.135 35.0933 20.6336 33.8615 21.5761L33.7824 21.6413C32.2513 22.8392 31.2727 24.6367 31.1 26.5708L31.1025 29.0279C31.1025 30.4525 31.9542 31.7724 33.2727 32.392C33.7819 32.6343 34.3589 32.7619 34.9424 32.7619H51.1592C51.7254 32.7619 52.266 32.6453 52.7656 32.4164C54.1202 31.8053 54.9945 30.4769 54.9945 29.0279V27.2229C54.9945 27.1513 54.9962 27.0812 54.9876 27.0138C54.9188 24.8688 53.9255 22.9163 52.2589 21.621L52.1994 21.5729C51.0022 20.6441 49.5185 20.1352 47.9474 20.1352L38.1181 20.135Z"/>
<path d="M50.2127 25.0108H35.8782C34.4181 25.0108 33.2309 23.8154 33.2309 22.3476V21.0685L33.3841 20.9504C34.7527 19.9011 36.3887 19.3482 38.1147 19.3482H47.9438C49.6902 19.3482 51.3404 19.9139 52.7134 20.9828L52.8644 21.1016V22.3476C52.8646 23.8154 51.675 25.0108 50.2127 25.0108ZM34.0129 21.462V22.3478C34.0129 23.3822 34.8499 24.2245 35.8782 24.2245H50.2127C51.2434 24.2245 52.0816 23.3822 52.0816 22.3478V21.4912C50.8783 20.603 49.4518 20.135 47.9438 20.135H38.1147C36.6251 20.135 35.2128 20.5928 34.0129 21.462Z"/>
<path d="M49.2686 36.1937C49.0521 36.1937 48.8768 36.0174 48.8768 35.8003V33.5262H37.2183V34.8116C37.2183 35.0286 37.0431 35.2049 36.8282 35.2049C36.6123 35.2049 36.4363 35.0286 36.4363 34.8116V32.7399H49.6586V35.8003C49.6588 36.0176 49.4837 36.1937 49.2686 36.1937Z"/>
<path d="M55.4111 18.7773C55.2843 18.7773 55.1592 18.716 55.0841 18.6004C52.318 14.3928 47.6672 11.8799 42.647 11.8799C37.835 11.8799 33.2943 14.2348 30.5007 18.1802C30.3748 18.3565 30.1315 18.3973 29.9549 18.2713C29.7796 18.1456 29.7383 17.9 29.8643 17.7231C32.804 13.5708 37.5833 11.0915 42.647 11.0915C47.9313 11.0915 52.8248 13.7375 55.7372 18.1667C55.856 18.3484 55.8067 18.5923 55.627 18.7126C55.5603 18.756 55.4853 18.7773 55.4111 18.7773Z"/>
<path d="M59.2743 14.8877C59.1538 14.8877 59.0359 14.8319 58.9591 14.7287C55.1481 9.55152 49.0504 6.46197 42.6469 6.46197C36.3504 6.46197 30.517 9.32655 26.6434 14.3237C26.5103 14.4943 26.264 14.525 26.0936 14.3921C25.924 14.2575 25.8935 14.0108 26.0256 13.8399C30.0485 8.65091 36.1081 5.67527 42.6469 5.67527C49.2967 5.67527 55.6291 8.88452 59.5879 14.26C59.7168 14.4348 59.68 14.6808 59.5064 14.8106C59.4356 14.8625 59.3551 14.8877 59.2743 14.8877Z"/>
<path d="M63.3012 10.8424C63.1848 10.8424 63.0706 10.7919 62.9932 10.6928C58.0412 4.39723 50.6255 0.786722 42.6471 0.786722C34.8733 0.786722 27.5736 4.25176 22.6199 10.2918C22.4823 10.4594 22.2349 10.4829 22.0694 10.3451C21.9019 10.2068 21.8786 9.95817 22.0171 9.79147C27.1184 3.56804 34.6395 0 42.6471 0C50.8663 0 58.5056 3.71894 63.6078 10.2051C63.7416 10.375 63.7128 10.6229 63.543 10.758C63.4718 10.8148 63.3856 10.8424 63.3012 10.8424Z"/>
<path d="M52.085 40.7654H47.7945C46.3172 40.7654 45.116 39.5572 45.116 38.0713C45.116 36.5857 46.3172 35.3757 47.7945 35.3757H52.085C53.5614 35.3757 54.7642 36.5857 54.7642 38.0713C54.7642 39.5572 53.5614 40.7654 52.085 40.7654ZM47.7945 36.163C46.7488 36.163 45.898 37.0189 45.898 38.0711C45.898 39.1229 46.749 39.9785 47.7945 39.9785H52.085C53.1314 39.9785 53.9813 39.1227 53.9813 38.0711C53.9813 37.0187 53.1312 36.163 52.085 36.163H47.7945Z"/>
<path d="M53.3456 45.3818H48.9136C47.3941 45.3818 46.1584 44.1728 46.1584 42.6869C46.1584 41.2018 47.3941 39.9921 48.9136 39.9921H53.3456C54.8644 39.9921 56.1009 41.2018 56.1009 42.6869C56.1009 44.1728 54.8644 45.3818 53.3456 45.3818ZM48.9136 40.7788C47.825 40.7788 46.9411 41.6354 46.9411 42.6869C46.9411 43.7394 47.8248 44.5951 48.9136 44.5951H53.3456C54.4335 44.5951 55.3181 43.7392 55.3181 42.6869C55.3181 41.6352 54.4337 40.7788 53.3456 40.7788H48.9136Z"/>
<path d="M52.8952 50.0014H49.4166C47.9948 50.0014 46.8372 48.7924 46.8372 47.3073C46.8372 45.8214 47.9946 44.6116 49.4166 44.6116H52.8952C54.3169 44.6116 55.4745 45.8214 55.4745 47.3073C55.4743 48.7924 54.3169 50.0014 52.8952 50.0014ZM49.4164 45.3991C48.4255 45.3991 47.6192 46.255 47.6192 47.3073C47.6192 48.359 48.4255 49.2147 49.4164 49.2147H52.8951C53.886 49.2147 54.6921 48.3588 54.6921 47.3073C54.6921 46.2548 53.886 45.3991 52.8951 45.3991H49.4164Z"/>
<path d="M44.1204 43.5947C43.7421 43.5947 43.3588 43.5136 42.9927 43.3429L39.1051 41.5227C38.9087 41.4308 38.8235 41.1963 38.9149 40.9997C39.0055 40.8022 39.2394 40.7172 39.4349 40.8093L43.3235 42.6295C44.272 43.073 45.4029 42.6586 45.8448 41.7052C46.0584 41.2436 46.0802 40.7244 45.9057 40.246C45.7321 39.767 45.3842 39.3856 44.9243 39.1699L41.0352 37.3491C40.8388 37.2572 40.7543 37.0227 40.8459 36.8261C40.9356 36.6286 41.1703 36.5436 41.3659 36.6357L45.2536 38.4574C45.9035 38.7602 46.396 39.2997 46.6417 39.9771C46.8858 40.6527 46.8559 41.3842 46.5541 42.0371C46.1004 43.0174 45.1308 43.5947 44.1204 43.5947Z"/>
<path d="M27.3491 52.2093C27.3428 52.2093 27.3381 52.2093 27.3334 52.2084C27.123 52.2007 26.9588 52.0321 26.9588 51.8214C26.9588 51.756 28.1726 42.8717 28.4471 42.3211C28.4847 42.2423 34.6746 34.5174 36.0785 34.5174C36.2889 34.5174 36.9278 34.5174 41.8555 36.8646C42.0512 36.9574 42.1339 37.1926 42.0426 37.3884C41.9495 37.5842 41.718 37.6684 41.5209 37.5756C37.096 35.4677 36.2366 35.3039 36.0785 35.3039C35.1431 35.4911 29.55 41.9835 29.1417 42.6814C28.9571 43.1965 27.7761 51.4021 27.7393 51.8434C27.7228 52.0488 27.5524 52.2093 27.3491 52.2093Z"/>
<path d="M33.6088 52.5477C33.4851 52.5477 33.3638 52.4892 33.2879 52.3815C33.1637 52.2039 33.2052 51.9575 33.3827 51.8326C40.3554 46.8912 36.3342 40.3233 36.1598 40.0472C36.0658 39.8986 36.0815 39.706 36.1964 39.5744C36.313 39.4432 36.4992 39.4047 36.657 39.4808L39.5297 40.8557C39.7244 40.9493 39.8071 41.1837 39.7141 41.3796C39.6203 41.5761 39.388 41.6579 39.1926 41.5667L37.3468 40.6827C38.3033 42.9284 39.7141 48.3085 33.833 52.4759C33.7642 52.524 33.6861 52.5477 33.6088 52.5477Z"/>
<path d="M49.2686 53.2506C49.0521 53.2506 48.8768 53.0738 48.8768 52.8565V49.6569C48.8768 49.4406 49.0521 49.2635 49.2686 49.2635C49.4835 49.2635 49.6588 49.4404 49.6588 49.6569V52.8565C49.6588 53.0738 49.4837 53.2506 49.2686 53.2506Z"/>
<path d="M36.8033 53.2506C36.5875 53.2506 36.4115 53.0737 36.4115 52.8565V48.7649C36.4115 48.5478 36.5873 48.3723 36.8033 48.3723C37.0193 48.3723 37.1944 48.5478 37.1944 48.7649V52.8565C37.1944 53.0737 37.0193 53.2506 36.8033 53.2506Z"/>
</mask>
<path d="M51.159 33.5494H34.9423C34.244 33.5494 33.5509 33.3952 32.9393 33.1034C31.3486 32.3576 30.3201 30.7569 30.3201 29.0279V26.5369C30.514 24.3501 31.5997 22.3523 33.3022 21.02C33.3013 21.02 33.3013 21.02 33.3013 21.02C33.2973 21.02 33.3334 20.9916 33.3678 20.9664C34.755 19.9014 36.3919 19.3484 38.118 19.3484H47.9471C49.6942 19.3484 51.3427 19.9141 52.7159 20.9829L52.7738 21.0301C54.589 22.4389 55.6926 24.6083 55.7661 26.9523C55.7756 27.0128 55.7763 27.1175 55.7763 27.2229V29.0279C55.7763 30.7844 54.7206 32.3969 53.0883 33.1332C52.4878 33.4093 51.8386 33.5494 51.159 33.5494ZM38.1181 20.135C36.5642 20.135 35.0933 20.6336 33.8615 21.5761L33.7824 21.6413C32.2513 22.8392 31.2727 24.6367 31.1 26.5708L31.1025 29.0279C31.1025 30.4525 31.9542 31.7724 33.2727 32.392C33.7819 32.6343 34.3589 32.7619 34.9424 32.7619H51.1592C51.7254 32.7619 52.266 32.6453 52.7656 32.4164C54.1202 31.8053 54.9945 30.4769 54.9945 29.0279V27.2229C54.9945 27.1513 54.9962 27.0812 54.9876 27.0138C54.9188 24.8688 53.9255 22.9163 52.2589 21.621L52.1994 21.5729C51.0022 20.6441 49.5185 20.1352 47.9474 20.1352L38.1181 20.135Z" fill="#C08E71"/>
<path d="M50.2127 25.0108H35.8782C34.4181 25.0108 33.2309 23.8154 33.2309 22.3476V21.0685L33.3841 20.9504C34.7527 19.9011 36.3887 19.3482 38.1147 19.3482H47.9438C49.6902 19.3482 51.3404 19.9139 52.7134 20.9828L52.8644 21.1016V22.3476C52.8646 23.8154 51.675 25.0108 50.2127 25.0108ZM34.0129 21.462V22.3478C34.0129 23.3822 34.8499 24.2245 35.8782 24.2245H50.2127C51.2434 24.2245 52.0816 23.3822 52.0816 22.3478V21.4912C50.8783 20.603 49.4518 20.135 47.9438 20.135H38.1147C36.6251 20.135 35.2128 20.5928 34.0129 21.462Z" fill="#C08E71"/>
<path d="M49.2686 36.1937C49.0521 36.1937 48.8768 36.0174 48.8768 35.8003V33.5262H37.2183V34.8116C37.2183 35.0286 37.0431 35.2049 36.8282 35.2049C36.6123 35.2049 36.4363 35.0286 36.4363 34.8116V32.7399H49.6586V35.8003C49.6588 36.0176 49.4837 36.1937 49.2686 36.1937Z" fill="#C08E71"/>
<path d="M55.4111 18.7773C55.2843 18.7773 55.1592 18.716 55.0841 18.6004C52.318 14.3928 47.6672 11.8799 42.647 11.8799C37.835 11.8799 33.2943 14.2348 30.5007 18.1802C30.3748 18.3565 30.1315 18.3973 29.9549 18.2713C29.7796 18.1456 29.7383 17.9 29.8643 17.7231C32.804 13.5708 37.5833 11.0915 42.647 11.0915C47.9313 11.0915 52.8248 13.7375 55.7372 18.1667C55.856 18.3484 55.8067 18.5923 55.627 18.7126C55.5603 18.756 55.4853 18.7773 55.4111 18.7773Z" fill="#C08E71"/>
<path d="M59.2743 14.8877C59.1538 14.8877 59.0359 14.8319 58.9591 14.7287C55.1481 9.55152 49.0504 6.46197 42.6469 6.46197C36.3504 6.46197 30.517 9.32655 26.6434 14.3237C26.5103 14.4943 26.264 14.525 26.0936 14.3921C25.924 14.2575 25.8935 14.0108 26.0256 13.8399C30.0485 8.65091 36.1081 5.67527 42.6469 5.67527C49.2967 5.67527 55.6291 8.88452 59.5879 14.26C59.7168 14.4348 59.68 14.6808 59.5064 14.8106C59.4356 14.8625 59.3551 14.8877 59.2743 14.8877Z" fill="#C08E71"/>
<path d="M63.3012 10.8424C63.1848 10.8424 63.0706 10.7919 62.9932 10.6928C58.0412 4.39723 50.6255 0.786722 42.6471 0.786722C34.8733 0.786722 27.5736 4.25176 22.6199 10.2918C22.4823 10.4594 22.2349 10.4829 22.0694 10.3451C21.9019 10.2068 21.8786 9.95817 22.0171 9.79147C27.1184 3.56804 34.6395 0 42.6471 0C50.8663 0 58.5056 3.71894 63.6078 10.2051C63.7416 10.375 63.7128 10.6229 63.543 10.758C63.4718 10.8148 63.3856 10.8424 63.3012 10.8424Z" fill="#C08E71"/>
<path d="M52.085 40.7654H47.7945C46.3172 40.7654 45.116 39.5572 45.116 38.0713C45.116 36.5857 46.3172 35.3757 47.7945 35.3757H52.085C53.5614 35.3757 54.7642 36.5857 54.7642 38.0713C54.7642 39.5572 53.5614 40.7654 52.085 40.7654ZM47.7945 36.163C46.7488 36.163 45.898 37.0189 45.898 38.0711C45.898 39.1229 46.749 39.9785 47.7945 39.9785H52.085C53.1314 39.9785 53.9813 39.1227 53.9813 38.0711C53.9813 37.0187 53.1312 36.163 52.085 36.163H47.7945Z" fill="#C08E71"/>
<path d="M53.3456 45.3818H48.9136C47.3941 45.3818 46.1584 44.1728 46.1584 42.6869C46.1584 41.2018 47.3941 39.9921 48.9136 39.9921H53.3456C54.8644 39.9921 56.1009 41.2018 56.1009 42.6869C56.1009 44.1728 54.8644 45.3818 53.3456 45.3818ZM48.9136 40.7788C47.825 40.7788 46.9411 41.6354 46.9411 42.6869C46.9411 43.7394 47.8248 44.5951 48.9136 44.5951H53.3456C54.4335 44.5951 55.3181 43.7392 55.3181 42.6869C55.3181 41.6352 54.4337 40.7788 53.3456 40.7788H48.9136Z" fill="#C08E71"/>
<path d="M52.8952 50.0014H49.4166C47.9948 50.0014 46.8372 48.7924 46.8372 47.3073C46.8372 45.8214 47.9946 44.6116 49.4166 44.6116H52.8952C54.3169 44.6116 55.4745 45.8214 55.4745 47.3073C55.4743 48.7924 54.3169 50.0014 52.8952 50.0014ZM49.4164 45.3991C48.4255 45.3991 47.6192 46.255 47.6192 47.3073C47.6192 48.359 48.4255 49.2147 49.4164 49.2147H52.8951C53.886 49.2147 54.6921 48.3588 54.6921 47.3073C54.6921 46.2548 53.886 45.3991 52.8951 45.3991H49.4164Z" fill="#C08E71"/>
<path d="M44.1204 43.5947C43.7421 43.5947 43.3588 43.5136 42.9927 43.3429L39.1051 41.5227C38.9087 41.4308 38.8235 41.1963 38.9149 40.9997C39.0055 40.8022 39.2394 40.7172 39.4349 40.8093L43.3235 42.6295C44.272 43.073 45.4029 42.6586 45.8448 41.7052C46.0584 41.2436 46.0802 40.7244 45.9057 40.246C45.7321 39.767 45.3842 39.3856 44.9243 39.1699L41.0352 37.3491C40.8388 37.2572 40.7543 37.0227 40.8459 36.8261C40.9356 36.6286 41.1703 36.5436 41.3659 36.6357L45.2536 38.4574C45.9035 38.7602 46.396 39.2997 46.6417 39.9771C46.8858 40.6527 46.8559 41.3842 46.5541 42.0371C46.1004 43.0174 45.1308 43.5947 44.1204 43.5947Z" fill="#C08E71"/>
<path d="M27.3491 52.2093C27.3428 52.2093 27.3381 52.2093 27.3334 52.2084C27.123 52.2007 26.9588 52.0321 26.9588 51.8214C26.9588 51.756 28.1726 42.8717 28.4471 42.3211C28.4847 42.2423 34.6746 34.5174 36.0785 34.5174C36.2889 34.5174 36.9278 34.5174 41.8555 36.8646C42.0512 36.9574 42.1339 37.1926 42.0426 37.3884C41.9495 37.5842 41.718 37.6684 41.5209 37.5756C37.096 35.4677 36.2366 35.3039 36.0785 35.3039C35.1431 35.4911 29.55 41.9835 29.1417 42.6814C28.9571 43.1965 27.7761 51.4021 27.7393 51.8434C27.7228 52.0488 27.5524 52.2093 27.3491 52.2093Z" fill="#C08E71"/>
<path d="M33.6088 52.5477C33.4851 52.5477 33.3638 52.4892 33.2879 52.3815C33.1637 52.2039 33.2052 51.9575 33.3827 51.8326C40.3554 46.8912 36.3342 40.3233 36.1598 40.0472C36.0658 39.8986 36.0815 39.706 36.1964 39.5744C36.313 39.4432 36.4992 39.4047 36.657 39.4808L39.5297 40.8557C39.7244 40.9493 39.8071 41.1837 39.7141 41.3796C39.6203 41.5761 39.388 41.6579 39.1926 41.5667L37.3468 40.6827C38.3033 42.9284 39.7141 48.3085 33.833 52.4759C33.7642 52.524 33.6861 52.5477 33.6088 52.5477Z" fill="#C08E71"/>
<path d="M49.2686 53.2506C49.0521 53.2506 48.8768 53.0738 48.8768 52.8565V49.6569C48.8768 49.4406 49.0521 49.2635 49.2686 49.2635C49.4835 49.2635 49.6588 49.4404 49.6588 49.6569V52.8565C49.6588 53.0738 49.4837 53.2506 49.2686 53.2506Z" fill="#C08E71"/>
<path d="M36.8033 53.2506C36.5875 53.2506 36.4115 53.0737 36.4115 52.8565V48.7649C36.4115 48.5478 36.5873 48.3723 36.8033 48.3723C37.0193 48.3723 37.1944 48.5478 37.1944 48.7649V52.8565C37.1944 53.0737 37.0193 53.2506 36.8033 53.2506Z" fill="#C08E71"/>
<path d="M51.159 33.5494H34.9423C34.244 33.5494 33.5509 33.3952 32.9393 33.1034C31.3486 32.3576 30.3201 30.7569 30.3201 29.0279V26.5369C30.514 24.3501 31.5997 22.3523 33.3022 21.02C33.3013 21.02 33.3013 21.02 33.3013 21.02C33.2973 21.02 33.3334 20.9916 33.3678 20.9664C34.755 19.9014 36.3919 19.3484 38.118 19.3484H47.9471C49.6942 19.3484 51.3427 19.9141 52.7159 20.9829L52.7738 21.0301C54.589 22.4389 55.6926 24.6083 55.7661 26.9523C55.7756 27.0128 55.7763 27.1175 55.7763 27.2229V29.0279C55.7763 30.7844 54.7206 32.3969 53.0883 33.1332C52.4878 33.4093 51.8386 33.5494 51.159 33.5494ZM38.1181 20.135C36.5642 20.135 35.0933 20.6336 33.8615 21.5761L33.7824 21.6413C32.2513 22.8392 31.2727 24.6367 31.1 26.5708L31.1025 29.0279C31.1025 30.4525 31.9542 31.7724 33.2727 32.392C33.7819 32.6343 34.3589 32.7619 34.9424 32.7619H51.1592C51.7254 32.7619 52.266 32.6453 52.7656 32.4164C54.1202 31.8053 54.9945 30.4769 54.9945 29.0279V27.2229C54.9945 27.1513 54.9962 27.0812 54.9876 27.0138C54.9188 24.8688 53.9255 22.9163 52.2589 21.621L52.1994 21.5729C51.0022 20.6441 49.5185 20.1352 47.9474 20.1352L38.1181 20.135Z" stroke="#C08E71" stroke-width="1.04413" mask="url(#path-2-inside-1_60_23)"/>
<path d="M50.2127 25.0108H35.8782C34.4181 25.0108 33.2309 23.8154 33.2309 22.3476V21.0685L33.3841 20.9504C34.7527 19.9011 36.3887 19.3482 38.1147 19.3482H47.9438C49.6902 19.3482 51.3404 19.9139 52.7134 20.9828L52.8644 21.1016V22.3476C52.8646 23.8154 51.675 25.0108 50.2127 25.0108ZM34.0129 21.462V22.3478C34.0129 23.3822 34.8499 24.2245 35.8782 24.2245H50.2127C51.2434 24.2245 52.0816 23.3822 52.0816 22.3478V21.4912C50.8783 20.603 49.4518 20.135 47.9438 20.135H38.1147C36.6251 20.135 35.2128 20.5928 34.0129 21.462Z" stroke="#C08E71" stroke-width="1.04413" mask="url(#path-2-inside-1_60_23)"/>
<path d="M49.2686 36.1937C49.0521 36.1937 48.8768 36.0174 48.8768 35.8003V33.5262H37.2183V34.8116C37.2183 35.0286 37.0431 35.2049 36.8282 35.2049C36.6123 35.2049 36.4363 35.0286 36.4363 34.8116V32.7399H49.6586V35.8003C49.6588 36.0176 49.4837 36.1937 49.2686 36.1937Z" stroke="#C08E71" stroke-width="1.04413" mask="url(#path-2-inside-1_60_23)"/>
<path d="M55.4111 18.7773C55.2843 18.7773 55.1592 18.716 55.0841 18.6004C52.318 14.3928 47.6672 11.8799 42.647 11.8799C37.835 11.8799 33.2943 14.2348 30.5007 18.1802C30.3748 18.3565 30.1315 18.3973 29.9549 18.2713C29.7796 18.1456 29.7383 17.9 29.8643 17.7231C32.804 13.5708 37.5833 11.0915 42.647 11.0915C47.9313 11.0915 52.8248 13.7375 55.7372 18.1667C55.856 18.3484 55.8067 18.5923 55.627 18.7126C55.5603 18.756 55.4853 18.7773 55.4111 18.7773Z" stroke="#C08E71" stroke-width="1.04413" mask="url(#path-2-inside-1_60_23)"/>
<path d="M59.2743 14.8877C59.1538 14.8877 59.0359 14.8319 58.9591 14.7287C55.1481 9.55152 49.0504 6.46197 42.6469 6.46197C36.3504 6.46197 30.517 9.32655 26.6434 14.3237C26.5103 14.4943 26.264 14.525 26.0936 14.3921C25.924 14.2575 25.8935 14.0108 26.0256 13.8399C30.0485 8.65091 36.1081 5.67527 42.6469 5.67527C49.2967 5.67527 55.6291 8.88452 59.5879 14.26C59.7168 14.4348 59.68 14.6808 59.5064 14.8106C59.4356 14.8625 59.3551 14.8877 59.2743 14.8877Z" stroke="#C08E71" stroke-width="1.04413" mask="url(#path-2-inside-1_60_23)"/>
<path d="M63.3012 10.8424C63.1848 10.8424 63.0706 10.7919 62.9932 10.6928C58.0412 4.39723 50.6255 0.786722 42.6471 0.786722C34.8733 0.786722 27.5736 4.25176 22.6199 10.2918C22.4823 10.4594 22.2349 10.4829 22.0694 10.3451C21.9019 10.2068 21.8786 9.95817 22.0171 9.79147C27.1184 3.56804 34.6395 0 42.6471 0C50.8663 0 58.5056 3.71894 63.6078 10.2051C63.7416 10.375 63.7128 10.6229 63.543 10.758C63.4718 10.8148 63.3856 10.8424 63.3012 10.8424Z" stroke="#C08E71" stroke-width="1.04413" mask="url(#path-2-inside-1_60_23)"/>
<path d="M52.085 40.7654H47.7945C46.3172 40.7654 45.116 39.5572 45.116 38.0713C45.116 36.5857 46.3172 35.3757 47.7945 35.3757H52.085C53.5614 35.3757 54.7642 36.5857 54.7642 38.0713C54.7642 39.5572 53.5614 40.7654 52.085 40.7654ZM47.7945 36.163C46.7488 36.163 45.898 37.0189 45.898 38.0711C45.898 39.1229 46.749 39.9785 47.7945 39.9785H52.085C53.1314 39.9785 53.9813 39.1227 53.9813 38.0711C53.9813 37.0187 53.1312 36.163 52.085 36.163H47.7945Z" stroke="#C08E71" stroke-width="1.04413" mask="url(#path-2-inside-1_60_23)"/>
<path d="M53.3456 45.3818H48.9136C47.3941 45.3818 46.1584 44.1728 46.1584 42.6869C46.1584 41.2018 47.3941 39.9921 48.9136 39.9921H53.3456C54.8644 39.9921 56.1009 41.2018 56.1009 42.6869C56.1009 44.1728 54.8644 45.3818 53.3456 45.3818ZM48.9136 40.7788C47.825 40.7788 46.9411 41.6354 46.9411 42.6869C46.9411 43.7394 47.8248 44.5951 48.9136 44.5951H53.3456C54.4335 44.5951 55.3181 43.7392 55.3181 42.6869C55.3181 41.6352 54.4337 40.7788 53.3456 40.7788H48.9136Z" stroke="#C08E71" stroke-width="1.04413" mask="url(#path-2-inside-1_60_23)"/>
<path d="M52.8952 50.0014H49.4166C47.9948 50.0014 46.8372 48.7924 46.8372 47.3073C46.8372 45.8214 47.9946 44.6116 49.4166 44.6116H52.8952C54.3169 44.6116 55.4745 45.8214 55.4745 47.3073C55.4743 48.7924 54.3169 50.0014 52.8952 50.0014ZM49.4164 45.3991C48.4255 45.3991 47.6192 46.255 47.6192 47.3073C47.6192 48.359 48.4255 49.2147 49.4164 49.2147H52.8951C53.886 49.2147 54.6921 48.3588 54.6921 47.3073C54.6921 46.2548 53.886 45.3991 52.8951 45.3991H49.4164Z" stroke="#C08E71" stroke-width="1.04413" mask="url(#path-2-inside-1_60_23)"/>
<path d="M44.1204 43.5947C43.7421 43.5947 43.3588 43.5136 42.9927 43.3429L39.1051 41.5227C38.9087 41.4308 38.8235 41.1963 38.9149 40.9997C39.0055 40.8022 39.2394 40.7172 39.4349 40.8093L43.3235 42.6295C44.272 43.073 45.4029 42.6586 45.8448 41.7052C46.0584 41.2436 46.0802 40.7244 45.9057 40.246C45.7321 39.767 45.3842 39.3856 44.9243 39.1699L41.0352 37.3491C40.8388 37.2572 40.7543 37.0227 40.8459 36.8261C40.9356 36.6286 41.1703 36.5436 41.3659 36.6357L45.2536 38.4574C45.9035 38.7602 46.396 39.2997 46.6417 39.9771C46.8858 40.6527 46.8559 41.3842 46.5541 42.0371C46.1004 43.0174 45.1308 43.5947 44.1204 43.5947Z" stroke="#C08E71" stroke-width="1.04413" mask="url(#path-2-inside-1_60_23)"/>
<path d="M27.3491 52.2093C27.3428 52.2093 27.3381 52.2093 27.3334 52.2084C27.123 52.2007 26.9588 52.0321 26.9588 51.8214C26.9588 51.756 28.1726 42.8717 28.4471 42.3211C28.4847 42.2423 34.6746 34.5174 36.0785 34.5174C36.2889 34.5174 36.9278 34.5174 41.8555 36.8646C42.0512 36.9574 42.1339 37.1926 42.0426 37.3884C41.9495 37.5842 41.718 37.6684 41.5209 37.5756C37.096 35.4677 36.2366 35.3039 36.0785 35.3039C35.1431 35.4911 29.55 41.9835 29.1417 42.6814C28.9571 43.1965 27.7761 51.4021 27.7393 51.8434C27.7228 52.0488 27.5524 52.2093 27.3491 52.2093Z" stroke="#C08E71" stroke-width="1.04413" mask="url(#path-2-inside-1_60_23)"/>
<path d="M33.6088 52.5477C33.4851 52.5477 33.3638 52.4892 33.2879 52.3815C33.1637 52.2039 33.2052 51.9575 33.3827 51.8326C40.3554 46.8912 36.3342 40.3233 36.1598 40.0472C36.0658 39.8986 36.0815 39.706 36.1964 39.5744C36.313 39.4432 36.4992 39.4047 36.657 39.4808L39.5297 40.8557C39.7244 40.9493 39.8071 41.1837 39.7141 41.3796C39.6203 41.5761 39.388 41.6579 39.1926 41.5667L37.3468 40.6827C38.3033 42.9284 39.7141 48.3085 33.833 52.4759C33.7642 52.524 33.6861 52.5477 33.6088 52.5477Z" stroke="#C08E71" stroke-width="1.04413" mask="url(#path-2-inside-1_60_23)"/>
<path d="M49.2686 53.2506C49.0521 53.2506 48.8768 53.0738 48.8768 52.8565V49.6569C48.8768 49.4406 49.0521 49.2635 49.2686 49.2635C49.4835 49.2635 49.6588 49.4404 49.6588 49.6569V52.8565C49.6588 53.0738 49.4837 53.2506 49.2686 53.2506Z" stroke="#C08E71" stroke-width="1.04413" mask="url(#path-2-inside-1_60_23)"/>
<path d="M36.8033 53.2506C36.5875 53.2506 36.4115 53.0737 36.4115 52.8565V48.7649C36.4115 48.5478 36.5873 48.3723 36.8033 48.3723C37.0193 48.3723 37.1944 48.5478 37.1944 48.7649V52.8565C37.1944 53.0737 37.0193 53.2506 36.8033 53.2506Z" stroke="#C08E71" stroke-width="1.04413" mask="url(#path-2-inside-1_60_23)"/>
</svg>
