<svg width="122" height="107" viewBox="0 0 122 107" fill="none" xmlns="http://www.w3.org/2000/svg">
<circle cx="53" cy="53.6719" r="53" fill="#EBD1B9"/>
<mask id="path-2-inside-1_944_3" fill="white">
<path d="M97.9935 64.9347H66.9308C65.5932 64.9347 64.2657 64.6395 63.0942 64.0804C60.0472 62.6519 58.0772 59.5859 58.0772 56.2739V51.5026C58.4487 47.3137 60.5282 43.487 63.7893 40.935C63.7875 40.935 63.7875 40.935 63.7875 40.935C63.78 40.935 63.8491 40.8807 63.9149 40.8324C66.5722 38.7924 69.7076 37.7332 73.0138 37.7332H91.8411C95.1877 37.7332 98.3453 38.8168 100.976 40.8641L101.087 40.9544C104.564 43.6529 106.678 47.8083 106.818 52.2982C106.836 52.4141 106.838 52.6146 106.838 52.8165V56.2739C106.838 59.6384 104.816 62.7271 101.689 64.1376C100.539 64.6664 99.2953 64.9347 97.9935 64.9347ZM73.0141 39.2398C70.0376 39.2398 67.22 40.1949 64.8606 42.0002L64.7092 42.1251C61.7763 44.4197 59.9019 47.8627 59.5711 51.5674L59.5758 56.2739C59.5758 59.0027 61.2072 61.5309 63.7328 62.7178C64.7081 63.1819 65.8134 63.4263 66.9312 63.4263H97.9938C99.0784 63.4263 100.114 63.2031 101.071 62.7646C103.666 61.5939 105.34 59.0495 105.34 56.2739V52.8165C105.34 52.6794 105.344 52.5452 105.327 52.4159C105.195 48.3073 103.293 44.5673 100.1 42.0863L99.9864 41.9941C97.6932 40.215 94.8512 39.2402 91.8418 39.2402L73.0141 39.2398Z"/>
<path d="M96.1808 48.5794H68.7236C65.9267 48.5794 63.6528 46.2895 63.6528 43.478V41.0279L63.9463 40.8018C66.5677 38.7919 69.7014 37.7329 73.0076 37.7329H91.8349C95.18 37.7329 98.3409 38.8165 100.971 40.8637L101.26 41.0913V43.478C101.26 46.2895 98.982 48.5794 96.1808 48.5794ZM65.1507 41.7817V43.4783C65.1507 45.4597 66.7539 47.0733 68.7236 47.0733H96.1808C98.1552 47.0733 99.7608 45.4597 99.7608 43.4783V41.8375C97.4558 40.1362 94.7233 39.2398 91.8349 39.2398H73.0076C70.1542 39.2398 67.449 40.1168 65.1507 41.7817Z"/>
<path d="M94.3725 69.9998C93.9577 69.9998 93.622 69.6621 93.622 69.2463V64.8904H71.2906V67.3524C71.2906 67.7682 70.9548 68.1059 70.5432 68.1059C70.1298 68.1059 69.7926 67.7682 69.7926 67.3524V63.3841H95.1195V69.2463C95.1199 69.6625 94.7845 69.9998 94.3725 69.9998Z"/>
<path d="M106.138 36.6392C105.895 36.6392 105.656 36.5218 105.512 36.3004C100.214 28.2409 91.3051 23.4274 81.6891 23.4274C72.4718 23.4274 63.7742 27.9382 58.4232 35.4955C58.1819 35.8332 57.7159 35.9113 57.3777 35.6701C57.0419 35.4292 56.9628 34.9587 57.2041 34.62C62.835 26.6663 71.9896 21.9173 81.6891 21.9173C91.8109 21.9173 101.184 26.9856 106.763 35.4696C106.991 35.8177 106.896 36.285 106.552 36.5153C106.424 36.5985 106.28 36.6392 106.138 36.6392Z"/>
<path d="M113.538 29.1888C113.307 29.1888 113.081 29.0819 112.934 28.8843C105.634 18.9675 93.9546 13.0496 81.6888 13.0496C69.6281 13.0496 58.4544 18.5366 51.0345 28.1085C50.7797 28.4353 50.3079 28.494 49.9815 28.2395C49.6565 27.9818 49.5982 27.5091 49.8512 27.1819C57.557 17.2424 69.1639 11.5427 81.6888 11.5427C94.4264 11.5427 106.556 17.6899 114.139 27.9864C114.386 28.3212 114.315 28.7924 113.983 29.0412C113.847 29.1405 113.693 29.1888 113.538 29.1888Z"/>
<path d="M121.251 21.4402C121.028 21.4402 120.81 21.3434 120.662 21.1537C111.176 9.09464 96.9715 2.17882 81.6891 2.17882C66.7987 2.17882 52.8163 8.81599 43.3276 20.3854C43.0642 20.7066 42.5903 20.7515 42.2732 20.4877C41.9525 20.2227 41.9078 19.7465 42.173 19.4271C51.9444 7.50634 66.3509 0.671875 81.6891 0.671875C97.4329 0.671875 112.066 7.79539 121.839 20.2195C122.095 20.5449 122.04 21.0197 121.715 21.2786C121.578 21.3873 121.413 21.4402 121.251 21.4402Z"/>
<path d="M99.7672 78.7569H91.5489C88.7191 78.7569 86.4184 76.4425 86.4184 73.5964C86.4184 70.7506 88.7191 68.433 91.5489 68.433H99.7672C102.595 68.433 104.899 70.7506 104.899 73.5964C104.899 76.4425 102.595 78.7569 99.7672 78.7569ZM91.5489 69.941C89.5459 69.941 87.9163 71.5804 87.9163 73.596C87.9163 75.6105 89.5463 77.2496 91.5489 77.2496H99.7672C101.772 77.2496 103.399 75.6102 103.399 73.596C103.399 71.5801 101.771 69.941 99.7672 69.941H91.5489Z"/>
<path d="M102.182 87.5994H93.6926C90.7819 87.5994 88.4149 85.2835 88.4149 82.4374C88.4149 79.5927 90.7819 77.2755 93.6926 77.2755H102.182C105.091 77.2755 107.46 79.5927 107.46 82.4374C107.46 85.2835 105.091 87.5994 102.182 87.5994ZM93.6926 78.7824C91.6073 78.7824 89.9143 80.4232 89.9143 82.4374C89.9143 84.4534 91.6069 86.0924 93.6926 86.0924H102.182C104.266 86.0924 105.96 84.453 105.96 82.4374C105.96 80.4229 104.266 78.7824 102.182 78.7824H93.6926Z"/>
<path d="M101.319 96.448H94.6561C91.9326 96.448 89.7152 94.1322 89.7152 91.2875C89.7152 88.4414 91.9322 86.1242 94.6561 86.1242H101.319C104.042 86.1242 106.26 88.4414 106.26 91.2875C106.259 94.1322 104.042 96.448 101.319 96.448ZM94.6557 87.6325C92.7576 87.6325 91.2132 89.2719 91.2132 91.2875C91.2132 93.3021 92.7576 94.9411 94.6557 94.9411H101.319C103.217 94.9411 104.761 93.3017 104.761 91.2875C104.761 89.2716 103.217 87.6325 101.319 87.6325H94.6557Z"/>
<path d="M84.5113 84.1763C83.7865 84.1763 83.0524 84.0208 82.3512 83.694L74.9046 80.2074C74.5284 80.0314 74.3652 79.5821 74.5402 79.2056C74.7138 78.8272 75.1619 78.6644 75.5363 78.8408L82.9848 82.3274C84.8016 83.177 86.9678 82.3832 87.8143 80.5569C88.2234 79.6728 88.2653 78.6782 87.931 77.762C87.5984 76.8444 86.932 76.1139 86.0512 75.7006L78.6016 72.213C78.2254 72.037 78.0636 71.5877 78.239 71.2112C78.4108 70.8328 78.8604 70.6701 79.2352 70.8465L86.6818 74.3359C87.9267 74.9159 88.8702 75.9494 89.3408 77.2468C89.8083 78.541 89.751 79.9421 89.173 81.1927C88.3039 83.0705 86.4467 84.1763 84.5113 84.1763Z"/>
<path d="M52.3864 100.677C52.3742 100.677 52.3653 100.677 52.3563 100.675C51.9533 100.661 51.6387 100.338 51.6387 99.9342C51.6387 99.809 53.9638 82.7914 54.4896 81.7367C54.5615 81.5858 66.4182 66.7889 69.1073 66.7889C69.5103 66.7889 70.7341 66.7889 80.173 71.2849C80.5477 71.4627 80.7063 71.9131 80.5312 72.2882C80.353 72.6634 79.9095 72.8247 79.5319 72.6468C71.0562 68.6092 69.4101 68.2955 69.1073 68.2955C67.3155 68.6541 56.602 81.0901 55.82 82.4268C55.4663 83.4135 53.2042 99.1311 53.1337 99.9764C53.1022 100.37 52.7758 100.677 52.3864 100.677Z"/>
<path d="M64.3766 101.325C64.1396 101.325 63.9073 101.213 63.762 101.007C63.524 100.667 63.6035 100.195 63.9435 99.9556C77.2995 90.4907 69.5969 77.91 69.263 77.3812C69.083 77.0964 69.113 76.7275 69.3332 76.4755C69.5565 76.2242 69.913 76.1504 70.2154 76.2962L75.7179 78.9298C76.0908 79.1091 76.2494 79.5581 76.0711 79.9332C75.8914 80.3097 75.4465 80.4663 75.0721 80.2917L71.5366 78.5983C73.3688 82.8999 76.0711 93.2054 64.8061 101.188C64.6744 101.28 64.5248 101.325 64.3766 101.325Z"/>
<path d="M94.3726 102.672C93.9577 102.672 93.622 102.333 93.622 101.917V95.7882C93.622 95.3738 93.9577 95.0347 94.3726 95.0347C94.7842 95.0347 95.1199 95.3734 95.1199 95.7882V101.917C95.1199 102.333 94.7846 102.672 94.3726 102.672Z"/>
<path d="M70.4956 102.672C70.0822 102.672 69.7451 102.333 69.7451 101.917V94.0795C69.7451 93.6637 70.0819 93.3275 70.4956 93.3275C70.9094 93.3275 71.2448 93.6637 71.2448 94.0795V101.917C71.2448 102.333 70.9094 102.672 70.4956 102.672Z"/>
</mask>
<path d="M97.9935 64.9347H66.9308C65.5932 64.9347 64.2657 64.6395 63.0942 64.0804C60.0472 62.6519 58.0772 59.5859 58.0772 56.2739V51.5026C58.4487 47.3137 60.5282 43.487 63.7893 40.935C63.7875 40.935 63.7875 40.935 63.7875 40.935C63.78 40.935 63.8491 40.8807 63.9149 40.8324C66.5722 38.7924 69.7076 37.7332 73.0138 37.7332H91.8411C95.1877 37.7332 98.3453 38.8168 100.976 40.8641L101.087 40.9544C104.564 43.6529 106.678 47.8083 106.818 52.2982C106.836 52.4141 106.838 52.6146 106.838 52.8165V56.2739C106.838 59.6384 104.816 62.7271 101.689 64.1376C100.539 64.6664 99.2953 64.9347 97.9935 64.9347ZM73.0141 39.2398C70.0376 39.2398 67.22 40.1949 64.8606 42.0002L64.7092 42.1251C61.7763 44.4197 59.9019 47.8627 59.5711 51.5674L59.5758 56.2739C59.5758 59.0027 61.2072 61.5309 63.7328 62.7178C64.7081 63.1819 65.8134 63.4263 66.9312 63.4263H97.9938C99.0784 63.4263 100.114 63.2031 101.071 62.7646C103.666 61.5939 105.34 59.0495 105.34 56.2739V52.8165C105.34 52.6794 105.344 52.5452 105.327 52.4159C105.195 48.3073 103.293 44.5673 100.1 42.0863L99.9864 41.9941C97.6932 40.215 94.8512 39.2402 91.8418 39.2402L73.0141 39.2398Z" fill="#C08E71"/>
<path d="M96.1808 48.5794H68.7236C65.9267 48.5794 63.6528 46.2895 63.6528 43.478V41.0279L63.9463 40.8018C66.5677 38.7919 69.7014 37.7329 73.0076 37.7329H91.8349C95.18 37.7329 98.3409 38.8165 100.971 40.8637L101.26 41.0913V43.478C101.26 46.2895 98.982 48.5794 96.1808 48.5794ZM65.1507 41.7817V43.4783C65.1507 45.4597 66.7539 47.0733 68.7236 47.0733H96.1808C98.1552 47.0733 99.7608 45.4597 99.7608 43.4783V41.8375C97.4558 40.1362 94.7233 39.2398 91.8349 39.2398H73.0076C70.1542 39.2398 67.449 40.1168 65.1507 41.7817Z" fill="#C08E71"/>
<path d="M94.3725 69.9998C93.9577 69.9998 93.622 69.6621 93.622 69.2463V64.8904H71.2906V67.3524C71.2906 67.7682 70.9548 68.1059 70.5432 68.1059C70.1298 68.1059 69.7926 67.7682 69.7926 67.3524V63.3841H95.1195V69.2463C95.1199 69.6625 94.7845 69.9998 94.3725 69.9998Z" fill="#C08E71"/>
<path d="M106.138 36.6392C105.895 36.6392 105.656 36.5218 105.512 36.3004C100.214 28.2409 91.3051 23.4274 81.6891 23.4274C72.4718 23.4274 63.7742 27.9382 58.4232 35.4955C58.1819 35.8332 57.7159 35.9113 57.3777 35.6701C57.0419 35.4292 56.9628 34.9587 57.2041 34.62C62.835 26.6663 71.9896 21.9173 81.6891 21.9173C91.8109 21.9173 101.184 26.9856 106.763 35.4696C106.991 35.8177 106.896 36.285 106.552 36.5153C106.424 36.5985 106.28 36.6392 106.138 36.6392Z" fill="#C08E71"/>
<path d="M113.538 29.1888C113.307 29.1888 113.081 29.0819 112.934 28.8843C105.634 18.9675 93.9546 13.0496 81.6888 13.0496C69.6281 13.0496 58.4544 18.5366 51.0345 28.1085C50.7797 28.4353 50.3079 28.494 49.9815 28.2395C49.6565 27.9818 49.5982 27.5091 49.8512 27.1819C57.557 17.2424 69.1639 11.5427 81.6888 11.5427C94.4264 11.5427 106.556 17.6899 114.139 27.9864C114.386 28.3212 114.315 28.7924 113.983 29.0412C113.847 29.1405 113.693 29.1888 113.538 29.1888Z" fill="#C08E71"/>
<path d="M121.251 21.4402C121.028 21.4402 120.81 21.3434 120.662 21.1537C111.176 9.09464 96.9715 2.17882 81.6891 2.17882C66.7987 2.17882 52.8163 8.81599 43.3276 20.3854C43.0642 20.7066 42.5903 20.7515 42.2732 20.4877C41.9525 20.2227 41.9078 19.7465 42.173 19.4271C51.9444 7.50634 66.3509 0.671875 81.6891 0.671875C97.4329 0.671875 112.066 7.79539 121.839 20.2195C122.095 20.5449 122.04 21.0197 121.715 21.2786C121.578 21.3873 121.413 21.4402 121.251 21.4402Z" fill="#C08E71"/>
<path d="M99.7672 78.7569H91.5489C88.7191 78.7569 86.4184 76.4425 86.4184 73.5964C86.4184 70.7506 88.7191 68.433 91.5489 68.433H99.7672C102.595 68.433 104.899 70.7506 104.899 73.5964C104.899 76.4425 102.595 78.7569 99.7672 78.7569ZM91.5489 69.941C89.5459 69.941 87.9163 71.5804 87.9163 73.596C87.9163 75.6105 89.5463 77.2496 91.5489 77.2496H99.7672C101.772 77.2496 103.399 75.6102 103.399 73.596C103.399 71.5801 101.771 69.941 99.7672 69.941H91.5489Z" fill="#C08E71"/>
<path d="M102.182 87.5994H93.6926C90.7819 87.5994 88.4149 85.2835 88.4149 82.4374C88.4149 79.5927 90.7819 77.2755 93.6926 77.2755H102.182C105.091 77.2755 107.46 79.5927 107.46 82.4374C107.46 85.2835 105.091 87.5994 102.182 87.5994ZM93.6926 78.7824C91.6073 78.7824 89.9143 80.4232 89.9143 82.4374C89.9143 84.4534 91.6069 86.0924 93.6926 86.0924H102.182C104.266 86.0924 105.96 84.453 105.96 82.4374C105.96 80.4229 104.266 78.7824 102.182 78.7824H93.6926Z" fill="#C08E71"/>
<path d="M101.319 96.448H94.6561C91.9326 96.448 89.7152 94.1322 89.7152 91.2875C89.7152 88.4414 91.9322 86.1242 94.6561 86.1242H101.319C104.042 86.1242 106.26 88.4414 106.26 91.2875C106.259 94.1322 104.042 96.448 101.319 96.448ZM94.6557 87.6325C92.7576 87.6325 91.2132 89.2719 91.2132 91.2875C91.2132 93.3021 92.7576 94.9411 94.6557 94.9411H101.319C103.217 94.9411 104.761 93.3017 104.761 91.2875C104.761 89.2716 103.217 87.6325 101.319 87.6325H94.6557Z" fill="#C08E71"/>
<path d="M84.5113 84.1763C83.7865 84.1763 83.0524 84.0208 82.3512 83.694L74.9046 80.2074C74.5284 80.0314 74.3652 79.5821 74.5402 79.2056C74.7138 78.8272 75.1619 78.6644 75.5363 78.8408L82.9848 82.3274C84.8016 83.177 86.9678 82.3832 87.8143 80.5569C88.2234 79.6728 88.2653 78.6782 87.931 77.762C87.5984 76.8444 86.932 76.1139 86.0512 75.7006L78.6016 72.213C78.2254 72.037 78.0636 71.5877 78.239 71.2112C78.4108 70.8328 78.8604 70.6701 79.2352 70.8465L86.6818 74.3359C87.9267 74.9159 88.8702 75.9494 89.3408 77.2468C89.8083 78.541 89.751 79.9421 89.173 81.1927C88.3039 83.0705 86.4467 84.1763 84.5113 84.1763Z" fill="#C08E71"/>
<path d="M52.3864 100.677C52.3742 100.677 52.3653 100.677 52.3563 100.675C51.9533 100.661 51.6387 100.338 51.6387 99.9342C51.6387 99.809 53.9638 82.7914 54.4896 81.7367C54.5615 81.5858 66.4182 66.7889 69.1073 66.7889C69.5103 66.7889 70.7341 66.7889 80.173 71.2849C80.5477 71.4627 80.7063 71.9131 80.5312 72.2882C80.353 72.6634 79.9095 72.8247 79.5319 72.6468C71.0562 68.6092 69.4101 68.2955 69.1073 68.2955C67.3155 68.6541 56.602 81.0901 55.82 82.4268C55.4663 83.4135 53.2042 99.1311 53.1337 99.9764C53.1022 100.37 52.7758 100.677 52.3864 100.677Z" fill="#C08E71"/>
<path d="M64.3766 101.325C64.1396 101.325 63.9073 101.213 63.762 101.007C63.524 100.667 63.6035 100.195 63.9435 99.9556C77.2995 90.4907 69.5969 77.91 69.263 77.3812C69.083 77.0964 69.113 76.7275 69.3332 76.4755C69.5565 76.2242 69.913 76.1504 70.2154 76.2962L75.7179 78.9298C76.0908 79.1091 76.2494 79.5581 76.0711 79.9332C75.8914 80.3097 75.4465 80.4663 75.0721 80.2917L71.5366 78.5983C73.3688 82.8999 76.0711 93.2054 64.8061 101.188C64.6744 101.28 64.5248 101.325 64.3766 101.325Z" fill="#C08E71"/>
<path d="M94.3726 102.672C93.9577 102.672 93.622 102.333 93.622 101.917V95.7882C93.622 95.3738 93.9577 95.0347 94.3726 95.0347C94.7842 95.0347 95.1199 95.3734 95.1199 95.7882V101.917C95.1199 102.333 94.7846 102.672 94.3726 102.672Z" fill="#C08E71"/>
<path d="M70.4956 102.672C70.0822 102.672 69.7451 102.333 69.7451 101.917V94.0795C69.7451 93.6637 70.0819 93.3275 70.4956 93.3275C70.9094 93.3275 71.2448 93.6637 71.2448 94.0795V101.917C71.2448 102.333 70.9094 102.672 70.4956 102.672Z" fill="#C08E71"/>
<path d="M97.9935 64.9347H66.9308C65.5932 64.9347 64.2657 64.6395 63.0942 64.0804C60.0472 62.6519 58.0772 59.5859 58.0772 56.2739V51.5026C58.4487 47.3137 60.5282 43.487 63.7893 40.935C63.7875 40.935 63.7875 40.935 63.7875 40.935C63.78 40.935 63.8491 40.8807 63.9149 40.8324C66.5722 38.7924 69.7076 37.7332 73.0138 37.7332H91.8411C95.1877 37.7332 98.3453 38.8168 100.976 40.8641L101.087 40.9544C104.564 43.6529 106.678 47.8083 106.818 52.2982C106.836 52.4141 106.838 52.6146 106.838 52.8165V56.2739C106.838 59.6384 104.816 62.7271 101.689 64.1376C100.539 64.6664 99.2953 64.9347 97.9935 64.9347ZM73.0141 39.2398C70.0376 39.2398 67.22 40.1949 64.8606 42.0002L64.7092 42.1251C61.7763 44.4197 59.9019 47.8627 59.5711 51.5674L59.5758 56.2739C59.5758 59.0027 61.2072 61.5309 63.7328 62.7178C64.7081 63.1819 65.8134 63.4263 66.9312 63.4263H97.9938C99.0784 63.4263 100.114 63.2031 101.071 62.7646C103.666 61.5939 105.34 59.0495 105.34 56.2739V52.8165C105.34 52.6794 105.344 52.5452 105.327 52.4159C105.195 48.3073 103.293 44.5673 100.1 42.0863L99.9864 41.9941C97.6932 40.215 94.8512 39.2402 91.8418 39.2402L73.0141 39.2398Z" stroke="#C08E71" stroke-width="2" mask="url(#path-2-inside-1_944_3)"/>
<path d="M96.1808 48.5794H68.7236C65.9267 48.5794 63.6528 46.2895 63.6528 43.478V41.0279L63.9463 40.8018C66.5677 38.7919 69.7014 37.7329 73.0076 37.7329H91.8349C95.18 37.7329 98.3409 38.8165 100.971 40.8637L101.26 41.0913V43.478C101.26 46.2895 98.982 48.5794 96.1808 48.5794ZM65.1507 41.7817V43.4783C65.1507 45.4597 66.7539 47.0733 68.7236 47.0733H96.1808C98.1552 47.0733 99.7608 45.4597 99.7608 43.4783V41.8375C97.4558 40.1362 94.7233 39.2398 91.8349 39.2398H73.0076C70.1542 39.2398 67.449 40.1168 65.1507 41.7817Z" stroke="#C08E71" stroke-width="2" mask="url(#path-2-inside-1_944_3)"/>
<path d="M94.3725 69.9998C93.9577 69.9998 93.622 69.6621 93.622 69.2463V64.8904H71.2906V67.3524C71.2906 67.7682 70.9548 68.1059 70.5432 68.1059C70.1298 68.1059 69.7926 67.7682 69.7926 67.3524V63.3841H95.1195V69.2463C95.1199 69.6625 94.7845 69.9998 94.3725 69.9998Z" stroke="#C08E71" stroke-width="2" mask="url(#path-2-inside-1_944_3)"/>
<path d="M106.138 36.6392C105.895 36.6392 105.656 36.5218 105.512 36.3004C100.214 28.2409 91.3051 23.4274 81.6891 23.4274C72.4718 23.4274 63.7742 27.9382 58.4232 35.4955C58.1819 35.8332 57.7159 35.9113 57.3777 35.6701C57.0419 35.4292 56.9628 34.9587 57.2041 34.62C62.835 26.6663 71.9896 21.9173 81.6891 21.9173C91.8109 21.9173 101.184 26.9856 106.763 35.4696C106.991 35.8177 106.896 36.285 106.552 36.5153C106.424 36.5985 106.28 36.6392 106.138 36.6392Z" stroke="#C08E71" stroke-width="2" mask="url(#path-2-inside-1_944_3)"/>
<path d="M113.538 29.1888C113.307 29.1888 113.081 29.0819 112.934 28.8843C105.634 18.9675 93.9546 13.0496 81.6888 13.0496C69.6281 13.0496 58.4544 18.5366 51.0345 28.1085C50.7797 28.4353 50.3079 28.494 49.9815 28.2395C49.6565 27.9818 49.5982 27.5091 49.8512 27.1819C57.557 17.2424 69.1639 11.5427 81.6888 11.5427C94.4264 11.5427 106.556 17.6899 114.139 27.9864C114.386 28.3212 114.315 28.7924 113.983 29.0412C113.847 29.1405 113.693 29.1888 113.538 29.1888Z" stroke="#C08E71" stroke-width="2" mask="url(#path-2-inside-1_944_3)"/>
<path d="M121.251 21.4402C121.028 21.4402 120.81 21.3434 120.662 21.1537C111.176 9.09464 96.9715 2.17882 81.6891 2.17882C66.7987 2.17882 52.8163 8.81599 43.3276 20.3854C43.0642 20.7066 42.5903 20.7515 42.2732 20.4877C41.9525 20.2227 41.9078 19.7465 42.173 19.4271C51.9444 7.50634 66.3509 0.671875 81.6891 0.671875C97.4329 0.671875 112.066 7.79539 121.839 20.2195C122.095 20.5449 122.04 21.0197 121.715 21.2786C121.578 21.3873 121.413 21.4402 121.251 21.4402Z" stroke="#C08E71" stroke-width="2" mask="url(#path-2-inside-1_944_3)"/>
<path d="M99.7672 78.7569H91.5489C88.7191 78.7569 86.4184 76.4425 86.4184 73.5964C86.4184 70.7506 88.7191 68.433 91.5489 68.433H99.7672C102.595 68.433 104.899 70.7506 104.899 73.5964C104.899 76.4425 102.595 78.7569 99.7672 78.7569ZM91.5489 69.941C89.5459 69.941 87.9163 71.5804 87.9163 73.596C87.9163 75.6105 89.5463 77.2496 91.5489 77.2496H99.7672C101.772 77.2496 103.399 75.6102 103.399 73.596C103.399 71.5801 101.771 69.941 99.7672 69.941H91.5489Z" stroke="#C08E71" stroke-width="2" mask="url(#path-2-inside-1_944_3)"/>
<path d="M102.182 87.5994H93.6926C90.7819 87.5994 88.4149 85.2835 88.4149 82.4374C88.4149 79.5927 90.7819 77.2755 93.6926 77.2755H102.182C105.091 77.2755 107.46 79.5927 107.46 82.4374C107.46 85.2835 105.091 87.5994 102.182 87.5994ZM93.6926 78.7824C91.6073 78.7824 89.9143 80.4232 89.9143 82.4374C89.9143 84.4534 91.6069 86.0924 93.6926 86.0924H102.182C104.266 86.0924 105.96 84.453 105.96 82.4374C105.96 80.4229 104.266 78.7824 102.182 78.7824H93.6926Z" stroke="#C08E71" stroke-width="2" mask="url(#path-2-inside-1_944_3)"/>
<path d="M101.319 96.448H94.6561C91.9326 96.448 89.7152 94.1322 89.7152 91.2875C89.7152 88.4414 91.9322 86.1242 94.6561 86.1242H101.319C104.042 86.1242 106.26 88.4414 106.26 91.2875C106.259 94.1322 104.042 96.448 101.319 96.448ZM94.6557 87.6325C92.7576 87.6325 91.2132 89.2719 91.2132 91.2875C91.2132 93.3021 92.7576 94.9411 94.6557 94.9411H101.319C103.217 94.9411 104.761 93.3017 104.761 91.2875C104.761 89.2716 103.217 87.6325 101.319 87.6325H94.6557Z" stroke="#C08E71" stroke-width="2" mask="url(#path-2-inside-1_944_3)"/>
<path d="M84.5113 84.1763C83.7865 84.1763 83.0524 84.0208 82.3512 83.694L74.9046 80.2074C74.5284 80.0314 74.3652 79.5821 74.5402 79.2056C74.7138 78.8272 75.1619 78.6644 75.5363 78.8408L82.9848 82.3274C84.8016 83.177 86.9678 82.3832 87.8143 80.5569C88.2234 79.6728 88.2653 78.6782 87.931 77.762C87.5984 76.8444 86.932 76.1139 86.0512 75.7006L78.6016 72.213C78.2254 72.037 78.0636 71.5877 78.239 71.2112C78.4108 70.8328 78.8604 70.6701 79.2352 70.8465L86.6818 74.3359C87.9267 74.9159 88.8702 75.9494 89.3408 77.2468C89.8083 78.541 89.751 79.9421 89.173 81.1927C88.3039 83.0705 86.4467 84.1763 84.5113 84.1763Z" stroke="#C08E71" stroke-width="2" mask="url(#path-2-inside-1_944_3)"/>
<path d="M52.3864 100.677C52.3742 100.677 52.3653 100.677 52.3563 100.675C51.9533 100.661 51.6387 100.338 51.6387 99.9342C51.6387 99.809 53.9638 82.7914 54.4896 81.7367C54.5615 81.5858 66.4182 66.7889 69.1073 66.7889C69.5103 66.7889 70.7341 66.7889 80.173 71.2849C80.5477 71.4627 80.7063 71.9131 80.5312 72.2882C80.353 72.6634 79.9095 72.8247 79.5319 72.6468C71.0562 68.6092 69.4101 68.2955 69.1073 68.2955C67.3155 68.6541 56.602 81.0901 55.82 82.4268C55.4663 83.4135 53.2042 99.1311 53.1337 99.9764C53.1022 100.37 52.7758 100.677 52.3864 100.677Z" stroke="#C08E71" stroke-width="2" mask="url(#path-2-inside-1_944_3)"/>
<path d="M64.3766 101.325C64.1396 101.325 63.9073 101.213 63.762 101.007C63.524 100.667 63.6035 100.195 63.9435 99.9556C77.2995 90.4907 69.5969 77.91 69.263 77.3812C69.083 77.0964 69.113 76.7275 69.3332 76.4755C69.5565 76.2242 69.913 76.1504 70.2154 76.2962L75.7179 78.9298C76.0908 79.1091 76.2494 79.5581 76.0711 79.9332C75.8914 80.3097 75.4465 80.4663 75.0721 80.2917L71.5366 78.5983C73.3688 82.8999 76.0711 93.2054 64.8061 101.188C64.6744 101.28 64.5248 101.325 64.3766 101.325Z" stroke="#C08E71" stroke-width="2" mask="url(#path-2-inside-1_944_3)"/>
<path d="M94.3726 102.672C93.9577 102.672 93.622 102.333 93.622 101.917V95.7882C93.622 95.3738 93.9577 95.0347 94.3726 95.0347C94.7842 95.0347 95.1199 95.3734 95.1199 95.7882V101.917C95.1199 102.333 94.7846 102.672 94.3726 102.672Z" stroke="#C08E71" stroke-width="2" mask="url(#path-2-inside-1_944_3)"/>
<path d="M70.4956 102.672C70.0822 102.672 69.7451 102.333 69.7451 101.917V94.0795C69.7451 93.6637 70.0819 93.3275 70.4956 93.3275C70.9094 93.3275 71.2448 93.6637 71.2448 94.0795V101.917C71.2448 102.333 70.9094 102.672 70.4956 102.672Z" stroke="#C08E71" stroke-width="2" mask="url(#path-2-inside-1_944_3)"/>
</svg>
