<svg width="69" height="56" viewBox="0 0 69 56" fill="none" xmlns="http://www.w3.org/2000/svg">
<circle cx="27.6694" cy="28.1914" r="27.6694" fill="#EBD1B9"/>
<mask id="path-2-inside-1_60_133" fill="white">
<path d="M33.1717 19.7581C32.1574 22.6505 29.7117 23.1279 29.6388 24.7085C29.6388 24.7085 29.0004 23.5659 29.5692 22.7847C30.3804 21.6836 31.4821 21.572 32.3444 19.56C33.2032 17.5557 32.7474 16.1303 32.6914 15.6024C32.6914 15.6024 33.9935 17.4107 33.1717 19.7581Z"/>
<path d="M24.3404 23.4406C24.1259 23.4406 23.9501 23.2723 23.9462 23.0594C23.9426 22.8831 23.9264 22.674 23.9083 22.437C23.8425 21.5713 23.7423 20.2635 24.1276 18.9308C24.6143 17.2378 28.3669 13.1928 28.5257 13.0219C28.6744 12.8643 28.924 12.8535 29.0836 12.9977C29.2438 13.1436 29.2539 13.3906 29.1066 13.55C28.0557 14.6791 25.2478 17.8874 24.8864 19.1453C24.5403 20.344 24.6298 21.5199 24.6952 22.3785C24.7146 22.6312 24.731 22.8559 24.7349 23.0437C24.7389 23.258 24.5659 23.4367 24.3481 23.4406C24.3451 23.4406 24.3432 23.4406 24.3404 23.4406Z"/>
<path d="M45.6783 42.0795C45.5016 42.0795 45.3392 41.9601 45.2959 41.7808C45.2448 41.5718 45.374 41.3605 45.587 41.309C47.3849 40.8779 49.5253 39.5544 51.7743 37.4839C51.9337 37.3374 52.1828 37.3467 52.3319 37.5042C52.4809 37.6616 52.4723 37.9081 52.3123 38.0548C50.6745 39.5622 48.2106 41.4814 45.7716 42.0671C45.7398 42.0747 45.7098 42.0795 45.6783 42.0795Z"/>
<path d="M59.5006 27.7211C59.4603 27.7211 59.4169 27.7141 59.3751 27.7008C59.1684 27.6315 59.0572 27.4099 59.1268 27.2065C59.3548 26.5443 59.4793 25.9618 59.4967 25.4768C59.5709 23.5289 57.8215 22.6436 56.4149 21.9326C55.8826 21.6628 55.4234 21.4317 55.1419 21.166C54.5774 20.6379 54.3407 20.0149 54.1129 19.4113C53.9315 18.9317 53.7587 18.4803 53.4291 18.0459C53.0496 17.5475 52.4844 17.6498 51.8882 17.8143C51.6018 17.8922 51.2492 17.9874 51.0712 17.6669C50.9977 17.5359 50.9828 17.3815 50.959 17.1459C50.9276 16.8238 50.881 16.3824 50.6758 16.0317C50.5696 15.8493 50.2579 15.5957 49.8132 15.6478C49.6065 15.672 49.4221 15.7134 49.2225 15.7578C48.8029 15.8491 48.28 15.9631 47.3897 15.9825C46.8911 15.9918 46.1696 15.8006 45.7225 14.8291C45.568 14.4978 45.4425 14.0532 45.3108 13.5837C45.0474 12.6509 44.7191 11.4899 44.0947 11.0788C43.2581 10.5282 41.833 11.0719 40.1856 11.698C37.2889 12.7975 33.3253 14.3066 29.8082 10.5375C28.0311 8.63545 25.6617 7.11315 22.7659 6.01213C19.2533 4.67856 15.5402 5.88355 15.5028 5.89585C15.2975 5.9661 15.0723 5.85522 15.0033 5.65175C14.933 5.44734 15.0438 5.22599 15.2505 5.15649C15.4118 5.10357 19.2625 3.84413 23.0491 5.28373C26.0585 6.4278 28.528 8.01797 30.388 10.0087C33.5394 13.3863 36.9185 12.1025 39.9011 10.9687C41.755 10.2653 43.3559 9.65542 44.5316 10.4291C45.4007 11.0015 45.7557 12.2609 46.0703 13.3731C46.1949 13.8121 46.3108 14.2286 46.4395 14.5038C46.7342 15.1393 47.1151 15.2064 47.3739 15.2017C48.1862 15.1844 48.6452 15.084 49.0512 14.9951C49.2775 14.9459 49.4857 14.9007 49.7192 14.8744C50.4897 14.7753 51.1054 15.2073 51.3587 15.6417C51.6434 16.1274 51.7033 16.6741 51.741 17.0453C52.2971 16.894 53.3515 16.6492 54.0589 17.5765C54.4579 18.0998 54.6676 18.6511 54.8514 19.1393C55.066 19.7063 55.2512 20.1969 55.6835 20.6009C55.8838 20.788 56.3166 21.0063 56.7741 21.2379C58.2093 21.9646 60.3796 23.062 60.2858 25.5068C60.2637 26.0677 60.1256 26.7241 59.8741 27.4564C59.819 27.6188 59.6653 27.7211 59.5006 27.7211Z"/>
<path d="M21.5933 39.0594C21.4974 39.0594 21.4017 39.0257 21.3259 38.9557C19.0066 36.8406 17.1786 34.8653 15.5734 32.738C12.6374 28.8435 11.7951 24.1846 11.605 20.9622C11.5924 20.747 11.7588 20.5637 11.976 20.5504C12.1874 20.5333 12.3798 20.7019 12.3928 20.9171C12.5761 24.0326 13.3864 28.5314 16.2058 32.2718C17.781 34.3585 19.5783 36.3012 21.861 38.3834C22.0208 38.5291 22.031 38.7756 21.8835 38.934C21.8055 39.0171 21.6997 39.0594 21.5933 39.0594Z"/>
<path d="M39.3712 54.8168C39.3316 54.8168 39.293 54.8115 39.2536 54.7995C39.0456 54.7364 38.9295 54.5179 38.9934 54.3122C40.4784 49.5271 35.4928 43.6252 30.2146 37.377C26.3192 32.7659 22.2914 27.9962 20.4045 23.1924C19.5871 21.1126 18.9765 18.8408 18.3854 16.644C16.8681 11.0041 15.2991 5.17331 10.0989 1.83557C9.91635 1.71781 9.86433 1.4767 9.98342 1.29596C10.1018 1.11503 10.3465 1.06358 10.5291 1.18059C15.9831 4.68212 17.5919 10.662 19.1475 16.4437C19.733 18.6187 20.3382 20.8702 21.1396 22.9094C22.9798 27.5932 26.9659 32.3128 30.8206 36.8771C36.2388 43.2921 41.3568 49.3531 39.748 54.5415C39.6943 54.7092 39.5391 54.8168 39.3712 54.8168Z"/>
<path d="M33.7736 10.9521C33.5939 10.9521 33.4305 10.828 33.3896 10.6456C32.661 7.38427 30.686 4.7477 27.6788 3.02097C23.5189 0.631656 17.5337 0.102834 12.4324 1.66876C12.2223 1.7349 12.003 1.61808 11.9388 1.41219C11.8738 1.20629 11.99 0.987892 12.1986 0.92398C17.5002 -0.705854 23.7322 -0.147601 28.075 2.34644C31.2785 4.18533 33.3824 6.99743 34.1601 10.4772C34.2057 10.6877 34.0724 10.8959 33.8595 10.9426C33.8311 10.9482 33.8026 10.9521 33.7736 10.9521Z"/>
<path d="M55.622 49.1215C55.5678 49.1215 55.5141 49.1113 55.4611 49.088C51.5844 47.384 50.5283 45.7424 49.3233 41.6756C49.2611 41.4689 49.381 41.2515 49.5907 41.1913C49.8014 41.1289 50.0182 41.2496 50.0797 41.4557C51.2264 45.3245 52.1625 46.7857 55.7822 48.3753C55.9802 48.4627 56.0701 48.6933 55.9825 48.8908C55.9162 49.0349 55.7726 49.1215 55.622 49.1215Z"/>
<path d="M65.2541 38.5914C65.0682 38.5914 64.8805 38.5712 64.6911 38.5265L49.8501 35.0907C49.6379 35.0423 49.5064 34.8325 49.556 34.6227C49.6057 34.4121 49.8192 34.2795 50.0299 34.3318L64.8709 37.7663C65.7755 37.9776 66.6832 37.4176 66.8944 36.5247L67.5578 33.7227C67.7691 32.8291 67.2061 31.9308 66.3016 31.7217L51.4613 28.2873C51.2492 28.2388 51.1167 28.0275 51.167 27.8185C51.216 27.6087 51.4312 27.4762 51.6411 27.5276L66.4814 30.962C67.8086 31.2693 68.6366 32.5872 68.3251 33.9007L67.6617 36.7025C67.396 37.8287 66.3772 38.5914 65.2541 38.5914Z"/>
<path d="M64.6596 37.0957C64.516 37.0957 64.3694 37.0801 64.2236 37.0458C64.0097 36.9973 63.8782 36.7868 63.9287 36.577C63.9784 36.3671 64.1936 36.2337 64.4035 36.2861C65.0101 36.4281 65.6187 36.0535 65.7598 35.4539C65.8105 35.2441 66.0248 35.11 66.2347 35.1623C66.4461 35.2123 66.5786 35.4221 66.529 35.6319C66.3212 36.5054 65.5309 37.0957 64.6596 37.0957Z"/>
<path d="M53.8082 35.8994C53.7775 35.8994 53.7475 35.897 53.7168 35.8884C53.5046 35.8399 53.3731 35.6302 53.4234 35.4196L54.9864 28.8173C55.0362 28.6075 55.2498 28.4751 55.4605 28.5272C55.6727 28.5757 55.8042 28.7855 55.7539 28.9951L54.1916 35.5983C54.1488 35.7775 53.9857 35.8994 53.8082 35.8994Z"/>
<path d="M49.857 35.0391C49.8444 35.0391 49.8309 35.0382 49.8177 35.036L40.3259 34.1064C40.1082 34.0853 39.9505 33.8951 39.9726 33.6799C39.9937 33.4662 40.1885 33.3087 40.4031 33.3305L49.5518 34.2265L50.9808 28.1891L42.3809 24.9786C42.1758 24.9022 42.0741 24.6767 42.1513 24.4764C42.2278 24.2728 42.4556 24.1714 42.6591 24.2478L51.5823 27.5794C51.7675 27.6494 51.8725 27.8421 51.8269 28.0333L50.2409 34.7382C50.1985 34.9158 50.0393 35.0391 49.857 35.0391Z"/>
<path d="M40.3599 34.0542C40.33 34.0542 40.2993 34.0525 40.2699 34.0447C40.0569 33.9948 39.9254 33.7859 39.9757 33.5761C40.102 33.0426 40.4528 32.8242 40.7093 32.6668C40.9378 32.5255 41.042 32.4531 41.0908 32.2425C41.1413 32.0303 41.0805 31.9203 40.9394 31.6943C40.78 31.4402 40.5633 31.0916 40.6903 30.5574C40.8156 30.0239 41.1673 29.8072 41.4236 29.6488C41.6524 29.5076 41.7566 29.4358 41.8061 29.2254C41.8551 29.0125 41.7942 28.9033 41.6531 28.6756C41.4945 28.4207 41.2778 28.0728 41.4038 27.5394C41.5301 27.0051 41.8809 26.7884 42.1374 26.6293C42.3661 26.4873 42.4703 26.4156 42.5199 26.2026C42.5717 25.9896 42.5103 25.8804 42.3684 25.6529C42.2097 25.3988 41.993 25.0509 42.12 24.5158C42.1698 24.3052 42.385 24.1727 42.5939 24.2256C42.8053 24.2748 42.9378 24.4839 42.8888 24.6935C42.8377 24.9065 42.8992 25.0149 43.0403 25.2434C43.199 25.4983 43.4157 25.8462 43.2887 26.3804C43.1617 26.9146 42.8116 27.1322 42.5561 27.2898C42.3265 27.4326 42.2224 27.5041 42.1711 27.7179C42.1223 27.9286 42.1822 28.0378 42.3233 28.2653C42.4835 28.5195 42.7004 28.8681 42.5734 29.403C42.4481 29.9363 42.0963 30.1523 41.8415 30.3099C41.6111 30.4511 41.5078 30.5229 41.4583 30.7349C41.4087 30.947 41.4694 31.0563 41.6098 31.2846C41.7682 31.5387 41.9851 31.8861 41.8589 32.4193C41.7336 32.9543 41.3827 33.1702 41.1263 33.3286C40.8975 33.4699 40.7941 33.5416 40.7423 33.7536C40.7004 33.9335 40.5389 34.0542 40.3599 34.0542Z"/>
<path d="M48.7601 33.2894C48.7436 33.2894 48.727 33.2893 48.7091 33.286L42.3866 32.4923C42.1707 32.4651 42.0177 32.2692 42.0444 32.0555C42.072 31.8417 42.2662 31.6929 42.4861 31.7176L48.8086 32.5124C49.0245 32.5396 49.1785 32.7345 49.1515 32.9491C49.1253 33.1457 48.9557 33.2894 48.7601 33.2894Z"/>
<path d="M49.712 29.1123C49.6671 29.1123 49.6213 29.1045 49.5763 29.089L46.6278 28.0191C46.4228 27.9442 46.3171 27.7197 46.3928 27.5192C46.4676 27.3155 46.6971 27.2119 46.8984 27.2859L49.8486 28.3558C50.0528 28.4298 50.1578 28.6547 50.0818 28.8567C50.0244 29.015 49.8731 29.1123 49.712 29.1123Z"/>
<path d="M62.2928 36.5933C62.2628 36.5933 62.2321 36.5909 62.2029 36.584L57.5352 35.5022C57.323 35.4539 57.1913 35.2441 57.2416 35.0336C57.2913 34.8237 57.5043 34.6903 57.7149 34.7425L62.3826 35.8234C62.5948 35.8726 62.7263 36.0831 62.6768 36.2922C62.6342 36.4718 62.4725 36.5933 62.2928 36.5933Z"/>
</mask>
<path d="M33.1717 19.7581C32.1574 22.6505 29.7117 23.1279 29.6388 24.7085C29.6388 24.7085 29.0004 23.5659 29.5692 22.7847C30.3804 21.6836 31.4821 21.572 32.3444 19.56C33.2032 17.5557 32.7474 16.1303 32.6914 15.6024C32.6914 15.6024 33.9935 17.4107 33.1717 19.7581Z" fill="#C08E71"/>
<path d="M24.3404 23.4406C24.1259 23.4406 23.9501 23.2723 23.9462 23.0594C23.9426 22.8831 23.9264 22.674 23.9083 22.437C23.8425 21.5713 23.7423 20.2635 24.1276 18.9308C24.6143 17.2378 28.3669 13.1928 28.5257 13.0219C28.6744 12.8643 28.924 12.8535 29.0836 12.9977C29.2438 13.1436 29.2539 13.3906 29.1066 13.55C28.0557 14.6791 25.2478 17.8874 24.8864 19.1453C24.5403 20.344 24.6298 21.5199 24.6952 22.3785C24.7146 22.6312 24.731 22.8559 24.7349 23.0437C24.7389 23.258 24.5659 23.4367 24.3481 23.4406C24.3451 23.4406 24.3432 23.4406 24.3404 23.4406Z" fill="#C08E71"/>
<path d="M45.6783 42.0795C45.5016 42.0795 45.3392 41.9601 45.2959 41.7808C45.2448 41.5718 45.374 41.3605 45.587 41.309C47.3849 40.8779 49.5253 39.5544 51.7743 37.4839C51.9337 37.3374 52.1828 37.3467 52.3319 37.5042C52.4809 37.6616 52.4723 37.9081 52.3123 38.0548C50.6745 39.5622 48.2106 41.4814 45.7716 42.0671C45.7398 42.0747 45.7098 42.0795 45.6783 42.0795Z" fill="#C08E71"/>
<path d="M59.5006 27.7211C59.4603 27.7211 59.4169 27.7141 59.3751 27.7008C59.1684 27.6315 59.0572 27.4099 59.1268 27.2065C59.3548 26.5443 59.4793 25.9618 59.4967 25.4768C59.5709 23.5289 57.8215 22.6436 56.4149 21.9326C55.8826 21.6628 55.4234 21.4317 55.1419 21.166C54.5774 20.6379 54.3407 20.0149 54.1129 19.4113C53.9315 18.9317 53.7587 18.4803 53.4291 18.0459C53.0496 17.5475 52.4844 17.6498 51.8882 17.8143C51.6018 17.8922 51.2492 17.9874 51.0712 17.6669C50.9977 17.5359 50.9828 17.3815 50.959 17.1459C50.9276 16.8238 50.881 16.3824 50.6758 16.0317C50.5696 15.8493 50.2579 15.5957 49.8132 15.6478C49.6065 15.672 49.4221 15.7134 49.2225 15.7578C48.8029 15.8491 48.28 15.9631 47.3897 15.9825C46.8911 15.9918 46.1696 15.8006 45.7225 14.8291C45.568 14.4978 45.4425 14.0532 45.3108 13.5837C45.0474 12.6509 44.7191 11.4899 44.0947 11.0788C43.2581 10.5282 41.833 11.0719 40.1856 11.698C37.2889 12.7975 33.3253 14.3066 29.8082 10.5375C28.0311 8.63545 25.6617 7.11315 22.7659 6.01213C19.2533 4.67856 15.5402 5.88355 15.5028 5.89585C15.2975 5.9661 15.0723 5.85522 15.0033 5.65175C14.933 5.44734 15.0438 5.22599 15.2505 5.15649C15.4118 5.10357 19.2625 3.84413 23.0491 5.28373C26.0585 6.4278 28.528 8.01797 30.388 10.0087C33.5394 13.3863 36.9185 12.1025 39.9011 10.9687C41.755 10.2653 43.3559 9.65542 44.5316 10.4291C45.4007 11.0015 45.7557 12.2609 46.0703 13.3731C46.1949 13.8121 46.3108 14.2286 46.4395 14.5038C46.7342 15.1393 47.1151 15.2064 47.3739 15.2017C48.1862 15.1844 48.6452 15.084 49.0512 14.9951C49.2775 14.9459 49.4857 14.9007 49.7192 14.8744C50.4897 14.7753 51.1054 15.2073 51.3587 15.6417C51.6434 16.1274 51.7033 16.6741 51.741 17.0453C52.2971 16.894 53.3515 16.6492 54.0589 17.5765C54.4579 18.0998 54.6676 18.6511 54.8514 19.1393C55.066 19.7063 55.2512 20.1969 55.6835 20.6009C55.8838 20.788 56.3166 21.0063 56.7741 21.2379C58.2093 21.9646 60.3796 23.062 60.2858 25.5068C60.2637 26.0677 60.1256 26.7241 59.8741 27.4564C59.819 27.6188 59.6653 27.7211 59.5006 27.7211Z" fill="#C08E71"/>
<path d="M21.5933 39.0594C21.4974 39.0594 21.4017 39.0257 21.3259 38.9557C19.0066 36.8406 17.1786 34.8653 15.5734 32.738C12.6374 28.8435 11.7951 24.1846 11.605 20.9622C11.5924 20.747 11.7588 20.5637 11.976 20.5504C12.1874 20.5333 12.3798 20.7019 12.3928 20.9171C12.5761 24.0326 13.3864 28.5314 16.2058 32.2718C17.781 34.3585 19.5783 36.3012 21.861 38.3834C22.0208 38.5291 22.031 38.7756 21.8835 38.934C21.8055 39.0171 21.6997 39.0594 21.5933 39.0594Z" fill="#C08E71"/>
<path d="M39.3712 54.8168C39.3316 54.8168 39.293 54.8115 39.2536 54.7995C39.0456 54.7364 38.9295 54.5179 38.9934 54.3122C40.4784 49.5271 35.4928 43.6252 30.2146 37.377C26.3192 32.7659 22.2914 27.9962 20.4045 23.1924C19.5871 21.1126 18.9765 18.8408 18.3854 16.644C16.8681 11.0041 15.2991 5.17331 10.0989 1.83557C9.91635 1.71781 9.86433 1.4767 9.98342 1.29596C10.1018 1.11503 10.3465 1.06358 10.5291 1.18059C15.9831 4.68212 17.5919 10.662 19.1475 16.4437C19.733 18.6187 20.3382 20.8702 21.1396 22.9094C22.9798 27.5932 26.9659 32.3128 30.8206 36.8771C36.2388 43.2921 41.3568 49.3531 39.748 54.5415C39.6943 54.7092 39.5391 54.8168 39.3712 54.8168Z" fill="#C08E71"/>
<path d="M33.7736 10.9521C33.5939 10.9521 33.4305 10.828 33.3896 10.6456C32.661 7.38427 30.686 4.7477 27.6788 3.02097C23.5189 0.631656 17.5337 0.102834 12.4324 1.66876C12.2223 1.7349 12.003 1.61808 11.9388 1.41219C11.8738 1.20629 11.99 0.987892 12.1986 0.92398C17.5002 -0.705854 23.7322 -0.147601 28.075 2.34644C31.2785 4.18533 33.3824 6.99743 34.1601 10.4772C34.2057 10.6877 34.0724 10.8959 33.8595 10.9426C33.8311 10.9482 33.8026 10.9521 33.7736 10.9521Z" fill="#C08E71"/>
<path d="M55.622 49.1215C55.5678 49.1215 55.5141 49.1113 55.4611 49.088C51.5844 47.384 50.5283 45.7424 49.3233 41.6756C49.2611 41.4689 49.381 41.2515 49.5907 41.1913C49.8014 41.1289 50.0182 41.2496 50.0797 41.4557C51.2264 45.3245 52.1625 46.7857 55.7822 48.3753C55.9802 48.4627 56.0701 48.6933 55.9825 48.8908C55.9162 49.0349 55.7726 49.1215 55.622 49.1215Z" fill="#C08E71"/>
<path d="M65.2541 38.5914C65.0682 38.5914 64.8805 38.5712 64.6911 38.5265L49.8501 35.0907C49.6379 35.0423 49.5064 34.8325 49.556 34.6227C49.6057 34.4121 49.8192 34.2795 50.0299 34.3318L64.8709 37.7663C65.7755 37.9776 66.6832 37.4176 66.8944 36.5247L67.5578 33.7227C67.7691 32.8291 67.2061 31.9308 66.3016 31.7217L51.4613 28.2873C51.2492 28.2388 51.1167 28.0275 51.167 27.8185C51.216 27.6087 51.4312 27.4762 51.6411 27.5276L66.4814 30.962C67.8086 31.2693 68.6366 32.5872 68.3251 33.9007L67.6617 36.7025C67.396 37.8287 66.3772 38.5914 65.2541 38.5914Z" fill="#C08E71"/>
<path d="M64.6596 37.0957C64.516 37.0957 64.3694 37.0801 64.2236 37.0458C64.0097 36.9973 63.8782 36.7868 63.9287 36.577C63.9784 36.3671 64.1936 36.2337 64.4035 36.2861C65.0101 36.4281 65.6187 36.0535 65.7598 35.4539C65.8105 35.2441 66.0248 35.11 66.2347 35.1623C66.4461 35.2123 66.5786 35.4221 66.529 35.6319C66.3212 36.5054 65.5309 37.0957 64.6596 37.0957Z" fill="#C08E71"/>
<path d="M53.8082 35.8994C53.7775 35.8994 53.7475 35.897 53.7168 35.8884C53.5046 35.8399 53.3731 35.6302 53.4234 35.4196L54.9864 28.8173C55.0362 28.6075 55.2498 28.4751 55.4605 28.5272C55.6727 28.5757 55.8042 28.7855 55.7539 28.9951L54.1916 35.5983C54.1488 35.7775 53.9857 35.8994 53.8082 35.8994Z" fill="#C08E71"/>
<path d="M49.857 35.0391C49.8444 35.0391 49.8309 35.0382 49.8177 35.036L40.3259 34.1064C40.1082 34.0853 39.9505 33.8951 39.9726 33.6799C39.9937 33.4662 40.1885 33.3087 40.4031 33.3305L49.5518 34.2265L50.9808 28.1891L42.3809 24.9786C42.1758 24.9022 42.0741 24.6767 42.1513 24.4764C42.2278 24.2728 42.4556 24.1714 42.6591 24.2478L51.5823 27.5794C51.7675 27.6494 51.8725 27.8421 51.8269 28.0333L50.2409 34.7382C50.1985 34.9158 50.0393 35.0391 49.857 35.0391Z" fill="#C08E71"/>
<path d="M40.3599 34.0542C40.33 34.0542 40.2993 34.0525 40.2699 34.0447C40.0569 33.9948 39.9254 33.7859 39.9757 33.5761C40.102 33.0426 40.4528 32.8242 40.7093 32.6668C40.9378 32.5255 41.042 32.4531 41.0908 32.2425C41.1413 32.0303 41.0805 31.9203 40.9394 31.6943C40.78 31.4402 40.5633 31.0916 40.6903 30.5574C40.8156 30.0239 41.1673 29.8072 41.4236 29.6488C41.6524 29.5076 41.7566 29.4358 41.8061 29.2254C41.8551 29.0125 41.7942 28.9033 41.6531 28.6756C41.4945 28.4207 41.2778 28.0728 41.4038 27.5394C41.5301 27.0051 41.8809 26.7884 42.1374 26.6293C42.3661 26.4873 42.4703 26.4156 42.5199 26.2026C42.5717 25.9896 42.5103 25.8804 42.3684 25.6529C42.2097 25.3988 41.993 25.0509 42.12 24.5158C42.1698 24.3052 42.385 24.1727 42.5939 24.2256C42.8053 24.2748 42.9378 24.4839 42.8888 24.6935C42.8377 24.9065 42.8992 25.0149 43.0403 25.2434C43.199 25.4983 43.4157 25.8462 43.2887 26.3804C43.1617 26.9146 42.8116 27.1322 42.5561 27.2898C42.3265 27.4326 42.2224 27.5041 42.1711 27.7179C42.1223 27.9286 42.1822 28.0378 42.3233 28.2653C42.4835 28.5195 42.7004 28.8681 42.5734 29.403C42.4481 29.9363 42.0963 30.1523 41.8415 30.3099C41.6111 30.4511 41.5078 30.5229 41.4583 30.7349C41.4087 30.947 41.4694 31.0563 41.6098 31.2846C41.7682 31.5387 41.9851 31.8861 41.8589 32.4193C41.7336 32.9543 41.3827 33.1702 41.1263 33.3286C40.8975 33.4699 40.7941 33.5416 40.7423 33.7536C40.7004 33.9335 40.5389 34.0542 40.3599 34.0542Z" fill="#C08E71"/>
<path d="M48.7601 33.2894C48.7436 33.2894 48.727 33.2893 48.7091 33.286L42.3866 32.4923C42.1707 32.4651 42.0177 32.2692 42.0444 32.0555C42.072 31.8417 42.2662 31.6929 42.4861 31.7176L48.8086 32.5124C49.0245 32.5396 49.1785 32.7345 49.1515 32.9491C49.1253 33.1457 48.9557 33.2894 48.7601 33.2894Z" fill="#C08E71"/>
<path d="M49.712 29.1123C49.6671 29.1123 49.6213 29.1045 49.5763 29.089L46.6278 28.0191C46.4228 27.9442 46.3171 27.7197 46.3928 27.5192C46.4676 27.3155 46.6971 27.2119 46.8984 27.2859L49.8486 28.3558C50.0528 28.4298 50.1578 28.6547 50.0818 28.8567C50.0244 29.015 49.8731 29.1123 49.712 29.1123Z" fill="#C08E71"/>
<path d="M62.2928 36.5933C62.2628 36.5933 62.2321 36.5909 62.2029 36.584L57.5352 35.5022C57.323 35.4539 57.1913 35.2441 57.2416 35.0336C57.2913 34.8237 57.5043 34.6903 57.7149 34.7425L62.3826 35.8234C62.5948 35.8726 62.7263 36.0831 62.6768 36.2922C62.6342 36.4718 62.4725 36.5933 62.2928 36.5933Z" fill="#C08E71"/>
<path d="M33.1717 19.7581C32.1574 22.6505 29.7117 23.1279 29.6388 24.7085C29.6388 24.7085 29.0004 23.5659 29.5692 22.7847C30.3804 21.6836 31.4821 21.572 32.3444 19.56C33.2032 17.5557 32.7474 16.1303 32.6914 15.6024C32.6914 15.6024 33.9935 17.4107 33.1717 19.7581Z" stroke="#C08E71" stroke-width="1.04413" mask="url(#path-2-inside-1_60_133)"/>
<path d="M24.3404 23.4406C24.1259 23.4406 23.9501 23.2723 23.9462 23.0594C23.9426 22.8831 23.9264 22.674 23.9083 22.437C23.8425 21.5713 23.7423 20.2635 24.1276 18.9308C24.6143 17.2378 28.3669 13.1928 28.5257 13.0219C28.6744 12.8643 28.924 12.8535 29.0836 12.9977C29.2438 13.1436 29.2539 13.3906 29.1066 13.55C28.0557 14.6791 25.2478 17.8874 24.8864 19.1453C24.5403 20.344 24.6298 21.5199 24.6952 22.3785C24.7146 22.6312 24.731 22.8559 24.7349 23.0437C24.7389 23.258 24.5659 23.4367 24.3481 23.4406C24.3451 23.4406 24.3432 23.4406 24.3404 23.4406Z" stroke="#C08E71" stroke-width="1.04413" mask="url(#path-2-inside-1_60_133)"/>
<path d="M45.6783 42.0795C45.5016 42.0795 45.3392 41.9601 45.2959 41.7808C45.2448 41.5718 45.374 41.3605 45.587 41.309C47.3849 40.8779 49.5253 39.5544 51.7743 37.4839C51.9337 37.3374 52.1828 37.3467 52.3319 37.5042C52.4809 37.6616 52.4723 37.9081 52.3123 38.0548C50.6745 39.5622 48.2106 41.4814 45.7716 42.0671C45.7398 42.0747 45.7098 42.0795 45.6783 42.0795Z" stroke="#C08E71" stroke-width="1.04413" mask="url(#path-2-inside-1_60_133)"/>
<path d="M59.5006 27.7211C59.4603 27.7211 59.4169 27.7141 59.3751 27.7008C59.1684 27.6315 59.0572 27.4099 59.1268 27.2065C59.3548 26.5443 59.4793 25.9618 59.4967 25.4768C59.5709 23.5289 57.8215 22.6436 56.4149 21.9326C55.8826 21.6628 55.4234 21.4317 55.1419 21.166C54.5774 20.6379 54.3407 20.0149 54.1129 19.4113C53.9315 18.9317 53.7587 18.4803 53.4291 18.0459C53.0496 17.5475 52.4844 17.6498 51.8882 17.8143C51.6018 17.8922 51.2492 17.9874 51.0712 17.6669C50.9977 17.5359 50.9828 17.3815 50.959 17.1459C50.9276 16.8238 50.881 16.3824 50.6758 16.0317C50.5696 15.8493 50.2579 15.5957 49.8132 15.6478C49.6065 15.672 49.4221 15.7134 49.2225 15.7578C48.8029 15.8491 48.28 15.9631 47.3897 15.9825C46.8911 15.9918 46.1696 15.8006 45.7225 14.8291C45.568 14.4978 45.4425 14.0532 45.3108 13.5837C45.0474 12.6509 44.7191 11.4899 44.0947 11.0788C43.2581 10.5282 41.833 11.0719 40.1856 11.698C37.2889 12.7975 33.3253 14.3066 29.8082 10.5375C28.0311 8.63545 25.6617 7.11315 22.7659 6.01213C19.2533 4.67856 15.5402 5.88355 15.5028 5.89585C15.2975 5.9661 15.0723 5.85522 15.0033 5.65175C14.933 5.44734 15.0438 5.22599 15.2505 5.15649C15.4118 5.10357 19.2625 3.84413 23.0491 5.28373C26.0585 6.4278 28.528 8.01797 30.388 10.0087C33.5394 13.3863 36.9185 12.1025 39.9011 10.9687C41.755 10.2653 43.3559 9.65542 44.5316 10.4291C45.4007 11.0015 45.7557 12.2609 46.0703 13.3731C46.1949 13.8121 46.3108 14.2286 46.4395 14.5038C46.7342 15.1393 47.1151 15.2064 47.3739 15.2017C48.1862 15.1844 48.6452 15.084 49.0512 14.9951C49.2775 14.9459 49.4857 14.9007 49.7192 14.8744C50.4897 14.7753 51.1054 15.2073 51.3587 15.6417C51.6434 16.1274 51.7033 16.6741 51.741 17.0453C52.2971 16.894 53.3515 16.6492 54.0589 17.5765C54.4579 18.0998 54.6676 18.6511 54.8514 19.1393C55.066 19.7063 55.2512 20.1969 55.6835 20.6009C55.8838 20.788 56.3166 21.0063 56.7741 21.2379C58.2093 21.9646 60.3796 23.062 60.2858 25.5068C60.2637 26.0677 60.1256 26.7241 59.8741 27.4564C59.819 27.6188 59.6653 27.7211 59.5006 27.7211Z" stroke="#C08E71" stroke-width="1.04413" mask="url(#path-2-inside-1_60_133)"/>
<path d="M21.5933 39.0594C21.4974 39.0594 21.4017 39.0257 21.3259 38.9557C19.0066 36.8406 17.1786 34.8653 15.5734 32.738C12.6374 28.8435 11.7951 24.1846 11.605 20.9622C11.5924 20.747 11.7588 20.5637 11.976 20.5504C12.1874 20.5333 12.3798 20.7019 12.3928 20.9171C12.5761 24.0326 13.3864 28.5314 16.2058 32.2718C17.781 34.3585 19.5783 36.3012 21.861 38.3834C22.0208 38.5291 22.031 38.7756 21.8835 38.934C21.8055 39.0171 21.6997 39.0594 21.5933 39.0594Z" stroke="#C08E71" stroke-width="1.04413" mask="url(#path-2-inside-1_60_133)"/>
<path d="M39.3712 54.8168C39.3316 54.8168 39.293 54.8115 39.2536 54.7995C39.0456 54.7364 38.9295 54.5179 38.9934 54.3122C40.4784 49.5271 35.4928 43.6252 30.2146 37.377C26.3192 32.7659 22.2914 27.9962 20.4045 23.1924C19.5871 21.1126 18.9765 18.8408 18.3854 16.644C16.8681 11.0041 15.2991 5.17331 10.0989 1.83557C9.91635 1.71781 9.86433 1.4767 9.98342 1.29596C10.1018 1.11503 10.3465 1.06358 10.5291 1.18059C15.9831 4.68212 17.5919 10.662 19.1475 16.4437C19.733 18.6187 20.3382 20.8702 21.1396 22.9094C22.9798 27.5932 26.9659 32.3128 30.8206 36.8771C36.2388 43.2921 41.3568 49.3531 39.748 54.5415C39.6943 54.7092 39.5391 54.8168 39.3712 54.8168Z" stroke="#C08E71" stroke-width="1.04413" mask="url(#path-2-inside-1_60_133)"/>
<path d="M33.7736 10.9521C33.5939 10.9521 33.4305 10.828 33.3896 10.6456C32.661 7.38427 30.686 4.7477 27.6788 3.02097C23.5189 0.631656 17.5337 0.102834 12.4324 1.66876C12.2223 1.7349 12.003 1.61808 11.9388 1.41219C11.8738 1.20629 11.99 0.987892 12.1986 0.92398C17.5002 -0.705854 23.7322 -0.147601 28.075 2.34644C31.2785 4.18533 33.3824 6.99743 34.1601 10.4772C34.2057 10.6877 34.0724 10.8959 33.8595 10.9426C33.8311 10.9482 33.8026 10.9521 33.7736 10.9521Z" stroke="#C08E71" stroke-width="1.04413" mask="url(#path-2-inside-1_60_133)"/>
<path d="M55.622 49.1215C55.5678 49.1215 55.5141 49.1113 55.4611 49.088C51.5844 47.384 50.5283 45.7424 49.3233 41.6756C49.2611 41.4689 49.381 41.2515 49.5907 41.1913C49.8014 41.1289 50.0182 41.2496 50.0797 41.4557C51.2264 45.3245 52.1625 46.7857 55.7822 48.3753C55.9802 48.4627 56.0701 48.6933 55.9825 48.8908C55.9162 49.0349 55.7726 49.1215 55.622 49.1215Z" stroke="#C08E71" stroke-width="1.04413" mask="url(#path-2-inside-1_60_133)"/>
<path d="M65.2541 38.5914C65.0682 38.5914 64.8805 38.5712 64.6911 38.5265L49.8501 35.0907C49.6379 35.0423 49.5064 34.8325 49.556 34.6227C49.6057 34.4121 49.8192 34.2795 50.0299 34.3318L64.8709 37.7663C65.7755 37.9776 66.6832 37.4176 66.8944 36.5247L67.5578 33.7227C67.7691 32.8291 67.2061 31.9308 66.3016 31.7217L51.4613 28.2873C51.2492 28.2388 51.1167 28.0275 51.167 27.8185C51.216 27.6087 51.4312 27.4762 51.6411 27.5276L66.4814 30.962C67.8086 31.2693 68.6366 32.5872 68.3251 33.9007L67.6617 36.7025C67.396 37.8287 66.3772 38.5914 65.2541 38.5914Z" stroke="#C08E71" stroke-width="1.04413" mask="url(#path-2-inside-1_60_133)"/>
<path d="M64.6596 37.0957C64.516 37.0957 64.3694 37.0801 64.2236 37.0458C64.0097 36.9973 63.8782 36.7868 63.9287 36.577C63.9784 36.3671 64.1936 36.2337 64.4035 36.2861C65.0101 36.4281 65.6187 36.0535 65.7598 35.4539C65.8105 35.2441 66.0248 35.11 66.2347 35.1623C66.4461 35.2123 66.5786 35.4221 66.529 35.6319C66.3212 36.5054 65.5309 37.0957 64.6596 37.0957Z" stroke="#C08E71" stroke-width="1.04413" mask="url(#path-2-inside-1_60_133)"/>
<path d="M53.8082 35.8994C53.7775 35.8994 53.7475 35.897 53.7168 35.8884C53.5046 35.8399 53.3731 35.6302 53.4234 35.4196L54.9864 28.8173C55.0362 28.6075 55.2498 28.4751 55.4605 28.5272C55.6727 28.5757 55.8042 28.7855 55.7539 28.9951L54.1916 35.5983C54.1488 35.7775 53.9857 35.8994 53.8082 35.8994Z" stroke="#C08E71" stroke-width="1.04413" mask="url(#path-2-inside-1_60_133)"/>
<path d="M49.857 35.0391C49.8444 35.0391 49.8309 35.0382 49.8177 35.036L40.3259 34.1064C40.1082 34.0853 39.9505 33.8951 39.9726 33.6799C39.9937 33.4662 40.1885 33.3087 40.4031 33.3305L49.5518 34.2265L50.9808 28.1891L42.3809 24.9786C42.1758 24.9022 42.0741 24.6767 42.1513 24.4764C42.2278 24.2728 42.4556 24.1714 42.6591 24.2478L51.5823 27.5794C51.7675 27.6494 51.8725 27.8421 51.8269 28.0333L50.2409 34.7382C50.1985 34.9158 50.0393 35.0391 49.857 35.0391Z" stroke="#C08E71" stroke-width="1.04413" mask="url(#path-2-inside-1_60_133)"/>
<path d="M40.3599 34.0542C40.33 34.0542 40.2993 34.0525 40.2699 34.0447C40.0569 33.9948 39.9254 33.7859 39.9757 33.5761C40.102 33.0426 40.4528 32.8242 40.7093 32.6668C40.9378 32.5255 41.042 32.4531 41.0908 32.2425C41.1413 32.0303 41.0805 31.9203 40.9394 31.6943C40.78 31.4402 40.5633 31.0916 40.6903 30.5574C40.8156 30.0239 41.1673 29.8072 41.4236 29.6488C41.6524 29.5076 41.7566 29.4358 41.8061 29.2254C41.8551 29.0125 41.7942 28.9033 41.6531 28.6756C41.4945 28.4207 41.2778 28.0728 41.4038 27.5394C41.5301 27.0051 41.8809 26.7884 42.1374 26.6293C42.3661 26.4873 42.4703 26.4156 42.5199 26.2026C42.5717 25.9896 42.5103 25.8804 42.3684 25.6529C42.2097 25.3988 41.993 25.0509 42.12 24.5158C42.1698 24.3052 42.385 24.1727 42.5939 24.2256C42.8053 24.2748 42.9378 24.4839 42.8888 24.6935C42.8377 24.9065 42.8992 25.0149 43.0403 25.2434C43.199 25.4983 43.4157 25.8462 43.2887 26.3804C43.1617 26.9146 42.8116 27.1322 42.5561 27.2898C42.3265 27.4326 42.2224 27.5041 42.1711 27.7179C42.1223 27.9286 42.1822 28.0378 42.3233 28.2653C42.4835 28.5195 42.7004 28.8681 42.5734 29.403C42.4481 29.9363 42.0963 30.1523 41.8415 30.3099C41.6111 30.4511 41.5078 30.5229 41.4583 30.7349C41.4087 30.947 41.4694 31.0563 41.6098 31.2846C41.7682 31.5387 41.9851 31.8861 41.8589 32.4193C41.7336 32.9543 41.3827 33.1702 41.1263 33.3286C40.8975 33.4699 40.7941 33.5416 40.7423 33.7536C40.7004 33.9335 40.5389 34.0542 40.3599 34.0542Z" stroke="#C08E71" stroke-width="1.04413" mask="url(#path-2-inside-1_60_133)"/>
<path d="M48.7601 33.2894C48.7436 33.2894 48.727 33.2893 48.7091 33.286L42.3866 32.4923C42.1707 32.4651 42.0177 32.2692 42.0444 32.0555C42.072 31.8417 42.2662 31.6929 42.4861 31.7176L48.8086 32.5124C49.0245 32.5396 49.1785 32.7345 49.1515 32.9491C49.1253 33.1457 48.9557 33.2894 48.7601 33.2894Z" stroke="#C08E71" stroke-width="1.04413" mask="url(#path-2-inside-1_60_133)"/>
<path d="M49.712 29.1123C49.6671 29.1123 49.6213 29.1045 49.5763 29.089L46.6278 28.0191C46.4228 27.9442 46.3171 27.7197 46.3928 27.5192C46.4676 27.3155 46.6971 27.2119 46.8984 27.2859L49.8486 28.3558C50.0528 28.4298 50.1578 28.6547 50.0818 28.8567C50.0244 29.015 49.8731 29.1123 49.712 29.1123Z" stroke="#C08E71" stroke-width="1.04413" mask="url(#path-2-inside-1_60_133)"/>
<path d="M62.2928 36.5933C62.2628 36.5933 62.2321 36.5909 62.2029 36.584L57.5352 35.5022C57.323 35.4539 57.1913 35.2441 57.2416 35.0336C57.2913 34.8237 57.5043 34.6903 57.7149 34.7425L62.3826 35.8234C62.5948 35.8726 62.7263 36.0831 62.6768 36.2922C62.6342 36.4718 62.4725 36.5933 62.2928 36.5933Z" stroke="#C08E71" stroke-width="1.04413" mask="url(#path-2-inside-1_60_133)"/>
</svg>
