<svg width="61" height="57" viewBox="0 0 61 57" fill="none" xmlns="http://www.w3.org/2000/svg">
<circle cx="27.6694" cy="28.7135" r="27.6694" fill="#EBD1B9"/>
<mask id="path-2-inside-1_60_67" fill="white">
<path d="M33.0563 19.9448C32.0465 22.8655 29.613 23.3475 29.5405 24.9432C29.5405 24.9432 28.9057 23.7889 29.4715 23.0002C30.2786 21.8893 31.3747 21.7768 32.2328 19.7464C33.0874 17.7214 32.6342 16.2832 32.5776 15.7518C32.5776 15.7518 33.8732 17.5766 33.0563 19.9448Z"/>
<path d="M24.2683 23.6637C24.0553 23.6637 23.8805 23.4921 23.8759 23.2771C23.873 23.1007 23.8569 22.8883 23.8389 22.6505C23.7733 21.7759 23.6734 20.4548 24.0568 19.111C24.5409 17.4026 28.2753 13.3175 28.4333 13.145C28.5805 12.9852 28.8295 12.975 28.9881 13.1213C29.1475 13.2686 29.158 13.5173 29.0114 13.6772C27.965 14.8179 25.1718 18.0568 24.8116 19.3265C24.4672 20.5376 24.5563 21.7237 24.6217 22.5907C24.641 22.8465 24.6577 23.0732 24.6612 23.263C24.6652 23.4795 24.4925 23.659 24.2763 23.6637C24.2737 23.6637 24.2709 23.6637 24.2683 23.6637Z"/>
<path d="M45.5012 42.4788C45.3238 42.4788 45.1633 42.3583 45.1198 42.1781C45.0685 41.967 45.198 41.7544 45.4088 41.7025C51.2822 40.2705 59.0941 29.8186 59.2507 25.7185C59.3249 23.7519 57.5828 22.8584 56.1837 22.1411C55.6541 21.8687 55.1966 21.6342 54.9161 21.368C54.3555 20.8343 54.1204 20.2044 53.8928 19.5951C53.7119 19.1126 53.5416 18.6542 53.2124 18.2167C52.8339 17.7135 52.2712 17.8183 51.6795 17.9836C51.3955 18.0615 51.0435 18.1593 50.8658 17.8341C50.7936 17.7026 50.7782 17.5452 50.7552 17.3081C50.7222 16.9829 50.6783 16.5373 50.474 16.1838C50.3673 15.998 50.0499 15.739 49.6158 15.7958C49.4094 15.8202 49.2262 15.862 49.0265 15.9068C48.6094 15.9989 48.09 16.1139 47.2028 16.1344C46.6822 16.1248 45.9898 15.9485 45.5443 14.97C45.3917 14.6348 45.2663 14.1867 45.1343 13.7119C44.8722 12.772 44.5465 11.599 43.9255 11.184C43.0929 10.6274 41.6757 11.1746 40.0346 11.8076C37.1536 12.9199 33.2077 14.4409 29.7092 10.6368C27.9408 8.71665 25.5833 7.18058 22.7018 6.06738C19.1961 4.71716 15.512 5.93758 15.4749 5.95094C15.2688 6.02016 15.0468 5.90917 14.9778 5.70451C14.9079 5.4974 15.0183 5.2747 15.2238 5.20547C15.3843 5.14942 19.2164 3.88045 22.9836 5.33225C25.978 6.48853 28.4352 8.09326 30.2855 10.103C33.4243 13.5143 36.7867 12.2175 39.7524 11.0721C41.5964 10.362 43.1881 9.74633 44.3605 10.5273C45.2241 11.1043 45.5784 12.3773 45.8902 13.5009C46.0138 13.9441 46.1304 14.3622 46.2579 14.6416C46.5498 15.2824 46.9211 15.3549 47.1871 15.3462C47.9957 15.328 48.4536 15.2264 48.8569 15.1376C49.0824 15.0872 49.2896 15.0424 49.521 15.0149C50.2854 14.9171 50.9012 15.3511 51.1532 15.7886C51.4365 16.28 51.4965 16.8326 51.5331 17.2073C52.0851 17.054 53.1365 16.8059 53.8388 17.7429C54.2363 18.272 54.4442 18.8284 54.6274 19.3197C54.8417 19.8929 55.026 20.3873 55.4565 20.796C55.655 20.9841 56.0849 21.2053 56.5409 21.4399C57.9696 22.1727 60.1278 23.2805 60.0348 25.7486C59.8508 30.5724 51.4718 41.0351 45.5936 42.4679C45.5631 42.4757 45.5318 42.4788 45.5012 42.4788Z"/>
<path d="M21.5356 39.4304C21.4402 39.4304 21.345 39.3958 21.2692 39.3256C18.9618 37.1906 17.1433 35.1966 15.5457 33.0505C12.6243 29.1181 11.7858 24.4149 11.5967 21.1618C11.5845 20.9448 11.7493 20.7587 11.9662 20.7454C12.1769 20.7281 12.3676 20.8983 12.3806 21.1146C12.5634 24.2614 13.3696 28.804 16.1746 32.5781C17.7424 34.6847 19.5303 36.6451 21.8015 38.748C21.9605 38.8943 21.9706 39.1437 21.824 39.3036C21.7469 39.3879 21.6412 39.4304 21.5356 39.4304Z"/>
<path d="M39.2241 55.3389C39.186 55.3389 39.1472 55.3327 39.1087 55.3216C38.9016 55.2569 38.785 55.0364 38.8485 54.8287C40.3257 49.9995 35.3657 44.0407 30.1138 37.7322C26.2378 33.0763 22.2304 28.2621 20.3522 23.4126C19.5392 21.3122 18.9314 19.019 18.3431 16.8012C16.8332 11.1084 15.2722 5.22111 10.0982 1.85252C9.91655 1.73439 9.8648 1.48949 9.98255 1.30834C10.1007 1.12494 10.3446 1.07302 10.5259 1.1919C15.9528 4.72677 17.5539 10.7627 19.1018 16.6003C19.6845 18.7969 20.2867 21.068 21.0839 23.1268C22.915 27.8552 26.8807 32.6197 30.7164 37.2275C36.1084 43.7036 41.2006 49.8223 39.599 55.0601C39.5477 55.2286 39.3919 55.3389 39.2241 55.3389Z"/>
<path d="M33.6558 11.0557C33.4749 11.0557 33.3132 10.9304 33.2722 10.747C32.5479 7.45464 30.583 4.79221 27.5905 3.04829C23.4502 0.637724 17.4946 0.103124 12.4197 1.68471C12.2118 1.75092 11.9924 1.6328 11.9285 1.4257C11.8641 1.21709 11.9798 0.996633 12.187 0.932865C17.4629 -0.712489 23.6643 -0.148931 27.9848 2.36735C31.1721 4.22357 33.2662 7.06264 34.0392 10.5763C34.0859 10.7888 33.9522 10.9997 33.7407 11.0454C33.7115 11.0527 33.6837 11.0557 33.6558 11.0557Z"/>
<path d="M55.3941 49.5894C55.3412 49.5894 55.2866 49.5783 55.2347 49.5556C51.3767 47.8361 50.3257 46.1781 49.1263 42.071C49.0656 41.8632 49.1848 41.6437 49.3927 41.5829C49.5999 41.5223 49.8193 41.6418 49.8796 41.8506C51.0205 45.7562 51.952 47.23 55.5538 48.8353C55.752 48.9243 55.8414 49.1564 55.7527 49.3556C55.688 49.5021 55.5444 49.5894 55.3941 49.5894Z"/>
<path d="M35.0908 29.0088C34.9335 29.0088 34.7856 28.9144 34.7246 28.7594C34.6459 28.5563 34.7458 28.3286 34.9479 28.2491C38.4422 26.8785 40.8638 23.9601 40.8876 23.9319C41.0258 23.7641 41.2721 23.7391 41.4401 23.8768C41.6077 24.0152 41.6319 24.2634 41.4939 24.431C41.3908 24.5568 38.924 27.535 35.2333 28.9819C35.1866 29.0002 35.1379 29.0088 35.0908 29.0088Z"/>
<path d="M35.7502 28.3625L36.9338 29.523L36.895 29.566L34.4342 29.2487C33.6119 29.2762 32.7897 29.3038 31.9676 29.3313C32.702 28.9605 33.4364 28.5883 34.1714 28.2166L36.1786 26.7531L36.2311 26.765L35.7502 28.3625Z"/>
<path d="M44.2952 33.5708C44.1935 33.5708 44.093 33.533 44.0162 33.4544C43.8636 33.3009 43.8647 33.0511 44.0184 32.8978C46.6845 30.2492 47.7528 26.6058 47.763 26.5688C47.8233 26.3602 48.0427 26.2396 48.2491 26.2994C48.4574 26.3592 48.5774 26.5774 48.5176 26.7868C48.4732 26.9435 47.3868 30.6593 44.5709 33.4581C44.4948 33.533 44.3953 33.5708 44.2952 33.5708Z"/>
<path d="M44.8001 32.6805L46.3456 33.2747L46.3266 33.3315L43.9423 34.0187C43.1984 34.3723 42.4554 34.7258 41.712 35.0777C42.2394 34.4447 42.7666 33.811 43.2934 33.1788L44.5577 31.0351L44.6111 31.0248L44.8001 32.6805Z"/>
</mask>
<path d="M33.0563 19.9448C32.0465 22.8655 29.613 23.3475 29.5405 24.9432C29.5405 24.9432 28.9057 23.7889 29.4715 23.0002C30.2786 21.8893 31.3747 21.7768 32.2328 19.7464C33.0874 17.7214 32.6342 16.2832 32.5776 15.7518C32.5776 15.7518 33.8732 17.5766 33.0563 19.9448Z" fill="#C08E71"/>
<path d="M24.2683 23.6637C24.0553 23.6637 23.8805 23.4921 23.8759 23.2771C23.873 23.1007 23.8569 22.8883 23.8389 22.6505C23.7733 21.7759 23.6734 20.4548 24.0568 19.111C24.5409 17.4026 28.2753 13.3175 28.4333 13.145C28.5805 12.9852 28.8295 12.975 28.9881 13.1213C29.1475 13.2686 29.158 13.5173 29.0114 13.6772C27.965 14.8179 25.1718 18.0568 24.8116 19.3265C24.4672 20.5376 24.5563 21.7237 24.6217 22.5907C24.641 22.8465 24.6577 23.0732 24.6612 23.263C24.6652 23.4795 24.4925 23.659 24.2763 23.6637C24.2737 23.6637 24.2709 23.6637 24.2683 23.6637Z" fill="#C08E71"/>
<path d="M45.5012 42.4788C45.3238 42.4788 45.1633 42.3583 45.1198 42.1781C45.0685 41.967 45.198 41.7544 45.4088 41.7025C51.2822 40.2705 59.0941 29.8186 59.2507 25.7185C59.3249 23.7519 57.5828 22.8584 56.1837 22.1411C55.6541 21.8687 55.1966 21.6342 54.9161 21.368C54.3555 20.8343 54.1204 20.2044 53.8928 19.5951C53.7119 19.1126 53.5416 18.6542 53.2124 18.2167C52.8339 17.7135 52.2712 17.8183 51.6795 17.9836C51.3955 18.0615 51.0435 18.1593 50.8658 17.8341C50.7936 17.7026 50.7782 17.5452 50.7552 17.3081C50.7222 16.9829 50.6783 16.5373 50.474 16.1838C50.3673 15.998 50.0499 15.739 49.6158 15.7958C49.4094 15.8202 49.2262 15.862 49.0265 15.9068C48.6094 15.9989 48.09 16.1139 47.2028 16.1344C46.6822 16.1248 45.9898 15.9485 45.5443 14.97C45.3917 14.6348 45.2663 14.1867 45.1343 13.7119C44.8722 12.772 44.5465 11.599 43.9255 11.184C43.0929 10.6274 41.6757 11.1746 40.0346 11.8076C37.1536 12.9199 33.2077 14.4409 29.7092 10.6368C27.9408 8.71665 25.5833 7.18058 22.7018 6.06738C19.1961 4.71716 15.512 5.93758 15.4749 5.95094C15.2688 6.02016 15.0468 5.90917 14.9778 5.70451C14.9079 5.4974 15.0183 5.2747 15.2238 5.20547C15.3843 5.14942 19.2164 3.88045 22.9836 5.33225C25.978 6.48853 28.4352 8.09326 30.2855 10.103C33.4243 13.5143 36.7867 12.2175 39.7524 11.0721C41.5964 10.362 43.1881 9.74633 44.3605 10.5273C45.2241 11.1043 45.5784 12.3773 45.8902 13.5009C46.0138 13.9441 46.1304 14.3622 46.2579 14.6416C46.5498 15.2824 46.9211 15.3549 47.1871 15.3462C47.9957 15.328 48.4536 15.2264 48.8569 15.1376C49.0824 15.0872 49.2896 15.0424 49.521 15.0149C50.2854 14.9171 50.9012 15.3511 51.1532 15.7886C51.4365 16.28 51.4965 16.8326 51.5331 17.2073C52.0851 17.054 53.1365 16.8059 53.8388 17.7429C54.2363 18.272 54.4442 18.8284 54.6274 19.3197C54.8417 19.8929 55.026 20.3873 55.4565 20.796C55.655 20.9841 56.0849 21.2053 56.5409 21.4399C57.9696 22.1727 60.1278 23.2805 60.0348 25.7486C59.8508 30.5724 51.4718 41.0351 45.5936 42.4679C45.5631 42.4757 45.5318 42.4788 45.5012 42.4788Z" fill="#C08E71"/>
<path d="M21.5356 39.4304C21.4402 39.4304 21.345 39.3958 21.2692 39.3256C18.9618 37.1906 17.1433 35.1966 15.5457 33.0505C12.6243 29.1181 11.7858 24.4149 11.5967 21.1618C11.5845 20.9448 11.7493 20.7587 11.9662 20.7454C12.1769 20.7281 12.3676 20.8983 12.3806 21.1146C12.5634 24.2614 13.3696 28.804 16.1746 32.5781C17.7424 34.6847 19.5303 36.6451 21.8015 38.748C21.9605 38.8943 21.9706 39.1437 21.824 39.3036C21.7469 39.3879 21.6412 39.4304 21.5356 39.4304Z" fill="#C08E71"/>
<path d="M39.2241 55.3389C39.186 55.3389 39.1472 55.3327 39.1087 55.3216C38.9016 55.2569 38.785 55.0364 38.8485 54.8287C40.3257 49.9995 35.3657 44.0407 30.1138 37.7322C26.2378 33.0763 22.2304 28.2621 20.3522 23.4126C19.5392 21.3122 18.9314 19.019 18.3431 16.8012C16.8332 11.1084 15.2722 5.22111 10.0982 1.85252C9.91655 1.73439 9.8648 1.48949 9.98255 1.30834C10.1007 1.12494 10.3446 1.07302 10.5259 1.1919C15.9528 4.72677 17.5539 10.7627 19.1018 16.6003C19.6845 18.7969 20.2867 21.068 21.0839 23.1268C22.915 27.8552 26.8807 32.6197 30.7164 37.2275C36.1084 43.7036 41.2006 49.8223 39.599 55.0601C39.5477 55.2286 39.3919 55.3389 39.2241 55.3389Z" fill="#C08E71"/>
<path d="M33.6558 11.0557C33.4749 11.0557 33.3132 10.9304 33.2722 10.747C32.5479 7.45464 30.583 4.79221 27.5905 3.04829C23.4502 0.637724 17.4946 0.103124 12.4197 1.68471C12.2118 1.75092 11.9924 1.6328 11.9285 1.4257C11.8641 1.21709 11.9798 0.996633 12.187 0.932865C17.4629 -0.712489 23.6643 -0.148931 27.9848 2.36735C31.1721 4.22357 33.2662 7.06264 34.0392 10.5763C34.0859 10.7888 33.9522 10.9997 33.7407 11.0454C33.7115 11.0527 33.6837 11.0557 33.6558 11.0557Z" fill="#C08E71"/>
<path d="M55.3941 49.5894C55.3412 49.5894 55.2866 49.5783 55.2347 49.5556C51.3767 47.8361 50.3257 46.1781 49.1263 42.071C49.0656 41.8632 49.1848 41.6437 49.3927 41.5829C49.5999 41.5223 49.8193 41.6418 49.8796 41.8506C51.0205 45.7562 51.952 47.23 55.5538 48.8353C55.752 48.9243 55.8414 49.1564 55.7527 49.3556C55.688 49.5021 55.5444 49.5894 55.3941 49.5894Z" fill="#C08E71"/>
<path d="M35.0908 29.0088C34.9335 29.0088 34.7856 28.9144 34.7246 28.7594C34.6459 28.5563 34.7458 28.3286 34.9479 28.2491C38.4422 26.8785 40.8638 23.9601 40.8876 23.9319C41.0258 23.7641 41.2721 23.7391 41.4401 23.8768C41.6077 24.0152 41.6319 24.2634 41.4939 24.431C41.3908 24.5568 38.924 27.535 35.2333 28.9819C35.1866 29.0002 35.1379 29.0088 35.0908 29.0088Z" fill="#C08E71"/>
<path d="M35.7502 28.3625L36.9338 29.523L36.895 29.566L34.4342 29.2487C33.6119 29.2762 32.7897 29.3038 31.9676 29.3313C32.702 28.9605 33.4364 28.5883 34.1714 28.2166L36.1786 26.7531L36.2311 26.765L35.7502 28.3625Z" fill="#C08E71"/>
<path d="M44.2952 33.5708C44.1935 33.5708 44.093 33.533 44.0162 33.4544C43.8636 33.3009 43.8647 33.0511 44.0184 32.8978C46.6845 30.2492 47.7528 26.6058 47.763 26.5688C47.8233 26.3602 48.0427 26.2396 48.2491 26.2994C48.4574 26.3592 48.5774 26.5774 48.5176 26.7868C48.4732 26.9435 47.3868 30.6593 44.5709 33.4581C44.4948 33.533 44.3953 33.5708 44.2952 33.5708Z" fill="#C08E71"/>
<path d="M44.8001 32.6805L46.3456 33.2747L46.3266 33.3315L43.9423 34.0187C43.1984 34.3723 42.4554 34.7258 41.712 35.0777C42.2394 34.4447 42.7666 33.811 43.2934 33.1788L44.5577 31.0351L44.6111 31.0248L44.8001 32.6805Z" fill="#C08E71"/>
<path d="M33.0563 19.9448C32.0465 22.8655 29.613 23.3475 29.5405 24.9432C29.5405 24.9432 28.9057 23.7889 29.4715 23.0002C30.2786 21.8893 31.3747 21.7768 32.2328 19.7464C33.0874 17.7214 32.6342 16.2832 32.5776 15.7518C32.5776 15.7518 33.8732 17.5766 33.0563 19.9448Z" stroke="#C08E71" stroke-width="1.04413" mask="url(#path-2-inside-1_60_67)"/>
<path d="M24.2683 23.6637C24.0553 23.6637 23.8805 23.4921 23.8759 23.2771C23.873 23.1007 23.8569 22.8883 23.8389 22.6505C23.7733 21.7759 23.6734 20.4548 24.0568 19.111C24.5409 17.4026 28.2753 13.3175 28.4333 13.145C28.5805 12.9852 28.8295 12.975 28.9881 13.1213C29.1475 13.2686 29.158 13.5173 29.0114 13.6772C27.965 14.8179 25.1718 18.0568 24.8116 19.3265C24.4672 20.5376 24.5563 21.7237 24.6217 22.5907C24.641 22.8465 24.6577 23.0732 24.6612 23.263C24.6652 23.4795 24.4925 23.659 24.2763 23.6637C24.2737 23.6637 24.2709 23.6637 24.2683 23.6637Z" stroke="#C08E71" stroke-width="1.04413" mask="url(#path-2-inside-1_60_67)"/>
<path d="M45.5012 42.4788C45.3238 42.4788 45.1633 42.3583 45.1198 42.1781C45.0685 41.967 45.198 41.7544 45.4088 41.7025C51.2822 40.2705 59.0941 29.8186 59.2507 25.7185C59.3249 23.7519 57.5828 22.8584 56.1837 22.1411C55.6541 21.8687 55.1966 21.6342 54.9161 21.368C54.3555 20.8343 54.1204 20.2044 53.8928 19.5951C53.7119 19.1126 53.5416 18.6542 53.2124 18.2167C52.8339 17.7135 52.2712 17.8183 51.6795 17.9836C51.3955 18.0615 51.0435 18.1593 50.8658 17.8341C50.7936 17.7026 50.7782 17.5452 50.7552 17.3081C50.7222 16.9829 50.6783 16.5373 50.474 16.1838C50.3673 15.998 50.0499 15.739 49.6158 15.7958C49.4094 15.8202 49.2262 15.862 49.0265 15.9068C48.6094 15.9989 48.09 16.1139 47.2028 16.1344C46.6822 16.1248 45.9898 15.9485 45.5443 14.97C45.3917 14.6348 45.2663 14.1867 45.1343 13.7119C44.8722 12.772 44.5465 11.599 43.9255 11.184C43.0929 10.6274 41.6757 11.1746 40.0346 11.8076C37.1536 12.9199 33.2077 14.4409 29.7092 10.6368C27.9408 8.71665 25.5833 7.18058 22.7018 6.06738C19.1961 4.71716 15.512 5.93758 15.4749 5.95094C15.2688 6.02016 15.0468 5.90917 14.9778 5.70451C14.9079 5.4974 15.0183 5.2747 15.2238 5.20547C15.3843 5.14942 19.2164 3.88045 22.9836 5.33225C25.978 6.48853 28.4352 8.09326 30.2855 10.103C33.4243 13.5143 36.7867 12.2175 39.7524 11.0721C41.5964 10.362 43.1881 9.74633 44.3605 10.5273C45.2241 11.1043 45.5784 12.3773 45.8902 13.5009C46.0138 13.9441 46.1304 14.3622 46.2579 14.6416C46.5498 15.2824 46.9211 15.3549 47.1871 15.3462C47.9957 15.328 48.4536 15.2264 48.8569 15.1376C49.0824 15.0872 49.2896 15.0424 49.521 15.0149C50.2854 14.9171 50.9012 15.3511 51.1532 15.7886C51.4365 16.28 51.4965 16.8326 51.5331 17.2073C52.0851 17.054 53.1365 16.8059 53.8388 17.7429C54.2363 18.272 54.4442 18.8284 54.6274 19.3197C54.8417 19.8929 55.026 20.3873 55.4565 20.796C55.655 20.9841 56.0849 21.2053 56.5409 21.4399C57.9696 22.1727 60.1278 23.2805 60.0348 25.7486C59.8508 30.5724 51.4718 41.0351 45.5936 42.4679C45.5631 42.4757 45.5318 42.4788 45.5012 42.4788Z" stroke="#C08E71" stroke-width="1.04413" mask="url(#path-2-inside-1_60_67)"/>
<path d="M21.5356 39.4304C21.4402 39.4304 21.345 39.3958 21.2692 39.3256C18.9618 37.1906 17.1433 35.1966 15.5457 33.0505C12.6243 29.1181 11.7858 24.4149 11.5967 21.1618C11.5845 20.9448 11.7493 20.7587 11.9662 20.7454C12.1769 20.7281 12.3676 20.8983 12.3806 21.1146C12.5634 24.2614 13.3696 28.804 16.1746 32.5781C17.7424 34.6847 19.5303 36.6451 21.8015 38.748C21.9605 38.8943 21.9706 39.1437 21.824 39.3036C21.7469 39.3879 21.6412 39.4304 21.5356 39.4304Z" stroke="#C08E71" stroke-width="1.04413" mask="url(#path-2-inside-1_60_67)"/>
<path d="M39.2241 55.3389C39.186 55.3389 39.1472 55.3327 39.1087 55.3216C38.9016 55.2569 38.785 55.0364 38.8485 54.8287C40.3257 49.9995 35.3657 44.0407 30.1138 37.7322C26.2378 33.0763 22.2304 28.2621 20.3522 23.4126C19.5392 21.3122 18.9314 19.019 18.3431 16.8012C16.8332 11.1084 15.2722 5.22111 10.0982 1.85252C9.91655 1.73439 9.8648 1.48949 9.98255 1.30834C10.1007 1.12494 10.3446 1.07302 10.5259 1.1919C15.9528 4.72677 17.5539 10.7627 19.1018 16.6003C19.6845 18.7969 20.2867 21.068 21.0839 23.1268C22.915 27.8552 26.8807 32.6197 30.7164 37.2275C36.1084 43.7036 41.2006 49.8223 39.599 55.0601C39.5477 55.2286 39.3919 55.3389 39.2241 55.3389Z" stroke="#C08E71" stroke-width="1.04413" mask="url(#path-2-inside-1_60_67)"/>
<path d="M33.6558 11.0557C33.4749 11.0557 33.3132 10.9304 33.2722 10.747C32.5479 7.45464 30.583 4.79221 27.5905 3.04829C23.4502 0.637724 17.4946 0.103124 12.4197 1.68471C12.2118 1.75092 11.9924 1.6328 11.9285 1.4257C11.8641 1.21709 11.9798 0.996633 12.187 0.932865C17.4629 -0.712489 23.6643 -0.148931 27.9848 2.36735C31.1721 4.22357 33.2662 7.06264 34.0392 10.5763C34.0859 10.7888 33.9522 10.9997 33.7407 11.0454C33.7115 11.0527 33.6837 11.0557 33.6558 11.0557Z" stroke="#C08E71" stroke-width="1.04413" mask="url(#path-2-inside-1_60_67)"/>
<path d="M55.3941 49.5894C55.3412 49.5894 55.2866 49.5783 55.2347 49.5556C51.3767 47.8361 50.3257 46.1781 49.1263 42.071C49.0656 41.8632 49.1848 41.6437 49.3927 41.5829C49.5999 41.5223 49.8193 41.6418 49.8796 41.8506C51.0205 45.7562 51.952 47.23 55.5538 48.8353C55.752 48.9243 55.8414 49.1564 55.7527 49.3556C55.688 49.5021 55.5444 49.5894 55.3941 49.5894Z" stroke="#C08E71" stroke-width="1.04413" mask="url(#path-2-inside-1_60_67)"/>
<path d="M35.0908 29.0088C34.9335 29.0088 34.7856 28.9144 34.7246 28.7594C34.6459 28.5563 34.7458 28.3286 34.9479 28.2491C38.4422 26.8785 40.8638 23.9601 40.8876 23.9319C41.0258 23.7641 41.2721 23.7391 41.4401 23.8768C41.6077 24.0152 41.6319 24.2634 41.4939 24.431C41.3908 24.5568 38.924 27.535 35.2333 28.9819C35.1866 29.0002 35.1379 29.0088 35.0908 29.0088Z" stroke="#C08E71" stroke-width="1.04413" mask="url(#path-2-inside-1_60_67)"/>
<path d="M35.7502 28.3625L36.9338 29.523L36.895 29.566L34.4342 29.2487C33.6119 29.2762 32.7897 29.3038 31.9676 29.3313C32.702 28.9605 33.4364 28.5883 34.1714 28.2166L36.1786 26.7531L36.2311 26.765L35.7502 28.3625Z" stroke="#C08E71" stroke-width="1.04413" mask="url(#path-2-inside-1_60_67)"/>
<path d="M44.2952 33.5708C44.1935 33.5708 44.093 33.533 44.0162 33.4544C43.8636 33.3009 43.8647 33.0511 44.0184 32.8978C46.6845 30.2492 47.7528 26.6058 47.763 26.5688C47.8233 26.3602 48.0427 26.2396 48.2491 26.2994C48.4574 26.3592 48.5774 26.5774 48.5176 26.7868C48.4732 26.9435 47.3868 30.6593 44.5709 33.4581C44.4948 33.533 44.3953 33.5708 44.2952 33.5708Z" stroke="#C08E71" stroke-width="1.04413" mask="url(#path-2-inside-1_60_67)"/>
<path d="M44.8001 32.6805L46.3456 33.2747L46.3266 33.3315L43.9423 34.0187C43.1984 34.3723 42.4554 34.7258 41.712 35.0777C42.2394 34.4447 42.7666 33.811 43.2934 33.1788L44.5577 31.0351L44.6111 31.0248L44.8001 32.6805Z" stroke="#C08E71" stroke-width="1.04413" mask="url(#path-2-inside-1_60_67)"/>
</svg>
