<svg width="121" height="107" viewBox="0 0 121 107" fill="none" xmlns="http://www.w3.org/2000/svg">
<circle cx="53" cy="53.6719" r="53" fill="#EBD1B9"/>
<mask id="path-2-inside-1_944_12" fill="white">
<path d="M55.51 68.9741C47.4177 68.9741 40.6511 66.8147 33.5673 61.9702C25.6049 56.4108 18.368 41.1972 18.2974 41.0454C18.2486 40.9414 18.2242 40.8293 18.2242 40.7152C18.2242 40.4 18.4168 40.0907 18.7103 39.9703C19.0027 39.8481 19.3419 39.8944 19.5664 40.1188C19.6456 40.1992 19.7683 40.2886 19.9308 40.388L20.1759 40.5563C20.3426 40.6744 20.4987 40.7855 20.6432 40.8457C28.5069 45.7912 45.5704 50.9419 55.2004 51.3027C55.6496 51.3464 56.0452 51.3502 56.4528 51.3457C56.8533 51.3464 57.262 51.3464 57.7064 51.3061C67.366 50.7646 85.4557 45.5963 92.8408 40.3357C93.0011 40.2048 93.1857 40.0586 93.2987 39.9475C93.5235 39.7228 93.8602 39.6589 94.1548 39.7778C94.4487 39.8993 94.6401 40.1839 94.6401 40.501C94.6401 40.7406 94.5688 40.9478 94.4273 41.1175C93.7292 42.5777 86.8353 56.6733 79.3436 61.8827C71.898 66.9759 64.8859 69.1158 56.4363 68.964C56.1477 68.9703 55.8264 68.9741 55.51 68.9741ZM20.9994 42.8817C23.398 47.384 28.8402 56.757 34.4636 60.6843C41.5309 65.5168 48.2536 67.567 56.4367 67.3987C56.7707 67.4043 57.0698 67.4081 57.3682 67.4081C65.1647 67.4081 71.4694 65.3687 78.4488 60.5942C84.0824 56.6778 89.4295 47.3593 91.7911 42.8607C83.2859 47.8249 66.8781 52.3594 57.8239 52.8671C56.8829 52.9539 55.993 52.9554 55.0923 52.8634C45.543 52.5078 29.4471 47.7549 20.9994 42.8817Z"/>
<path d="M56.4533 52.911C56.001 52.911 55.5439 52.9103 55.0924 52.8643C45.1152 52.4926 27.9943 47.3213 19.9125 42.2281C19.7256 42.1578 19.4805 41.9847 19.2655 41.8322L19.0849 41.7073C18.868 41.5757 18.6725 41.4324 18.5118 41.2814C17.369 40.4965 16.5328 39.6493 16.0929 38.8263C15.9634 38.5843 15.9694 38.2934 16.1102 38.0593C16.2502 37.823 16.5027 37.6783 16.7771 37.6749C16.8995 37.7172 17.0826 37.7307 17.1824 37.7737C19.7703 38.873 23.9536 39.1807 28.4743 38.5361C31.1935 38.1487 33.549 37.605 35.825 37.0797C39.0009 36.3464 41.7445 35.7126 44.6041 35.7126C45.8355 35.7126 46.9978 35.8315 48.1542 36.075C50.9338 36.6235 52.3859 37.2831 53.5524 37.8122C54.5403 38.2598 55.2553 38.5843 56.4593 38.6557C57.5534 38.5667 58.2593 38.2459 59.2355 37.8006C60.4005 37.2693 61.8493 36.6089 64.6747 36.0323C65.8258 35.79 66.9893 35.6719 68.2214 35.6719C71.0833 35.6719 73.8268 36.3071 77.0047 37.0419C79.269 37.5669 81.611 38.1083 84.3076 38.4942C85.8359 38.6961 87.3237 38.7986 88.7192 38.7986C93.3855 38.7986 95.6449 37.6506 95.6678 37.6398C95.9718 37.4801 96.352 37.5381 96.5956 37.7864C96.8377 38.0343 96.8902 38.4097 96.7228 38.7111C96.2578 39.5468 95.4614 40.3802 94.2855 41.2582C94.2101 41.3139 94.1279 41.3554 94.0423 41.3812C93.9669 41.4437 93.8866 41.508 93.8066 41.5723C86.1726 47.0143 67.6603 52.318 57.8254 52.8695C57.3552 52.9103 56.9018 52.911 56.4533 52.911ZM19.5049 40.0635C19.5271 40.0822 19.5481 40.1002 19.5672 40.1189C19.6464 40.1993 19.7692 40.2887 19.9317 40.3881L20.1767 40.5564C20.3434 40.6745 20.4995 40.7856 20.644 40.8458C28.5077 45.7912 45.5713 50.9419 55.2012 51.3028C55.6505 51.3465 56.0461 51.3503 56.4537 51.3458C56.8541 51.3465 57.2629 51.3465 57.7072 51.3061C67.3668 50.7647 85.4565 45.5964 92.8417 40.3358C92.9918 40.2127 93.1629 40.0789 93.2759 39.9704C92.0993 40.191 90.5845 40.3631 88.7192 40.3631C88.7199 40.3631 88.7184 40.3631 88.7192 40.3631C87.2547 40.3631 85.6971 40.2557 84.0926 40.0445C81.3208 39.6477 78.8381 39.0727 76.6477 38.5656C73.566 37.8518 70.9035 37.2345 68.2211 37.2345C67.0996 37.2345 66.0438 37.3433 64.9944 37.5639C62.3405 38.1053 60.9811 38.7249 59.8886 39.223C58.8493 39.6963 57.9508 40.1054 56.4698 40.2169C54.869 40.1294 53.9574 39.7143 52.9009 39.2364C51.8083 38.7402 50.4489 38.1229 47.8397 37.608C46.7809 37.3859 45.7251 37.2779 44.6037 37.2779C41.9247 37.2779 39.2621 37.8922 36.1796 38.6049C33.9773 39.1119 31.4829 39.6878 28.6969 40.0845C25.3111 40.5687 22.1303 40.5549 19.5049 40.0635Z"/>
<path d="M19.5228 41.8389C19.4042 41.8389 19.2849 41.8131 19.1723 41.7573C18.9696 41.6564 18.764 41.5102 18.5628 41.3599C18.3639 41.2125 18.2242 40.9624 18.2242 40.7152C18.2242 40.4 18.4168 40.0907 18.7103 39.9703C19.0027 39.8481 19.3419 39.8944 19.5664 40.1188C19.6291 40.182 19.7195 40.2527 19.8347 40.3286C20.1279 40.4419 20.3335 40.7246 20.3335 41.0562C20.3335 41.4915 19.98 41.8561 19.5394 41.8389C19.5337 41.8389 19.5285 41.8389 19.5228 41.8389Z"/>
<path d="M93.2998 41.7536C93.0408 41.7536 92.7878 41.6268 92.6385 41.3957C92.4215 41.0592 92.4932 40.6135 92.8066 40.3622L92.8182 40.3521C93.0014 40.2048 93.1854 40.0586 93.2987 39.9475C93.5235 39.7228 93.8602 39.6589 94.1548 39.7778C94.4487 39.8993 94.6401 40.1839 94.6401 40.501C94.6401 40.7672 94.5526 40.9923 94.3796 41.1714C94.3507 41.2013 94.2775 41.2708 94.2444 41.2966C94.0294 41.4578 93.8658 41.5632 93.6529 41.6705C93.5404 41.7266 93.4195 41.7536 93.2998 41.7536Z"/>
<path d="M84.2789 77.939C84.0935 77.939 83.9137 77.874 83.7707 77.7543L79.6553 74.2847C79.4958 74.152 79.3975 73.9601 79.3787 73.7526C79.3615 73.5451 79.4291 73.3402 79.5627 73.1816L82.7716 69.4032C83.0513 69.0737 83.5459 69.03 83.8792 69.3108L87.9946 72.7804C88.326 73.059 88.3677 73.5533 88.0866 73.8838L84.8791 77.6631C84.7455 77.8212 84.5529 77.9199 84.345 77.9367C84.3229 77.939 84.3014 77.939 84.2789 77.939ZM81.2696 73.5952L84.1866 76.053L86.3788 73.4699L83.4634 71.0114L81.2696 73.5952Z"/>
<path d="M110.126 106.672C109.946 106.672 109.766 106.612 109.618 106.486L80.3303 81.8041C80.1727 81.6717 80.0728 81.4803 80.0556 81.2727C80.0383 81.0663 80.1044 80.861 80.2387 80.7025L90.3288 68.8205C90.6077 68.4903 91.102 68.4473 91.4356 68.7289L120.723 93.409C121.053 93.6883 121.094 94.1819 120.814 94.512C120.533 94.8415 120.039 94.8845 119.706 94.6037L91.0202 70.4291L81.9464 81.1153L110.634 105.291C110.965 105.571 111.007 106.065 110.726 106.394C110.571 106.578 110.349 106.672 110.126 106.672Z"/>
<path d="M81.5025 72.3599C81.3231 72.3599 81.1433 72.2997 80.9951 72.1744L63.6602 57.5647C63.3288 57.2869 63.2879 56.7926 63.5682 56.4624C63.8471 56.1322 64.3418 56.09 64.6754 56.3701L82.0111 70.9787C82.3417 71.258 82.3827 71.7527 82.1023 72.0821C81.9469 72.2653 81.7262 72.3599 81.5025 72.3599Z"/>
<path d="M87.0654 87.2369C86.8864 87.2369 86.7066 87.1774 86.558 87.0522C86.2273 86.7736 86.1857 86.2785 86.4668 85.9491L91.823 79.64C92.1026 79.3091 92.5973 79.2661 92.9306 79.5476C93.2612 79.8262 93.3029 80.3205 93.0225 80.6503L87.6656 86.9609C87.5106 87.143 87.2895 87.2369 87.0654 87.2369Z"/>
<path d="M94.2422 93.2854C94.0632 93.2854 93.8826 93.2245 93.7348 93.0992C93.4041 92.8207 93.3625 92.3263 93.6421 91.9961L99.0002 85.6878C99.2798 85.3576 99.7729 85.3154 100.107 85.5962C100.438 85.8755 100.479 86.3683 100.2 86.6985L94.8424 93.0084C94.687 93.1908 94.4655 93.2854 94.2422 93.2854Z"/>
<path d="M101.419 99.3335C101.24 99.3335 101.059 99.274 100.911 99.1488C100.581 98.8694 100.54 98.3751 100.82 98.0464L106.175 91.7358C106.455 91.4064 106.949 91.3619 107.282 91.6442C107.613 91.9228 107.656 92.4164 107.375 92.7469L102.019 99.0575C101.864 99.2392 101.642 99.3335 101.419 99.3335Z"/>
</mask>
<path d="M55.51 68.9741C47.4177 68.9741 40.6511 66.8147 33.5673 61.9702C25.6049 56.4108 18.368 41.1972 18.2974 41.0454C18.2486 40.9414 18.2242 40.8293 18.2242 40.7152C18.2242 40.4 18.4168 40.0907 18.7103 39.9703C19.0027 39.8481 19.3419 39.8944 19.5664 40.1188C19.6456 40.1992 19.7683 40.2886 19.9308 40.388L20.1759 40.5563C20.3426 40.6744 20.4987 40.7855 20.6432 40.8457C28.5069 45.7912 45.5704 50.9419 55.2004 51.3027C55.6496 51.3464 56.0452 51.3502 56.4528 51.3457C56.8533 51.3464 57.262 51.3464 57.7064 51.3061C67.366 50.7646 85.4557 45.5963 92.8408 40.3357C93.0011 40.2048 93.1857 40.0586 93.2987 39.9475C93.5235 39.7228 93.8602 39.6589 94.1548 39.7778C94.4487 39.8993 94.6401 40.1839 94.6401 40.501C94.6401 40.7406 94.5688 40.9478 94.4273 41.1175C93.7292 42.5777 86.8353 56.6733 79.3436 61.8827C71.898 66.9759 64.8859 69.1158 56.4363 68.964C56.1477 68.9703 55.8264 68.9741 55.51 68.9741ZM20.9994 42.8817C23.398 47.384 28.8402 56.757 34.4636 60.6843C41.5309 65.5168 48.2536 67.567 56.4367 67.3987C56.7707 67.4043 57.0698 67.4081 57.3682 67.4081C65.1647 67.4081 71.4694 65.3687 78.4488 60.5942C84.0824 56.6778 89.4295 47.3593 91.7911 42.8607C83.2859 47.8249 66.8781 52.3594 57.8239 52.8671C56.8829 52.9539 55.993 52.9554 55.0923 52.8634C45.543 52.5078 29.4471 47.7549 20.9994 42.8817Z" fill="#C08E71"/>
<path d="M56.4533 52.911C56.001 52.911 55.5439 52.9103 55.0924 52.8643C45.1152 52.4926 27.9943 47.3213 19.9125 42.2281C19.7256 42.1578 19.4805 41.9847 19.2655 41.8322L19.0849 41.7073C18.868 41.5757 18.6725 41.4324 18.5118 41.2814C17.369 40.4965 16.5328 39.6493 16.0929 38.8263C15.9634 38.5843 15.9694 38.2934 16.1102 38.0593C16.2502 37.823 16.5027 37.6783 16.7771 37.6749C16.8995 37.7172 17.0826 37.7307 17.1824 37.7737C19.7703 38.873 23.9536 39.1807 28.4743 38.5361C31.1935 38.1487 33.549 37.605 35.825 37.0797C39.0009 36.3464 41.7445 35.7126 44.6041 35.7126C45.8355 35.7126 46.9978 35.8315 48.1542 36.075C50.9338 36.6235 52.3859 37.2831 53.5524 37.8122C54.5403 38.2598 55.2553 38.5843 56.4593 38.6557C57.5534 38.5667 58.2593 38.2459 59.2355 37.8006C60.4005 37.2693 61.8493 36.6089 64.6747 36.0323C65.8258 35.79 66.9893 35.6719 68.2214 35.6719C71.0833 35.6719 73.8268 36.3071 77.0047 37.0419C79.269 37.5669 81.611 38.1083 84.3076 38.4942C85.8359 38.6961 87.3237 38.7986 88.7192 38.7986C93.3855 38.7986 95.6449 37.6506 95.6678 37.6398C95.9718 37.4801 96.352 37.5381 96.5956 37.7864C96.8377 38.0343 96.8902 38.4097 96.7228 38.7111C96.2578 39.5468 95.4614 40.3802 94.2855 41.2582C94.2101 41.3139 94.1279 41.3554 94.0423 41.3812C93.9669 41.4437 93.8866 41.508 93.8066 41.5723C86.1726 47.0143 67.6603 52.318 57.8254 52.8695C57.3552 52.9103 56.9018 52.911 56.4533 52.911ZM19.5049 40.0635C19.5271 40.0822 19.5481 40.1002 19.5672 40.1189C19.6464 40.1993 19.7692 40.2887 19.9317 40.3881L20.1767 40.5564C20.3434 40.6745 20.4995 40.7856 20.644 40.8458C28.5077 45.7912 45.5713 50.9419 55.2012 51.3028C55.6505 51.3465 56.0461 51.3503 56.4537 51.3458C56.8541 51.3465 57.2629 51.3465 57.7072 51.3061C67.3668 50.7647 85.4565 45.5964 92.8417 40.3358C92.9918 40.2127 93.1629 40.0789 93.2759 39.9704C92.0993 40.191 90.5845 40.3631 88.7192 40.3631C88.7199 40.3631 88.7184 40.3631 88.7192 40.3631C87.2547 40.3631 85.6971 40.2557 84.0926 40.0445C81.3208 39.6477 78.8381 39.0727 76.6477 38.5656C73.566 37.8518 70.9035 37.2345 68.2211 37.2345C67.0996 37.2345 66.0438 37.3433 64.9944 37.5639C62.3405 38.1053 60.9811 38.7249 59.8886 39.223C58.8493 39.6963 57.9508 40.1054 56.4698 40.2169C54.869 40.1294 53.9574 39.7143 52.9009 39.2364C51.8083 38.7402 50.4489 38.1229 47.8397 37.608C46.7809 37.3859 45.7251 37.2779 44.6037 37.2779C41.9247 37.2779 39.2621 37.8922 36.1796 38.6049C33.9773 39.1119 31.4829 39.6878 28.6969 40.0845C25.3111 40.5687 22.1303 40.5549 19.5049 40.0635Z" fill="#C08E71"/>
<path d="M19.5228 41.8389C19.4042 41.8389 19.2849 41.8131 19.1723 41.7573C18.9696 41.6564 18.764 41.5102 18.5628 41.3599C18.3639 41.2125 18.2242 40.9624 18.2242 40.7152C18.2242 40.4 18.4168 40.0907 18.7103 39.9703C19.0027 39.8481 19.3419 39.8944 19.5664 40.1188C19.6291 40.182 19.7195 40.2527 19.8347 40.3286C20.1279 40.4419 20.3335 40.7246 20.3335 41.0562C20.3335 41.4915 19.98 41.8561 19.5394 41.8389C19.5337 41.8389 19.5285 41.8389 19.5228 41.8389Z" fill="#C08E71"/>
<path d="M93.2998 41.7536C93.0408 41.7536 92.7878 41.6268 92.6385 41.3957C92.4215 41.0592 92.4932 40.6135 92.8066 40.3622L92.8182 40.3521C93.0014 40.2048 93.1854 40.0586 93.2987 39.9475C93.5235 39.7228 93.8602 39.6589 94.1548 39.7778C94.4487 39.8993 94.6401 40.1839 94.6401 40.501C94.6401 40.7672 94.5526 40.9923 94.3796 41.1714C94.3507 41.2013 94.2775 41.2708 94.2444 41.2966C94.0294 41.4578 93.8658 41.5632 93.6529 41.6705C93.5404 41.7266 93.4195 41.7536 93.2998 41.7536Z" fill="#C08E71"/>
<path d="M84.2789 77.939C84.0935 77.939 83.9137 77.874 83.7707 77.7543L79.6553 74.2847C79.4958 74.152 79.3975 73.9601 79.3787 73.7526C79.3615 73.5451 79.4291 73.3402 79.5627 73.1816L82.7716 69.4032C83.0513 69.0737 83.5459 69.03 83.8792 69.3108L87.9946 72.7804C88.326 73.059 88.3677 73.5533 88.0866 73.8838L84.8791 77.6631C84.7455 77.8212 84.5529 77.9199 84.345 77.9367C84.3229 77.939 84.3014 77.939 84.2789 77.939ZM81.2696 73.5952L84.1866 76.053L86.3788 73.4699L83.4634 71.0114L81.2696 73.5952Z" fill="#C08E71"/>
<path d="M110.126 106.672C109.946 106.672 109.766 106.612 109.618 106.486L80.3303 81.8041C80.1727 81.6717 80.0728 81.4803 80.0556 81.2727C80.0383 81.0663 80.1044 80.861 80.2387 80.7025L90.3288 68.8205C90.6077 68.4903 91.102 68.4473 91.4356 68.7289L120.723 93.409C121.053 93.6883 121.094 94.1819 120.814 94.512C120.533 94.8415 120.039 94.8845 119.706 94.6037L91.0202 70.4291L81.9464 81.1153L110.634 105.291C110.965 105.571 111.007 106.065 110.726 106.394C110.571 106.578 110.349 106.672 110.126 106.672Z" fill="#C08E71"/>
<path d="M81.5025 72.3599C81.3231 72.3599 81.1433 72.2997 80.9951 72.1744L63.6602 57.5647C63.3288 57.2869 63.2879 56.7926 63.5682 56.4624C63.8471 56.1322 64.3418 56.09 64.6754 56.3701L82.0111 70.9787C82.3417 71.258 82.3827 71.7527 82.1023 72.0821C81.9469 72.2653 81.7262 72.3599 81.5025 72.3599Z" fill="#C08E71"/>
<path d="M87.0654 87.2369C86.8864 87.2369 86.7066 87.1774 86.558 87.0522C86.2273 86.7736 86.1857 86.2785 86.4668 85.9491L91.823 79.64C92.1026 79.3091 92.5973 79.2661 92.9306 79.5476C93.2612 79.8262 93.3029 80.3205 93.0225 80.6503L87.6656 86.9609C87.5106 87.143 87.2895 87.2369 87.0654 87.2369Z" fill="#C08E71"/>
<path d="M94.2422 93.2854C94.0632 93.2854 93.8826 93.2245 93.7348 93.0992C93.4041 92.8207 93.3625 92.3263 93.6421 91.9961L99.0002 85.6878C99.2798 85.3576 99.7729 85.3154 100.107 85.5962C100.438 85.8755 100.479 86.3683 100.2 86.6985L94.8424 93.0084C94.687 93.1908 94.4655 93.2854 94.2422 93.2854Z" fill="#C08E71"/>
<path d="M101.419 99.3335C101.24 99.3335 101.059 99.274 100.911 99.1488C100.581 98.8694 100.54 98.3751 100.82 98.0464L106.175 91.7358C106.455 91.4064 106.949 91.3619 107.282 91.6442C107.613 91.9228 107.656 92.4164 107.375 92.7469L102.019 99.0575C101.864 99.2392 101.642 99.3335 101.419 99.3335Z" fill="#C08E71"/>
<path d="M18.7103 39.9703L18.9001 40.4329L18.9032 40.4316L18.7103 39.9703ZM94.1548 39.7778L94.3459 39.3157L94.3419 39.3141L94.1548 39.7778ZM18.7242 40.7152C18.7242 40.5876 18.808 40.4707 18.9001 40.4329L18.5205 39.5078C18.0256 39.7108 17.7242 40.2124 17.7242 40.7152H18.7242ZM18.9032 40.4316C19.0335 40.3771 19.1502 40.4097 19.2129 40.4724L19.9199 39.7652C19.5337 39.3792 18.9718 39.319 18.5174 39.5091L18.9032 40.4316ZM93.6522 40.3011C93.731 40.2223 93.8536 40.1954 93.9677 40.2414L94.3419 39.3141C93.8668 39.1224 93.316 39.2233 92.9452 39.5939L93.6522 40.3011ZM93.9637 40.2398C94.0721 40.2846 94.1401 40.3878 94.1401 40.501H95.1401C95.1401 39.9799 94.8253 39.5139 94.3459 39.3157L93.9637 40.2398ZM33.5673 61.9702L32.9948 62.7902L33.0028 62.7956L33.5673 61.9702ZM18.2974 41.0454L19.2043 40.6239L19.2027 40.6205L18.2974 41.0454ZM19.5664 40.1188L20.2764 39.4146L18.854 40.8205L19.5664 40.1188ZM19.9308 40.388L20.4968 39.5636L20.4752 39.5488L20.4528 39.5351L19.9308 40.388ZM20.1759 40.5563L20.7543 39.7405L20.7481 39.7361L20.7419 39.7318L20.1759 40.5563ZM20.6432 40.8457L21.1756 39.9992L21.1049 39.9547L21.0278 39.9226L20.6432 40.8457ZM55.2004 51.3027L55.2973 50.3074L55.2676 50.3045L55.2378 50.3034L55.2004 51.3027ZM56.4528 51.3457L56.4547 50.3456L56.4418 50.3457L56.4528 51.3457ZM57.7064 51.3061L57.6504 50.3076L57.6331 50.3086L57.6159 50.3102L57.7064 51.3061ZM92.8408 40.3357L93.421 41.1502L93.4478 41.1311L93.4733 41.1102L92.8408 40.3357ZM93.2987 39.9475L93.9997 40.6607L92.5989 39.2332L93.2987 39.9475ZM94.4273 41.1175L93.6591 40.4773L93.5791 40.5733L93.5251 40.6862L94.4273 41.1175ZM79.3436 61.8827L79.9082 62.7081L79.9145 62.7037L79.3436 61.8827ZM56.4363 68.964L56.4543 67.9641L56.4343 67.9638L56.4143 67.9642L56.4363 68.964ZM20.9994 42.8817L21.4991 42.0155L18.4756 40.2713L20.1168 43.3519L20.9994 42.8817ZM34.4636 60.6843L33.891 61.5042L33.8991 61.5097L34.4636 60.6843ZM56.4367 67.3987L56.4535 66.3989L56.4348 66.3986L56.4161 66.399L56.4367 67.3987ZM78.4488 60.5942L79.0134 61.4196L79.0196 61.4153L78.4488 60.5942ZM91.7911 42.8607L92.6765 43.3255L94.2957 40.241L91.287 41.9971L91.7911 42.8607ZM57.8239 52.8671L57.7679 51.8687L57.7499 51.8697L57.7321 51.8714L57.8239 52.8671ZM55.0923 52.8634L55.1939 51.8686L55.1618 51.8653L55.1295 51.8641L55.0923 52.8634ZM55.0924 52.8643L55.1937 51.8694L55.1617 51.8662L55.1296 51.865L55.0924 52.8643ZM19.9125 42.2281L20.4457 41.3821L20.3597 41.3279L20.2645 41.2921L19.9125 42.2281ZM19.2655 41.8322L19.8441 41.0165L19.8344 41.0098L19.2655 41.8322ZM19.0849 41.7073L19.6539 40.8849L19.6292 40.8679L19.6037 40.8523L19.0849 41.7073ZM18.5118 41.2814L19.1969 40.5529L19.1411 40.5004L19.0779 40.457L18.5118 41.2814ZM16.0929 38.8263L16.9748 38.3549L16.9745 38.3544L16.0929 38.8263ZM16.1102 38.0593L16.9672 38.5747L16.9705 38.569L16.1102 38.0593ZM16.7771 37.6749L17.1035 36.7297L16.9389 36.6729L16.7648 36.675L16.7771 37.6749ZM17.1824 37.7737L16.7869 38.6921L16.7915 38.6941L17.1824 37.7737ZM28.4743 38.5361L28.3333 37.5461L28.3331 37.5461L28.4743 38.5361ZM35.825 37.0797L36.0499 38.0541L36.0499 38.0541L35.825 37.0797ZM48.1542 36.075L47.9482 37.0536L47.9606 37.056L48.1542 36.075ZM53.5524 37.8122L53.1394 38.7229L53.1397 38.723L53.5524 37.8122ZM56.4593 38.6557L56.4001 39.654L56.4703 39.6581L56.5404 39.6524L56.4593 38.6557ZM59.2355 37.8006L58.8206 36.8908L58.8205 36.8908L59.2355 37.8006ZM64.6747 36.0323L64.8746 37.0122L64.8806 37.0109L64.6747 36.0323ZM77.0047 37.0419L77.2305 36.0677L77.2299 36.0676L77.0047 37.0419ZM84.3076 38.4942L84.166 39.4842L84.1767 39.4856L84.3076 38.4942ZM95.6678 37.6398L96.0959 38.5435L96.1145 38.5347L96.1328 38.5251L95.6678 37.6398ZM96.5956 37.7864L97.3111 37.0877L97.3094 37.0861L96.5956 37.7864ZM96.7228 38.7111L97.5967 39.1973L97.597 39.1966L96.7228 38.7111ZM94.2855 41.2582L94.8796 42.0626L94.8838 42.0595L94.2855 41.2582ZM94.0423 41.3812L93.7536 40.4238L93.5603 40.4821L93.4047 40.6109L94.0423 41.3812ZM93.8066 41.5723L94.3871 42.3866L94.4108 42.3697L94.4334 42.3515L93.8066 41.5723ZM57.8254 52.8695L57.7694 51.8711L57.7543 51.8719L57.7391 51.8732L57.8254 52.8695ZM19.5049 40.0635L19.6889 39.0806L15.9652 38.3837L18.8598 40.8276L19.5049 40.0635ZM19.5672 40.1189L20.2796 39.4171L20.2729 39.4102L20.266 39.4035L19.5672 40.1189ZM19.9317 40.3881L20.4976 39.5637L20.476 39.5489L20.4537 39.5352L19.9317 40.3881ZM20.1767 40.5564L20.7552 39.7406L20.749 39.7362L20.7427 39.7319L20.1767 40.5564ZM20.644 40.8458L21.1764 39.9993L21.1057 39.9548L21.0286 39.9227L20.644 40.8458ZM55.2012 51.3028L55.2981 50.3075L55.2685 50.3046L55.2387 50.3035L55.2012 51.3028ZM56.4537 51.3458L56.4555 50.3457L56.4426 50.3458L56.4537 51.3458ZM57.7072 51.3061L57.6513 50.3077L57.634 50.3087L57.6167 50.3103L57.7072 51.3061ZM92.8417 40.3358L93.4219 41.1503L93.4494 41.1307L93.4755 41.1092L92.8417 40.3358ZM93.2759 39.9704L93.9684 40.6919L96.3879 38.3695L93.0916 38.9876L93.2759 39.9704ZM84.0926 40.0445L83.9509 41.0344L83.962 41.0359L84.0926 40.0445ZM76.6477 38.5656L76.4221 39.5398L76.4222 39.5399L76.6477 38.5656ZM64.9944 37.5639L65.1943 38.5437L65.2002 38.5425L64.9944 37.5639ZM59.8886 39.223L60.3031 40.133L60.3034 40.1329L59.8886 39.223ZM56.4698 40.2169L56.4152 41.2154L56.4801 41.2189L56.5448 41.214L56.4698 40.2169ZM52.9009 39.2364L52.4874 40.1469L52.4888 40.1476L52.9009 39.2364ZM47.8397 37.608L47.6344 38.5868L47.6461 38.5891L47.8397 37.608ZM36.1796 38.6049L36.404 39.5794L36.4049 39.5792L36.1796 38.6049ZM28.6969 40.0845L28.5559 39.0945L28.5553 39.0946L28.6969 40.0845ZM19.1723 41.7573L18.7264 42.6524L18.7288 42.6536L19.1723 41.7573ZM18.5628 41.3599L19.1614 40.5588L19.158 40.5563L18.5628 41.3599ZM19.8347 40.3286L19.2846 41.1637L19.3742 41.2227L19.4742 41.2613L19.8347 40.3286ZM19.5394 41.8389L19.5784 40.8396L19.5589 40.8389H19.5394V41.8389ZM92.6385 41.3957L91.798 41.9375L91.7986 41.9386L92.6385 41.3957ZM92.8066 40.3622L93.4321 41.1424L93.4471 41.1304L93.4616 41.1179L92.8066 40.3622ZM92.8182 40.3521L92.1915 39.5729L92.1772 39.5844L92.1633 39.5964L92.8182 40.3521ZM94.3796 41.1714L95.0987 41.8662L95.0988 41.8662L94.3796 41.1714ZM94.2444 41.2966L94.8441 42.0969L94.8521 42.0909L94.86 42.0847L94.2444 41.2966ZM93.6529 41.6705L94.0988 42.5657L94.1032 42.5634L93.6529 41.6705ZM83.7707 77.7543L83.1262 78.5188L83.129 78.5212L83.7707 77.7543ZM79.6553 74.2847L80.2999 73.5201L80.295 73.516L79.6553 74.2847ZM79.3787 73.7526L78.3822 73.8355L78.3828 73.8427L79.3787 73.7526ZM79.5627 73.1816L78.8004 72.5343L78.798 72.5372L79.5627 73.1816ZM82.7716 69.4032L83.5339 70.0505L83.534 70.0503L82.7716 69.4032ZM83.8792 69.3108L84.5238 68.5463L84.5236 68.5461L83.8792 69.3108ZM87.9946 72.7804L87.35 73.545L87.3512 73.5459L87.9946 72.7804ZM88.0866 73.8838L87.3248 73.236L87.3241 73.2368L88.0866 73.8838ZM84.8791 77.6631L84.1166 77.016L84.1152 77.0177L84.8791 77.6631ZM84.345 77.9367L84.2643 76.94L84.2543 76.9408L84.2442 76.9418L84.345 77.9367ZM81.2696 73.5952L80.5073 72.948L79.8576 73.7131L80.6253 74.3599L81.2696 73.5952ZM84.1866 76.053L83.5422 76.8177L84.3042 77.4597L84.949 76.7L84.1866 76.053ZM86.3788 73.4699L87.1413 74.117L87.7904 73.3522L87.0235 72.7055L86.3788 73.4699ZM83.4634 71.0114L84.108 70.2469L83.3461 69.6044L82.7011 70.3642L83.4634 71.0114ZM109.618 106.486L110.265 105.723L110.263 105.722L109.618 106.486ZM80.3303 81.8041L80.9747 81.0394L80.9734 81.0383L80.3303 81.8041ZM80.0556 81.2727L81.0521 81.1898L81.0521 81.1894L80.0556 81.2727ZM80.2387 80.7025L79.4765 80.0552L79.4758 80.056L80.2387 80.7025ZM90.3288 68.8205L91.0911 69.4678L91.0928 69.4658L90.3288 68.8205ZM91.4356 68.7289L90.7907 69.4932L90.7912 69.4936L91.4356 68.7289ZM120.723 93.409L121.368 92.6451L121.367 92.6443L120.723 93.409ZM120.814 94.512L121.574 95.1612L121.576 95.1593L120.814 94.512ZM119.706 94.6037L119.062 95.3683L119.062 95.3684L119.706 94.6037ZM91.0202 70.4291L91.6646 69.6644L90.9027 69.0224L90.2579 69.7819L91.0202 70.4291ZM81.9464 81.1153L81.1842 80.4681L80.5345 81.2332L81.302 81.88L81.9464 81.1153ZM110.634 105.291L111.28 104.527L111.279 104.527L110.634 105.291ZM110.726 106.394L109.965 105.746L109.962 105.749L110.726 106.394ZM80.9951 72.1744L81.6405 71.4106L81.6395 71.4098L80.9951 72.1744ZM63.6602 57.5647L64.3046 56.8001L64.3026 56.7984L63.6602 57.5647ZM63.5682 56.4624L64.3305 57.1097L64.3322 57.1076L63.5682 56.4624ZM64.6754 56.3701L65.3198 55.6054L65.3184 55.6041L64.6754 56.3701ZM82.0111 70.9787L82.6564 70.2147L82.6555 70.214L82.0111 70.9787ZM82.1023 72.0821L81.3408 71.434L81.3396 71.4353L82.1023 72.0821ZM86.558 87.0522L87.2025 86.2875L87.2023 86.2874L86.558 87.0522ZM86.4668 85.9491L87.2275 86.5982L87.2291 86.5963L86.4668 85.9491ZM91.823 79.64L92.5853 80.2872L92.5868 80.2854L91.823 79.64ZM92.9306 79.5476L92.2852 80.3115L92.2863 80.3124L92.9306 79.5476ZM93.0225 80.6503L92.2606 80.0026L92.2602 80.0032L93.0225 80.6503ZM87.6656 86.9609L88.4271 87.6091L88.4279 87.6081L87.6656 86.9609ZM93.7348 93.0992L94.3811 92.3362L94.3791 92.3345L93.7348 93.0992ZM93.6421 91.9961L92.8799 91.3488L92.879 91.3499L93.6421 91.9961ZM99.0002 85.6878L99.7623 86.3351L99.7633 86.334L99.0002 85.6878ZM100.107 85.5962L100.752 84.8323L100.75 84.8307L100.107 85.5962ZM100.2 86.6985L100.962 87.3457L100.963 87.3447L100.2 86.6985ZM94.8424 93.0084L95.6037 93.6567L95.6047 93.6556L94.8424 93.0084ZM100.911 99.1488L101.558 98.3857L101.557 98.3856L100.911 99.1488ZM100.82 98.0464L101.581 98.6954L101.583 98.6935L100.82 98.0464ZM106.175 91.7358L105.413 91.0887L105.413 91.0888L106.175 91.7358ZM107.282 91.6442L106.635 92.4066L106.638 92.4097L107.282 91.6442ZM107.375 92.7469L108.138 93.394L108.138 93.3938L107.375 92.7469ZM102.019 99.0575L102.78 99.7056L102.781 99.7046L102.019 99.0575ZM55.51 67.9741C47.6316 67.9741 41.0599 65.8828 34.1318 61.1448L33.0028 62.7956C40.2423 67.7466 47.2039 69.9741 55.51 69.9741V67.9741ZM34.1398 61.1503C30.3384 58.4961 26.6283 53.4577 23.8218 48.9513C22.4304 46.7171 21.2819 44.6485 20.4771 43.129C20.0749 42.3697 19.759 41.7485 19.5421 41.3136C19.4336 41.0962 19.3499 40.9255 19.2926 40.8074C19.2639 40.7484 19.2419 40.7026 19.2267 40.6709C19.2105 40.6371 19.2037 40.6226 19.2043 40.6239L17.3906 41.4668C17.4376 41.568 19.2834 45.4474 22.1241 50.0086C24.9442 54.5368 28.8338 59.8849 32.9948 62.7901L34.1398 61.1503ZM19.2027 40.6205C19.2176 40.6523 19.2242 40.6855 19.2242 40.7152H17.2242C17.2242 40.973 17.2797 41.2306 17.3922 41.4703L19.2027 40.6205ZM18.854 40.8205C19.0195 40.9886 19.2249 41.1284 19.4088 41.241L20.4528 39.5351C20.3886 39.4958 20.3422 39.4645 20.3102 39.441C20.2766 39.4162 20.2701 39.4082 20.2788 39.417L18.854 40.8205ZM19.3649 41.2125L19.61 41.3807L20.7419 39.7318L20.4968 39.5636L19.3649 41.2125ZM19.5975 41.372C19.7323 41.4676 19.9886 41.6563 20.2586 41.7688L21.0278 39.9226C21.0329 39.9248 21.0137 39.9169 20.9584 39.8814C20.9034 39.8461 20.8425 39.803 20.7543 39.7405L19.5975 41.372ZM20.1108 41.6922C24.1526 44.2341 30.482 46.789 36.97 48.7506C43.4606 50.7131 50.2264 52.117 55.1629 52.302L55.2378 50.3034C50.5444 50.1275 43.9634 48.7757 37.5489 46.8362C31.1317 44.896 24.9975 42.4028 21.1756 39.9992L20.1108 41.6922ZM55.1035 52.298C55.6054 52.3469 56.0425 52.3503 56.4638 52.3456L56.4418 50.3457C56.048 50.3501 55.6938 50.346 55.2973 50.3074L55.1035 52.298ZM56.4509 52.3457C56.8487 52.3464 57.3005 52.3471 57.7969 52.302L57.6159 50.3102C57.2235 50.3458 56.8578 50.3464 56.4547 50.3457L56.4509 52.3457ZM57.7624 52.3045C62.7015 52.0276 69.7229 50.5773 76.4167 48.5476C83.094 46.5228 89.5913 43.8782 93.421 41.1502L92.2606 39.5212C88.7052 42.0539 82.465 44.6236 75.8363 46.6336C69.2242 48.6386 62.3709 50.043 57.6504 50.3076L57.7624 52.3045ZM93.4733 41.1102C93.6037 41.0038 93.8438 40.8139 93.9997 40.6607L92.5977 39.2344C92.5277 39.3032 92.3985 39.4058 92.2083 39.5611L93.4733 41.1102ZM93.6401 40.501C93.6401 40.5112 93.6394 40.5163 93.6392 40.517C93.6391 40.5176 93.6396 40.5147 93.6414 40.5094C93.6433 40.5039 93.6461 40.4976 93.6497 40.4912C93.6533 40.4849 93.6567 40.4801 93.6591 40.4773L95.1954 41.7578C95.5003 41.392 95.6401 40.9525 95.6401 40.501H93.6401ZM93.5251 40.6862C93.1849 41.3978 91.3057 45.2486 88.5871 49.5608C85.8482 53.9054 82.3411 58.5804 78.7727 61.0617L79.9145 62.7037C83.8378 59.9756 87.5235 54.9981 90.279 50.6274C93.0548 46.2244 94.9716 42.2974 95.3295 41.5489L93.5251 40.6862ZM78.779 61.0573C71.4954 66.0396 64.6852 68.112 56.4543 67.9641L56.4183 69.9638C65.0865 70.1196 72.3005 67.9121 79.9081 62.7081L78.779 61.0573ZM56.4143 67.9642C56.1329 67.9704 55.819 67.9741 55.51 67.9741V69.9741C55.8338 69.9741 56.1624 69.9702 56.4583 69.9637L56.4143 67.9642ZM20.1168 43.3519C21.3262 45.6219 23.3071 49.1283 25.7013 52.5697C28.0816 55.991 30.9298 59.4361 33.891 61.5041L35.0362 59.8644C32.374 58.0052 29.6894 54.8001 27.3431 51.4275C25.0107 48.075 23.0712 44.6438 21.8819 42.4115L20.1168 43.3519ZM33.8991 61.5097C41.1305 66.4545 48.0563 68.5713 56.4572 68.3985L56.4161 66.399C48.4509 66.5627 41.9312 64.5791 35.028 59.8588L33.8991 61.5097ZM56.4199 68.3986C56.7561 68.4042 57.0616 68.4081 57.3682 68.4081V66.4081C57.078 66.4081 56.7853 66.4045 56.4535 66.3989L56.4199 68.3986ZM57.3682 68.4081C65.3836 68.4081 71.8826 66.2977 79.0134 61.4195L77.8842 59.7688C71.0561 64.4398 64.9459 66.4081 57.3682 66.4081V68.4081ZM79.0196 61.4153C81.988 59.3517 84.8157 55.9214 87.1697 52.5142C89.5374 49.0871 91.4855 45.5942 92.6765 43.3255L90.9056 42.3959C89.7351 44.6258 87.8289 48.0415 85.5242 51.3774C83.2058 54.7331 80.5432 57.9203 77.878 59.7731L79.0196 61.4153ZM91.287 41.9971C87.1362 44.4197 80.9969 46.7671 74.736 48.5743C68.477 50.381 62.1912 51.6206 57.7679 51.8687L57.8799 53.8656C62.5107 53.6059 68.956 52.3244 75.2907 50.4958C81.6236 48.6678 87.9408 46.2659 92.2951 43.7244L91.287 41.9971ZM57.7321 51.8714C56.8496 51.9527 56.0248 51.9534 55.1939 51.8686L54.9907 53.8582C55.9613 53.9573 56.9162 53.9551 57.9157 53.8629L57.7321 51.8714ZM55.1295 51.8641C50.471 51.6906 44.1485 50.4374 37.9144 48.6072C31.6821 46.7775 25.6286 44.3977 21.4991 42.0155L20.4997 43.7479C24.8178 46.2389 31.0361 48.6722 37.351 50.5262C43.6642 52.3796 50.1643 53.6806 55.0551 53.8627L55.1295 51.8641ZM56.4533 51.911C55.994 51.911 55.5868 51.9094 55.1937 51.8694L54.991 53.8591C55.501 53.9111 56.0081 53.911 56.4533 53.911V51.911ZM55.1296 51.865C50.261 51.6836 43.578 50.3232 37.081 48.3595C30.5812 46.395 24.3774 43.8599 20.4457 41.3821L19.3794 43.0741C23.5294 45.6895 29.927 48.2866 36.5024 50.274C43.0805 52.2622 49.9466 53.6733 55.0551 53.8636L55.1296 51.865ZM20.2645 41.2921C20.2706 41.2944 20.2329 41.2789 20.1373 41.2179C20.0499 41.1622 19.9546 41.095 19.8441 41.0165L18.6869 42.6478C18.8582 42.7693 19.224 43.0376 19.5605 43.1641L20.2645 41.2921ZM19.8344 41.0098L19.6539 40.8849L18.516 42.5297L18.6966 42.6546L19.8344 41.0098ZM19.6037 40.8523C19.431 40.7476 19.295 40.6452 19.1969 40.5529L17.8268 42.0099C18.0499 42.2197 18.305 42.4037 18.5662 42.5622L19.6037 40.8523ZM19.0779 40.457C18.0071 39.7217 17.3111 38.984 16.9748 38.3549L15.211 39.2976C15.7544 40.3145 16.7308 41.2714 17.9457 42.1057L19.0779 40.457ZM16.9745 38.3544C17.0091 38.4189 17.0102 38.5031 16.9672 38.5747L15.2532 37.544C14.9286 38.0838 14.9177 38.7498 15.2112 39.2982L16.9745 38.3544ZM16.9705 38.569C16.9312 38.6354 16.8609 38.674 16.7894 38.6749L16.7648 36.675C16.1446 36.6826 15.5691 37.0106 15.2498 37.5497L16.9705 38.569ZM16.4507 38.6202C16.5339 38.6489 16.6109 38.6673 16.6639 38.6789C16.7167 38.6905 16.771 38.7006 16.8009 38.7063C16.8389 38.7136 16.8532 38.7166 16.8602 38.7183C16.8707 38.7208 16.8379 38.7141 16.7869 38.6921L17.578 36.8552C17.4771 36.8118 17.384 36.7872 17.3282 36.7738C17.2689 36.7595 17.2111 36.7485 17.1755 36.7417C17.1319 36.7334 17.1113 36.7295 17.0921 36.7253C17.0733 36.7212 17.0815 36.7221 17.1035 36.7297L16.4507 38.6202ZM16.7915 38.6941C19.6162 39.894 24.007 40.1832 28.6155 39.5261L28.3331 37.5461C23.9002 38.1782 19.9244 37.852 17.5734 36.8533L16.7915 38.6941ZM28.6154 39.5261C31.3823 39.1319 33.7765 38.5788 36.0499 38.0541L35.6 36.1053C33.3215 36.6312 31.0048 37.1655 28.3333 37.5461L28.6154 39.5261ZM36.0499 38.0541C39.2481 37.3157 41.8785 36.7126 44.6041 36.7126V34.7126C41.6105 34.7126 38.7537 35.3772 35.6 36.1053L36.0499 38.0541ZM44.6041 36.7126C45.7689 36.7126 46.8622 36.8249 47.9482 37.0535L48.3602 35.0964C47.1335 34.8382 45.902 34.7126 44.6041 34.7126V36.7126ZM47.9606 37.056C50.634 37.5836 52.0074 38.2094 53.1394 38.7229L53.9655 36.9015C52.7645 36.3567 51.2337 35.6634 48.3478 35.0939L47.9606 37.056ZM53.1397 38.723C54.1369 39.1749 54.9974 39.5708 56.4001 39.654L56.5185 37.6575C55.5131 37.5979 54.9436 37.3447 53.9651 36.9013L53.1397 38.723ZM56.5404 39.6524C57.8263 39.5478 58.6742 39.1558 59.6506 38.7104L58.8205 36.8908C57.8445 37.336 57.2804 37.5856 56.3782 37.659L56.5404 39.6524ZM59.6505 38.7104C60.7796 38.1954 62.1519 37.5678 64.8746 37.0121L64.4747 35.0525C61.5466 35.6501 60.0214 36.3431 58.8206 36.8908L59.6505 38.7104ZM64.8806 37.0109C65.9608 36.7835 67.0551 36.6719 68.2214 36.6719V34.6719C66.9234 34.6719 65.6907 34.7965 64.4687 35.0538L64.8806 37.0109ZM68.2214 36.6719C70.949 36.6719 73.5791 37.2762 76.7794 38.0162L77.2299 36.0676C74.0745 35.338 71.2175 34.6719 68.2214 34.6719V36.6719ZM76.7788 38.016C79.041 38.5405 81.4216 39.0914 84.166 39.4841L84.4493 37.5043C81.8003 37.1252 79.4969 36.5932 77.2305 36.0677L76.7788 38.016ZM84.1767 39.4856C85.7441 39.6927 87.2758 39.7986 88.7192 39.7986V37.7986C87.3717 37.7986 85.9278 37.6996 84.4386 37.5028L84.1767 39.4856ZM88.7192 39.7986C91.1353 39.7986 92.9483 39.5013 94.1778 39.1933C94.7922 39.0394 95.2598 38.883 95.5831 38.7605C95.7447 38.6992 95.8701 38.6465 95.9596 38.6068C96.0477 38.5677 96.1111 38.5363 96.0959 38.5435L95.2398 36.736C95.2362 36.7377 95.1218 36.7965 94.8742 36.8903C94.6216 36.9861 94.2284 37.1188 93.6918 37.2532C92.6192 37.5219 90.9694 37.7986 88.7192 37.7986V39.7986ZM96.1328 38.5251C96.0468 38.5703 95.9478 38.5541 95.8818 38.4867L97.3094 37.0861C96.7562 36.5222 95.8968 36.39 95.2029 36.7545L96.1328 38.5251ZM95.8801 38.485C95.8182 38.4216 95.798 38.3166 95.8486 38.2255L97.597 39.1966C97.9824 38.5028 97.8571 37.647 97.3111 37.0877L95.8801 38.485ZM95.849 38.2248C95.479 38.8897 94.8038 39.6232 93.6872 40.4569L94.8838 42.0595C96.119 41.1373 97.0366 40.2038 97.5967 39.1973L95.849 38.2248ZM93.6915 40.4538C93.7041 40.4445 93.7245 40.4326 93.7536 40.4238L94.331 42.3387C94.5313 42.2783 94.7161 42.1833 94.8796 42.0626L93.6915 40.4538ZM93.4047 40.6109C93.3361 40.6677 93.2628 40.7264 93.1798 40.7932L94.4334 42.3515C94.5104 42.2896 94.5977 42.2197 94.68 42.1516L93.4047 40.6109ZM93.2262 40.758C89.5454 43.3819 83.1365 46.0308 76.3499 48.0982C69.5791 50.1609 62.5768 51.6015 57.7694 51.8711L57.8814 53.8679C62.909 53.586 70.0803 52.099 76.9328 50.0114C83.7696 47.9287 90.4338 45.2047 94.3871 42.3866L93.2262 40.758ZM57.7391 51.8732C57.318 51.9097 56.906 51.911 56.4533 51.911V53.911C56.8976 53.911 57.3923 53.9108 57.9118 53.8658L57.7391 51.8732ZM18.8598 40.8276C18.8649 40.8319 18.8685 40.835 18.8716 40.8376C18.8745 40.8401 18.8762 40.8416 18.877 40.8423C18.8789 40.8439 18.8752 40.8408 18.8685 40.8342L20.266 39.4035C20.2175 39.3561 20.1703 39.3165 20.15 39.2995L18.8598 40.8276ZM18.8548 40.8206C19.0203 40.9887 19.2257 41.1285 19.4097 41.2411L20.4537 39.5352C20.3894 39.4958 20.343 39.4646 20.3111 39.441C20.2775 39.4163 20.2709 39.4083 20.2796 39.4171L18.8548 40.8206ZM19.3657 41.2125L19.6108 41.3808L20.7427 39.7319L20.4976 39.5637L19.3657 41.2125ZM19.5983 41.3721C19.7331 41.4677 19.9894 41.6564 20.2594 41.7689L21.0286 39.9227C21.0338 39.9249 21.0145 39.917 20.9592 39.8815C20.9043 39.8462 20.8433 39.8031 20.7552 39.7406L19.5983 41.3721ZM20.1117 41.6923C24.1534 44.2342 30.4828 46.789 36.9709 48.7507C43.4615 50.7132 50.2273 52.1171 55.1638 52.3021L55.2387 50.3035C50.5452 50.1276 43.9643 48.7758 37.5497 46.8363C31.1325 44.8961 24.9983 42.4029 21.1764 39.9993L20.1117 41.6923ZM55.1043 52.2981C55.6063 52.3469 56.0433 52.3503 56.4647 52.3457L56.4426 50.3458C56.0488 50.3502 55.6947 50.3461 55.2981 50.3075L55.1043 52.2981ZM56.4518 52.3458C56.8496 52.3465 57.3014 52.3471 57.7977 52.302L57.6167 50.3103C57.2243 50.3459 56.8587 50.3465 56.4555 50.3458L56.4518 52.3458ZM57.7632 52.3046C62.7024 52.0277 69.7237 50.5773 76.4175 48.5476C83.0949 46.5229 89.5922 43.8782 93.4219 41.1503L92.2615 39.5213C88.706 42.0539 82.4659 44.6237 75.8372 46.6337C69.225 48.6386 62.3717 50.0431 57.6513 50.3077L57.7632 52.3046ZM93.4755 41.1092C93.5914 41.0143 93.8178 40.8364 93.9684 40.6919L92.5834 39.249C92.5081 39.3213 92.3922 39.4112 92.2079 39.5623L93.4755 41.1092ZM93.0916 38.9876C91.9757 39.1968 90.5226 39.3631 88.7192 39.3631V41.3631C90.6464 41.3631 92.2229 41.1853 93.4602 40.9533L93.0916 38.9876ZM88.7192 39.3631C88.7192 39.3631 88.7192 39.3631 88.7192 39.3631C88.7192 39.3631 88.7192 39.3631 88.7191 39.3631H88.7191H88.7191C88.7191 39.3631 88.7191 39.3631 88.7191 39.3631C88.7191 39.3631 88.7191 39.3631 88.7191 39.3631C88.7191 39.3631 88.7191 39.3631 88.7191 39.3631C88.7191 39.3631 88.7191 39.3631 88.7191 39.3631C88.7191 39.3631 88.7191 39.3631 88.7191 39.3631H88.7191H88.7191C88.7191 39.3631 88.7191 39.3631 88.7191 39.3631C88.7191 39.3631 88.7191 39.3631 88.7191 39.3631H88.7191C88.719 39.3631 88.719 39.3631 88.719 39.3631C88.719 39.3631 88.719 39.3631 88.719 39.3631H88.719C88.719 39.3631 88.719 39.3631 88.719 39.3631C88.719 39.3631 88.719 39.3631 88.719 39.3631H88.719C88.719 39.3631 88.719 39.3631 88.719 39.3631H88.719C88.719 39.3631 88.719 39.3631 88.719 39.3631H88.719C88.719 39.3631 88.719 39.3631 88.719 39.3631C88.719 39.3631 88.719 39.3631 88.719 39.3631H88.719H88.7189H88.7189C88.7189 40.3631 88.7189 41.3631 88.7189 41.3631H88.7189H88.719H88.719C88.719 41.3631 88.719 41.3631 88.719 41.3631H88.719H88.719C88.719 41.3631 88.719 41.3631 88.719 41.3631C88.719 41.3631 88.719 41.3631 88.719 41.3631C88.719 41.3631 88.719 41.3631 88.719 41.3631H88.719C88.719 41.3631 88.719 41.3631 88.719 41.3631C88.719 41.3631 88.719 41.3631 88.719 41.3631C88.719 41.3631 88.719 41.3631 88.719 41.3631H88.719H88.7191C88.7191 41.3631 88.7191 41.3631 88.7191 41.3631C88.7191 41.3631 88.7191 41.3631 88.7191 41.3631C88.7191 41.3631 88.7191 41.3631 88.7191 41.3631H88.7191C88.7191 41.3631 88.7191 41.3631 88.7191 41.3631C88.7191 41.3631 88.7191 41.3631 88.7191 41.3631H88.7191C88.7191 41.3631 88.7191 41.3631 88.7191 41.3631H88.7191C88.7191 41.3631 88.7191 41.3631 88.7191 41.3631H88.7191C88.7191 41.3631 88.7191 41.3631 88.7191 41.3631H88.7192C88.7192 41.3631 88.7192 41.3631 88.7192 41.3631H88.7192C88.7192 41.3631 88.7192 41.3631 88.7192 41.3631H88.7192C88.7192 41.3631 88.7192 41.3631 88.7192 41.3631H88.7192C88.7192 41.3631 88.7192 41.3631 88.7192 41.3631H88.7192C88.7192 41.3631 88.7192 41.3631 88.7192 41.3631H88.7192C88.7192 41.3631 88.7192 41.3631 88.7192 41.3631C88.7192 41.3631 88.7192 41.3631 88.7192 41.3631C88.7192 41.3631 88.7192 41.3631 88.7193 41.3631H88.7193H88.7193H88.7193H88.7193H88.7193C88.7193 41.3631 88.7193 41.3631 88.7193 41.3631H88.7193C88.7193 41.3631 88.7193 41.3631 88.7193 41.3631C88.7193 41.3631 88.7193 41.3631 88.7193 41.3631C88.7193 41.3631 88.7193 41.3631 88.7193 41.3631H88.7193C88.7193 41.3631 88.7193 41.3631 88.7193 41.3631H88.7194C88.7194 41.3631 88.7194 41.3631 88.7194 41.3631C88.7194 41.3631 88.7194 41.3631 88.7194 41.3631C88.7194 41.3631 88.7194 41.3631 88.7194 41.3631C88.7194 41.3631 88.7194 40.3631 88.7194 39.3631H88.7194C88.7194 39.3631 88.7194 39.3631 88.7194 39.3631C88.7194 39.3631 88.7194 39.3631 88.7194 39.3631C88.7194 39.3631 88.7194 39.3631 88.7193 39.3631C88.7193 39.3631 88.7193 39.3631 88.7193 39.3631C88.7193 39.3631 88.7193 39.3631 88.7193 39.3631C88.7193 39.3631 88.7193 39.3631 88.7193 39.3631C88.7193 39.3631 88.7193 39.3631 88.7193 39.3631H88.7193C88.7193 39.3631 88.7193 39.3631 88.7193 39.3631C88.7193 39.3631 88.7193 39.3631 88.7193 39.3631C88.7193 39.3631 88.7193 39.3631 88.7193 39.3631C88.7193 39.3631 88.7193 39.3631 88.7193 39.3631H88.7193C88.7193 39.3631 88.7193 39.3631 88.7193 39.3631H88.7193C88.7193 39.3631 88.7193 39.3631 88.7192 39.3631C88.7192 39.3631 88.7192 39.3631 88.7192 39.3631H88.7192C88.7192 39.3631 88.7192 39.3631 88.7192 39.3631C88.7192 39.3631 88.7192 39.3631 88.7192 39.3631C88.7192 39.3631 88.7192 39.3631 88.7192 39.3631C88.7192 39.3631 88.7192 39.3631 88.7192 39.3631C88.7192 39.3631 88.7192 39.3631 88.7192 39.3631C88.7192 39.3631 88.7192 39.3631 88.7192 39.3631C88.7192 39.3631 88.7192 39.3631 88.7192 39.3631H88.7192C88.7192 39.3631 88.7192 39.3631 88.7192 39.3631V41.3631C88.7192 41.3631 88.7192 41.3631 88.7192 41.3631H88.7192C88.7192 41.3631 88.7192 41.3631 88.7192 41.3631C88.7192 41.3631 88.7192 41.3631 88.7192 41.3631C88.7192 41.3631 88.7192 41.3631 88.7192 41.3631C88.7192 41.3631 88.7192 41.3631 88.7192 41.3631C88.7192 41.3631 88.7192 41.3631 88.7192 41.3631C88.7192 41.3631 88.7192 41.3631 88.7192 41.3631C88.7192 41.3631 88.7192 41.3631 88.7192 41.3631H88.7192C88.7192 41.3631 88.7192 41.3631 88.7192 41.3631C88.7193 41.3631 88.7193 41.3631 88.7193 41.3631H88.7193C88.7193 41.3631 88.7193 41.3631 88.7193 41.3631H88.7193C88.7193 41.3631 88.7193 41.3631 88.7193 41.3631C88.7193 41.3631 88.7193 41.3631 88.7193 41.3631C88.7193 41.3631 88.7193 41.3631 88.7193 41.3631C88.7193 41.3631 88.7193 41.3631 88.7193 41.3631H88.7193C88.7193 41.3631 88.7193 41.3631 88.7193 41.3631C88.7193 41.3631 88.7193 41.3631 88.7193 41.3631C88.7193 41.3631 88.7193 41.3631 88.7193 41.3631C88.7193 41.3631 88.7193 41.3631 88.7193 41.3631C88.7194 41.3631 88.7194 41.3631 88.7194 41.3631C88.7194 41.3631 88.7194 41.3631 88.7194 41.3631C88.7194 41.3631 88.7194 41.3631 88.7194 41.3631H88.7194C88.7194 40.3631 88.7194 39.3631 88.7194 39.3631C88.7194 39.3631 88.7194 39.3631 88.7194 39.3631C88.7194 39.3631 88.7194 39.3631 88.7194 39.3631C88.7194 39.3631 88.7194 39.3631 88.7194 39.3631H88.7193C88.7193 39.3631 88.7193 39.3631 88.7193 39.3631H88.7193C88.7193 39.3631 88.7193 39.3631 88.7193 39.3631C88.7193 39.3631 88.7193 39.3631 88.7193 39.3631C88.7193 39.3631 88.7193 39.3631 88.7193 39.3631H88.7193C88.7193 39.3631 88.7193 39.3631 88.7193 39.3631H88.7193H88.7193H88.7193H88.7193H88.7193C88.7192 39.3631 88.7192 39.3631 88.7192 39.3631C88.7192 39.3631 88.7192 39.3631 88.7192 39.3631C88.7192 39.3631 88.7192 39.3631 88.7192 39.3631H88.7192C88.7192 39.3631 88.7192 39.3631 88.7192 39.3631H88.7192C88.7192 39.3631 88.7192 39.3631 88.7192 39.3631H88.7192C88.7192 39.3631 88.7192 39.3631 88.7192 39.3631H88.7192C88.7192 39.3631 88.7192 39.3631 88.7192 39.3631H88.7192C88.7192 39.3631 88.7192 39.3631 88.7192 39.3631H88.7191C88.7191 39.3631 88.7191 39.3631 88.7191 39.3631H88.7191C88.7191 39.3631 88.7191 39.3631 88.7191 39.3631H88.7191C88.7191 39.3631 88.7191 39.3631 88.7191 39.3631H88.7191C88.7191 39.3631 88.7191 39.3631 88.7191 39.3631C88.7191 39.3631 88.7191 39.3631 88.7191 39.3631H88.7191C88.7191 39.3631 88.7191 39.3631 88.7191 39.3631C88.7191 39.3631 88.7191 39.3631 88.7191 39.3631C88.7191 39.3631 88.7191 39.3631 88.7191 39.3631H88.719H88.719C88.719 39.3631 88.719 39.3631 88.719 39.3631C88.719 39.3631 88.719 39.3631 88.719 39.3631C88.719 39.3631 88.719 39.3631 88.719 39.3631H88.719C88.719 39.3631 88.719 39.3631 88.719 39.3631C88.719 39.3631 88.719 39.3631 88.719 39.3631C88.719 39.3631 88.719 39.3631 88.719 39.3631H88.719H88.719C88.719 39.3631 88.719 39.3631 88.719 39.3631H88.719H88.7189H88.7189C88.7189 39.3631 88.7189 40.3631 88.7189 41.3631H88.7189H88.719H88.719C88.719 41.3631 88.719 41.3631 88.719 41.3631C88.719 41.3631 88.719 41.3631 88.719 41.3631H88.719C88.719 41.3631 88.719 41.3631 88.719 41.3631H88.719C88.719 41.3631 88.719 41.3631 88.719 41.3631H88.719C88.719 41.3631 88.719 41.3631 88.719 41.3631C88.719 41.3631 88.719 41.3631 88.719 41.3631H88.719C88.719 41.3631 88.719 41.3631 88.719 41.3631C88.719 41.3631 88.719 41.3631 88.7191 41.3631H88.7191C88.7191 41.3631 88.7191 41.3631 88.7191 41.3631C88.7191 41.3631 88.7191 41.3631 88.7191 41.3631H88.7191H88.7191C88.7191 41.3631 88.7191 41.3631 88.7191 41.3631C88.7191 41.3631 88.7191 41.3631 88.7191 41.3631C88.7191 41.3631 88.7191 41.3631 88.7191 41.3631C88.7191 41.3631 88.7191 41.3631 88.7191 41.3631C88.7191 41.3631 88.7191 41.3631 88.7191 41.3631H88.7191H88.7191C88.7192 41.3631 88.7192 41.3631 88.7192 41.3631C88.7192 41.3631 88.7192 41.3631 88.7192 41.3631V39.3631ZM88.7192 39.3631C87.3026 39.3631 85.7888 39.2592 84.2231 39.053L83.962 41.0359C85.6053 41.2523 87.2067 41.3631 88.7192 41.3631V39.3631ZM84.2343 39.0546C81.5103 38.6647 79.0665 38.0991 76.8733 37.5914L76.4222 39.5399C78.6097 40.0462 81.1314 40.6308 83.9509 41.0344L84.2343 39.0546ZM76.8734 37.5914C73.8169 36.8835 71.0388 36.2345 68.2211 36.2345V38.2345C70.7681 38.2345 73.3151 38.8202 76.4221 39.5398L76.8734 37.5914ZM68.2211 36.2345C67.0327 36.2345 65.9079 36.35 64.7887 36.5853L65.2002 38.5425C66.1798 38.3365 67.1665 38.2345 68.2211 38.2345V36.2345ZM64.7945 36.5841C62.038 37.1464 60.6022 37.7987 59.4738 38.313L60.3034 40.1329C61.3601 39.6511 62.6431 39.0642 65.1943 38.5437L64.7945 36.5841ZM59.4741 38.3129C58.4507 38.7791 57.6884 39.1223 56.3948 39.2197L56.5448 41.214C58.2132 41.0885 59.2479 40.6136 60.3031 40.133L59.4741 38.3129ZM56.5244 39.2184C55.1174 39.1414 54.3464 38.7927 53.313 38.3253L52.4888 40.1476C53.5684 40.6359 54.6207 41.1173 56.4152 41.2154L56.5244 39.2184ZM53.3144 38.3259C52.1867 37.8138 50.7486 37.1628 48.0333 36.6269L47.6461 38.5891C50.1492 39.083 51.43 39.6667 52.4874 40.1469L53.3144 38.3259ZM48.045 36.6293C46.9166 36.3926 45.7919 36.2779 44.6037 36.2779V38.2779C45.6584 38.2779 46.6453 38.3792 47.6344 38.5867L48.045 36.6293ZM44.6037 36.2779C41.7897 36.2779 39.0122 36.9236 35.9544 37.6306L36.4049 39.5792C39.512 38.8608 42.0596 38.2779 44.6037 38.2779V36.2779ZM35.9553 37.6304C33.7496 38.1382 31.2942 38.7045 28.5559 39.0945L28.8379 41.0745C31.6716 40.671 34.2049 40.0857 36.404 39.5794L35.9553 37.6304ZM28.5553 39.0946C25.2513 39.5671 22.1834 39.5475 19.6889 39.0806L19.321 41.0465C22.0771 41.5623 25.3709 41.5703 28.8385 41.0744L28.5553 39.0946ZM19.5228 40.8389C19.5509 40.8389 19.5842 40.8454 19.6158 40.8611L18.7288 42.6536C18.9856 42.7807 19.2576 42.8389 19.5228 42.8389V40.8389ZM19.6182 40.8622C19.5038 40.8053 19.3612 40.7081 19.1614 40.5588L17.9642 42.1609C18.1667 42.3122 18.4355 42.5075 18.7264 42.6524L19.6182 40.8622ZM19.158 40.5563C19.1827 40.5746 19.1939 40.5906 19.2009 40.6037C19.2078 40.6166 19.2242 40.6529 19.2242 40.7152H17.2242C17.2242 41.3144 17.5437 41.8495 17.9676 42.1635L19.158 40.5563ZM18.8564 40.823C18.9866 40.9543 19.1396 41.0681 19.2846 41.1637L20.3849 39.4935C20.3454 39.4675 20.3165 39.4465 20.2968 39.4311C20.2762 39.415 20.2712 39.4093 20.2764 39.4146L18.8564 40.823ZM19.4742 41.2613C19.3939 41.2303 19.3335 41.1504 19.3335 41.0562H21.3335C21.3335 40.2987 20.8618 39.6535 20.1953 39.3958L19.4742 41.2613ZM19.3335 41.0562C19.3335 41.0006 19.3563 40.9484 19.3947 40.9099C19.4357 40.869 19.5028 40.8367 19.5784 40.8396L19.5004 42.8381C20.5448 42.8789 21.3335 42.0216 21.3335 41.0562H19.3335ZM19.5394 40.8389C19.5337 40.8389 19.5285 40.8389 19.5228 40.8389V42.8389C19.5285 42.8389 19.5337 42.8389 19.5394 42.8389V40.8389ZM93.2998 40.7536C93.3632 40.7536 93.4344 40.785 93.4783 40.8528L91.7986 41.9386C92.1413 42.4686 92.7184 42.7536 93.2998 42.7536V40.7536ZM93.479 40.8539C93.5392 40.9474 93.5191 41.0726 93.4321 41.1424L92.1811 39.582C91.4673 40.1543 91.3038 41.171 91.798 41.9375L93.479 40.8539ZM93.4616 41.1179L93.4732 41.1078L92.1633 39.5964L92.1516 39.6065L93.4616 41.1179ZM93.445 41.1313C93.6057 41.002 93.8407 40.8164 93.9985 40.6618L92.5989 39.2332C92.53 39.3007 92.3971 39.4075 92.1915 39.5729L93.445 41.1313ZM93.6401 40.501C93.6401 40.5068 93.6399 40.5111 93.6396 40.5138C93.6395 40.5151 93.6394 40.5161 93.6393 40.5168C93.6392 40.5174 93.6392 40.5177 93.6392 40.5177C93.6392 40.5177 93.6392 40.5175 93.6394 40.5169C93.6395 40.5164 93.6397 40.5156 93.64 40.5146C93.6405 40.5125 93.6414 40.5098 93.6427 40.5065C93.6453 40.4997 93.6488 40.4928 93.6529 40.4865C93.6569 40.4803 93.6599 40.477 93.6603 40.4766L95.0988 41.8662C95.465 41.4871 95.6401 41.0069 95.6401 40.501H93.6401ZM93.6604 40.4766C93.6624 40.4745 93.6627 40.4742 93.6609 40.476C93.6594 40.4775 93.6569 40.4799 93.6536 40.4831C93.647 40.4896 93.6388 40.4974 93.6305 40.5052C93.622 40.5131 93.6154 40.5191 93.6115 40.5225C93.6097 40.5242 93.6097 40.5241 93.6115 40.5226C93.6126 40.5217 93.6189 40.5164 93.6288 40.5086L94.86 42.0847C94.947 42.0167 95.0576 41.9088 95.0987 41.8662L93.6604 40.4766ZM93.6448 40.4964C93.4647 40.6313 93.3512 40.7027 93.2027 40.7777L94.1032 42.5634C94.3803 42.4237 94.594 42.2843 94.8441 42.0969L93.6448 40.4964ZM93.2071 40.7755C93.2368 40.7606 93.2691 40.7536 93.2998 40.7536V42.7536C93.5699 42.7536 93.8439 42.6926 94.0988 42.5656L93.2071 40.7755ZM84.2789 76.939C84.3279 76.939 84.3753 76.9563 84.4125 76.9874L83.129 78.5212C83.4522 78.7916 83.8592 78.939 84.2789 78.939V76.939ZM84.4153 76.9897L80.2999 73.5201L79.0108 75.0492L83.1262 78.5188L84.4153 76.9897ZM80.295 73.516C80.3458 73.5583 80.3703 73.6136 80.3747 73.6626L78.3828 73.8427C78.4248 74.3067 78.6459 74.7456 79.0157 75.0533L80.295 73.516ZM80.3753 73.6697C80.3805 73.7327 80.3596 73.7877 80.3273 73.8261L78.798 72.5372C78.4985 72.8926 78.3424 73.3575 78.3822 73.8355L80.3753 73.6697ZM80.3249 73.829L83.5339 70.0505L82.0094 68.7558L78.8005 72.5343L80.3249 73.829ZM83.534 70.0503C83.4588 70.139 83.3247 70.1513 83.2349 70.0756L84.5236 68.5461C83.7671 67.9088 82.6438 68.0085 82.0093 68.7561L83.534 70.0503ZM83.2346 70.0754L87.35 73.545L88.6392 72.0159L84.5238 68.5463L83.2346 70.0754ZM87.3512 73.5459C87.2579 73.4676 87.2467 73.3277 87.3248 73.236L88.8483 74.5317C89.4886 73.7788 89.3941 72.6504 88.638 72.0149L87.3512 73.5459ZM87.3241 73.2368L84.1166 77.016L85.6415 78.3101L88.849 74.5309L87.3241 73.2368ZM84.1152 77.0177C84.1548 76.9708 84.2089 76.9445 84.2643 76.94L84.4257 78.9335C84.8969 78.8953 85.3361 78.6716 85.643 78.3084L84.1152 77.0177ZM84.2442 76.9418C84.2652 76.9397 84.2807 76.9392 84.2866 76.939C84.2896 76.9389 84.2909 76.9389 84.2894 76.939C84.2876 76.939 84.2852 76.939 84.2789 76.939V78.939C84.2935 78.939 84.3652 78.9398 84.4458 78.9316L84.2442 76.9418ZM80.6253 74.3599L83.5422 76.8177L84.8309 75.2882L81.914 72.8305L80.6253 74.3599ZM84.949 76.7L87.1413 74.117L85.6164 72.8229L83.4242 75.4059L84.949 76.7ZM87.0235 72.7055L84.108 70.2469L82.8187 71.7759L85.7342 74.2344L87.0235 72.7055ZM82.7011 70.3642L80.5073 72.948L82.0319 74.2424L84.2257 71.6586L82.7011 70.3642ZM110.126 105.672C110.171 105.672 110.223 105.688 110.265 105.723L108.972 107.249C109.309 107.535 109.721 107.672 110.126 107.672V105.672ZM110.263 105.722L80.9747 81.0394L79.6859 82.5687L108.974 107.251L110.263 105.722ZM80.9734 81.0383C81.0194 81.0769 81.0472 81.131 81.0521 81.1898L79.059 81.3556C79.0984 81.8295 79.326 82.2665 79.6872 82.5699L80.9734 81.0383ZM81.0521 81.1894C81.0571 81.2492 81.0379 81.3062 81.0016 81.349L79.4758 80.056C79.1708 80.4159 79.0195 80.8834 79.0591 81.3561L81.0521 81.1894ZM81.001 81.3498L91.0911 69.4678L89.5666 68.1732L79.4765 80.0552L81.001 81.3498ZM91.0928 69.4658C91.0149 69.5579 90.8784 69.5672 90.7907 69.4932L92.0806 67.9646C91.3255 67.3275 90.2004 67.4227 89.5649 68.1753L91.0928 69.4658ZM90.7912 69.4936L120.078 94.1737L121.367 92.6443L92.08 67.9642L90.7912 69.4936ZM120.077 94.1729C119.985 94.0951 119.974 93.9562 120.052 93.8648L121.576 95.1593C122.214 94.4076 122.121 93.2816 121.368 92.6451L120.077 94.1729ZM120.053 93.8629C120.127 93.7767 120.261 93.7633 120.351 93.8389L119.062 95.3684C119.818 96.0057 120.939 95.9063 121.574 95.1612L120.053 93.8629ZM120.351 93.839L91.6646 69.6644L90.3757 71.1938L119.062 95.3683L120.351 93.839ZM90.2579 69.7819L81.1842 80.4681L82.7087 81.7626L91.7824 71.0764L90.2579 69.7819ZM81.302 81.88L109.99 106.056L111.279 104.527L82.5908 80.3506L81.302 81.88ZM109.989 106.055C109.899 105.979 109.885 105.84 109.965 105.746L111.488 107.042C112.129 106.289 112.031 105.162 111.28 104.527L109.989 106.055ZM109.962 105.749C110.007 105.696 110.07 105.672 110.126 105.672V107.672C110.628 107.672 111.135 107.46 111.49 107.039L109.962 105.749ZM81.5025 71.3599C81.5489 71.3599 81.6004 71.3767 81.6405 71.4106L80.3497 72.9383C80.6863 73.2227 81.0974 73.3599 81.5025 73.3599V71.3599ZM81.6395 71.4098L64.3046 56.8001L63.0158 58.3294L80.3507 72.9391L81.6395 71.4098ZM64.3026 56.7984C64.3986 56.8789 64.4073 57.0192 64.3305 57.1097L62.806 55.8151C62.1684 56.5659 62.259 57.695 63.0178 58.3311L64.3026 56.7984ZM64.3322 57.1076C64.2533 57.201 64.1184 57.2081 64.0325 57.136L65.3184 55.6041C64.5651 54.9719 63.4409 55.0634 62.8043 55.8171L64.3322 57.1076ZM64.031 57.1347L81.3667 71.7433L82.6555 70.214L65.3198 55.6054L64.031 57.1347ZM81.3658 71.7426C81.274 71.665 81.2618 71.5268 81.3408 71.434L82.8638 72.7302C83.5035 71.9786 83.4095 70.8509 82.6564 70.2147L81.3658 71.7426ZM81.3396 71.4353C81.3814 71.3861 81.4437 71.3599 81.5025 71.3599V73.3599C82.0088 73.3599 82.5124 73.1446 82.865 72.7289L81.3396 71.4353ZM87.0654 86.2369C87.1097 86.2369 87.1614 86.2529 87.2025 86.2875L85.9136 87.8168C86.2519 88.102 86.6631 88.2369 87.0654 88.2369V86.2369ZM87.2023 86.2874C87.2947 86.3653 87.3075 86.5045 87.2275 86.5982L85.7061 85.3C85.0639 86.0526 85.16 87.182 85.9137 87.817L87.2023 86.2874ZM87.2291 86.5963L92.5853 80.2872L91.0607 78.9928L85.7045 85.3019L87.2291 86.5963ZM92.5868 80.2854C92.5105 80.3757 92.3744 80.3869 92.2852 80.3115L93.5759 78.7837C92.8201 78.1453 91.6947 78.2425 91.0591 78.9946L92.5868 80.2854ZM92.2863 80.3124C92.1938 80.2345 92.1817 80.0955 92.2606 80.0026L93.7844 81.298C94.4241 80.5456 94.3286 79.4179 93.5749 78.7828L92.2863 80.3124ZM92.2602 80.0032L86.9032 86.3138L88.4279 87.6081L93.7849 81.2975L92.2602 80.0032ZM86.9041 86.3128C86.9482 86.261 87.0107 86.2369 87.0654 86.2369V88.2369C87.5683 88.2369 88.073 88.0251 88.4271 87.6091L86.9041 86.3128ZM94.2422 92.2854C94.2904 92.2854 94.3413 92.3025 94.3811 92.3362L93.0884 93.8623C93.424 94.1465 93.8359 94.2854 94.2422 94.2854V92.2854ZM94.3791 92.3345C94.4717 92.4125 94.483 92.5505 94.4052 92.6424L92.879 91.3499C92.2419 92.1021 92.3365 93.2288 93.0905 93.864L94.3791 92.3345ZM94.4043 92.6435L99.7623 86.3351L98.238 85.0404L92.8799 91.3488L94.4043 92.6435ZM99.7633 86.334C99.6856 86.4258 99.5496 86.434 99.4635 86.3616L100.75 84.8307C99.9963 84.1967 98.874 84.2894 98.237 85.0415L99.7633 86.334ZM99.4616 86.3601C99.371 86.2836 99.3581 86.1449 99.4366 86.0522L100.963 87.3447C101.6 86.5918 101.504 85.4674 100.752 84.8323L99.4616 86.3601ZM99.4374 86.0513L94.0801 92.3611L95.6047 93.6556L100.962 87.3457L99.4374 86.0513ZM94.081 92.36C94.1231 92.3106 94.1842 92.2854 94.2422 92.2854V94.2854C94.7469 94.2854 95.2509 94.071 95.6037 93.6567L94.081 92.36ZM101.419 98.3335C101.461 98.3335 101.514 98.3486 101.558 98.3857L100.265 99.9118C100.604 100.199 101.018 100.333 101.419 100.333V98.3335ZM101.557 98.3856C101.647 98.4616 101.662 98.5999 101.581 98.6954L100.059 97.3975C99.417 98.1503 99.5154 99.2773 100.265 99.9119L101.557 98.3856ZM101.583 98.6935L106.938 92.3829L105.413 91.0888L100.058 97.3994L101.583 98.6935ZM106.937 92.383C106.864 92.47 106.728 92.4856 106.635 92.4066L107.929 90.8819C107.171 90.2382 106.046 90.3428 105.413 91.0887L106.937 92.383ZM106.638 92.4097C106.547 92.3327 106.534 92.1931 106.613 92.1001L108.138 93.3938C108.778 92.6396 108.68 91.5129 107.925 90.8787L106.638 92.4097ZM106.613 92.0998L101.256 98.4104L102.781 99.7046L108.138 93.394L106.613 92.0998ZM101.257 98.4095C101.302 98.3572 101.364 98.3335 101.419 98.3335V100.333C101.921 100.333 102.427 100.121 102.78 99.7056L101.257 98.4095Z" fill="#C08E71" mask="url(#path-2-inside-1_944_12)"/>
</svg>
