<svg width="76" height="59" viewBox="0 0 76 59" fill="none" xmlns="http://www.w3.org/2000/svg">
<circle cx="27.6694" cy="30.8018" r="27.6694" fill="#EBD1B9"/>
<mask id="path-2-inside-1_60_56" fill="white">
<path d="M39.0207 55.3389C38.2399 55.3389 37.4135 55.1744 36.4154 54.8211C35.5467 54.513 34.6582 54.1062 33.6987 53.5785C32.8588 53.117 31.995 52.588 31.1326 52.0077C30.3601 51.4848 29.6656 50.988 29.0092 50.4868C28.4519 50.0609 27.9121 49.6388 27.4187 49.1475C26.8971 48.6285 26.4642 48.0503 26.0457 47.4921C25.4951 46.7579 24.9856 45.9859 24.5307 45.1984C23.9625 44.2136 23.4259 43.1253 22.8912 41.8695C22.3301 40.552 21.7856 39.0929 21.1785 37.2778C20.5665 35.4464 20.0096 33.6114 19.4453 31.7361L19.377 31.514C19.3358 31.3837 19.2951 31.2524 19.2582 31.1207C18.8283 30.5818 17.3881 28.3313 16.8809 26.5865C16.6786 25.8851 16.5046 25.0388 16.378 24.1375C16.3472 23.9204 16.4949 23.7195 16.7069 23.6886C16.9199 23.6566 17.1157 23.8074 17.1465 24.0244C17.2687 24.8884 17.4343 25.6964 17.626 26.3609C18.147 28.1563 19.7164 30.4682 19.8799 30.6449L19.9474 30.7171L19.9843 30.8253C20.0235 30.9748 20.0701 31.1243 20.1166 31.2728L20.1881 31.5032C20.7504 33.3723 21.3054 35.2008 21.9133 37.0214C22.5136 38.8159 23.0506 40.2551 23.6029 41.5531C24.1258 42.7782 24.6478 43.8388 25.1995 44.7947C25.6388 45.5552 26.1303 46.3006 26.6623 47.0092C27.0643 47.5457 27.4794 48.1003 27.9606 48.5793C28.4206 49.0368 28.9391 49.4419 29.4739 49.8512C30.1185 50.3428 30.8009 50.8313 31.5611 51.3451C32.403 51.9133 33.2464 52.4294 34.0665 52.88C34.9891 53.3874 35.8405 53.7777 36.6698 54.0714C37.5828 54.3946 38.3291 54.5452 39.0176 54.5452C43.5614 54.5043 49.424 49.4552 50.3132 48.5277L50.4429 48.3927C50.6935 48.1325 50.9573 47.8589 51.2335 47.5442C52.9724 45.5978 56.0484 38.8721 58.329 30.2364L58.3581 30.1265L58.4394 30.0492C58.5979 29.899 58.7589 29.7211 58.9313 29.5053C59.0148 29.3738 59.9212 27.7946 60.5118 26.1987C60.6966 25.7008 60.8323 25.2463 60.916 24.8493C60.9614 24.6356 61.1687 24.5005 61.378 24.5456C61.587 24.5917 61.7206 24.8025 61.6759 25.017C61.5831 25.452 61.4363 25.9437 61.2387 26.4784C60.6104 28.1769 59.6209 29.8948 59.5363 30.0036C59.3671 30.2141 59.2082 30.3933 59.0505 30.5504C56.7404 39.2547 53.6004 46.0715 51.8102 48.0761C51.5267 48.398 51.2552 48.6803 50.9974 48.9484L50.8677 49.0827C50.8087 49.145 44.3866 55.2902 39.0207 55.3389Z"/>
<path d="M16.8913 33.2162C16.7516 33.2162 16.6161 33.1389 16.5469 33.0036C14.5357 29.0801 14.7762 25.6595 17.2812 22.5471C18.5137 21.0104 20.2449 19.5691 22.8944 17.8741C28.7763 14.092 33.4769 8.15825 36.8656 0.23873C36.9509 0.0373269 37.1808 -0.0549378 37.3774 0.0337327C37.5735 0.121266 37.6635 0.355254 37.5778 0.5559C34.1255 8.62434 29.3243 14.6767 23.3073 18.546C20.732 20.193 19.0589 21.5822 17.8813 23.0503C15.5968 25.8899 15.3851 29.025 17.2352 32.6353C17.3346 32.8295 17.2611 33.0692 17.0713 33.1705C17.0136 33.202 16.9518 33.2162 16.8913 33.2162Z"/>
<path d="M52.2528 18.9719C52.2109 18.9719 52.1686 18.9654 52.1274 18.9505C50.8401 18.5024 49.1878 17.8785 47.8205 17.0196C42.1678 13.4664 37.7641 6.85208 36.862 0.561595C36.8311 0.345035 36.978 0.143623 37.1901 0.111982C37.398 0.0814775 37.5995 0.229834 37.6305 0.447341C38.5019 6.51824 42.7603 12.9065 48.2275 16.3436C49.5292 17.1612 51.1294 17.765 52.3779 18.2004C52.5814 18.2705 52.6896 18.4961 52.6202 18.7034C52.5655 18.8681 52.4144 18.9719 52.2528 18.9719Z"/>
<path d="M60.3996 42.1009C60.2912 42.1009 60.1836 42.0552 60.1068 41.9652C59.9654 41.8011 59.9817 41.5501 60.1437 41.4057C63.7951 38.1442 66.2669 31.2779 64.126 26.2552C64.0402 26.0545 64.1306 25.8204 64.3271 25.733C64.5255 25.6462 64.753 25.7378 64.8385 25.9384C67.1149 31.2795 64.5127 38.5565 60.6551 42.0023C60.5816 42.0686 60.4902 42.1009 60.3996 42.1009Z"/>
<path d="M18.2116 41.4663C18.1712 41.4663 18.1304 41.4595 18.0897 41.4464C11.969 39.3856 8.48606 31.9534 10.4844 25.216C11.3026 22.4556 12.8641 19.5062 15.1249 16.4482C16.8095 14.1701 18.8799 12.2494 20.8829 10.3915C21.6836 9.64938 22.5114 8.88167 23.3025 8.10182C23.4571 7.94968 23.7037 7.95479 23.8519 8.11186C24.001 8.2693 23.9967 8.52092 23.8423 8.67325C23.0423 9.46067 22.2097 10.2326 21.4056 10.9789C19.429 12.8122 17.3853 14.7074 15.7451 16.9266C13.5394 19.9094 12.0198 22.776 11.2273 25.4466C9.34858 31.7816 12.6023 38.7638 18.3332 40.6929C18.5371 40.7619 18.6477 40.9859 18.5809 41.1937C18.5265 41.361 18.3751 41.4663 18.2116 41.4663Z"/>
<path d="M56.6914 14.0126C56.6716 14.0126 56.6519 14.0105 56.632 14.0075C53.825 13.5721 50.9997 12.4787 48.8804 11.0093C45.2087 8.46234 43.866 4.85147 42.6043 0.739098C42.5403 0.529738 42.6544 0.307304 42.8594 0.241748C43.0667 0.176382 43.2818 0.293289 43.346 0.501513C44.563 4.46989 45.8526 7.94945 49.3168 10.3525C51.3434 11.7585 54.0521 12.8051 56.7486 13.2238C56.9611 13.2566 57.1069 13.459 57.0743 13.6746C57.0453 13.8714 56.8798 14.0126 56.6914 14.0126Z"/>
<path d="M39.0026 48.1372C37.7673 48.1372 36.7352 47.8006 35.6565 47.044C34.4356 46.1717 33.3528 43.836 33.3424 43.8123C33.3185 43.7604 33.3064 43.7033 33.3064 43.6457C33.3064 43.4856 33.4007 43.3377 33.5464 43.2759C33.6924 43.2149 33.859 43.2458 33.9693 43.3591L34.0506 43.4129C35.1907 44.1452 37.6042 44.8919 38.9679 44.9442C39.0432 44.951 39.0933 44.95 39.1395 44.95C39.1928 44.9508 39.2397 44.9508 39.2945 44.9453C40.6463 44.8676 43.2504 44.1078 44.2712 43.3617L44.3054 43.332C44.4176 43.223 44.5861 43.1904 44.729 43.2539C44.8708 43.317 44.9667 43.4561 44.9667 43.6143C44.9667 43.688 44.943 43.7693 44.9042 43.8367C44.7689 44.1266 43.7676 46.2157 42.625 47.03C41.5319 47.796 40.499 48.1365 39.2722 48.1365L39.1312 48.1353L39.0026 48.1372ZM34.665 44.6251C35.0626 45.2829 35.5891 46.0279 36.0987 46.3926C37.0501 47.0588 37.9193 47.3441 39.0026 47.3441L39.131 47.3426L39.272 47.3438C40.3461 47.3438 41.2164 47.0548 42.1827 46.3778C42.6909 46.015 43.2101 45.2765 43.6019 44.6213C42.2656 45.2136 40.4587 45.6732 39.3539 45.7357C39.2203 45.7492 39.0603 45.7513 38.9107 45.7346C37.7708 45.6916 35.976 45.2049 34.665 44.6251Z"/>
<path d="M39.1392 45.7437C39.0635 45.7437 38.9867 45.743 38.9109 45.735C37.442 45.6791 34.8864 44.8877 33.6791 44.1082C33.6609 44.1046 33.6073 44.0658 33.5679 44.0372C33.5264 44.0114 33.4868 43.9821 33.4516 43.9504C33.2547 43.8097 33.1122 43.6566 33.0287 43.4968C32.9646 43.3746 32.9678 43.2272 33.0368 43.1082C33.1064 42.9889 33.2315 42.9148 33.3666 42.9135C33.4362 42.9214 33.487 42.9282 33.5364 42.9504C33.8626 43.0927 34.4299 43.1317 35.0322 43.044C35.4164 42.9877 35.7533 42.9085 36.0788 42.8314C36.7398 42.6744 37.3802 42.5499 37.9891 42.68C38.422 42.7676 38.6589 42.8782 38.8317 42.9584C38.9657 43.0207 39.0329 43.0524 39.1566 43.0599C39.2298 43.0501 39.2971 43.019 39.4296 42.9569C39.6016 42.8763 39.8386 42.7657 40.2797 42.6738C40.8828 42.545 41.5278 42.6694 42.1892 42.8256C42.513 42.9025 42.8478 42.9819 43.2291 43.0374C43.4362 43.0658 43.6403 43.0798 43.8322 43.0798C44.4271 43.0798 44.7153 42.9394 44.7175 42.9379C44.871 42.8617 45.0558 42.894 45.1731 43.0188C45.29 43.144 45.3175 43.3309 45.2351 43.4823C45.148 43.6429 45.0076 43.7962 44.8049 43.9517C44.7871 43.9648 44.7687 43.9768 44.7491 43.9868C44.7463 43.9887 44.7431 43.9915 44.7409 43.9944C43.5531 44.8627 40.8293 45.6524 39.3545 45.7365C39.288 45.7428 39.2134 45.7437 39.1392 45.7437ZM34.8936 43.8599C36.1371 44.4226 37.884 44.9021 38.9679 44.9442C39.0432 44.951 39.0933 44.95 39.1395 44.95C39.1904 44.9508 39.2394 44.9508 39.2945 44.9453C40.3465 44.885 42.1554 44.4114 43.3879 43.8527C43.3002 43.8451 43.2117 43.8352 43.1224 43.8237C42.7047 43.7623 42.3369 43.6746 42.0129 43.5982C41.4074 43.4546 40.9034 43.35 40.4374 43.4499C40.081 43.5249 39.9065 43.6062 39.7531 43.6778C39.5924 43.7528 39.4265 43.8305 39.1617 43.8508C38.8412 43.8345 38.6723 43.756 38.5088 43.6802C38.3554 43.6084 38.1815 43.5275 37.8326 43.4567C37.3503 43.3528 36.8584 43.4607 36.2533 43.6041C35.9276 43.681 35.5581 43.7678 35.1419 43.829C35.058 43.8417 34.9753 43.8515 34.8936 43.8599Z"/>
<path d="M33.7711 44.0942C33.7128 44.0942 33.6542 44.0804 33.5987 44.0525C33.5532 44.0304 33.5063 43.9974 33.4605 43.9618C33.3634 43.8871 33.3064 43.7698 33.3064 43.6457C33.3064 43.4856 33.4007 43.3377 33.5464 43.2759C33.6816 43.2183 33.8355 43.2414 33.945 43.3369C34.0782 43.4 34.1701 43.5376 34.1701 43.6965C34.1701 43.911 34.0038 44.0855 33.7954 44.0925C33.7878 44.0935 33.7796 44.0942 33.7711 44.0942Z"/>
<path d="M44.4977 44.0811C44.3676 44.0811 44.2421 44.0148 44.1696 43.8968C44.0627 43.7263 44.0993 43.5019 44.2538 43.375L44.3054 43.332C44.4176 43.223 44.5861 43.1904 44.729 43.2539C44.8708 43.317 44.9667 43.4561 44.9667 43.6143C44.9667 43.7192 44.9195 43.8396 44.8467 43.9138C44.8335 43.9265 44.8141 43.9449 44.7998 43.9559C44.7521 43.9926 44.7151 44.0169 44.6675 44.0402C44.6127 44.0681 44.5548 44.0811 44.4977 44.0811Z"/>
<path d="M28.8354 27.6417C25.4092 27.83 23.8889 25.4765 22.2184 26.0832C22.2184 26.0832 23.1364 24.9202 24.1841 25.18C25.6679 25.5519 26.2449 26.6586 28.6938 26.6898C31.1332 26.7213 32.4233 25.6273 32.9436 25.3399C32.9435 25.3397 31.615 27.4867 28.8354 27.6417Z"/>
<path d="M47.9542 27.6417C51.3803 27.83 52.9007 25.4765 54.5717 26.0831C54.5717 26.0831 53.6548 24.9202 52.6049 25.18C51.1222 25.5519 50.5425 26.6586 48.0956 26.6898C45.6572 26.7213 44.3664 25.6273 43.8468 25.3399C43.8468 25.3397 45.1736 27.4867 47.9542 27.6417Z"/>
<path d="M38.9085 37.2886C37.5908 37.2886 36.4057 36.2641 36.3553 36.2196C36.1921 36.0775 36.174 35.8278 36.3129 35.6609C36.4527 35.4955 36.6978 35.4761 36.8606 35.6173C36.8711 35.626 37.8905 36.4983 38.9252 36.4951C40.1822 36.4835 40.8723 35.5847 40.8788 35.576C41.0098 35.4021 41.2539 35.3702 41.4236 35.5023C41.5938 35.6362 41.6259 35.885 41.4955 36.0589C41.4582 36.108 40.5647 37.273 38.9322 37.2884C38.9244 37.2886 38.9163 37.2886 38.9085 37.2886Z"/>
<path d="M60.4158 21.932H58.3957C58.181 21.932 58.0074 21.7543 58.0074 21.5351V19.6343C58.0074 19.4159 58.181 19.2378 58.3957 19.2378H60.4158C60.6302 19.2378 60.8042 19.4159 60.8042 19.6343V21.5351C60.804 21.7545 60.6302 21.932 60.4158 21.932ZM58.7845 21.1387H60.0274V20.0313H58.7845V21.1387Z"/>
<path d="M74.7892 23.9699H60.4157C60.2014 23.9699 60.0273 23.7922 60.0273 23.573V17.5968C60.0273 17.3776 60.2014 17.2006 60.4157 17.2006H74.7892C75.0035 17.2006 75.1776 17.3776 75.1776 17.5968C75.1776 17.816 75.0035 17.9937 74.7892 17.9937H60.8041V23.1766H74.7892C75.0035 23.1766 75.1776 23.3538 75.1776 23.573C75.1776 23.7922 75.0035 23.9699 74.7892 23.9699Z"/>
<path d="M58.2664 20.982H49.7589C49.5446 20.982 49.3701 20.8041 49.3701 20.5851C49.3701 20.3661 49.5444 20.1885 49.7589 20.1885H58.2664C58.4811 20.1885 58.6552 20.3662 58.6552 20.5851C58.6552 20.8039 58.4811 20.982 58.2664 20.982Z"/>
<path d="M63.4714 23.9688C63.2567 23.9688 63.0835 23.7916 63.0835 23.5718V20.3996C63.0835 20.1804 63.2567 20.0032 63.4714 20.0032C63.6866 20.0032 63.8605 20.1804 63.8605 20.3996V23.5718C63.8607 23.7916 63.6866 23.9688 63.4714 23.9688Z"/>
<path d="M66.9936 23.9688C66.7789 23.9688 66.6049 23.7916 66.6049 23.5718V20.3996C66.6049 20.1804 66.7789 20.0032 66.9936 20.0032C67.2083 20.0032 67.3818 20.1804 67.3818 20.3996V23.5718C67.3818 23.7916 67.2083 23.9688 66.9936 23.9688Z"/>
<path d="M70.5153 23.9688C70.3014 23.9688 70.1269 23.7916 70.1269 23.5718V20.3996C70.1269 20.1804 70.3012 20.0032 70.5153 20.0032C70.73 20.0032 70.9041 20.1804 70.9041 20.3996V23.5718C70.9041 23.7916 70.73 23.9688 70.5153 23.9688Z"/>
<path d="M21.8801 20.532C21.7379 20.532 21.6 20.4518 21.5321 20.3124C21.4366 20.1169 21.5143 19.8785 21.7064 19.7806C21.8812 19.6909 22.0842 19.5723 22.3145 19.4384C23.1575 18.9479 24.4323 18.2057 25.9598 17.9456C27.8908 17.6197 33.7627 19.4661 34.0117 19.5454C34.2167 19.6097 34.3312 19.8317 34.2676 20.0407C34.2043 20.2497 33.9865 20.3698 33.7814 20.302C32.1349 19.7809 27.5441 18.4786 26.0872 18.7283C24.697 18.9651 23.5422 19.6373 22.6992 20.1279C22.4549 20.2698 22.2393 20.395 22.0538 20.4899C21.9981 20.5189 21.9387 20.532 21.8801 20.532Z"/>
<path d="M54.7703 20.3734C54.712 20.3734 54.6527 20.36 54.5972 20.3314C54.4116 20.2366 54.1956 20.1118 53.9518 19.9689C53.1091 19.4786 51.9538 18.8063 50.5633 18.5701C49.1055 18.3183 44.5159 19.622 42.8691 20.1434C42.6648 20.2101 42.4462 20.0911 42.383 19.8821C42.3197 19.6731 42.4346 19.4503 42.6392 19.3861C42.8877 19.3069 48.7572 17.4596 50.6908 17.7872C52.2188 18.047 53.4934 18.7891 54.3366 19.28C54.5669 19.4143 54.7699 19.5329 54.9444 19.6222C55.1366 19.7201 55.2147 19.9583 55.1184 20.1538C55.0507 20.2933 54.9128 20.3734 54.7703 20.3734Z"/>
</mask>
<path d="M39.0207 55.3389C38.2399 55.3389 37.4135 55.1744 36.4154 54.8211C35.5467 54.513 34.6582 54.1062 33.6987 53.5785C32.8588 53.117 31.995 52.588 31.1326 52.0077C30.3601 51.4848 29.6656 50.988 29.0092 50.4868C28.4519 50.0609 27.9121 49.6388 27.4187 49.1475C26.8971 48.6285 26.4642 48.0503 26.0457 47.4921C25.4951 46.7579 24.9856 45.9859 24.5307 45.1984C23.9625 44.2136 23.4259 43.1253 22.8912 41.8695C22.3301 40.552 21.7856 39.0929 21.1785 37.2778C20.5665 35.4464 20.0096 33.6114 19.4453 31.7361L19.377 31.514C19.3358 31.3837 19.2951 31.2524 19.2582 31.1207C18.8283 30.5818 17.3881 28.3313 16.8809 26.5865C16.6786 25.8851 16.5046 25.0388 16.378 24.1375C16.3472 23.9204 16.4949 23.7195 16.7069 23.6886C16.9199 23.6566 17.1157 23.8074 17.1465 24.0244C17.2687 24.8884 17.4343 25.6964 17.626 26.3609C18.147 28.1563 19.7164 30.4682 19.8799 30.6449L19.9474 30.7171L19.9843 30.8253C20.0235 30.9748 20.0701 31.1243 20.1166 31.2728L20.1881 31.5032C20.7504 33.3723 21.3054 35.2008 21.9133 37.0214C22.5136 38.8159 23.0506 40.2551 23.6029 41.5531C24.1258 42.7782 24.6478 43.8388 25.1995 44.7947C25.6388 45.5552 26.1303 46.3006 26.6623 47.0092C27.0643 47.5457 27.4794 48.1003 27.9606 48.5793C28.4206 49.0368 28.9391 49.4419 29.4739 49.8512C30.1185 50.3428 30.8009 50.8313 31.5611 51.3451C32.403 51.9133 33.2464 52.4294 34.0665 52.88C34.9891 53.3874 35.8405 53.7777 36.6698 54.0714C37.5828 54.3946 38.3291 54.5452 39.0176 54.5452C43.5614 54.5043 49.424 49.4552 50.3132 48.5277L50.4429 48.3927C50.6935 48.1325 50.9573 47.8589 51.2335 47.5442C52.9724 45.5978 56.0484 38.8721 58.329 30.2364L58.3581 30.1265L58.4394 30.0492C58.5979 29.899 58.7589 29.7211 58.9313 29.5053C59.0148 29.3738 59.9212 27.7946 60.5118 26.1987C60.6966 25.7008 60.8323 25.2463 60.916 24.8493C60.9614 24.6356 61.1687 24.5005 61.378 24.5456C61.587 24.5917 61.7206 24.8025 61.6759 25.017C61.5831 25.452 61.4363 25.9437 61.2387 26.4784C60.6104 28.1769 59.6209 29.8948 59.5363 30.0036C59.3671 30.2141 59.2082 30.3933 59.0505 30.5504C56.7404 39.2547 53.6004 46.0715 51.8102 48.0761C51.5267 48.398 51.2552 48.6803 50.9974 48.9484L50.8677 49.0827C50.8087 49.145 44.3866 55.2902 39.0207 55.3389Z" fill="#C08E71"/>
<path d="M16.8913 33.2162C16.7516 33.2162 16.6161 33.1389 16.5469 33.0036C14.5357 29.0801 14.7762 25.6595 17.2812 22.5471C18.5137 21.0104 20.2449 19.5691 22.8944 17.8741C28.7763 14.092 33.4769 8.15825 36.8656 0.23873C36.9509 0.0373269 37.1808 -0.0549378 37.3774 0.0337327C37.5735 0.121266 37.6635 0.355254 37.5778 0.5559C34.1255 8.62434 29.3243 14.6767 23.3073 18.546C20.732 20.193 19.0589 21.5822 17.8813 23.0503C15.5968 25.8899 15.3851 29.025 17.2352 32.6353C17.3346 32.8295 17.2611 33.0692 17.0713 33.1705C17.0136 33.202 16.9518 33.2162 16.8913 33.2162Z" fill="#C08E71"/>
<path d="M52.2528 18.9719C52.2109 18.9719 52.1686 18.9654 52.1274 18.9505C50.8401 18.5024 49.1878 17.8785 47.8205 17.0196C42.1678 13.4664 37.7641 6.85208 36.862 0.561595C36.8311 0.345035 36.978 0.143623 37.1901 0.111982C37.398 0.0814775 37.5995 0.229834 37.6305 0.447341C38.5019 6.51824 42.7603 12.9065 48.2275 16.3436C49.5292 17.1612 51.1294 17.765 52.3779 18.2004C52.5814 18.2705 52.6896 18.4961 52.6202 18.7034C52.5655 18.8681 52.4144 18.9719 52.2528 18.9719Z" fill="#C08E71"/>
<path d="M60.3996 42.1009C60.2912 42.1009 60.1836 42.0552 60.1068 41.9652C59.9654 41.8011 59.9817 41.5501 60.1437 41.4057C63.7951 38.1442 66.2669 31.2779 64.126 26.2552C64.0402 26.0545 64.1306 25.8204 64.3271 25.733C64.5255 25.6462 64.753 25.7378 64.8385 25.9384C67.1149 31.2795 64.5127 38.5565 60.6551 42.0023C60.5816 42.0686 60.4902 42.1009 60.3996 42.1009Z" fill="#C08E71"/>
<path d="M18.2116 41.4663C18.1712 41.4663 18.1304 41.4595 18.0897 41.4464C11.969 39.3856 8.48606 31.9534 10.4844 25.216C11.3026 22.4556 12.8641 19.5062 15.1249 16.4482C16.8095 14.1701 18.8799 12.2494 20.8829 10.3915C21.6836 9.64938 22.5114 8.88167 23.3025 8.10182C23.4571 7.94968 23.7037 7.95479 23.8519 8.11186C24.001 8.2693 23.9967 8.52092 23.8423 8.67325C23.0423 9.46067 22.2097 10.2326 21.4056 10.9789C19.429 12.8122 17.3853 14.7074 15.7451 16.9266C13.5394 19.9094 12.0198 22.776 11.2273 25.4466C9.34858 31.7816 12.6023 38.7638 18.3332 40.6929C18.5371 40.7619 18.6477 40.9859 18.5809 41.1937C18.5265 41.361 18.3751 41.4663 18.2116 41.4663Z" fill="#C08E71"/>
<path d="M56.6914 14.0126C56.6716 14.0126 56.6519 14.0105 56.632 14.0075C53.825 13.5721 50.9997 12.4787 48.8804 11.0093C45.2087 8.46234 43.866 4.85147 42.6043 0.739098C42.5403 0.529738 42.6544 0.307304 42.8594 0.241748C43.0667 0.176382 43.2818 0.293289 43.346 0.501513C44.563 4.46989 45.8526 7.94945 49.3168 10.3525C51.3434 11.7585 54.0521 12.8051 56.7486 13.2238C56.9611 13.2566 57.1069 13.459 57.0743 13.6746C57.0453 13.8714 56.8798 14.0126 56.6914 14.0126Z" fill="#C08E71"/>
<path d="M39.0026 48.1372C37.7673 48.1372 36.7352 47.8006 35.6565 47.044C34.4356 46.1717 33.3528 43.836 33.3424 43.8123C33.3185 43.7604 33.3064 43.7033 33.3064 43.6457C33.3064 43.4856 33.4007 43.3377 33.5464 43.2759C33.6924 43.2149 33.859 43.2458 33.9693 43.3591L34.0506 43.4129C35.1907 44.1452 37.6042 44.8919 38.9679 44.9442C39.0432 44.951 39.0933 44.95 39.1395 44.95C39.1928 44.9508 39.2397 44.9508 39.2945 44.9453C40.6463 44.8676 43.2504 44.1078 44.2712 43.3617L44.3054 43.332C44.4176 43.223 44.5861 43.1904 44.729 43.2539C44.8708 43.317 44.9667 43.4561 44.9667 43.6143C44.9667 43.688 44.943 43.7693 44.9042 43.8367C44.7689 44.1266 43.7676 46.2157 42.625 47.03C41.5319 47.796 40.499 48.1365 39.2722 48.1365L39.1312 48.1353L39.0026 48.1372ZM34.665 44.6251C35.0626 45.2829 35.5891 46.0279 36.0987 46.3926C37.0501 47.0588 37.9193 47.3441 39.0026 47.3441L39.131 47.3426L39.272 47.3438C40.3461 47.3438 41.2164 47.0548 42.1827 46.3778C42.6909 46.015 43.2101 45.2765 43.6019 44.6213C42.2656 45.2136 40.4587 45.6732 39.3539 45.7357C39.2203 45.7492 39.0603 45.7513 38.9107 45.7346C37.7708 45.6916 35.976 45.2049 34.665 44.6251Z" fill="#C08E71"/>
<path d="M39.1392 45.7437C39.0635 45.7437 38.9867 45.743 38.9109 45.735C37.442 45.6791 34.8864 44.8877 33.6791 44.1082C33.6609 44.1046 33.6073 44.0658 33.5679 44.0372C33.5264 44.0114 33.4868 43.9821 33.4516 43.9504C33.2547 43.8097 33.1122 43.6566 33.0287 43.4968C32.9646 43.3746 32.9678 43.2272 33.0368 43.1082C33.1064 42.9889 33.2315 42.9148 33.3666 42.9135C33.4362 42.9214 33.487 42.9282 33.5364 42.9504C33.8626 43.0927 34.4299 43.1317 35.0322 43.044C35.4164 42.9877 35.7533 42.9085 36.0788 42.8314C36.7398 42.6744 37.3802 42.5499 37.9891 42.68C38.422 42.7676 38.6589 42.8782 38.8317 42.9584C38.9657 43.0207 39.0329 43.0524 39.1566 43.0599C39.2298 43.0501 39.2971 43.019 39.4296 42.9569C39.6016 42.8763 39.8386 42.7657 40.2797 42.6738C40.8828 42.545 41.5278 42.6694 42.1892 42.8256C42.513 42.9025 42.8478 42.9819 43.2291 43.0374C43.4362 43.0658 43.6403 43.0798 43.8322 43.0798C44.4271 43.0798 44.7153 42.9394 44.7175 42.9379C44.871 42.8617 45.0558 42.894 45.1731 43.0188C45.29 43.144 45.3175 43.3309 45.2351 43.4823C45.148 43.6429 45.0076 43.7962 44.8049 43.9517C44.7871 43.9648 44.7687 43.9768 44.7491 43.9868C44.7463 43.9887 44.7431 43.9915 44.7409 43.9944C43.5531 44.8627 40.8293 45.6524 39.3545 45.7365C39.288 45.7428 39.2134 45.7437 39.1392 45.7437ZM34.8936 43.8599C36.1371 44.4226 37.884 44.9021 38.9679 44.9442C39.0432 44.951 39.0933 44.95 39.1395 44.95C39.1904 44.9508 39.2394 44.9508 39.2945 44.9453C40.3465 44.885 42.1554 44.4114 43.3879 43.8527C43.3002 43.8451 43.2117 43.8352 43.1224 43.8237C42.7047 43.7623 42.3369 43.6746 42.0129 43.5982C41.4074 43.4546 40.9034 43.35 40.4374 43.4499C40.081 43.5249 39.9065 43.6062 39.7531 43.6778C39.5924 43.7528 39.4265 43.8305 39.1617 43.8508C38.8412 43.8345 38.6723 43.756 38.5088 43.6802C38.3554 43.6084 38.1815 43.5275 37.8326 43.4567C37.3503 43.3528 36.8584 43.4607 36.2533 43.6041C35.9276 43.681 35.5581 43.7678 35.1419 43.829C35.058 43.8417 34.9753 43.8515 34.8936 43.8599Z" fill="#C08E71"/>
<path d="M33.7711 44.0942C33.7128 44.0942 33.6542 44.0804 33.5987 44.0525C33.5532 44.0304 33.5063 43.9974 33.4605 43.9618C33.3634 43.8871 33.3064 43.7698 33.3064 43.6457C33.3064 43.4856 33.4007 43.3377 33.5464 43.2759C33.6816 43.2183 33.8355 43.2414 33.945 43.3369C34.0782 43.4 34.1701 43.5376 34.1701 43.6965C34.1701 43.911 34.0038 44.0855 33.7954 44.0925C33.7878 44.0935 33.7796 44.0942 33.7711 44.0942Z" fill="#C08E71"/>
<path d="M44.4977 44.0811C44.3676 44.0811 44.2421 44.0148 44.1696 43.8968C44.0627 43.7263 44.0993 43.5019 44.2538 43.375L44.3054 43.332C44.4176 43.223 44.5861 43.1904 44.729 43.2539C44.8708 43.317 44.9667 43.4561 44.9667 43.6143C44.9667 43.7192 44.9195 43.8396 44.8467 43.9138C44.8335 43.9265 44.8141 43.9449 44.7998 43.9559C44.7521 43.9926 44.7151 44.0169 44.6675 44.0402C44.6127 44.0681 44.5548 44.0811 44.4977 44.0811Z" fill="#C08E71"/>
<path d="M28.8354 27.6417C25.4092 27.83 23.8889 25.4765 22.2184 26.0832C22.2184 26.0832 23.1364 24.9202 24.1841 25.18C25.6679 25.5519 26.2449 26.6586 28.6938 26.6898C31.1332 26.7213 32.4233 25.6273 32.9436 25.3399C32.9435 25.3397 31.615 27.4867 28.8354 27.6417Z" fill="#C08E71"/>
<path d="M47.9542 27.6417C51.3803 27.83 52.9007 25.4765 54.5717 26.0831C54.5717 26.0831 53.6548 24.9202 52.6049 25.18C51.1222 25.5519 50.5425 26.6586 48.0956 26.6898C45.6572 26.7213 44.3664 25.6273 43.8468 25.3399C43.8468 25.3397 45.1736 27.4867 47.9542 27.6417Z" fill="#C08E71"/>
<path d="M38.9085 37.2886C37.5908 37.2886 36.4057 36.2641 36.3553 36.2196C36.1921 36.0775 36.174 35.8278 36.3129 35.6609C36.4527 35.4955 36.6978 35.4761 36.8606 35.6173C36.8711 35.626 37.8905 36.4983 38.9252 36.4951C40.1822 36.4835 40.8723 35.5847 40.8788 35.576C41.0098 35.4021 41.2539 35.3702 41.4236 35.5023C41.5938 35.6362 41.6259 35.885 41.4955 36.0589C41.4582 36.108 40.5647 37.273 38.9322 37.2884C38.9244 37.2886 38.9163 37.2886 38.9085 37.2886Z" fill="#C08E71"/>
<path d="M60.4158 21.932H58.3957C58.181 21.932 58.0074 21.7543 58.0074 21.5351V19.6343C58.0074 19.4159 58.181 19.2378 58.3957 19.2378H60.4158C60.6302 19.2378 60.8042 19.4159 60.8042 19.6343V21.5351C60.804 21.7545 60.6302 21.932 60.4158 21.932ZM58.7845 21.1387H60.0274V20.0313H58.7845V21.1387Z" fill="#C08E71"/>
<path d="M74.7892 23.9699H60.4157C60.2014 23.9699 60.0273 23.7922 60.0273 23.573V17.5968C60.0273 17.3776 60.2014 17.2006 60.4157 17.2006H74.7892C75.0035 17.2006 75.1776 17.3776 75.1776 17.5968C75.1776 17.816 75.0035 17.9937 74.7892 17.9937H60.8041V23.1766H74.7892C75.0035 23.1766 75.1776 23.3538 75.1776 23.573C75.1776 23.7922 75.0035 23.9699 74.7892 23.9699Z" fill="#C08E71"/>
<path d="M58.2664 20.982H49.7589C49.5446 20.982 49.3701 20.8041 49.3701 20.5851C49.3701 20.3661 49.5444 20.1885 49.7589 20.1885H58.2664C58.4811 20.1885 58.6552 20.3662 58.6552 20.5851C58.6552 20.8039 58.4811 20.982 58.2664 20.982Z" fill="#C08E71"/>
<path d="M63.4714 23.9688C63.2567 23.9688 63.0835 23.7916 63.0835 23.5718V20.3996C63.0835 20.1804 63.2567 20.0032 63.4714 20.0032C63.6866 20.0032 63.8605 20.1804 63.8605 20.3996V23.5718C63.8607 23.7916 63.6866 23.9688 63.4714 23.9688Z" fill="#C08E71"/>
<path d="M66.9936 23.9688C66.7789 23.9688 66.6049 23.7916 66.6049 23.5718V20.3996C66.6049 20.1804 66.7789 20.0032 66.9936 20.0032C67.2083 20.0032 67.3818 20.1804 67.3818 20.3996V23.5718C67.3818 23.7916 67.2083 23.9688 66.9936 23.9688Z" fill="#C08E71"/>
<path d="M70.5153 23.9688C70.3014 23.9688 70.1269 23.7916 70.1269 23.5718V20.3996C70.1269 20.1804 70.3012 20.0032 70.5153 20.0032C70.73 20.0032 70.9041 20.1804 70.9041 20.3996V23.5718C70.9041 23.7916 70.73 23.9688 70.5153 23.9688Z" fill="#C08E71"/>
<path d="M21.8801 20.532C21.7379 20.532 21.6 20.4518 21.5321 20.3124C21.4366 20.1169 21.5143 19.8785 21.7064 19.7806C21.8812 19.6909 22.0842 19.5723 22.3145 19.4384C23.1575 18.9479 24.4323 18.2057 25.9598 17.9456C27.8908 17.6197 33.7627 19.4661 34.0117 19.5454C34.2167 19.6097 34.3312 19.8317 34.2676 20.0407C34.2043 20.2497 33.9865 20.3698 33.7814 20.302C32.1349 19.7809 27.5441 18.4786 26.0872 18.7283C24.697 18.9651 23.5422 19.6373 22.6992 20.1279C22.4549 20.2698 22.2393 20.395 22.0538 20.4899C21.9981 20.5189 21.9387 20.532 21.8801 20.532Z" fill="#C08E71"/>
<path d="M54.7703 20.3734C54.712 20.3734 54.6527 20.36 54.5972 20.3314C54.4116 20.2366 54.1956 20.1118 53.9518 19.9689C53.1091 19.4786 51.9538 18.8063 50.5633 18.5701C49.1055 18.3183 44.5159 19.622 42.8691 20.1434C42.6648 20.2101 42.4462 20.0911 42.383 19.8821C42.3197 19.6731 42.4346 19.4503 42.6392 19.3861C42.8877 19.3069 48.7572 17.4596 50.6908 17.7872C52.2188 18.047 53.4934 18.7891 54.3366 19.28C54.5669 19.4143 54.7699 19.5329 54.9444 19.6222C55.1366 19.7201 55.2147 19.9583 55.1184 20.1538C55.0507 20.2933 54.9128 20.3734 54.7703 20.3734Z" fill="#C08E71"/>
<path d="M44.729 43.2539L44.8351 43.0154L44.835 43.0154L44.729 43.2539ZM33.5675 43.6457C33.5675 43.5855 33.6035 43.5352 33.6483 43.5162L33.4445 43.0356C33.1979 43.1401 33.0454 43.3858 33.0454 43.6457H33.5675ZM38.9444 45.2041C39.0335 45.2122 39.0955 45.2111 39.1395 45.2111V44.689C39.0912 44.689 39.053 44.6898 38.9914 44.6842L38.9444 45.2041ZM44.4871 43.5193C44.5255 43.4821 44.5808 43.4737 44.623 43.4925L44.835 43.0154C44.5914 42.9072 44.3097 42.964 44.1236 43.1446L44.4871 43.5193ZM44.6229 43.4924C44.6754 43.5158 44.7057 43.5645 44.7057 43.6143H45.2278C45.2278 43.3476 45.0662 43.1182 44.8351 43.0154L44.6229 43.4924ZM39.0207 55.3389V55.861L39.0255 55.8609L39.0207 55.3389ZM36.4154 54.8211L36.2409 55.3131L36.2412 55.3132L36.4154 54.8211ZM33.6987 53.5785L33.9502 53.1211L33.9501 53.121L33.6987 53.5785ZM31.1326 52.0077L30.84 52.44L30.8412 52.4408L31.1326 52.0077ZM29.0092 50.4868L28.6922 50.9016L28.6924 50.9018L29.0092 50.4868ZM27.4187 49.1475L27.7871 48.7775L27.7869 48.7774L27.4187 49.1475ZM26.0457 47.4921L26.4634 47.179L26.4634 47.1789L26.0457 47.4921ZM24.5307 45.1984L24.0785 45.4593L24.0787 45.4596L24.5307 45.1984ZM22.8912 41.8695L23.3716 41.665L23.3716 41.6649L22.8912 41.8695ZM21.1785 37.2778L20.6833 37.4432L20.6834 37.4434L21.1785 37.2778ZM19.4453 31.7361L19.9452 31.5856L19.9443 31.5826L19.4453 31.7361ZM19.377 31.514L19.876 31.3605L19.8748 31.3567L19.377 31.514ZM19.2582 31.1207L19.7609 30.9797L19.7323 30.8778L19.6663 30.7951L19.2582 31.1207ZM16.8809 26.5865L16.3793 26.7312L16.3796 26.7323L16.8809 26.5865ZM16.378 24.1375L16.895 24.0649L16.8949 24.0642L16.378 24.1375ZM16.7069 23.6886L16.7821 24.2053L16.7844 24.2049L16.7069 23.6886ZM17.1465 24.0244L17.6634 23.9512L17.6633 23.951L17.1465 24.0244ZM17.626 26.3609L17.1244 26.5056L17.1246 26.5064L17.626 26.3609ZM19.8799 30.6449L19.4966 30.9994L19.4987 31.0016L19.8799 30.6449ZM19.9474 30.7171L20.4415 30.5485L20.4052 30.4423L20.3286 30.3604L19.9474 30.7171ZM19.9843 30.8253L20.4894 30.693L20.4845 30.6746L20.4784 30.6566L19.9843 30.8253ZM20.1166 31.2728L20.6153 31.1182L20.6148 31.1166L20.1166 31.2728ZM20.1881 31.5032L20.688 31.3528L20.6867 31.3486L20.1881 31.5032ZM21.9133 37.0214L21.4181 37.1868L21.4182 37.187L21.9133 37.0214ZM23.6029 41.5531L23.1225 41.7575L23.1227 41.758L23.6029 41.5531ZM25.1995 44.7947L24.7474 45.0557L24.7474 45.0558L25.1995 44.7947ZM26.6623 47.0092L27.0802 46.6962L27.0798 46.6957L26.6623 47.0092ZM27.9606 48.5793L27.5923 48.9493L27.5924 48.9494L27.9606 48.5793ZM29.4739 49.8512L29.1566 50.2658L29.1573 50.2663L29.4739 49.8512ZM31.5611 51.3451L31.2688 51.7777L31.2691 51.7778L31.5611 51.3451ZM34.0665 52.88L34.318 52.4225L34.3179 52.4224L34.0665 52.88ZM36.6698 54.0714L36.4955 54.5635L36.4956 54.5635L36.6698 54.0714ZM39.0176 54.5452V55.0673L39.0223 55.0672L39.0176 54.5452ZM50.3132 48.5277L49.9367 48.1662L49.9364 48.1664L50.3132 48.5277ZM50.4429 48.3927L50.0669 48.0305L50.0664 48.0311L50.4429 48.3927ZM51.2335 47.5442L50.8441 47.1964L50.841 47.1999L51.2335 47.5442ZM58.329 30.2364L57.8244 30.1027L57.8242 30.1031L58.329 30.2364ZM58.3581 30.1265L57.9984 29.7482L57.8913 29.85L57.8535 29.9928L58.3581 30.1265ZM58.4394 30.0492L58.0802 29.6704L58.0796 29.6709L58.4394 30.0492ZM58.9313 29.5053L59.3392 29.8311L59.3569 29.809L59.372 29.7852L58.9313 29.5053ZM60.5118 26.1987L60.0224 26.017L60.0222 26.0175L60.5118 26.1987ZM60.916 24.8493L60.4053 24.7407L60.4051 24.7416L60.916 24.8493ZM61.378 24.5456L61.4904 24.0358L61.488 24.0353L61.378 24.5456ZM61.6759 25.017L62.1865 25.1259L62.187 25.1236L61.6759 25.017ZM61.2387 26.4784L61.7283 26.6595L61.7284 26.6594L61.2387 26.4784ZM59.5363 30.0036L59.9432 30.3307L59.9483 30.3242L59.5363 30.0036ZM59.0505 30.5504L58.6821 30.1804L58.5821 30.28L58.5459 30.4165L59.0505 30.5504ZM51.8102 48.0761L51.4208 47.7283L51.4184 47.731L51.8102 48.0761ZM50.9974 48.9484L51.373 49.311L51.3738 49.3102L50.9974 48.9484ZM50.8677 49.0827L50.4921 48.72L50.4886 48.7238L50.8677 49.0827ZM16.5469 33.0036L17.0117 32.7658L17.0115 32.7654L16.5469 33.0036ZM17.2812 22.5471L17.6879 22.8745L17.6884 22.8738L17.2812 22.5471ZM22.8944 17.8741L23.1757 18.3139L23.1768 18.3132L22.8944 17.8741ZM36.8656 0.23873L37.3455 0.444104L37.3462 0.442455L36.8656 0.23873ZM37.3774 0.0337327L37.1626 0.509603L37.1646 0.510478L37.3774 0.0337327ZM37.5778 0.5559L38.0577 0.761269L38.0579 0.761028L37.5778 0.5559ZM23.3073 18.546L23.5886 18.9858L23.5897 18.9851L23.3073 18.546ZM17.8813 23.0503L18.2881 23.3776L18.2886 23.377L17.8813 23.0503ZM17.2352 32.6353L17.6998 32.3973L17.6998 32.3972L17.2352 32.6353ZM17.0713 33.1705L16.8254 32.71L16.8215 32.7121L17.0713 33.1705ZM52.1274 18.9505L52.3057 18.4597L52.299 18.4574L52.1274 18.9505ZM47.8205 17.0196L47.5427 17.4616L47.5428 17.4617L47.8205 17.0196ZM36.862 0.561595L36.3452 0.635549L36.3453 0.6357L36.862 0.561595ZM37.1901 0.111982L37.1143 -0.404551L37.1131 -0.40437L37.1901 0.111982ZM37.6305 0.447341L37.1136 0.52098L37.1137 0.521519L37.6305 0.447341ZM48.2275 16.3436L47.9496 16.7856L47.9498 16.7857L48.2275 16.3436ZM52.3779 18.2004L52.206 18.6933L52.2079 18.694L52.3779 18.2004ZM52.6202 18.7034L52.1252 18.5376L52.1248 18.5387L52.6202 18.7034ZM60.1068 41.9652L60.5039 41.6262L60.5023 41.6244L60.1068 41.9652ZM60.1437 41.4057L60.491 41.7955L60.4915 41.7951L60.1437 41.4057ZM64.126 26.2552L64.6062 26.0505L64.6061 26.0501L64.126 26.2552ZM64.3271 25.733L64.1179 25.2547L64.1151 25.256L64.3271 25.733ZM64.8385 25.9384L65.3188 25.7337L65.3188 25.7336L64.8385 25.9384ZM60.6551 42.0023L60.3073 41.613L60.3054 41.6147L60.6551 42.0023ZM18.0897 41.4464L17.9231 41.9413L17.9298 41.9434L18.0897 41.4464ZM10.4844 25.216L10.9849 25.3644L10.985 25.3643L10.4844 25.216ZM15.1249 16.4482L14.7051 16.1378L14.7051 16.1379L15.1249 16.4482ZM20.8829 10.3915L20.528 10.0086L20.5278 10.0088L20.8829 10.3915ZM23.3025 8.10182L22.9363 7.72974L22.936 7.73004L23.3025 8.10182ZM23.8519 8.11186L23.4723 8.47023L23.4728 8.47071L23.8519 8.11186ZM23.8423 8.67325L24.2085 9.04531L24.209 9.04488L23.8423 8.67325ZM21.4056 10.9789L21.7606 11.3616L21.7608 11.3615L21.4056 10.9789ZM15.7451 16.9266L16.1648 17.237L16.1649 17.2369L15.7451 16.9266ZM11.2273 25.4466L10.7268 25.298L10.7267 25.2981L11.2273 25.4466ZM18.3332 40.6929L18.5004 40.1984L18.4997 40.1982L18.3332 40.6929ZM18.5809 41.1937L19.0774 41.3551L19.0779 41.3534L18.5809 41.1937ZM56.632 14.0075L56.552 14.5234L56.5533 14.5235L56.632 14.0075ZM48.8804 11.0093L48.5828 11.4383L48.5829 11.4384L48.8804 11.0093ZM42.6043 0.739098L42.105 0.891763L42.1052 0.892223L42.6043 0.739098ZM42.8594 0.241748L42.7024 -0.25615L42.7005 -0.255522L42.8594 0.241748ZM43.346 0.501513L43.8451 0.348451L43.8449 0.347681L43.346 0.501513ZM49.3168 10.3525L49.6144 9.92352L49.6144 9.92349L49.3168 10.3525ZM56.7486 13.2238L56.6685 13.7397L56.669 13.7398L56.7486 13.2238ZM57.0743 13.6746L56.5581 13.5964L56.5577 13.5986L57.0743 13.6746ZM39.0026 48.1372V48.6594L39.0103 48.6592L39.0026 48.1372ZM35.6565 47.044L35.3529 47.4688L35.3567 47.4714L35.6565 47.044ZM33.3424 43.8123L33.8206 43.6025L33.8165 43.5937L33.3424 43.8123ZM33.5464 43.2759L33.3419 42.7956L33.7476 43.7576L33.5464 43.2759ZM33.9693 43.3591L33.5951 43.7231L33.6343 43.7634L33.6811 43.7944L33.9693 43.3591ZM34.0506 43.4129L33.7624 43.8483L33.7684 43.8521L34.0506 43.4129ZM38.9679 44.9442L38.9479 45.4658L38.9881 44.4225L38.9679 44.9442ZM39.1395 44.95L39.147 44.428L39.1318 45.472L39.1395 44.95ZM39.2945 44.9453L39.2645 44.4241L39.2536 44.4247L39.2427 44.4258L39.2945 44.9453ZM44.2712 43.3617L44.5793 43.7832L44.5973 43.77L44.6142 43.7553L44.2712 43.3617ZM44.3054 43.332L44.6483 43.7256L43.9709 42.9311L44.3054 43.332ZM44.9042 43.8367L44.4516 43.5765L44.4405 43.5958L44.4311 43.6159L44.9042 43.8367ZM42.625 47.03L42.9247 47.4576L42.9281 47.4551L42.625 47.03ZM39.2722 48.1365L39.268 48.6585H39.2722V48.1365ZM39.1312 48.1353L39.1354 47.6132L39.1235 47.6133L39.1312 48.1353ZM34.665 44.6251L34.8761 44.1476L33.3613 43.4778L34.2182 44.8952L34.665 44.6251ZM36.0987 46.3926L35.7948 46.8172L35.7992 46.8203L36.0987 46.3926ZM39.0026 47.3441V47.8662L39.0088 47.8662L39.0026 47.3441ZM39.131 47.3426L39.1352 46.8205L39.1248 46.8206L39.131 47.3426ZM39.272 47.3438L39.2678 47.8658H39.272V47.3438ZM42.1827 46.3778L42.4822 46.8054L42.486 46.8027L42.1827 46.3778ZM43.6019 44.6213L44.0499 44.8892L44.894 43.4775L43.3903 44.144L43.6019 44.6213ZM39.3539 45.7357L39.3244 45.2145L39.313 45.2152L39.3016 45.2163L39.3539 45.7357ZM38.9107 45.7346L38.9686 45.2158L38.9496 45.2136L38.9304 45.2129L38.9107 45.7346ZM38.9109 45.735L38.9655 45.2158L38.9482 45.214L38.9308 45.2133L38.9109 45.735ZM33.6791 44.1082L33.9622 43.6696L33.8784 43.6155L33.7805 43.5961L33.6791 44.1082ZM33.5679 44.0372L33.875 43.615L33.8594 43.6036L33.843 43.5935L33.5679 44.0372ZM33.4516 43.9504L33.8003 43.5619L33.7787 43.5426L33.7552 43.5257L33.4516 43.9504ZM33.0287 43.4968L33.4913 43.255L33.4911 43.2546L33.0287 43.4968ZM33.0368 43.1082L32.5858 42.8453L32.5853 42.8463L33.0368 43.1082ZM33.3666 42.9135L33.4259 42.3948L33.3938 42.3911L33.3615 42.3914L33.3666 42.9135ZM33.5364 42.9504L33.3225 43.4267L33.3277 43.4289L33.5364 42.9504ZM35.0322 43.044L35.1075 43.5606L35.1079 43.5606L35.0322 43.044ZM36.0788 42.8314L36.1992 43.3394L36.1995 43.3394L36.0788 42.8314ZM37.9891 42.68L37.8799 43.1906L37.8856 43.1918L37.9891 42.68ZM38.8317 42.9584L39.0519 42.485L39.0514 42.4848L38.8317 42.9584ZM39.1566 43.0599L39.1247 43.581L39.1757 43.5841L39.2264 43.5773L39.1566 43.0599ZM39.4296 42.9569L39.2083 42.484L39.2079 42.4842L39.4296 42.9569ZM40.2797 42.6738L40.3862 43.1849L40.3888 43.1843L40.2797 42.6738ZM42.1892 42.8256L42.3098 42.3176L42.3091 42.3175L42.1892 42.8256ZM43.2291 43.0374L43.1539 43.554L43.1581 43.5546L43.2291 43.0374ZM44.7175 42.9379L44.4854 42.4703L44.4534 42.4862L44.4238 42.5063L44.7175 42.9379ZM45.1731 43.0188L45.5547 42.6626L45.5536 42.6614L45.1731 43.0188ZM45.2351 43.4823L44.7765 43.2327L44.776 43.2336L45.2351 43.4823ZM44.8049 43.9517L45.1139 44.3727L45.1228 44.3659L44.8049 43.9517ZM44.7491 43.9868L44.5117 43.5218L44.4825 43.5367L44.4553 43.5552L44.7491 43.9868ZM44.7409 43.9944L45.049 44.4158L45.1073 44.3732L45.1519 44.3164L44.7409 43.9944ZM39.3545 45.7365L39.3247 45.2153L39.3151 45.2159L39.3055 45.2168L39.3545 45.7365ZM34.8936 43.8599L34.8406 43.3405L32.9143 43.5372L34.6784 44.3355L34.8936 43.8599ZM43.3879 43.8527L43.6035 44.3281L45.4211 43.5042L43.4329 43.3325L43.3879 43.8527ZM43.1224 43.8237L43.0465 44.3403L43.0554 44.3414L43.1224 43.8237ZM42.0129 43.5982L41.8924 44.1062L41.8931 44.1064L42.0129 43.5982ZM40.4374 43.4499L40.545 43.9607L40.5468 43.9603L40.4374 43.4499ZM39.7531 43.6778L39.5323 43.2047L39.5322 43.2047L39.7531 43.6778ZM39.1617 43.8508L39.1351 44.3722L39.1684 44.3738L39.2015 44.3713L39.1617 43.8508ZM38.5088 43.6802L38.2876 44.1531L38.2893 44.1539L38.5088 43.6802ZM37.8326 43.4567L37.7227 43.9671L37.7287 43.9683L37.8326 43.4567ZM36.2533 43.6041L36.3733 44.1122L36.3737 44.1121L36.2533 43.6041ZM35.1419 43.829L35.066 43.3125L35.0638 43.3128L35.1419 43.829ZM33.5987 44.0525L33.8329 43.5859L33.8275 43.5833L33.5987 44.0525ZM33.4605 43.9618L33.7808 43.5496L33.7787 43.548L33.4605 43.9618ZM33.945 43.3369L33.6018 43.7304L33.6562 43.7778L33.7215 43.8088L33.945 43.3369ZM33.7954 44.0925L33.7779 43.5708L33.7543 43.5715L33.7309 43.5745L33.7954 44.0925ZM44.1696 43.8968L44.6144 43.6234L44.6119 43.6195L44.1696 43.8968ZM44.2538 43.375L44.5852 43.7784L44.5883 43.7758L44.2538 43.375ZM44.8467 43.9138L45.2089 44.2898L45.2144 44.2845L45.2197 44.2791L44.8467 43.9138ZM44.7998 43.9559L44.4815 43.5421L44.4811 43.5424L44.7998 43.9559ZM44.6675 44.0402L44.4382 43.5711L44.4307 43.5749L44.6675 44.0402ZM28.8354 27.6417L28.864 28.163L28.8644 28.163L28.8354 27.6417ZM22.2184 26.0832L21.8086 25.7597L20.6713 27.2004L22.3966 26.5739L22.2184 26.0832ZM24.1841 25.18L24.3111 24.6736L24.3098 24.6733L24.1841 25.18ZM28.6938 26.6898L28.7005 26.1678L28.7004 26.1678L28.6938 26.6898ZM32.9436 25.3399L33.1961 25.7969L33.7969 25.465L33.3166 24.9746L32.9436 25.3399ZM47.9542 27.6417L47.9251 28.163L47.9255 28.163L47.9542 27.6417ZM54.5717 26.0831L54.3935 26.5739L56.1166 27.1994L54.9817 25.7599L54.5717 26.0831ZM52.6049 25.18L52.4795 24.6732L52.4778 24.6736L52.6049 25.18ZM48.0956 26.6898L48.0889 26.1678L48.0888 26.1678L48.0956 26.6898ZM43.8468 25.3399H43.3248V25.6477L43.5941 25.7967L43.8468 25.3399ZM36.3553 36.2196L36.7006 35.8281L36.6982 35.826L36.3553 36.2196ZM36.3129 35.6609L35.9141 35.3239L35.9117 35.3268L36.3129 35.6609ZM36.8606 35.6173L36.5184 36.0118L36.5286 36.0202L36.8606 35.6173ZM38.9252 36.4951L38.9268 37.0172L38.93 37.0171L38.9252 36.4951ZM40.8788 35.576L40.4618 35.2619L40.4602 35.264L40.8788 35.576ZM41.4236 35.5023L41.7466 35.0921L41.7442 35.0902L41.4236 35.5023ZM41.4955 36.0589L41.9111 36.3749L41.9131 36.3722L41.4955 36.0589ZM38.9322 37.2884L38.9273 36.7663L38.9195 36.7665L38.9322 37.2884ZM60.8042 21.5351L61.3263 21.5355V21.5351H60.8042ZM58.7845 21.1387H58.2625V21.6608H58.7845V21.1387ZM60.0274 21.1387V21.6608H60.5495V21.1387H60.0274ZM60.0274 20.0313H60.5495V19.5092H60.0274V20.0313ZM58.7845 20.0313V19.5092H58.2625V20.0313H58.7845ZM60.8041 17.9937V17.4717H60.282V17.9937H60.8041ZM60.8041 23.1766H60.282V23.6987H60.8041V23.1766ZM63.8605 23.5718H63.3384V23.5723L63.8605 23.5718ZM67.3818 23.5718H66.8598H67.3818ZM21.5321 20.3124L22.0015 20.0838L22.0012 20.0832L21.5321 20.3124ZM21.7064 19.7806L21.9436 20.2456L21.9445 20.2451L21.7064 19.7806ZM22.3145 19.4384L22.577 19.8897L22.577 19.8896L22.3145 19.4384ZM25.9598 17.9456L25.8729 17.4308L25.8721 17.4309L25.9598 17.9456ZM34.0117 19.5454L33.8531 20.0429L33.8556 20.0436L34.0117 19.5454ZM34.2676 20.0407L33.7682 19.8886L33.7679 19.8894L34.2676 20.0407ZM33.7814 20.302L33.9454 19.8063L33.9389 19.8042L33.7814 20.302ZM26.0872 18.7283L26.1749 19.2429L26.1754 19.2428L26.0872 18.7283ZM22.6992 20.1279L22.9615 20.5792L22.9617 20.5791L22.6992 20.1279ZM22.0538 20.4899L21.816 20.0251L21.8126 20.0269L22.0538 20.4899ZM54.5972 20.3314L54.8364 19.8673L54.8346 19.8664L54.5972 20.3314ZM53.9518 19.9689L54.2157 19.5185L54.2143 19.5177L53.9518 19.9689ZM50.5633 18.5701L50.4745 19.0845L50.4759 19.0848L50.5633 18.5701ZM42.8691 20.1434L42.7115 19.6457L42.7071 19.6471L42.8691 20.1434ZM42.6392 19.3861L42.7956 19.8842L42.7978 19.8835L42.6392 19.3861ZM50.6908 17.7872L50.7783 17.2725L50.778 17.2725L50.6908 17.7872ZM54.3366 19.28L54.5997 18.8291L54.5993 18.8288L54.3366 19.28ZM54.9444 19.6222L54.7066 20.087L54.7074 20.0873L54.9444 19.6222ZM55.1184 20.1538L54.6501 19.9231L54.6488 19.9257L55.1184 20.1538ZM39.0207 54.8168C38.3163 54.8168 37.5505 54.6691 36.5896 54.3289L36.2412 55.3132C37.2765 55.6797 38.1635 55.8609 39.0207 55.8609V54.8168ZM36.5899 54.329C35.7524 54.032 34.8897 53.6377 33.9502 53.1211L33.4471 54.036C34.4267 54.5747 35.3411 54.994 36.2409 55.3131L36.5899 54.329ZM33.9501 53.121C33.1251 52.6676 32.2746 52.1469 31.4241 51.5746L30.8412 52.4408C31.7153 53.0291 32.5925 53.5664 33.4472 54.0361L33.9501 53.121ZM31.4253 51.5754C30.6597 51.0571 29.9733 50.5661 29.326 50.0719L28.6924 50.9018C29.3578 51.4098 30.0606 51.9124 30.84 52.44L31.4253 51.5754ZM29.3262 50.072C28.769 49.6461 28.2538 49.2422 27.7871 48.7775L27.0504 49.5174C27.5705 50.0353 28.1349 50.4757 28.6922 50.9016L29.3262 50.072ZM27.7869 48.7774C27.2965 48.2894 26.8854 47.7418 26.4634 47.179L25.628 47.8053C26.0429 48.3587 26.4977 48.9676 27.0505 49.5176L27.7869 48.7774ZM26.4634 47.1789C25.9253 46.4614 25.4272 45.7067 24.9828 44.9373L24.0787 45.4596C24.5439 46.265 25.065 47.0545 25.628 47.8053L26.4634 47.1789ZM24.9829 44.9375C24.4269 43.9739 23.8994 42.9049 23.3716 41.665L22.4109 42.074C22.9523 43.3457 23.4981 44.4533 24.0785 45.4593L24.9829 44.9375ZM23.3716 41.6649C22.8173 40.3635 22.2777 38.9181 21.6736 37.1122L20.6834 37.4434C21.2936 39.2677 21.8429 40.7404 22.4109 42.0741L23.3716 41.6649ZM21.6736 37.1123C21.0644 35.2892 20.5095 33.4611 19.9452 31.5856L18.9453 31.8865C19.5096 33.7617 20.0685 35.6035 20.6833 37.4432L21.6736 37.1123ZM19.9443 31.5826L19.876 31.3605L18.878 31.6675L18.9463 31.8895L19.9443 31.5826ZM19.8748 31.3567C19.834 31.2277 19.7955 31.103 19.7609 30.9797L18.7555 31.2616C18.7948 31.4017 18.8375 31.5396 18.8792 31.6713L19.8748 31.3567ZM19.6663 30.7951C19.4758 30.5564 19.0239 29.8858 18.5535 29.0498C18.0834 28.2143 17.6192 27.2562 17.3822 26.4408L16.3796 26.7323C16.6497 27.6617 17.1593 28.7013 17.6435 29.5619C18.1275 30.422 18.6106 31.1461 18.8501 31.4463L19.6663 30.7951ZM17.3825 26.4419C17.1885 25.7689 17.0189 24.9473 16.895 24.0649L15.861 24.2101C15.9902 25.1303 16.1688 26.0014 16.3793 26.7312L17.3825 26.4419ZM16.8949 24.0642C16.9032 24.1222 16.8642 24.1933 16.7821 24.2053L16.6316 23.172C16.1257 23.2458 15.7913 23.7185 15.8611 24.2108L16.8949 24.0642ZM16.7844 24.2049C16.6978 24.2179 16.6377 24.1549 16.6296 24.0978L17.6633 23.951C17.5936 23.46 17.1419 23.0953 16.6293 23.1724L16.7844 24.2049ZM16.6295 24.0976C16.7544 24.9795 16.9244 25.8124 17.1244 26.5056L18.1276 26.2162C17.9442 25.5805 17.7831 24.7972 17.6634 23.9512L16.6295 24.0976ZM17.1246 26.5064C17.4031 27.4661 17.9514 28.5368 18.4353 29.3717C18.6798 29.7934 18.913 30.1638 19.0965 30.4413C19.2674 30.6999 19.4208 30.9175 19.4966 30.9994L20.2631 30.2905C20.2692 30.297 20.2458 30.2694 20.1827 30.1809C20.1273 30.1032 20.0541 29.9965 19.9675 29.8655C19.7945 29.6038 19.5721 29.2508 19.3387 28.8481C18.8668 28.034 18.3699 27.0511 18.1273 26.2154L17.1246 26.5064ZM19.4987 31.0016L19.5662 31.0738L20.3286 30.3604L20.2611 30.2882L19.4987 31.0016ZM19.4533 30.8858L19.4903 30.9939L20.4784 30.6566L20.4415 30.5485L19.4533 30.8858ZM19.4793 30.9576C19.5221 31.1208 19.5723 31.2817 19.6185 31.429L20.6148 31.1166C20.5678 30.9669 20.5249 30.8287 20.4894 30.693L19.4793 30.9576ZM19.618 31.4274L19.6894 31.6578L20.6867 31.3486L20.6153 31.1182L19.618 31.4274ZM19.6882 31.6536C20.2504 33.5226 20.8074 35.3579 21.4181 37.1868L22.4085 36.8561C21.8033 35.0437 21.2503 33.222 20.688 31.3528L19.6882 31.6536ZM21.4182 37.187C22.0216 38.9906 22.5634 40.4434 23.1225 41.7575L24.0833 41.3487C23.5379 40.0667 23.0056 38.6411 22.4084 36.8558L21.4182 37.187ZM23.1227 41.758C23.6522 42.9984 24.1833 44.0783 24.7474 45.0557L25.6517 44.5337C25.1124 43.5993 24.5995 42.558 24.083 41.3481L23.1227 41.758ZM24.7474 45.0558C25.197 45.8343 25.7001 46.5971 26.2448 47.3226L27.0798 46.6957C26.5605 46.004 26.0805 45.2762 25.6516 44.5336L24.7474 45.0558ZM26.2445 47.3222C26.6423 47.8532 27.0797 48.439 27.5923 48.9493L28.3289 48.2093C27.8791 47.7616 27.4862 47.2382 27.0802 46.6962L26.2445 47.3222ZM27.5924 48.9494C28.0792 49.4337 28.6227 49.8572 29.1566 50.2658L29.7911 49.4366C29.2554 49.0266 28.7619 48.64 28.3287 48.2091L27.5924 48.9494ZM29.1573 50.2663C29.8108 50.7647 30.5013 51.2589 31.2688 51.7777L31.8535 50.9126C31.1004 50.4036 30.4263 49.921 29.7905 49.4361L29.1573 50.2663ZM31.2691 51.7778C32.1233 52.3544 32.9802 52.8788 33.8151 53.3375L34.3179 52.4224C33.5127 51.98 32.6828 51.4723 31.8532 50.9124L31.2691 51.7778ZM33.8149 53.3374C34.7573 53.8557 35.6347 54.2586 36.4955 54.5635L36.8441 53.5792C36.0463 53.2967 35.2209 52.919 34.318 52.4225L33.8149 53.3374ZM36.4956 54.5635C37.4436 54.8991 38.251 55.0673 39.0176 55.0673V54.0231C38.4072 54.0231 37.722 53.8901 36.844 53.5792L36.4956 54.5635ZM39.0223 55.0672C41.4521 55.0454 44.1612 53.6992 46.3188 52.3076C48.4926 50.9056 50.2133 49.3863 50.6901 48.8891L49.9364 48.1664C49.5239 48.5966 47.8687 50.0656 45.7529 51.4302C43.621 52.8052 41.1268 54.0041 39.0129 54.0232L39.0223 55.0672ZM50.6898 48.8893L50.8195 48.7542L50.0664 48.0311L49.9367 48.1662L50.6898 48.8893ZM50.819 48.7548C51.0686 48.4956 51.3406 48.2137 51.6259 47.8885L50.841 47.1999C50.5741 47.5042 50.3184 47.7694 50.0669 48.0305L50.819 48.7548ZM51.6228 47.892C52.5548 46.8489 53.7861 44.6096 55.0589 41.6023C56.3406 38.5739 57.6875 34.71 58.8338 30.3697L57.8242 30.1031C56.6898 34.3986 55.3585 38.2153 54.0973 41.1953C52.8272 44.1964 51.6511 46.2932 50.8441 47.1964L51.6228 47.892ZM58.8336 30.3702L58.8628 30.2603L57.8535 29.9928L57.8244 30.1027L58.8336 30.3702ZM58.7179 30.5049L58.7992 30.4276L58.0796 29.6709L57.9984 29.7482L58.7179 30.5049ZM58.7986 30.4281C58.9782 30.2578 59.1554 30.0613 59.3392 29.8311L58.5234 29.1794C58.3625 29.3809 58.2176 29.5402 58.0802 29.6704L58.7986 30.4281ZM59.372 29.7852C59.4711 29.6292 60.3955 28.017 61.0014 26.3799L60.0222 26.0175C59.7365 26.7894 59.372 27.5634 59.0661 28.1643C58.9137 28.4638 58.777 28.7181 58.6736 28.9048C58.622 28.9982 58.5789 29.0743 58.5466 29.1303C58.5305 29.1583 58.5173 29.1809 58.5073 29.1978C58.5023 29.2063 58.4982 29.2129 58.4952 29.218C58.492 29.2233 58.4906 29.2255 58.4906 29.2254L59.372 29.7852ZM61.0013 26.3804C61.1927 25.8647 61.3366 25.385 61.4268 24.957L60.4051 24.7416C60.328 25.1075 60.2006 25.5368 60.0224 26.017L61.0013 26.3804ZM61.4266 24.958C61.4132 25.0212 61.3467 25.0729 61.2681 25.056L61.488 24.0353C60.9907 23.9281 60.5097 24.25 60.4053 24.7407L61.4266 24.958ZM61.2657 25.0554C61.1856 25.0378 61.1532 24.9661 61.1648 24.9104L62.187 25.1236C62.288 24.639 61.9884 24.1455 61.4904 24.0358L61.2657 25.0554ZM61.1653 24.9081C61.0789 25.3132 60.9401 25.7803 60.749 26.2974L61.7284 26.6594C61.9325 26.107 62.0873 25.5909 62.1865 25.1259L61.1653 24.9081ZM60.7491 26.2972C60.4448 27.1198 60.0503 27.9536 59.7192 28.5987C59.5541 28.9203 59.4061 29.1923 59.2949 29.3892C59.2393 29.4878 59.1936 29.5663 59.1602 29.6222C59.1186 29.6915 59.1112 29.6997 59.1243 29.683L59.9483 30.3242C59.9825 30.2803 60.0245 30.211 60.0558 30.1589C60.0951 30.0933 60.1455 30.0066 60.2043 29.9023C60.3222 29.6934 60.4767 29.4094 60.648 29.0756C60.9898 28.4099 61.4043 27.5355 61.7283 26.6595L60.7491 26.2972ZM59.1294 29.6765C58.9693 29.8756 58.8233 30.0398 58.6821 30.1804L59.4189 30.9203C59.5931 30.7468 59.7648 30.5526 59.9432 30.3307L59.1294 29.6765ZM58.5459 30.4165C57.3969 34.7458 56.0423 38.6023 54.7551 41.6208C53.4593 44.6596 52.2543 46.795 51.4208 47.7283L52.1996 48.4238C53.1563 47.3525 54.4163 45.0772 55.7156 42.0304C57.0235 38.9633 58.394 35.0592 59.5551 30.6843L58.5459 30.4165ZM51.4184 47.731C51.1435 48.0431 50.8795 48.3177 50.6211 48.5865L51.3738 49.3102C51.6308 49.0428 51.9098 48.7528 52.202 48.4211L51.4184 47.731ZM50.6219 48.5857L50.4921 48.7201L51.2433 49.4453L51.373 49.311L50.6219 48.5857ZM50.4886 48.7238C50.495 48.717 50.1012 49.0972 49.4097 49.6806C48.7255 50.2578 47.7642 51.0216 46.6411 51.784C44.3698 53.3257 41.5337 54.794 39.016 54.8168L39.0255 55.8609C41.8736 55.8351 44.9315 54.2064 47.2275 52.6478C49.5401 51.078 51.1896 49.502 51.2468 49.4416L50.4886 48.7238ZM16.8913 32.6941C16.9431 32.6941 16.9896 32.7226 17.0117 32.7658L16.0821 33.2414C16.2427 33.5551 16.5601 33.7382 16.8913 33.7382V32.6941ZM17.0115 32.7654C16.0375 30.8654 15.6277 29.1245 15.7413 27.5078C15.8545 25.8954 16.4914 24.3611 17.6879 22.8745L16.8745 22.2198C15.566 23.8455 14.8301 25.5777 14.6997 27.4346C14.5696 29.2872 15.0451 31.2184 16.0823 33.2417L17.0115 32.7654ZM17.6884 22.8738C18.8707 21.3997 20.5491 19.9942 23.1757 18.3139L22.6131 17.4343C19.9407 19.1439 18.1567 20.621 16.8739 22.2205L17.6884 22.8738ZM23.1768 18.3132C29.1649 14.4628 33.9255 8.43711 37.3455 0.444103L36.3856 0.0333571C33.0284 7.8794 28.3877 13.7212 22.612 17.435L23.1768 18.3132ZM37.3462 0.442455C37.3204 0.503343 37.2406 0.54477 37.1626 0.509599L37.5921 -0.442133C37.1211 -0.654645 36.5814 -0.428689 36.3849 0.0350053L37.3462 0.442455ZM37.1646 0.510478C37.0943 0.479087 37.0741 0.406044 37.0977 0.350771L38.0579 0.761028C38.2529 0.304464 38.0527 -0.236554 37.5901 -0.443013L37.1646 0.510478ZM37.0978 0.35053C33.6772 8.34501 28.9361 14.3056 23.0249 18.1068L23.5897 18.9851C29.7125 15.0477 34.5738 8.90367 38.0577 0.761269L37.0978 0.35053ZM23.026 18.1061C20.4288 19.7672 18.7024 21.1923 17.4741 22.7237L18.2886 23.377C19.4154 21.9721 21.0352 20.6188 23.5886 18.9858L23.026 18.1061ZM17.4745 22.7231C16.2757 24.2132 15.6024 25.8063 15.4869 27.5186C15.3717 29.2263 15.8143 31.0073 16.7705 32.8734L17.6998 32.3972C16.8059 30.653 16.4293 29.0613 16.5286 27.5889C16.6276 26.1213 17.2024 24.7271 18.2881 23.3776L17.4745 22.7231ZM16.7705 32.8733C16.7429 32.8194 16.7586 32.7457 16.8254 32.71L17.3172 33.631C17.7637 33.3926 17.9263 32.8395 17.6998 32.3973L16.7705 32.8733ZM16.8215 32.7121C16.8446 32.6995 16.8695 32.6941 16.8913 32.6941V33.7382C17.0341 33.7382 17.1825 33.7045 17.3211 33.6289L16.8215 32.7121ZM52.2528 18.4498C52.2647 18.4498 52.2835 18.4517 52.3056 18.4598L51.9491 19.4412C52.0536 19.4791 52.157 19.494 52.2528 19.494V18.4498ZM52.299 18.4574C51.0151 18.0105 49.4115 17.4025 48.0982 16.5775L47.5428 17.4617C48.964 18.3545 50.665 18.9942 51.9557 19.4435L52.299 18.4574ZM48.0984 16.5776C42.5679 13.1013 38.2579 6.61766 37.3788 0.48749L36.3453 0.6357C37.2703 7.0865 41.7676 13.8315 47.5427 17.4616L48.0984 16.5776ZM37.3788 0.487641C37.3871 0.545633 37.3486 0.616185 37.2672 0.628333L37.1131 -0.40437C36.6075 -0.328939 36.275 0.144436 36.3452 0.635549L37.3788 0.487641ZM37.2659 0.628513C37.1837 0.640579 37.1229 0.585821 37.1136 0.52098L38.1473 0.373703C38.0761 -0.126153 37.6122 -0.477624 37.1143 -0.404549L37.2659 0.628513ZM37.1137 0.521519C38.0082 6.75307 42.3605 13.2718 47.9496 16.7856L48.5053 15.9016C43.1601 12.5412 38.9956 6.2834 38.1472 0.373164L37.1137 0.521519ZM47.9498 16.7857C49.3058 17.6373 50.955 18.2571 52.206 18.6933L52.5498 17.7074C51.3037 17.2729 49.7527 16.685 48.5051 15.9015L47.9498 16.7857ZM52.2079 18.694C52.1316 18.6677 52.1066 18.5931 52.1252 18.5376L53.1153 18.8692C53.2726 18.3992 53.0313 17.8732 52.5479 17.7068L52.2079 18.694ZM52.1248 18.5387C52.1416 18.4882 52.1914 18.4498 52.2528 18.4498V19.494C52.6375 19.494 52.9894 19.2479 53.1156 18.8681L52.1248 18.5387ZM60.3996 41.5788C60.4387 41.5788 60.4781 41.596 60.5038 41.6262L59.7097 42.3041C59.8891 42.5143 60.1438 42.6229 60.3996 42.6229V41.5788ZM60.5023 41.6244C60.5467 41.676 60.5419 41.7501 60.491 41.7955L59.7964 41.016C59.4215 41.35 59.384 41.9262 59.7113 42.306L60.5023 41.6244ZM60.4915 41.7951C62.4008 40.0896 63.9782 37.4683 64.8079 34.6378C65.6376 31.8077 65.7376 28.7048 64.6062 26.0505L63.6457 26.4599C64.6552 28.8283 64.5898 31.67 63.806 34.3441C63.0222 37.0177 61.538 39.4603 59.7959 41.0163L60.4915 41.7951ZM64.6061 26.0501C64.63 26.106 64.6092 26.179 64.5392 26.2101L64.1151 25.256C63.652 25.4618 63.4505 26.0031 63.6459 26.4603L64.6061 26.0501ZM64.5364 26.2113C64.4649 26.2426 64.3849 26.2055 64.3583 26.1432L65.3188 25.7336C65.1211 25.27 64.5861 25.0499 64.1179 25.2547L64.5364 26.2113ZM64.3583 26.1431C65.4359 28.6715 65.3712 31.6961 64.5457 34.5353C63.7204 37.3745 62.152 39.9652 60.3073 41.613L61.0029 42.3917C63.0159 40.5936 64.6773 37.8229 65.5484 34.8268C66.4193 31.8309 66.5175 28.5463 65.3188 25.7337L64.3583 26.1431ZM60.3054 41.6147C60.3315 41.5912 60.366 41.5788 60.3996 41.5788V42.6229C60.6143 42.6229 60.8318 42.5461 61.0049 42.3899L60.3054 41.6147ZM18.2116 40.9443C18.2303 40.9443 18.2434 40.9475 18.2496 40.9495L17.9298 41.9434C18.0173 41.9716 18.112 41.9884 18.2116 41.9884V40.9443ZM18.2563 40.9517C12.4382 38.9928 9.05506 31.871 10.9849 25.3644L9.98392 25.0675C7.91707 32.0358 11.4997 39.7785 17.9231 41.9412L18.2563 40.9517ZM10.985 25.3643C11.7813 22.6777 13.3091 19.7825 15.5447 16.7586L14.7051 16.1379C12.4192 19.2299 10.8239 22.2336 9.9839 25.0676L10.985 25.3643ZM15.5447 16.7586C17.1955 14.5261 19.2292 12.6375 21.2379 10.7743L20.5278 10.0088C18.5305 11.8614 16.4234 13.8141 14.7051 16.1378L15.5447 16.7586ZM21.2378 10.7744C22.0376 10.0331 22.8713 9.26001 23.669 8.47361L22.936 7.73004C22.1516 8.50332 21.3296 9.26566 20.528 10.0086L21.2378 10.7744ZM23.6687 8.4739C23.6143 8.52745 23.5244 8.52546 23.4723 8.47023L24.2316 7.75349C23.8829 7.38412 23.2998 7.3719 22.9363 7.72974L23.6687 8.4739ZM23.4728 8.47071C23.4265 8.42182 23.4278 8.34882 23.4756 8.30162L24.209 9.04488C24.5656 8.69301 24.5754 8.11679 24.2311 7.753L23.4728 8.47071ZM23.4761 8.30119C22.6825 9.08227 21.8557 9.84883 21.0505 10.5962L21.7608 11.3615C22.5637 10.6163 23.4021 9.83908 24.2085 9.04531L23.4761 8.30119ZM21.0506 10.5961C19.08 12.4237 16.9993 14.3513 15.3252 16.6163L16.1649 17.2369C17.7713 15.0635 19.7779 13.2006 21.7606 11.3616L21.0506 10.5961ZM15.3253 16.6162C13.0948 19.6327 11.5413 22.5536 10.7268 25.298L11.7277 25.5951C12.4984 22.9985 13.9841 20.1861 16.1648 17.237L15.3253 16.6162ZM10.7267 25.2981C8.7802 31.8619 12.1312 39.156 18.1666 41.1877L18.4997 40.1982C13.0734 38.3715 9.91695 31.7012 11.7278 25.595L10.7267 25.2981ZM18.1659 41.1875C18.0926 41.1627 18.0657 41.0905 18.0839 41.0339L19.0779 41.3534C19.2297 40.8812 18.9816 40.3611 18.5004 40.1984L18.1659 41.1875ZM18.0844 41.0323C18.1 40.9842 18.1493 40.9443 18.2116 40.9443V41.9884C18.601 41.9884 18.953 41.7377 19.0774 41.3551L18.0844 41.0323ZM56.6914 13.4905C56.6997 13.4905 56.7058 13.4909 56.709 13.4912C56.7122 13.4915 56.7131 13.4917 56.7108 13.4914L56.5533 14.5235C56.5879 14.5288 56.6358 14.5346 56.6914 14.5346V13.4905ZM56.7121 13.4916C53.9752 13.0671 51.2259 12.0002 49.1778 10.5803L48.5829 11.4384C50.7735 12.9571 53.6747 14.0771 56.552 14.5234L56.7121 13.4916ZM49.1779 10.5804C45.6658 8.14407 44.3637 4.69393 43.1034 0.585974L42.1052 0.892223C43.3682 5.00902 44.7516 8.78061 48.5828 11.4383L49.1779 10.5804ZM43.1035 0.586434C43.1207 0.642561 43.0932 0.715104 43.0184 0.739018L42.7005 -0.255522C42.2156 -0.100497 41.9598 0.416914 42.105 0.891763L43.1035 0.586434ZM43.0165 0.739642C42.9385 0.764217 42.8655 0.714803 42.8471 0.655346L43.8449 0.347681C43.6981 -0.128224 43.1949 -0.411453 42.7024 -0.256146L43.0165 0.739642ZM42.8469 0.654575C44.0643 4.62434 45.3943 8.26689 49.0193 10.7814L49.6144 9.92349C46.311 7.63201 45.0617 4.31545 43.8451 0.348451L42.8469 0.654575ZM49.0192 10.7814C51.1174 12.2371 53.9022 13.3102 56.6685 13.7397L56.8287 12.7079C54.202 12.3001 51.5694 11.2799 49.6144 9.92352L49.0192 10.7814ZM56.669 13.7398C56.589 13.7274 56.5489 13.6571 56.5581 13.5964L57.5904 13.7528C57.665 13.2608 57.3331 12.7858 56.8282 12.7079L56.669 13.7398ZM56.5577 13.5986C56.5657 13.5445 56.6155 13.4905 56.6914 13.4905V14.5346C57.1441 14.5346 57.5249 14.1983 57.5908 13.7505L56.5577 13.5986ZM39.0026 47.6152C37.8816 47.6152 36.9531 47.3157 35.9562 46.6166L35.3567 47.4714C36.5172 48.2854 37.6529 48.6593 39.0026 48.6593V47.6152ZM35.96 46.6192C35.442 46.2492 34.9119 45.5276 34.4912 44.838C34.0799 44.1639 33.8172 43.5951 33.8205 43.6025L32.8644 44.022C32.878 44.0532 33.1619 44.664 33.5999 45.3818C34.0283 46.0841 34.65 46.9666 35.3529 47.4688L35.96 46.6192ZM33.8165 43.5937C33.8255 43.6131 33.8285 43.6309 33.8285 43.6457H32.7844C32.7844 43.7757 32.8115 43.9077 32.8683 44.0309L33.8165 43.5937ZM33.7476 43.7576C33.7042 43.7758 33.6405 43.7698 33.5951 43.7231L34.3435 42.995C34.0776 42.7217 33.6806 42.654 33.3451 42.7942L33.7476 43.7576ZM33.6811 43.7944L33.7624 43.8482L34.3387 42.9775L34.2574 42.9237L33.6811 43.7944ZM33.7684 43.8521C34.3953 44.2548 35.3343 44.6412 36.2705 44.9321C37.2072 45.2231 38.2009 45.4372 38.9479 45.4658L38.9879 44.4225C38.3711 44.3988 37.4762 44.2134 36.5803 43.935C35.6837 43.6564 34.8459 43.3033 34.3327 42.9736L33.7684 43.8521ZM39.1321 45.472C39.1895 45.4729 39.2609 45.4733 39.3466 45.4647L39.2424 44.4258C39.2186 44.4282 39.1961 44.4287 39.147 44.428L39.1321 45.472ZM39.3244 45.4665C40.0593 45.4243 41.0932 45.2022 42.0612 44.9029C43.0198 44.6066 43.9956 44.2098 44.5793 43.7832L43.9632 42.9402C43.526 43.2598 42.6894 43.6159 41.7528 43.9054C40.8256 44.192 39.8816 44.3886 39.2645 44.4241L39.3244 45.4665ZM44.6142 43.7553L44.6483 43.7256L43.9624 42.9384L43.9283 42.9681L44.6142 43.7553ZM44.4447 43.6143C44.4447 43.6049 44.4454 43.598 44.446 43.5938C44.4467 43.5895 44.4474 43.5867 44.4478 43.5851C44.4485 43.5828 44.4493 43.5804 44.4516 43.5765L45.3568 44.097C45.4352 43.9606 45.4888 43.7905 45.4888 43.6143H44.4447ZM44.4311 43.6159C44.3679 43.7514 44.0936 44.3255 43.6988 44.9613C43.2946 45.6122 42.8037 46.2615 42.322 46.6049L42.9281 47.4551C43.5889 46.9841 44.17 46.1817 44.5858 45.5121C45.0112 44.8272 45.3052 44.2119 45.3773 44.0575L44.4311 43.6159ZM42.3255 46.6024C41.3121 47.3125 40.3825 47.6144 39.2722 47.6144V48.6585C40.6156 48.6585 41.7517 48.2795 42.9246 47.4575L42.3255 46.6024ZM39.2765 47.6144L39.1354 47.6133L39.1269 48.6574L39.268 48.6585L39.2765 47.6144ZM39.1235 47.6133L38.9949 47.6152L39.0103 48.6592L39.1389 48.6573L39.1235 47.6133ZM34.2182 44.8952C34.6153 45.5521 35.189 46.3835 35.7948 46.8172L36.4025 45.9681C35.9892 45.6723 35.51 45.0137 35.1117 44.355L34.2182 44.8952ZM35.7992 46.8203C36.8315 47.5431 37.804 47.8662 39.0026 47.8662V46.8221C38.0345 46.8221 37.2686 46.5745 36.3981 45.965L35.7992 46.8203ZM39.0088 47.8662L39.1372 47.8646L39.1248 46.8206L38.9964 46.8221L39.0088 47.8662ZM39.1268 47.8647L39.2678 47.8658L39.2762 46.8217L39.1352 46.8206L39.1268 47.8647ZM39.272 47.8658C40.4639 47.8658 41.4373 47.5375 42.4822 46.8054L41.8831 45.9503C40.9955 46.5721 40.2283 46.8217 39.272 46.8217V47.8658ZM42.486 46.8027C43.0917 46.3703 43.6583 45.5443 44.0499 44.8892L43.1538 44.3534C42.762 45.0086 42.2901 45.6597 41.8793 45.9529L42.486 46.8027ZM43.3903 44.144C42.0998 44.716 40.3547 45.1562 39.3244 45.2145L39.3834 46.257C40.5628 46.1902 42.4315 45.7111 43.8134 45.0986L43.3903 44.144ZM39.3016 45.2163C39.1996 45.2266 39.0769 45.2278 38.9686 45.2158L38.8529 46.2535C39.0437 46.2747 39.2409 46.2718 39.4062 46.2552L39.3016 45.2163ZM38.9304 45.2129C37.8769 45.1732 36.1486 44.7104 34.8761 44.1476L34.4538 45.1026C35.8033 45.6993 37.6647 46.21 38.8911 46.2563L38.9304 45.2129ZM39.1392 45.2217C39.0639 45.2217 39.0113 45.2206 38.9655 45.2158L38.8564 46.2542C38.962 46.2653 39.0631 46.2658 39.1392 46.2658V45.2217ZM38.9308 45.2133C38.261 45.1878 37.3041 44.9901 36.3517 44.6944C35.3984 44.3984 34.5087 44.0224 33.9622 43.6696L33.3959 44.5468C34.0568 44.9735 35.0485 45.383 36.0421 45.6915C37.0366 46.0004 38.092 46.2263 38.8911 46.2567L38.9308 45.2133ZM33.7805 43.5961C33.8097 43.6019 33.8328 43.6092 33.8473 43.6143C33.8626 43.6196 33.8748 43.6247 33.8831 43.6284C33.8991 43.6356 33.9104 43.6417 33.9148 43.6442C33.9235 43.6491 33.9265 43.6513 33.9211 43.6478C33.9108 43.6409 33.8962 43.6304 33.875 43.615L33.2609 44.4594C33.279 44.4726 33.3109 44.4958 33.3418 44.5164C33.357 44.5266 33.3793 44.541 33.4044 44.5551C33.4116 44.5592 33.4831 44.6016 33.5777 44.6204L33.7805 43.5961ZM33.843 43.5935C33.8258 43.5828 33.8112 43.5717 33.8003 43.5619L33.1029 44.339C33.1625 44.3925 33.2269 44.44 33.2929 44.4809L33.843 43.5935ZM33.7552 43.5257C33.6035 43.4173 33.5263 43.3219 33.4913 43.255L32.566 43.7387C32.698 43.9912 32.9058 44.202 33.1479 44.3751L33.7552 43.5257ZM33.4911 43.2546C33.5101 43.2908 33.5095 43.3338 33.4884 43.3702L32.5853 42.8463C32.4261 43.1206 32.4192 43.4584 32.5662 43.7391L33.4911 43.2546ZM33.4878 43.3712C33.4678 43.4055 33.4264 43.435 33.3717 43.4355L33.3615 42.3914C33.0365 42.3946 32.745 42.5723 32.5858 42.8453L33.4878 43.3712ZM33.3073 43.4322C33.3241 43.4341 33.3354 43.4354 33.3445 43.4367C33.3533 43.4379 33.3569 43.4386 33.3575 43.4387C33.3577 43.4388 33.3538 43.438 33.3473 43.436C33.3404 43.4339 33.3319 43.4309 33.3225 43.4267L33.7502 42.4742C33.6163 42.414 33.4867 42.4017 33.4259 42.3948L33.3073 43.4322ZM33.3277 43.4289C33.7834 43.6277 34.4642 43.6543 35.1075 43.5606L34.957 42.5274C34.3955 42.6092 33.9418 42.5577 33.7451 42.4719L33.3277 43.4289ZM35.1079 43.5606C35.5172 43.5006 35.8744 43.4164 36.1992 43.3394L35.9585 42.3234C35.6323 42.4007 35.3155 42.4749 34.9566 42.5275L35.1079 43.5606ZM36.1995 43.3394C36.8661 43.181 37.3997 43.0879 37.8799 43.1906L38.0982 42.1695C37.3607 42.0119 36.6135 42.1678 35.9581 42.3235L36.1995 43.3394ZM37.8856 43.1918C38.261 43.2677 38.4558 43.3595 38.612 43.432L39.0514 42.4848C38.8621 42.397 38.583 42.2675 38.0925 42.1683L37.8856 43.1918ZM38.6115 43.4317C38.7433 43.493 38.8915 43.5667 39.1247 43.581L39.1886 42.5388C39.1772 42.5381 39.1726 42.5373 39.172 42.5371C39.1716 42.5371 39.1703 42.5368 39.1659 42.5354C39.1604 42.5335 39.1503 42.5297 39.1309 42.5212C39.1105 42.5123 39.0872 42.5014 39.0519 42.485L38.6115 43.4317ZM39.2264 43.5773C39.3962 43.5544 39.544 43.4798 39.6513 43.4295L39.2079 42.4842C39.1743 42.5 39.1485 42.5121 39.1261 42.5222C39.1039 42.5322 39.0894 42.5384 39.0794 42.5423C39.0616 42.5493 39.0688 42.545 39.0869 42.5425L39.2264 43.5773ZM39.6509 43.4297C39.8046 43.3578 40.0005 43.2652 40.3862 43.1849L40.1732 42.1627C39.6767 42.2661 39.3987 42.3949 39.2083 42.484L39.6509 43.4297ZM40.3888 43.1843C40.8633 43.083 41.4013 43.176 42.0692 43.3337L42.3091 42.3175C41.6544 42.1629 40.9023 42.0069 40.1706 42.1632L40.3888 43.1843ZM42.0685 43.3335C42.3909 43.4101 42.7467 43.4947 43.1539 43.554L43.3043 42.5208C42.9489 42.469 42.6351 42.3949 42.3098 42.3176L42.0685 43.3335ZM43.1581 43.5546C43.3876 43.5861 43.6154 43.6019 43.8322 43.6019V42.5578C43.6652 42.5578 43.4848 42.5455 43.3001 42.5202L43.1581 43.5546ZM43.8322 43.6019C44.1711 43.6019 44.4329 43.5618 44.6192 43.517C44.7122 43.4946 44.7861 43.4712 44.841 43.4511C44.8684 43.4411 44.8913 43.4319 44.9097 43.424C44.9188 43.42 44.9272 43.4163 44.9348 43.4127C44.9385 43.411 44.9428 43.4089 44.9474 43.4067C44.9495 43.4056 44.9531 43.4038 44.9574 43.4016C44.9594 43.4006 44.9634 43.3985 44.9683 43.3958C44.9707 43.3945 44.9749 43.3922 44.9801 43.3891C44.9832 43.3873 44.9959 43.38 45.0113 43.3695L44.4238 42.5063C44.4392 42.4958 44.4518 42.4885 44.4549 42.4867C44.46 42.4837 44.4642 42.4814 44.4666 42.4801C44.4714 42.4775 44.4752 42.4755 44.477 42.4746C44.481 42.4725 44.4841 42.471 44.4856 42.4702C44.4889 42.4686 44.4914 42.4674 44.4927 42.4668C44.4956 42.4655 44.497 42.4649 44.4968 42.4649C44.4967 42.465 44.492 42.467 44.4828 42.4703C44.4645 42.477 44.4287 42.4889 44.375 42.5019C44.268 42.5276 44.0882 42.5578 43.8322 42.5578V43.6019ZM44.9496 43.4055C44.8994 43.4305 44.8348 43.4211 44.7926 43.3762L45.5536 42.6614C45.2769 42.3668 44.8426 42.293 44.4854 42.4703L44.9496 43.4055ZM44.7915 43.3751C44.7611 43.3425 44.7472 43.2865 44.7765 43.2327L45.6936 43.7318C45.8877 43.3752 45.8189 42.9456 45.5547 42.6626L44.7915 43.3751ZM44.776 43.2336C44.7349 43.3095 44.6532 43.4101 44.487 43.5376L45.1228 44.3659C45.3619 44.1823 45.5612 43.9764 45.6941 43.7309L44.776 43.2336ZM44.4961 43.5309C44.4938 43.5326 44.4996 43.528 44.5117 43.5218L44.9865 44.4518C45.0379 44.4255 45.0805 44.3971 45.1138 44.3726L44.4961 43.5309ZM44.4553 43.5552C44.4123 43.5845 44.3684 43.6234 44.33 43.6724L45.1519 44.3164C45.1326 44.341 45.1139 44.36 45.0987 44.3741C45.0833 44.3882 45.0648 44.4034 45.0428 44.4184L44.4553 43.5552ZM44.4328 43.5729C43.9092 43.9557 42.9973 44.3498 41.9998 44.6612C41.0093 44.9704 40.0043 45.1766 39.3247 45.2153L39.3842 46.2577C40.1795 46.2124 41.2739 45.9816 42.3109 45.6579C43.341 45.3363 44.3848 44.9014 45.049 44.4158L44.4328 43.5729ZM39.3055 45.2168C39.2658 45.2205 39.2129 45.2217 39.1392 45.2217V46.2658C39.214 46.2658 39.3102 46.2651 39.4034 46.2563L39.3055 45.2168ZM34.6784 44.3355C35.962 44.9164 37.7764 45.4204 38.9476 45.4658L38.9881 44.4225C37.9916 44.3838 36.3122 43.9288 35.1088 43.3842L34.6784 44.3355ZM39.1318 45.472C39.1871 45.4729 39.2604 45.4733 39.3463 45.4648L39.2427 44.4258C39.2183 44.4282 39.1937 44.4287 39.1473 44.428L39.1318 45.472ZM39.3243 45.4665C40.4526 45.4019 42.3246 44.9079 43.6035 44.3281L43.1724 43.3772C41.9863 43.9149 40.2403 44.3682 39.2646 44.4241L39.3243 45.4665ZM43.4329 43.3325C43.3536 43.3257 43.2726 43.3167 43.1894 43.3059L43.0554 44.3414C43.1507 44.3538 43.2467 44.3645 43.343 44.3728L43.4329 43.3325ZM43.1983 43.3072C42.806 43.2495 42.4591 43.167 42.1326 43.0901L41.8931 44.1064C42.2147 44.1821 42.6034 44.2751 43.0465 44.3402L43.1983 43.3072ZM42.1334 43.0902C41.5474 42.9512 40.9278 42.8108 40.328 42.9394L40.5468 43.9603C40.8789 43.8892 41.2674 43.9579 41.8924 44.1062L42.1334 43.0902ZM40.3299 42.939C39.9199 43.0253 39.7054 43.1239 39.5323 43.2047L39.9738 44.1509C40.1076 44.0884 40.242 44.0245 40.545 43.9607L40.3299 42.939ZM39.5322 43.2047C39.3811 43.2753 39.2871 43.3176 39.1218 43.3302L39.2015 44.3713C39.5658 44.3434 39.8036 44.2303 39.9739 44.1508L39.5322 43.2047ZM39.1882 43.3294C39.0678 43.3233 38.9876 43.3063 38.9278 43.2882C38.8644 43.269 38.8118 43.2452 38.7284 43.2066L38.2893 44.1539C38.4757 44.2403 38.7161 44.3509 39.1351 44.3722L39.1882 43.3294ZM38.7301 43.2074C38.5567 43.1262 38.3412 43.0273 37.9365 42.9451L37.7287 43.9683C38.0217 44.0278 38.1541 44.0906 38.2876 44.1531L38.7301 43.2074ZM37.9425 42.9463C37.3255 42.8135 36.7165 42.9578 36.1329 43.0961L36.3737 44.1121C37.0003 43.9636 37.3752 43.8922 37.7227 43.967L37.9425 42.9463ZM36.1333 43.096C35.8069 43.1731 35.4574 43.2549 35.066 43.3125L35.2178 44.3455C35.6589 44.2806 36.0483 44.1889 36.3733 44.1122L36.1333 43.096ZM35.0638 43.3128C34.9905 43.3239 34.9164 43.3327 34.8406 43.3405L34.9466 44.3792C35.0341 44.3703 35.1256 44.3595 35.22 44.3452L35.0638 43.3128ZM33.7711 43.5722C33.7964 43.5722 33.8178 43.5784 33.8329 43.586L33.3645 44.5191C33.4906 44.5824 33.6292 44.6163 33.7711 44.6163V43.5722ZM33.8275 43.5833C33.8317 43.5854 33.8295 43.5846 33.8197 43.5781C33.8103 43.5718 33.7976 43.5627 33.7808 43.5496L33.1401 44.374C33.1941 44.416 33.2751 44.4756 33.3699 44.5218L33.8275 43.5833ZM33.7787 43.548C33.8129 43.5743 33.8285 43.6112 33.8285 43.6457H32.7844C32.7844 43.9284 32.9139 44.2 33.1422 44.3756L33.7787 43.548ZM33.7509 43.7562C33.7067 43.775 33.647 43.7697 33.6018 43.7304L34.2881 42.9435C34.024 42.7131 33.6565 42.6616 33.3419 42.7956L33.7509 43.7562ZM33.7215 43.8088C33.6749 43.7867 33.648 43.742 33.648 43.6965H34.6921C34.6921 43.3331 34.4816 43.0134 34.1684 42.8651L33.7215 43.8088ZM33.648 43.6965C33.648 43.639 33.6955 43.5735 33.7779 43.5708L33.813 44.6143C34.3121 44.5975 34.6921 44.183 34.6921 43.6965H33.648ZM33.7309 43.5745C33.7345 43.574 33.7498 43.5722 33.7711 43.5722V44.6163C33.8095 44.6163 33.8411 44.6129 33.8599 44.6106L33.7309 43.5745ZM44.4977 43.5591C44.5451 43.5591 44.5899 43.5836 44.6143 43.6234L43.7248 44.1702C43.8944 44.446 44.1901 44.6032 44.4977 44.6032V43.5591ZM44.6119 43.6195C44.644 43.6706 44.6344 43.738 44.5852 43.7784L43.9225 42.9715C43.5641 43.2658 43.4814 43.7819 43.7272 44.1741L44.6119 43.6195ZM44.5883 43.7758L44.6399 43.7328L43.9709 42.9311L43.9193 42.9742L44.5883 43.7758ZM44.4447 43.6143C44.4447 43.6019 44.446 43.5939 44.4467 43.5902C44.4475 43.5864 44.4484 43.584 44.449 43.5823C44.4496 43.5807 44.451 43.5776 44.4539 43.573C44.4568 43.5684 44.4628 43.5597 44.4737 43.5485L45.2197 44.2791C45.3924 44.1028 45.4888 43.8495 45.4888 43.6143H44.4447ZM44.4845 43.5379C44.4795 43.5427 44.4753 43.5466 44.4723 43.5494C44.4708 43.5507 44.4706 43.5509 44.4714 43.5502C44.4718 43.5498 44.4754 43.5467 44.4815 43.5421L45.118 44.3697C45.159 44.3382 45.1988 44.2996 45.2089 44.2898L44.4845 43.5379ZM44.4811 43.5424C44.4525 43.5644 44.4457 43.5675 44.4383 43.5711L44.8967 44.5093C44.9846 44.4663 45.0517 44.4209 45.1185 44.3694L44.4811 43.5424ZM44.4307 43.5749C44.4509 43.5646 44.4743 43.5591 44.4977 43.5591V44.6032C44.6353 44.6032 44.7746 44.5715 44.9042 44.5055L44.4307 43.5749ZM28.8067 27.1204C27.23 27.2071 26.0924 26.7147 25.0947 26.235C24.6084 26.0012 24.1075 25.7453 23.6286 25.5982C23.1297 25.4449 22.5985 25.3897 22.0402 25.5925L22.3966 26.5739C22.6736 26.4733 22.9588 26.4847 23.3219 26.5963C23.7049 26.7139 24.1115 26.9209 24.6423 27.1761C25.6789 27.6744 27.0146 28.2647 28.864 28.163L28.8067 27.1204ZM22.2184 26.0832C22.6282 26.4066 22.6281 26.4068 22.628 26.4069C22.628 26.4069 22.6279 26.407 22.6278 26.4071C22.6277 26.4073 22.6276 26.4074 22.6275 26.4075C22.6273 26.4077 22.6272 26.4079 22.6272 26.4079C22.627 26.4081 22.6271 26.408 22.6274 26.4076C22.628 26.4069 22.6294 26.4052 22.6316 26.4025C22.636 26.3972 22.6436 26.3881 22.6543 26.3758C22.6756 26.3513 22.7086 26.3145 22.7519 26.2701C22.8393 26.1805 22.9636 26.0652 23.1124 25.9585C23.4266 25.7334 23.756 25.6117 24.0585 25.6867L24.3098 24.6733C23.5646 24.4885 22.9111 24.8184 22.5043 25.1098C22.2927 25.2614 22.122 25.4206 22.0046 25.5409C21.9454 25.6015 21.8986 25.6536 21.8656 25.6916C21.849 25.7106 21.8359 25.7262 21.8264 25.7378C21.8216 25.7436 21.8177 25.7483 21.8148 25.752C21.8133 25.7539 21.812 25.7554 21.811 25.7567C21.8105 25.7573 21.81 25.7579 21.8097 25.7584C21.8095 25.7587 21.8093 25.7589 21.8091 25.7591C21.809 25.7592 21.8089 25.7594 21.8089 25.7594C21.8087 25.7596 21.8086 25.7597 22.2184 26.0832ZM24.0572 25.6864C24.7213 25.8528 25.1255 26.1603 25.8382 26.5269C26.5326 26.8841 27.3681 27.195 28.6871 27.2119L28.7004 26.1678C27.5705 26.1534 26.8931 25.8953 26.3158 25.5984C25.7569 25.3109 25.1307 24.879 24.3111 24.6736L24.0572 25.6864ZM28.687 27.2119C31.2996 27.2455 32.737 26.0505 33.1961 25.7969L32.6912 24.8829C32.1096 25.2042 30.9669 26.197 28.7005 26.1678L28.687 27.2119ZM33.3166 24.9746C32.8998 24.8197 32.511 25.0477 32.5073 25.0533C32.506 25.0552 32.5043 25.0579 32.5037 25.0587C32.5029 25.06 32.5022 25.0611 32.5022 25.0611C32.5015 25.0622 32.502 25.0615 32.5016 25.0622C32.5013 25.0625 32.5009 25.0632 32.5002 25.0643C32.4989 25.0664 32.4963 25.0703 32.4926 25.076C32.485 25.0874 32.4725 25.1059 32.455 25.1307C32.4199 25.1802 32.3649 25.2544 32.2898 25.3455C32.1392 25.528 31.91 25.7759 31.6012 26.0286C30.9845 26.5332 30.0598 27.0506 28.8063 27.1205L28.8644 28.163C30.3906 28.0779 31.5198 27.4443 32.2624 26.8366C32.6332 26.5332 32.9098 26.2347 33.0953 26.0099C33.1882 25.8973 33.2587 25.8025 33.3071 25.7341C33.3314 25.6998 33.3501 25.6721 33.3634 25.652C33.3701 25.6419 33.3754 25.6338 33.3792 25.6278C33.3812 25.6248 33.3827 25.6224 33.3837 25.6207C33.3839 25.6204 33.3849 25.6188 33.3846 25.6194C33.3846 25.6194 33.3844 25.6197 33.3843 25.6198C33.3842 25.62 33.3837 25.6208 33.3834 25.6212C33.3829 25.622 33.3812 25.6247 33.38 25.6265C33.3763 25.6321 32.9875 25.8601 32.5707 25.7052L33.3166 24.9746ZM47.9255 28.163C49.7749 28.2646 51.1106 27.6744 52.1473 27.1761C52.6781 26.9209 53.0848 26.7139 53.4678 26.5963C53.831 26.4847 54.1164 26.4733 54.3935 26.5739L54.7498 25.5924C54.1914 25.3897 53.6602 25.4449 53.1613 25.5982C52.6822 25.7453 52.1813 26.0012 51.6949 26.235C50.6971 26.7147 49.5596 27.2071 47.9828 27.1204L47.9255 28.163ZM54.5717 26.0831C54.9817 25.7599 54.9815 25.7598 54.9814 25.7596C54.9814 25.7596 54.9813 25.7594 54.9812 25.7593C54.981 25.7591 54.9808 25.7589 54.9806 25.7586C54.9802 25.7581 54.9798 25.7576 54.9793 25.7569C54.9783 25.7556 54.977 25.7541 54.9755 25.7522C54.9726 25.7485 54.9687 25.7438 54.9639 25.738C54.9544 25.7264 54.9413 25.7108 54.9247 25.6917C54.8918 25.6537 54.8449 25.6017 54.7858 25.541C54.6684 25.4206 54.4977 25.2614 54.2861 25.1098C53.879 24.8181 53.2254 24.4886 52.4795 24.6732L52.7302 25.6867C53.0342 25.6115 53.3641 25.7336 53.6779 25.9585C53.8267 26.0651 53.9509 26.1804 54.0383 26.27C54.0815 26.3143 54.1145 26.3511 54.1357 26.3756C54.1463 26.3878 54.1539 26.3969 54.1584 26.4023C54.1606 26.405 54.162 26.4067 54.1625 26.4074C54.1628 26.4078 54.1629 26.4079 54.1628 26.4077C54.1627 26.4076 54.1626 26.4074 54.1624 26.4072C54.1623 26.4071 54.1622 26.407 54.1621 26.4069C54.162 26.4068 54.1619 26.4067 54.1619 26.4066C54.1618 26.4065 54.1617 26.4064 54.5717 26.0831ZM52.4778 24.6736C51.6589 24.879 51.0323 25.3108 50.4731 25.5983C49.8954 25.8953 49.2178 26.1534 48.0889 26.1678L48.1022 27.2118C49.4202 27.195 50.2559 26.8841 50.9505 26.5269C51.6636 26.1603 52.0682 25.8528 52.7319 25.6863L52.4778 24.6736ZM48.0888 26.1678C45.8236 26.197 44.6799 25.2041 44.0995 24.883L43.5941 25.7967C44.0529 26.0505 45.4908 27.2455 48.1023 27.2118L48.0888 26.1678ZM44.3689 25.3399C43.9947 25.8406 43.4072 25.6214 43.4058 25.6193C43.4054 25.6186 43.4048 25.6177 43.4047 25.6174C43.4046 25.6173 43.4044 25.617 43.4046 25.6174C43.4049 25.6179 43.4054 25.6186 43.406 25.6196C43.4072 25.6215 43.4088 25.624 43.4108 25.6271C43.4147 25.6333 43.42 25.6415 43.4267 25.6516C43.44 25.6717 43.4588 25.6995 43.483 25.7338C43.5314 25.8023 43.6019 25.897 43.6947 26.0097C43.88 26.2345 44.1564 26.5331 44.5271 26.8365C45.2694 27.4443 46.3985 28.0779 47.9251 28.163L47.9832 27.1204C46.7293 27.0506 45.8047 26.5331 45.1885 26.0286C44.8799 25.776 44.6509 25.5282 44.5005 25.3457C44.4255 25.2546 44.3705 25.1805 44.3355 25.131C44.3181 25.1062 44.3056 25.0877 44.2981 25.0764C44.2944 25.0708 44.2919 25.0669 44.2906 25.0649C44.29 25.0639 44.2897 25.0634 44.2896 25.0632C44.2895 25.0632 44.2895 25.0632 44.2895 25.0631C44.2895 25.0631 44.2894 25.063 44.2894 25.063C44.2894 25.0629 44.2892 25.0627 44.2891 25.0625C44.2889 25.0622 44.2883 25.0612 44.2879 25.0605C44.2865 25.0584 43.6989 24.8392 43.3248 25.3399H44.3689ZM38.9085 36.7665C38.3768 36.7665 37.8426 36.5566 37.4117 36.3153C37.2008 36.1972 37.0251 36.0774 36.9 35.9852C36.8376 35.9392 36.7884 35.9005 36.7542 35.8728C36.7371 35.8589 36.7239 35.8479 36.7147 35.8402C36.7102 35.8363 36.7066 35.8333 36.7042 35.8312C36.7017 35.829 36.7005 35.828 36.7006 35.8281L36.0099 36.6111C36.0523 36.6485 36.3917 36.9407 36.9016 37.2263C37.4052 37.5083 38.1224 37.8106 38.9085 37.8106V36.7665ZM36.6982 35.826C36.7529 35.8736 36.7535 35.9477 36.7141 35.9949L35.9117 35.3268C35.5944 35.7079 35.6314 36.2814 36.0123 36.6132L36.6982 35.826ZM36.7117 35.9978C36.6648 36.0533 36.5769 36.0623 36.5185 36.0117L37.2026 35.2229C36.8187 34.8899 36.2405 34.9376 35.9141 35.324L36.7117 35.9978ZM36.5286 36.0202C36.5234 36.016 36.5492 36.0377 36.5841 36.0656C36.62 36.0943 36.6705 36.1335 36.7335 36.1797C36.8592 36.2717 37.037 36.3932 37.2511 36.5147C37.6668 36.7506 38.2753 37.0192 38.9268 37.0172L38.9235 35.973C38.5403 35.9742 38.1218 35.8083 37.7665 35.6066C37.4221 35.4112 37.1933 35.215 37.1925 35.2144L36.5286 36.0202ZM38.93 37.0171C40.4392 37.0033 41.263 35.9341 41.2974 35.8879L40.4602 35.264C40.4816 35.2353 39.9252 35.9638 38.9204 35.973L38.93 37.0171ZM41.2958 35.8901C41.252 35.9483 41.1641 35.9618 41.1031 35.9144L41.7442 35.0902C41.3436 34.7786 40.7677 34.8559 40.4618 35.2619L41.2958 35.8901ZM41.1007 35.9125C41.0466 35.8699 41.0392 35.7972 41.0778 35.7457L41.9131 36.3722C42.2126 35.9729 42.141 35.4025 41.7466 35.0921L41.1007 35.9125ZM41.0798 35.743C41.065 35.7626 40.3053 36.7534 38.9273 36.7663L38.9371 37.8104C40.824 37.7927 41.8513 36.4535 41.9111 36.3749L41.0798 35.743ZM38.9195 36.7665C38.9198 36.7665 38.9191 36.7665 38.9171 36.7665C38.9149 36.7665 38.9124 36.7665 38.9085 36.7665V37.8106C38.9154 37.8106 38.9298 37.8107 38.9449 37.8103L38.9195 36.7665ZM60.4158 21.4099H58.3957V22.4541H60.4158V21.4099ZM58.3957 21.4099C58.4802 21.4099 58.5294 21.4769 58.5294 21.5351H57.4853C57.4853 22.0316 57.8819 22.4541 58.3957 22.4541V21.4099ZM58.5294 21.5351V19.6343H57.4853V21.5351H58.5294ZM58.5294 19.6343C58.5294 19.6933 58.4802 19.7598 58.3957 19.7598V18.7157C57.8819 18.7157 57.4853 19.1385 57.4853 19.6343H58.5294ZM58.3957 19.7598H60.4158V18.7157H58.3957V19.7598ZM60.4158 19.7598C60.3313 19.7598 60.2822 19.6936 60.2822 19.6343H61.3263C61.3263 19.1382 60.929 18.7157 60.4158 18.7157V19.7598ZM60.2822 19.6343V21.5351H61.3263V19.6343H60.2822ZM60.2822 21.5346C60.2822 21.4769 60.3311 21.4099 60.4158 21.4099V22.4541C60.9292 22.4541 61.3259 22.032 61.3263 21.5355L60.2822 21.5346ZM58.7845 21.6608H60.0274V20.6166H58.7845V21.6608ZM60.5495 21.1387V20.0313H59.5054V21.1387H60.5495ZM60.0274 19.5092H58.7845V20.5533H60.0274V19.5092ZM58.2625 20.0313V21.1387H59.3066V20.0313H58.2625ZM74.7892 23.4478H60.4157V24.492H74.7892V23.4478ZM60.4157 23.4478C60.5002 23.4478 60.5494 23.5145 60.5494 23.573H59.5052C59.5052 24.0699 59.9025 24.492 60.4157 24.492V23.4478ZM60.5494 23.573V17.5968H59.5052V23.573H60.5494ZM60.5494 17.5968C60.5494 17.6566 60.4989 17.7227 60.4157 17.7227V16.6786C59.9038 16.6786 59.5052 17.0985 59.5052 17.5968H60.5494ZM60.4157 17.7227H74.7892V16.6786H60.4157V17.7227ZM74.7892 17.7227C74.706 17.7227 74.6555 17.6566 74.6555 17.5968H75.6996C75.6996 17.0985 75.301 16.6786 74.7892 16.6786V17.7227ZM74.6555 17.5968C74.6555 17.5383 74.7047 17.4717 74.7892 17.4717V18.5158C75.3023 18.5158 75.6996 18.0937 75.6996 17.5968H74.6555ZM74.7892 17.4717H60.8041V18.5158H74.7892V17.4717ZM60.282 17.9937V23.1766H61.3262V17.9937H60.282ZM60.8041 23.6987H74.7892V22.6545H60.8041V23.6987ZM74.7892 23.6987C74.7056 23.6987 74.6555 23.6324 74.6555 23.573H75.6996C75.6996 23.0751 75.3014 22.6545 74.7892 22.6545V23.6987ZM74.6555 23.573C74.6555 23.5144 74.7047 23.4478 74.7892 23.4478V24.492C75.3023 24.492 75.6996 24.0699 75.6996 23.573H74.6555ZM58.2664 20.4599H49.7589V21.5041H58.2664V20.4599ZM49.7589 20.4599C49.8429 20.4599 49.8922 20.5259 49.8922 20.5851H48.8481C48.8481 21.0823 49.2463 21.5041 49.7589 21.5041V20.4599ZM49.8922 20.5851C49.8922 20.6448 49.8423 20.7106 49.7589 20.7106V19.6665C49.2465 19.6665 48.8481 20.0874 48.8481 20.5851H49.8922ZM49.7589 20.7106H58.2664V19.6665H49.7589V20.7106ZM58.2664 20.7106C58.1829 20.7106 58.1331 20.6446 58.1331 20.5851H59.1772C59.1772 20.0879 58.7793 19.6665 58.2664 19.6665V20.7106ZM58.1331 20.5851C58.1331 20.5262 58.1823 20.4599 58.2664 20.4599V21.5041C58.7799 21.5041 59.1772 21.0816 59.1772 20.5851H58.1331ZM63.4714 23.4467C63.5563 23.4467 63.6056 23.5147 63.6056 23.5718H62.5615C62.5615 24.0685 62.957 24.4908 63.4714 24.4908V23.4467ZM63.6056 23.5718V20.3996H62.5615V23.5718H63.6056ZM63.6056 20.3996C63.6056 20.4577 63.5558 20.5253 63.4714 20.5253V19.4812C62.9575 19.4812 62.5615 19.903 62.5615 20.3996H63.6056ZM63.4714 20.5253C63.3893 20.5253 63.3384 20.4596 63.3384 20.3996H64.3826C64.3826 19.9012 63.984 19.4812 63.4714 19.4812V20.5253ZM63.3384 20.3996V23.5718H64.3826V20.3996H63.3384ZM63.3384 23.5723C63.3384 23.5126 63.3892 23.4467 63.4714 23.4467V24.4908C63.9841 24.4908 64.383 24.0706 64.3826 23.5714L63.3384 23.5723ZM66.9936 23.4467C67.077 23.4467 67.1269 23.5131 67.1269 23.5718H66.0828C66.0828 24.0701 66.4809 24.4908 66.9936 24.4908V23.4467ZM67.1269 23.5718V20.3996H66.0828V23.5718H67.1269ZM67.1269 20.3996C67.1269 20.4594 67.0765 20.5253 66.9936 20.5253V19.4812C66.4814 19.4812 66.0828 19.9013 66.0828 20.3996H67.1269ZM66.9936 20.5253C66.9098 20.5253 66.8598 20.4584 66.8598 20.3996H67.9039C67.9039 19.9023 67.5068 19.4812 66.9936 19.4812V20.5253ZM66.8598 20.3996V23.5718H67.9039V20.3996H66.8598ZM66.8598 23.5718C66.8598 23.5141 66.9093 23.4467 66.9936 23.4467V24.4908C67.5073 24.4908 67.9039 24.0691 67.9039 23.5718H66.8598ZM70.5153 23.4467C70.5994 23.4467 70.649 23.5131 70.649 23.5718H69.6049C69.6049 24.0701 70.0033 24.4908 70.5153 24.4908V23.4467ZM70.649 23.5718V20.3996H69.6049V23.5718H70.649ZM70.649 20.3996C70.649 20.4592 70.5989 20.5253 70.5153 20.5253V19.4812C70.0035 19.4812 69.6049 19.9015 69.6049 20.3996H70.649ZM70.5153 20.5253C70.4325 20.5253 70.382 20.4594 70.382 20.3996H71.4262C71.4262 19.9013 71.0276 19.4812 70.5153 19.4812V20.5253ZM70.382 20.3996V23.5718H71.4262V20.3996H70.382ZM70.382 23.5718C70.382 23.5131 70.432 23.4467 70.5153 23.4467V24.4908C71.0281 24.4908 71.4262 24.0701 71.4262 23.5718H70.382ZM21.8801 20.0099C21.9327 20.0099 21.9798 20.0393 22.0015 20.0838L21.0628 20.541C21.2203 20.8644 21.5431 21.0541 21.8801 21.0541V20.0099ZM22.0012 20.0832C22.0281 20.1382 22.0105 20.2115 21.9436 20.2456L21.4692 19.3155C21.0181 19.5456 20.845 20.0955 21.0631 20.5416L22.0012 20.0832ZM21.9445 20.2451C22.1346 20.1477 22.3515 20.0208 22.577 19.8897L22.052 18.9871C21.8168 19.1239 21.6278 19.2342 21.4682 19.316L21.9445 20.2451ZM22.577 19.8896C23.4244 19.3966 24.6245 18.7026 26.0474 18.4602L25.8721 17.4309C24.2402 17.7089 22.8906 18.4992 22.0519 18.9872L22.577 19.8896ZM26.0466 18.4604C26.439 18.3942 27.0947 18.4348 27.9172 18.5628C28.7219 18.688 29.6282 18.8867 30.491 19.1003C32.2158 19.5272 33.7339 20.0049 33.8531 20.0428L34.1703 19.048C34.0404 19.0066 32.498 18.5214 30.7419 18.0868C29.8643 17.8695 28.925 17.6629 28.0778 17.5311C27.2484 17.402 26.446 17.3341 25.8729 17.4308L26.0466 18.4604ZM33.8556 20.0436C33.7786 20.0195 33.7509 19.9453 33.7682 19.8886L34.767 20.1928C34.9116 19.7182 34.6549 19.1998 34.1677 19.0472L33.8556 20.0436ZM33.7679 19.8894C33.7845 19.8346 33.855 19.7764 33.9454 19.8063L33.6175 20.7976C34.1179 20.9632 34.6241 20.6648 34.7673 20.192L33.7679 19.8894ZM33.9389 19.8042C33.1061 19.5407 31.5336 19.081 29.9822 18.7178C29.2068 18.5362 28.4287 18.3769 27.7469 18.2788C27.0826 18.1832 26.4511 18.1362 25.999 18.2137L26.1754 19.2428C26.4518 19.1955 26.9405 19.2176 27.5982 19.3123C28.2383 19.4044 28.984 19.5564 29.7442 19.7344C31.264 20.0902 32.8102 20.5422 33.6239 20.7997L33.9389 19.8042ZM25.9996 18.2136C24.5043 18.4684 23.274 19.1894 22.4366 19.6766L22.9617 20.5791C23.8104 20.0853 24.8897 19.4619 26.1749 19.2429L25.9996 18.2136ZM22.4369 19.6765C22.1888 19.8206 21.9865 19.938 21.816 20.0251L22.2915 20.9547C22.4922 20.8521 22.7211 20.7189 22.9615 20.5792L22.4369 19.6765ZM21.8126 20.0269C21.8363 20.0146 21.8604 20.0099 21.8801 20.0099V21.0541C22.017 21.0541 22.1599 21.0233 22.2949 20.953L21.8126 20.0269ZM54.7703 19.8514C54.7926 19.8514 54.8156 19.8566 54.8364 19.8673L54.3579 20.7954C54.4897 20.8633 54.6315 20.8955 54.7703 20.8955V19.8514ZM54.8346 19.8664C54.6645 19.7796 54.4611 19.6622 54.2157 19.5185L53.6879 20.4194C53.9301 20.5613 54.1587 20.6937 54.3598 20.7963L54.8346 19.8664ZM54.2143 19.5177C53.3772 19.0306 52.1464 18.3095 50.6508 18.0554L50.4759 19.0848C51.7612 19.3032 52.841 19.9266 53.6892 20.4201L54.2143 19.5177ZM50.6522 18.0556C50.1996 17.9775 49.5679 18.0241 48.9034 18.1196C48.2215 18.2176 47.4433 18.3769 46.668 18.5585C45.1167 18.9218 43.5444 19.382 42.7116 19.6457L43.0267 20.6411C43.8406 20.3834 45.3865 19.931 46.9061 19.5751C47.6663 19.3971 48.4118 19.2451 49.0519 19.1531C49.7095 19.0586 50.1981 19.0368 50.4745 19.0845L50.6522 18.0556ZM42.7071 19.6471C42.7944 19.6186 42.8652 19.6732 42.8826 19.7308L41.8833 20.0334C42.0273 20.509 42.5353 20.8016 43.0312 20.6397L42.7071 19.6471ZM42.8826 19.7308C42.8995 19.7867 42.8731 19.8599 42.7955 19.8842L42.4829 18.888C41.9961 19.0408 41.7398 19.5596 41.8833 20.0334L42.8826 19.7308ZM42.7978 19.8835C42.9168 19.8456 44.4342 19.3678 46.1585 18.9409C47.0212 18.7273 47.9274 18.5286 48.7321 18.4036C49.5547 18.2757 50.2107 18.2354 50.6036 18.3019L50.778 17.2725C50.2041 17.1752 49.4013 17.2429 48.5718 17.3718C47.7244 17.5035 46.7851 17.7101 45.9076 17.9273C44.1518 18.362 42.6101 18.8474 42.4807 18.8887L42.7978 19.8835ZM50.6033 18.3019C52.0267 18.5438 53.2265 19.2378 54.074 19.7312L54.5993 18.8288C53.7603 18.3404 52.4109 17.5501 50.7783 17.2725L50.6033 18.3019ZM54.0736 19.731C54.2994 19.8627 54.5165 19.9897 54.7066 20.087L55.1821 19.1574C55.0234 19.0762 54.8344 18.966 54.5997 18.8291L54.0736 19.731ZM54.7074 20.0873C54.6414 20.0537 54.6221 19.9799 54.6501 19.9231L55.5868 20.3845C55.8074 19.9366 55.6319 19.3865 55.1814 19.157L54.7074 20.0873ZM54.6488 19.9257C54.6708 19.8805 54.7184 19.8514 54.7703 19.8514V20.8955C55.1072 20.8955 55.4306 20.7061 55.588 20.3819L54.6488 19.9257Z" fill="#C08E71" mask="url(#path-2-inside-1_60_56)"/>
</svg>
