<svg width="144" height="113" viewBox="0 0 144 113" fill="none" xmlns="http://www.w3.org/2000/svg">
<circle cx="53" cy="59.6719" r="53" fill="#EBD1B9"/>
<mask id="path-2-inside-1_944_6" fill="white">
<path d="M74.7427 106.672C73.247 106.672 71.6641 106.357 69.7522 105.68C68.0883 105.09 66.3865 104.311 64.5484 103.3C62.9397 102.416 61.2851 101.403 59.6333 100.291C58.1536 99.2894 56.8231 98.3378 55.5659 97.3779C54.4985 96.5621 53.4645 95.7535 52.5193 94.8124C51.5202 93.8184 50.6909 92.7108 49.8894 91.6416C48.8348 90.2353 47.8587 88.7564 46.9875 87.2481C45.8991 85.3617 44.8712 83.2771 43.8471 80.8717C42.7722 78.3479 41.7294 75.5531 40.5663 72.0764C39.3941 68.5684 38.3274 65.0535 37.2464 61.4614L37.1156 61.036C37.0367 60.7863 36.9589 60.5348 36.8882 60.2826C36.0646 59.2505 33.3059 54.9397 32.3345 51.5976C31.9471 50.2541 31.6137 48.6329 31.3712 46.9065C31.3122 46.4906 31.5952 46.1059 32.0011 46.0468C32.4092 45.9854 32.7841 46.2743 32.8431 46.6899C33.0774 48.3448 33.3945 49.8926 33.7616 51.1654C34.7597 54.6044 37.7658 59.0327 38.0789 59.3713L38.2083 59.5096L38.279 59.7168C38.354 60.0032 38.4432 60.2895 38.5325 60.574L38.6693 61.0153C39.7463 64.5955 40.8095 68.098 41.9739 71.5853C43.1238 75.0225 44.1524 77.7793 45.2103 80.2656C46.2119 82.6122 47.2118 84.6439 48.2685 86.4748C49.1099 87.9315 50.0515 89.3592 51.0705 90.7166C51.8404 91.7443 52.6356 92.8066 53.5573 93.724C54.4384 94.6005 55.4315 95.3764 56.4559 96.1603C57.6908 97.1021 58.9978 98.0377 60.454 99.0219C62.0667 100.11 63.6822 101.099 65.2529 101.962C67.0202 102.934 68.651 103.681 70.2395 104.244C71.9883 104.863 73.4179 105.152 74.7366 105.152C83.4401 105.073 94.6698 95.4018 96.3731 93.6253L96.6216 93.3666C97.1014 92.8683 97.6069 92.3442 98.1358 91.7414C101.467 88.0132 107.359 75.1303 111.727 58.5889L111.783 58.3784L111.939 58.2303C112.242 57.9425 112.551 57.6017 112.881 57.1884C113.041 56.9365 114.777 53.9116 115.908 50.8547C116.262 49.901 116.522 49.0303 116.682 48.27C116.769 47.8607 117.167 47.6019 117.567 47.6883C117.968 47.7765 118.224 48.1804 118.138 48.5912C117.96 49.4245 117.679 50.3662 117.301 51.3904C116.097 54.6439 114.202 57.9345 114.04 58.1428C113.715 58.546 113.411 58.8894 113.109 59.1902C108.684 75.863 102.67 88.9205 99.2405 92.7601C98.6974 93.3767 98.1774 93.9175 97.6837 94.431L97.4352 94.6883C97.3222 94.8077 85.0208 106.579 74.7427 106.672Z"/>
<path d="M32.3544 64.2965C32.0868 64.2965 31.8273 64.1484 31.6947 63.8893C27.8424 56.374 28.303 49.8219 33.1012 43.8602C35.4621 40.9166 38.7781 38.1559 43.8532 34.9092C55.1198 27.6646 64.1237 16.2988 70.6145 1.12916C70.778 0.743374 71.2184 0.566643 71.5948 0.736489C71.9706 0.904157 72.143 1.35235 71.9787 1.73668C65.366 17.1915 56.1695 28.7846 44.644 36.1961C39.7111 39.3509 36.5064 42.0119 34.2507 44.8241C29.8748 50.2632 29.4692 56.2684 33.0131 63.1838C33.2036 63.5558 33.0628 64.0149 32.6992 64.209C32.5887 64.2693 32.4703 64.2965 32.3544 64.2965Z"/>
<path d="M100.088 37.012C100.008 37.012 99.9269 36.9996 99.848 36.9709C97.3823 36.1126 94.2174 34.9176 91.5984 33.2725C80.7707 26.4663 72.3356 13.7968 70.6078 1.74759C70.5484 1.33278 70.8299 0.94698 71.2362 0.886373C71.6343 0.827943 72.0203 1.11211 72.0797 1.52874C73.7489 13.1574 81.9057 25.3939 92.3779 31.9776C94.8714 33.5436 97.9364 34.7002 100.328 35.5342C100.718 35.6684 100.925 36.1007 100.792 36.4977C100.687 36.8131 100.398 37.012 100.088 37.012Z"/>
<path d="M115.693 81.3148C115.486 81.3148 115.28 81.2274 115.132 81.055C114.862 80.7407 114.893 80.2598 115.203 79.9833C122.197 73.736 126.932 60.5839 122.831 50.9629C122.667 50.5786 122.84 50.13 123.216 49.9627C123.596 49.7965 124.032 49.9718 124.196 50.3561C128.556 60.5868 123.572 74.5257 116.183 81.1261C116.042 81.2531 115.867 81.3148 115.693 81.3148Z"/>
<path d="M34.8835 80.0994C34.806 80.0994 34.7278 80.0864 34.6499 80.0613C22.9258 76.1139 16.2544 61.8777 20.0822 48.9723C21.6494 43.685 24.6405 38.0354 28.9709 32.1779C32.1977 27.8142 36.1634 24.1353 40.0002 20.5765C41.5339 19.155 43.1196 17.6844 44.6348 16.1907C44.9309 15.8993 45.4033 15.909 45.6873 16.2099C45.9727 16.5115 45.9646 16.9934 45.6688 17.2852C44.1365 18.7935 42.5416 20.272 41.0014 21.7016C37.2152 25.2132 33.3007 28.8434 30.1588 33.0943C25.934 38.8077 23.0232 44.2987 21.5051 49.414C17.9065 61.5485 24.139 74.9228 35.1163 78.618C35.5069 78.7501 35.7188 79.1791 35.5908 79.5772C35.4867 79.8976 35.1966 80.0994 34.8835 80.0994Z"/>
<path d="M108.59 27.5125C108.552 27.5125 108.515 27.5086 108.477 27.5028C103.1 26.6688 97.6881 24.5744 93.6285 21.7599C86.5956 16.8812 84.0236 9.96473 81.6069 2.0876C81.4842 1.68657 81.7029 1.26051 82.0956 1.13494C82.4927 1.00973 82.9046 1.23366 83.0276 1.63251C85.3586 9.23383 87.829 15.8988 94.4645 20.5017C98.3464 23.1949 103.535 25.1997 108.7 26.0017C109.107 26.0645 109.386 26.4521 109.324 26.8651C109.268 27.2422 108.951 27.5125 108.59 27.5125Z"/>
<path d="M74.7079 92.8773C72.3417 92.8773 70.3647 92.2324 68.2985 90.7833C65.96 89.1124 63.886 84.6384 63.8661 84.593C63.8202 84.4936 63.7971 84.3843 63.7971 84.274C63.7971 83.9673 63.9777 83.6839 64.2567 83.5656C64.5364 83.4487 64.8556 83.5079 65.0667 83.7249L65.2225 83.828C67.4063 85.2306 72.0293 86.6609 74.6415 86.7611C74.7858 86.7741 74.8817 86.7723 74.9702 86.7723C75.0723 86.7738 75.1622 86.7738 75.2671 86.7632C77.8565 86.6144 82.8445 85.1591 84.7998 83.73L84.8652 83.673C85.0803 83.4643 85.403 83.4019 85.6767 83.5235C85.9483 83.6443 86.132 83.9107 86.132 84.2137C86.132 84.3549 86.0865 84.5106 86.0123 84.6398C85.7531 85.1951 83.8351 89.1966 81.6466 90.7564C79.5527 92.2237 77.5743 92.8759 75.2244 92.8759L74.9543 92.8737L74.7079 92.8773ZM66.3993 86.1499C67.1611 87.41 68.1695 88.837 69.1455 89.5356C70.9679 90.8116 72.6328 91.3582 74.7079 91.3582L74.9539 91.3553L75.2241 91.3574C77.2814 91.3574 78.9484 90.804 80.7993 89.5073C81.7728 88.8123 82.7674 87.3976 83.5177 86.1427C80.9581 87.2771 77.4971 88.1576 75.3808 88.2773C75.1249 88.3031 74.8185 88.3071 74.532 88.2752C72.3485 88.1928 68.9106 87.2604 66.3993 86.1499Z"/>
<path d="M74.9696 88.2926C74.8246 88.2926 74.6774 88.2912 74.5324 88.2759C71.7187 88.1689 66.8234 86.653 64.5109 85.1599C64.4761 85.153 64.3733 85.0786 64.298 85.0238C64.2184 84.9745 64.1426 84.9182 64.0751 84.8576C63.698 84.588 63.425 84.2947 63.265 83.9888C63.1424 83.7547 63.1485 83.4724 63.2807 83.2444C63.414 83.0158 63.6535 82.8739 63.9123 82.8714C64.0456 82.8866 64.143 82.8997 64.2375 82.9421C64.8624 83.2147 65.949 83.2895 67.1028 83.1214C67.8386 83.0136 68.4841 82.8619 69.1076 82.7142C70.3737 82.4134 71.6003 82.1749 72.7665 82.4242C73.5958 82.5919 74.0497 82.8039 74.3806 82.9574C74.6372 83.0768 74.7659 83.1374 75.003 83.1519C75.1431 83.133 75.2721 83.0735 75.5259 82.9545C75.8554 82.8002 76.3093 82.5883 77.1542 82.4123C78.3094 82.1655 79.5449 82.4039 80.8117 82.703C81.432 82.8503 82.0732 83.0024 82.8037 83.1087C83.2004 83.1631 83.5914 83.19 83.9589 83.19C85.0985 83.19 85.6505 82.9211 85.6547 82.9182C85.9487 82.7723 86.3027 82.834 86.5274 83.0731C86.7513 83.313 86.8039 83.6709 86.6461 83.9608C86.4794 84.2686 86.2103 84.5622 85.8222 84.8601C85.788 84.8852 85.7528 84.9081 85.7151 84.9273C85.7098 84.9309 85.7038 84.9364 85.6995 84.9418C83.4243 86.6051 78.207 88.1177 75.3819 88.2788C75.2547 88.2908 75.1118 88.2926 74.9696 88.2926ZM66.8373 84.6841C69.2192 85.762 72.5653 86.6805 74.6415 86.7611C74.7858 86.7741 74.8817 86.7723 74.9702 86.7723C75.0676 86.7738 75.1615 86.7738 75.2671 86.7632C77.2821 86.6478 80.7471 85.7406 83.1079 84.6703C82.9398 84.6558 82.7703 84.637 82.5993 84.6148C81.7992 84.4972 81.0947 84.3292 80.4741 84.183C79.3142 83.9079 78.3488 83.7075 77.4563 83.8988C76.7735 84.0425 76.4394 84.1982 76.1454 84.3354C75.8376 84.4791 75.5198 84.6279 75.0126 84.6667C74.3988 84.6355 74.0753 84.4853 73.7621 84.3401C73.4682 84.2025 73.1351 84.0476 72.4669 83.9118C71.5431 83.713 70.6008 83.9195 69.4417 84.1942C68.8179 84.3415 68.1102 84.5078 67.3129 84.625C67.1522 84.6493 66.9937 84.6682 66.8373 84.6841Z"/>
<path d="M64.6871 85.1331C64.5755 85.1331 64.4632 85.1066 64.3569 85.0532C64.2699 85.0108 64.1799 84.9476 64.0921 84.8794C63.9062 84.7364 63.7971 84.5117 63.7971 84.274C63.7971 83.9673 63.9777 83.6839 64.2567 83.5656C64.5158 83.4553 64.8105 83.4996 65.0202 83.6825C65.2754 83.8033 65.4514 84.0668 65.4514 84.3713C65.4514 84.7821 65.1329 85.1164 64.7337 85.1298C64.7191 85.1316 64.7035 85.1331 64.6871 85.1331Z"/>
<path d="M85.2336 85.108C84.9844 85.108 84.7441 84.981 84.6052 84.7549C84.4004 84.4282 84.4704 83.9985 84.7665 83.7554L84.8652 83.673C85.0803 83.4643 85.403 83.4019 85.6767 83.5235C85.9483 83.6443 86.132 83.9107 86.132 84.2137C86.132 84.4148 86.0415 84.6452 85.9022 84.7875C85.8769 84.8118 85.8396 84.847 85.8123 84.8681C85.7209 84.9385 85.6502 84.985 85.5588 85.0296C85.454 85.0829 85.3431 85.108 85.2336 85.108Z"/>
<path d="M55.2329 53.6188C48.6703 53.9795 45.7581 49.4713 42.5583 50.6334C42.5583 50.6334 44.3167 48.4058 46.3236 48.9034C49.1658 49.6158 50.2709 51.7356 54.9617 51.7955C59.6344 51.8557 62.1055 49.7602 63.1022 49.2097C63.1018 49.2093 60.5572 53.3219 55.2329 53.6188Z"/>
<path d="M91.8544 53.6187C98.4171 53.9795 101.329 49.4713 104.53 50.6334C104.53 50.6334 102.774 48.4058 100.763 48.9033C97.9226 49.6158 96.8122 51.7356 92.1253 51.7954C87.4547 51.8557 84.9822 49.7602 83.9869 49.2096C83.9869 49.2093 86.5284 53.3219 91.8544 53.6187Z"/>
<path d="M74.5276 72.097C72.0036 72.097 69.7337 70.1347 69.637 70.0494C69.3246 69.7773 69.2898 69.2989 69.556 68.9792C69.8236 68.6624 70.2932 68.6253 70.6049 68.8957C70.6252 68.9124 72.5777 70.5833 74.5596 70.5771C76.9674 70.555 78.2894 68.8333 78.3018 68.8166C78.5527 68.4835 79.0202 68.4225 79.3454 68.6754C79.6713 68.932 79.7328 69.4085 79.483 69.7417C79.4115 69.8357 77.7 72.0673 74.5732 72.0967C74.5582 72.097 74.5426 72.097 74.5276 72.097Z"/>
<path d="M115.724 42.682H111.855C111.444 42.682 111.111 42.3415 111.111 41.9216V38.2808C111.111 37.8624 111.444 37.5212 111.855 37.5212H115.724C116.135 37.5212 116.468 37.8624 116.468 38.2808V41.9216C116.468 42.3419 116.135 42.682 115.724 42.682ZM112.6 41.1624H114.98V39.0412H112.6V41.1624Z"/>
<path d="M143.256 46.5855H115.724C115.314 46.5855 114.98 46.2451 114.98 45.8252V34.378C114.98 33.9581 115.314 33.6192 115.724 33.6192H143.256C143.667 33.6192 144 33.9581 144 34.378C144 34.7979 143.667 35.1383 143.256 35.1383H116.468V45.066H143.256C143.667 45.066 144 45.4053 144 45.8252C144 46.2451 143.667 46.5855 143.256 46.5855Z"/>
<path d="M111.607 40.8623H95.3113C94.9008 40.8623 94.5667 40.5215 94.5667 40.102C94.5667 39.6825 94.9005 39.3424 95.3113 39.3424H111.607C112.018 39.3424 112.352 39.6828 112.352 40.102C112.352 40.5212 112.018 40.8623 111.607 40.8623Z"/>
<path d="M121.577 46.5833C121.166 46.5833 120.834 46.244 120.834 45.823V39.7467C120.834 39.3268 121.166 38.9875 121.577 38.9875C121.989 38.9875 122.323 39.3268 122.323 39.7467V45.823C122.323 46.244 121.989 46.5833 121.577 46.5833Z"/>
<path d="M128.324 46.5833C127.913 46.5833 127.579 46.244 127.579 45.823V39.7467C127.579 39.3268 127.913 38.9875 128.324 38.9875C128.735 38.9875 129.068 39.3268 129.068 39.7467V45.823C129.068 46.244 128.735 46.5833 128.324 46.5833Z"/>
<path d="M135.07 46.5833C134.66 46.5833 134.326 46.244 134.326 45.823V39.7467C134.326 39.3268 134.659 38.9875 135.07 38.9875C135.481 38.9875 135.814 39.3268 135.814 39.7467V45.823C135.814 46.244 135.481 46.5833 135.07 46.5833Z"/>
<path d="M41.9102 40.0003C41.638 40.0003 41.3739 39.8468 41.2438 39.5797C41.0607 39.2051 41.2096 38.7486 41.5775 38.561C41.9124 38.3893 42.3012 38.1621 42.7423 37.9055C44.3571 36.966 46.7991 35.5444 49.7248 35.0461C53.4235 34.4219 64.671 37.9585 65.148 38.1106C65.5408 38.2336 65.7601 38.659 65.6382 39.0593C65.517 39.4596 65.0997 39.6896 64.7069 39.5597C61.553 38.5617 52.7596 36.067 49.969 36.5453C47.3059 36.999 45.094 38.2866 43.4792 39.2262C43.0114 39.498 42.5984 39.7379 42.2429 39.9197C42.1363 39.9753 42.0226 40.0003 41.9102 40.0003Z"/>
<path d="M104.911 39.6966C104.799 39.6966 104.685 39.6708 104.579 39.616C104.223 39.4345 103.81 39.1954 103.343 38.9217C101.729 37.9825 99.5155 36.6949 96.8522 36.2423C94.0598 35.76 85.2684 38.2572 82.1142 39.256C81.7229 39.3837 81.3041 39.1558 81.1829 38.7555C81.0617 38.3552 81.2818 37.9284 81.6738 37.8054C82.1498 37.6537 93.3926 34.1152 97.0964 34.7427C100.023 35.2403 102.465 36.6618 104.08 37.6022C104.521 37.8595 104.91 38.0866 105.244 38.2576C105.612 38.4452 105.762 38.9014 105.577 39.2759C105.448 39.543 105.184 39.6966 104.911 39.6966Z"/>
</mask>
<path d="M74.7427 106.672C73.247 106.672 71.6641 106.357 69.7522 105.68C68.0883 105.09 66.3865 104.311 64.5484 103.3C62.9397 102.416 61.2851 101.403 59.6333 100.291C58.1536 99.2894 56.8231 98.3378 55.5659 97.3779C54.4985 96.5621 53.4645 95.7535 52.5193 94.8124C51.5202 93.8184 50.6909 92.7108 49.8894 91.6416C48.8348 90.2353 47.8587 88.7564 46.9875 87.2481C45.8991 85.3617 44.8712 83.2771 43.8471 80.8717C42.7722 78.3479 41.7294 75.5531 40.5663 72.0764C39.3941 68.5684 38.3274 65.0535 37.2464 61.4614L37.1156 61.036C37.0367 60.7863 36.9589 60.5348 36.8882 60.2826C36.0646 59.2505 33.3059 54.9397 32.3345 51.5976C31.9471 50.2541 31.6137 48.6329 31.3712 46.9065C31.3122 46.4906 31.5952 46.1059 32.0011 46.0468C32.4092 45.9854 32.7841 46.2743 32.8431 46.6899C33.0774 48.3448 33.3945 49.8926 33.7616 51.1654C34.7597 54.6044 37.7658 59.0327 38.0789 59.3713L38.2083 59.5096L38.279 59.7168C38.354 60.0032 38.4432 60.2895 38.5325 60.574L38.6693 61.0153C39.7463 64.5955 40.8095 68.098 41.9739 71.5853C43.1238 75.0225 44.1524 77.7793 45.2103 80.2656C46.2119 82.6122 47.2118 84.6439 48.2685 86.4748C49.1099 87.9315 50.0515 89.3592 51.0705 90.7166C51.8404 91.7443 52.6356 92.8066 53.5573 93.724C54.4384 94.6005 55.4315 95.3764 56.4559 96.1603C57.6908 97.1021 58.9978 98.0377 60.454 99.0219C62.0667 100.11 63.6822 101.099 65.2529 101.962C67.0202 102.934 68.651 103.681 70.2395 104.244C71.9883 104.863 73.4179 105.152 74.7366 105.152C83.4401 105.073 94.6698 95.4018 96.3731 93.6253L96.6216 93.3666C97.1014 92.8683 97.6069 92.3442 98.1358 91.7414C101.467 88.0132 107.359 75.1303 111.727 58.5889L111.783 58.3784L111.939 58.2303C112.242 57.9425 112.551 57.6017 112.881 57.1884C113.041 56.9365 114.777 53.9116 115.908 50.8547C116.262 49.901 116.522 49.0303 116.682 48.27C116.769 47.8607 117.167 47.6019 117.567 47.6883C117.968 47.7765 118.224 48.1804 118.138 48.5912C117.96 49.4245 117.679 50.3662 117.301 51.3904C116.097 54.6439 114.202 57.9345 114.04 58.1428C113.715 58.546 113.411 58.8894 113.109 59.1902C108.684 75.863 102.67 88.9205 99.2405 92.7601C98.6974 93.3767 98.1774 93.9175 97.6837 94.431L97.4352 94.6883C97.3222 94.8077 85.0208 106.579 74.7427 106.672Z" fill="#C08E71"/>
<path d="M32.3544 64.2965C32.0868 64.2965 31.8273 64.1484 31.6947 63.8893C27.8424 56.374 28.303 49.8219 33.1012 43.8602C35.4621 40.9166 38.7781 38.1559 43.8532 34.9092C55.1198 27.6646 64.1237 16.2988 70.6145 1.12916C70.778 0.743374 71.2184 0.566643 71.5948 0.736489C71.9706 0.904157 72.143 1.35235 71.9787 1.73668C65.366 17.1915 56.1695 28.7846 44.644 36.1961C39.7111 39.3509 36.5064 42.0119 34.2507 44.8241C29.8748 50.2632 29.4692 56.2684 33.0131 63.1838C33.2036 63.5558 33.0628 64.0149 32.6992 64.209C32.5887 64.2693 32.4703 64.2965 32.3544 64.2965Z" fill="#C08E71"/>
<path d="M100.088 37.012C100.008 37.012 99.9269 36.9996 99.848 36.9709C97.3823 36.1126 94.2174 34.9176 91.5984 33.2725C80.7707 26.4663 72.3356 13.7968 70.6078 1.74759C70.5484 1.33278 70.8299 0.94698 71.2362 0.886373C71.6343 0.827943 72.0203 1.11211 72.0797 1.52874C73.7489 13.1574 81.9057 25.3939 92.3779 31.9776C94.8714 33.5436 97.9364 34.7002 100.328 35.5342C100.718 35.6684 100.925 36.1007 100.792 36.4977C100.687 36.8131 100.398 37.012 100.088 37.012Z" fill="#C08E71"/>
<path d="M115.693 81.3148C115.486 81.3148 115.28 81.2274 115.132 81.055C114.862 80.7407 114.893 80.2598 115.203 79.9833C122.197 73.736 126.932 60.5839 122.831 50.9629C122.667 50.5786 122.84 50.13 123.216 49.9627C123.596 49.7965 124.032 49.9718 124.196 50.3561C128.556 60.5868 123.572 74.5257 116.183 81.1261C116.042 81.2531 115.867 81.3148 115.693 81.3148Z" fill="#C08E71"/>
<path d="M34.8835 80.0994C34.806 80.0994 34.7278 80.0864 34.6499 80.0613C22.9258 76.1139 16.2544 61.8777 20.0822 48.9723C21.6494 43.685 24.6405 38.0354 28.9709 32.1779C32.1977 27.8142 36.1634 24.1353 40.0002 20.5765C41.5339 19.155 43.1196 17.6844 44.6348 16.1907C44.9309 15.8993 45.4033 15.909 45.6873 16.2099C45.9727 16.5115 45.9646 16.9934 45.6688 17.2852C44.1365 18.7935 42.5416 20.272 41.0014 21.7016C37.2152 25.2132 33.3007 28.8434 30.1588 33.0943C25.934 38.8077 23.0232 44.2987 21.5051 49.414C17.9065 61.5485 24.139 74.9228 35.1163 78.618C35.5069 78.7501 35.7188 79.1791 35.5908 79.5772C35.4867 79.8976 35.1966 80.0994 34.8835 80.0994Z" fill="#C08E71"/>
<path d="M108.59 27.5125C108.552 27.5125 108.515 27.5086 108.477 27.5028C103.1 26.6688 97.6881 24.5744 93.6285 21.7599C86.5956 16.8812 84.0236 9.96473 81.6069 2.0876C81.4842 1.68657 81.7029 1.26051 82.0956 1.13494C82.4927 1.00973 82.9046 1.23366 83.0276 1.63251C85.3586 9.23383 87.829 15.8988 94.4645 20.5017C98.3464 23.1949 103.535 25.1997 108.7 26.0017C109.107 26.0645 109.386 26.4521 109.324 26.8651C109.268 27.2422 108.951 27.5125 108.59 27.5125Z" fill="#C08E71"/>
<path d="M74.7079 92.8773C72.3417 92.8773 70.3647 92.2324 68.2985 90.7833C65.96 89.1124 63.886 84.6384 63.8661 84.593C63.8202 84.4936 63.7971 84.3843 63.7971 84.274C63.7971 83.9673 63.9777 83.6839 64.2567 83.5656C64.5364 83.4487 64.8556 83.5079 65.0667 83.7249L65.2225 83.828C67.4063 85.2306 72.0293 86.6609 74.6415 86.7611C74.7858 86.7741 74.8817 86.7723 74.9702 86.7723C75.0723 86.7738 75.1622 86.7738 75.2671 86.7632C77.8565 86.6144 82.8445 85.1591 84.7998 83.73L84.8652 83.673C85.0803 83.4643 85.403 83.4019 85.6767 83.5235C85.9483 83.6443 86.132 83.9107 86.132 84.2137C86.132 84.3549 86.0865 84.5106 86.0123 84.6398C85.7531 85.1951 83.8351 89.1966 81.6466 90.7564C79.5527 92.2237 77.5743 92.8759 75.2244 92.8759L74.9543 92.8737L74.7079 92.8773ZM66.3993 86.1499C67.1611 87.41 68.1695 88.837 69.1455 89.5356C70.9679 90.8116 72.6328 91.3582 74.7079 91.3582L74.9539 91.3553L75.2241 91.3574C77.2814 91.3574 78.9484 90.804 80.7993 89.5073C81.7728 88.8123 82.7674 87.3976 83.5177 86.1427C80.9581 87.2771 77.4971 88.1576 75.3808 88.2773C75.1249 88.3031 74.8185 88.3071 74.532 88.2752C72.3485 88.1928 68.9106 87.2604 66.3993 86.1499Z" fill="#C08E71"/>
<path d="M74.9696 88.2926C74.8246 88.2926 74.6774 88.2912 74.5324 88.2759C71.7187 88.1689 66.8234 86.653 64.5109 85.1599C64.4761 85.153 64.3733 85.0786 64.298 85.0238C64.2184 84.9745 64.1426 84.9182 64.0751 84.8576C63.698 84.588 63.425 84.2947 63.265 83.9888C63.1424 83.7547 63.1485 83.4724 63.2807 83.2444C63.414 83.0158 63.6535 82.8739 63.9123 82.8714C64.0456 82.8866 64.143 82.8997 64.2375 82.9421C64.8624 83.2147 65.949 83.2895 67.1028 83.1214C67.8386 83.0136 68.4841 82.8619 69.1076 82.7142C70.3737 82.4134 71.6003 82.1749 72.7665 82.4242C73.5958 82.5919 74.0497 82.8039 74.3806 82.9574C74.6372 83.0768 74.7659 83.1374 75.003 83.1519C75.1431 83.133 75.2721 83.0735 75.5259 82.9545C75.8554 82.8002 76.3093 82.5883 77.1542 82.4123C78.3094 82.1655 79.5449 82.4039 80.8117 82.703C81.432 82.8503 82.0732 83.0024 82.8037 83.1087C83.2004 83.1631 83.5914 83.19 83.9589 83.19C85.0985 83.19 85.6505 82.9211 85.6547 82.9182C85.9487 82.7723 86.3027 82.834 86.5274 83.0731C86.7513 83.313 86.8039 83.6709 86.6461 83.9608C86.4794 84.2686 86.2103 84.5622 85.8222 84.8601C85.788 84.8852 85.7528 84.9081 85.7151 84.9273C85.7098 84.9309 85.7038 84.9364 85.6995 84.9418C83.4243 86.6051 78.207 88.1177 75.3819 88.2788C75.2547 88.2908 75.1118 88.2926 74.9696 88.2926ZM66.8373 84.6841C69.2192 85.762 72.5653 86.6805 74.6415 86.7611C74.7858 86.7741 74.8817 86.7723 74.9702 86.7723C75.0676 86.7738 75.1615 86.7738 75.2671 86.7632C77.2821 86.6478 80.7471 85.7406 83.1079 84.6703C82.9398 84.6558 82.7703 84.637 82.5993 84.6148C81.7992 84.4972 81.0947 84.3292 80.4741 84.183C79.3142 83.9079 78.3488 83.7075 77.4563 83.8988C76.7735 84.0425 76.4394 84.1982 76.1454 84.3354C75.8376 84.4791 75.5198 84.6279 75.0126 84.6667C74.3988 84.6355 74.0753 84.4853 73.7621 84.3401C73.4682 84.2025 73.1351 84.0476 72.4669 83.9118C71.5431 83.713 70.6008 83.9195 69.4417 84.1942C68.8179 84.3415 68.1102 84.5078 67.3129 84.625C67.1522 84.6493 66.9937 84.6682 66.8373 84.6841Z" fill="#C08E71"/>
<path d="M64.6871 85.1331C64.5755 85.1331 64.4632 85.1066 64.3569 85.0532C64.2699 85.0108 64.1799 84.9476 64.0921 84.8794C63.9062 84.7364 63.7971 84.5117 63.7971 84.274C63.7971 83.9673 63.9777 83.6839 64.2567 83.5656C64.5158 83.4553 64.8105 83.4996 65.0202 83.6825C65.2754 83.8033 65.4514 84.0668 65.4514 84.3713C65.4514 84.7821 65.1329 85.1164 64.7337 85.1298C64.7191 85.1316 64.7035 85.1331 64.6871 85.1331Z" fill="#C08E71"/>
<path d="M85.2336 85.108C84.9844 85.108 84.7441 84.981 84.6052 84.7549C84.4004 84.4282 84.4704 83.9985 84.7665 83.7554L84.8652 83.673C85.0803 83.4643 85.403 83.4019 85.6767 83.5235C85.9483 83.6443 86.132 83.9107 86.132 84.2137C86.132 84.4148 86.0415 84.6452 85.9022 84.7875C85.8769 84.8118 85.8396 84.847 85.8123 84.8681C85.7209 84.9385 85.6502 84.985 85.5588 85.0296C85.454 85.0829 85.3431 85.108 85.2336 85.108Z" fill="#C08E71"/>
<path d="M55.2329 53.6188C48.6703 53.9795 45.7581 49.4713 42.5583 50.6334C42.5583 50.6334 44.3167 48.4058 46.3236 48.9034C49.1658 49.6158 50.2709 51.7356 54.9617 51.7955C59.6344 51.8557 62.1055 49.7602 63.1022 49.2097C63.1018 49.2093 60.5572 53.3219 55.2329 53.6188Z" fill="#C08E71"/>
<path d="M91.8544 53.6187C98.4171 53.9795 101.329 49.4713 104.53 50.6334C104.53 50.6334 102.774 48.4058 100.763 48.9033C97.9226 49.6158 96.8122 51.7356 92.1253 51.7954C87.4547 51.8557 84.9822 49.7602 83.9869 49.2096C83.9869 49.2093 86.5284 53.3219 91.8544 53.6187Z" fill="#C08E71"/>
<path d="M74.5276 72.097C72.0036 72.097 69.7337 70.1347 69.637 70.0494C69.3246 69.7773 69.2898 69.2989 69.556 68.9792C69.8236 68.6624 70.2932 68.6253 70.6049 68.8957C70.6252 68.9124 72.5777 70.5833 74.5596 70.5771C76.9674 70.555 78.2894 68.8333 78.3018 68.8166C78.5527 68.4835 79.0202 68.4225 79.3454 68.6754C79.6713 68.932 79.7328 69.4085 79.483 69.7417C79.4115 69.8357 77.7 72.0673 74.5732 72.0967C74.5582 72.097 74.5426 72.097 74.5276 72.097Z" fill="#C08E71"/>
<path d="M115.724 42.682H111.855C111.444 42.682 111.111 42.3415 111.111 41.9216V38.2808C111.111 37.8624 111.444 37.5212 111.855 37.5212H115.724C116.135 37.5212 116.468 37.8624 116.468 38.2808V41.9216C116.468 42.3419 116.135 42.682 115.724 42.682ZM112.6 41.1624H114.98V39.0412H112.6V41.1624Z" fill="#C08E71"/>
<path d="M143.256 46.5855H115.724C115.314 46.5855 114.98 46.2451 114.98 45.8252V34.378C114.98 33.9581 115.314 33.6192 115.724 33.6192H143.256C143.667 33.6192 144 33.9581 144 34.378C144 34.7979 143.667 35.1383 143.256 35.1383H116.468V45.066H143.256C143.667 45.066 144 45.4053 144 45.8252C144 46.2451 143.667 46.5855 143.256 46.5855Z" fill="#C08E71"/>
<path d="M111.607 40.8623H95.3113C94.9008 40.8623 94.5667 40.5215 94.5667 40.102C94.5667 39.6825 94.9005 39.3424 95.3113 39.3424H111.607C112.018 39.3424 112.352 39.6828 112.352 40.102C112.352 40.5212 112.018 40.8623 111.607 40.8623Z" fill="#C08E71"/>
<path d="M121.577 46.5833C121.166 46.5833 120.834 46.244 120.834 45.823V39.7467C120.834 39.3268 121.166 38.9875 121.577 38.9875C121.989 38.9875 122.323 39.3268 122.323 39.7467V45.823C122.323 46.244 121.989 46.5833 121.577 46.5833Z" fill="#C08E71"/>
<path d="M128.324 46.5833C127.913 46.5833 127.579 46.244 127.579 45.823V39.7467C127.579 39.3268 127.913 38.9875 128.324 38.9875C128.735 38.9875 129.068 39.3268 129.068 39.7467V45.823C129.068 46.244 128.735 46.5833 128.324 46.5833Z" fill="#C08E71"/>
<path d="M135.07 46.5833C134.66 46.5833 134.326 46.244 134.326 45.823V39.7467C134.326 39.3268 134.659 38.9875 135.07 38.9875C135.481 38.9875 135.814 39.3268 135.814 39.7467V45.823C135.814 46.244 135.481 46.5833 135.07 46.5833Z" fill="#C08E71"/>
<path d="M41.9102 40.0003C41.638 40.0003 41.3739 39.8468 41.2438 39.5797C41.0607 39.2051 41.2096 38.7486 41.5775 38.561C41.9124 38.3893 42.3012 38.1621 42.7423 37.9055C44.3571 36.966 46.7991 35.5444 49.7248 35.0461C53.4235 34.4219 64.671 37.9585 65.148 38.1106C65.5408 38.2336 65.7601 38.659 65.6382 39.0593C65.517 39.4596 65.0997 39.6896 64.7069 39.5597C61.553 38.5617 52.7596 36.067 49.969 36.5453C47.3059 36.999 45.094 38.2866 43.4792 39.2262C43.0114 39.498 42.5984 39.7379 42.2429 39.9197C42.1363 39.9753 42.0226 40.0003 41.9102 40.0003Z" fill="#C08E71"/>
<path d="M104.911 39.6966C104.799 39.6966 104.685 39.6708 104.579 39.616C104.223 39.4345 103.81 39.1954 103.343 38.9217C101.729 37.9825 99.5155 36.6949 96.8522 36.2423C94.0598 35.76 85.2684 38.2572 82.1142 39.256C81.7229 39.3837 81.3041 39.1558 81.1829 38.7555C81.0617 38.3552 81.2818 37.9284 81.6738 37.8054C82.1498 37.6537 93.3926 34.1152 97.0964 34.7427C100.023 35.2403 102.465 36.6618 104.08 37.6022C104.521 37.8595 104.91 38.0866 105.244 38.2576C105.612 38.4452 105.762 38.9014 105.577 39.2759C105.448 39.543 105.184 39.6966 104.911 39.6966Z" fill="#C08E71"/>
<path d="M85.6767 83.5235L85.88 83.0667L85.8797 83.0665L85.6767 83.5235ZM64.2971 84.274C64.2971 84.1586 64.3662 84.0622 64.4519 84.0259L64.0615 83.1053C63.5891 83.3055 63.2971 83.7761 63.2971 84.274H64.2971ZM74.5964 87.259C74.767 87.2745 74.8859 87.2723 74.9702 87.2723V86.2723C74.8776 86.2723 74.8045 86.2738 74.6865 86.2631L74.5964 87.259ZM85.2134 84.0318C85.287 83.9605 85.3928 83.9445 85.4737 83.9804L85.8797 83.0665C85.4132 82.8593 84.8736 82.9682 84.517 83.3142L85.2134 84.0318ZM85.4734 83.9803C85.574 84.0251 85.632 84.1184 85.632 84.2137H86.632C86.632 83.703 86.3225 83.2636 85.88 83.0667L85.4734 83.9803ZM74.7427 106.672V107.672L74.7518 107.672L74.7427 106.672ZM69.7522 105.68L69.4179 106.623L69.4185 106.623L69.7522 105.68ZM64.5484 103.3L65.0303 102.424L65.03 102.424L64.5484 103.3ZM59.6333 100.291L59.0727 101.119L59.075 101.121L59.6333 100.291ZM55.5659 97.3779L54.9586 98.1724L54.959 98.1727L55.5659 97.3779ZM52.5193 94.8124L53.2249 94.1038L53.2246 94.1035L52.5193 94.8124ZM49.8894 91.6416L50.6895 91.0418L50.6894 91.0417L49.8894 91.6416ZM46.9875 87.2481L46.1213 87.7479L46.1216 87.7483L46.9875 87.2481ZM43.8471 80.8717L44.7672 80.48L44.7672 80.4798L43.8471 80.8717ZM40.5663 72.0764L39.6179 72.3933L39.618 72.3936L40.5663 72.0764ZM37.2464 61.4614L38.204 61.1732L38.2023 61.1674L37.2464 61.4614ZM37.1156 61.036L38.0715 60.7421L38.0691 60.7347L37.1156 61.036ZM36.8882 60.2826L37.851 60.0126L37.7963 59.8174L37.6698 59.6589L36.8882 60.2826ZM32.3345 51.5976L31.3737 51.8747L31.3742 51.8767L32.3345 51.5976ZM31.3712 46.9065L32.3615 46.7675L32.3613 46.7661L31.3712 46.9065ZM32.0011 46.0468L32.1453 47.0363L32.1497 47.0357L32.0011 46.0468ZM32.8431 46.6899L33.8333 46.5497L33.8332 46.5493L32.8431 46.6899ZM33.7616 51.1654L32.8008 51.4426L32.8013 51.4441L33.7616 51.1654ZM38.0789 59.3713L37.3447 60.0503L37.3487 60.0546L38.0789 59.3713ZM38.2083 59.5096L39.1547 59.1865L39.0853 58.9832L38.9385 58.8263L38.2083 59.5096ZM38.279 59.7168L39.2464 59.4634L39.2372 59.4282L39.2254 59.3938L38.279 59.7168ZM38.5325 60.574L39.4876 60.2779L39.4866 60.2748L38.5325 60.574ZM38.6693 61.0153L39.6269 60.7272L39.6244 60.7192L38.6693 61.0153ZM41.9739 71.5853L41.0254 71.902L41.0256 71.9026L41.9739 71.5853ZM45.2103 80.2656L44.2901 80.6571L44.2905 80.6582L45.2103 80.2656ZM48.2685 86.4748L47.4024 86.9746L47.4026 86.9749L48.2685 86.4748ZM51.0705 90.7166L51.8709 90.117L51.8702 90.1161L51.0705 90.7166ZM53.5573 93.724L52.8518 94.4328L52.852 94.433L53.5573 93.724ZM56.4559 96.1603L55.8482 96.9545L55.8495 96.9555L56.4559 96.1603ZM60.454 99.0219L59.8941 99.8504L59.8946 99.8508L60.454 99.0219ZM65.2529 101.962L65.7348 101.086L65.7345 101.086L65.2529 101.962ZM70.2395 104.244L69.9057 105.187L69.9058 105.187L70.2395 104.244ZM74.7366 105.152V106.152L74.7456 106.152L74.7366 105.152ZM96.3731 93.6253L95.6518 92.9328L95.6513 92.9333L96.3731 93.6253ZM96.6216 93.3666L95.9013 92.6729L95.9003 92.674L96.6216 93.3666ZM98.1358 91.7414L97.3901 91.0751L97.3841 91.0819L98.1358 91.7414ZM111.727 58.5889L110.76 58.3327L110.76 58.3335L111.727 58.5889ZM111.783 58.3784L111.094 57.6537L110.889 57.8487L110.816 58.1222L111.783 58.3784ZM111.939 58.2303L111.251 57.5046L111.249 57.5057L111.939 58.2303ZM112.881 57.1884L113.662 57.8125L113.696 57.7702L113.725 57.7245L112.881 57.1884ZM115.908 50.8547L114.971 50.5067L114.97 50.5076L115.908 50.8547ZM116.682 48.27L115.704 48.062L115.704 48.0637L116.682 48.27ZM117.567 47.6883L117.783 46.7117L117.778 46.7107L117.567 47.6883ZM118.138 48.5912L119.116 48.7998L119.117 48.7953L118.138 48.5912ZM117.301 51.3904L118.238 51.7373L118.238 51.7371L117.301 51.3904ZM114.04 58.1428L114.819 58.7694L114.824 58.7632L114.829 58.7569L114.04 58.1428ZM113.109 59.1902L112.403 58.4816L112.212 58.6724L112.143 58.9337L113.109 59.1902ZM99.2405 92.7601L98.4947 92.094L98.4901 92.0992L99.2405 92.7601ZM97.6837 94.431L98.403 95.1256L98.4045 95.1241L97.6837 94.431ZM97.4352 94.6883L96.7158 93.9937L96.709 94.0008L97.4352 94.6883ZM31.6947 63.8893L32.5849 63.4338L32.5846 63.4331L31.6947 63.8893ZM33.1012 43.8602L33.8802 44.4872L33.8813 44.4859L33.1012 43.8602ZM43.8532 34.9092L44.3921 35.7516L44.394 35.7503L43.8532 34.9092ZM70.6145 1.12916L71.5339 1.52254L71.5352 1.51938L70.6145 1.12916ZM71.5948 0.736489L71.1836 1.648L71.1873 1.64968L71.5948 0.736489ZM71.9787 1.73668L72.8981 2.13006L72.8983 2.1296L71.9787 1.73668ZM44.644 36.1961L45.1828 37.0385L45.1849 37.0372L44.644 36.1961ZM34.2507 44.8241L35.0299 45.451L35.0308 45.4498L34.2507 44.8241ZM33.0131 63.1838L33.9031 62.7279L33.903 62.7277L33.0131 63.1838ZM32.6992 64.209L32.2282 63.3269L32.2207 63.331L32.6992 64.209ZM99.848 36.9709L100.19 36.031L100.177 36.0265L99.848 36.9709ZM91.5984 33.2725L91.0662 34.1191L91.0665 34.1193L91.5984 33.2725ZM70.6078 1.74759L69.6179 1.88925L69.6179 1.88954L70.6078 1.74759ZM71.2362 0.886373L71.091 -0.10303L71.0887 -0.102683L71.2362 0.886373ZM72.0797 1.52874L71.0897 1.6698L71.0898 1.67083L72.0797 1.52874ZM92.3779 31.9776L91.8457 32.8242L91.8461 32.8244L92.3779 31.9776ZM100.328 35.5342L99.9986 36.4784L100.002 36.4797L100.328 35.5342ZM100.792 36.4977L99.8438 36.1802L99.8432 36.1822L100.792 36.4977ZM115.132 81.055L115.893 80.4057L115.89 80.4021L115.132 81.055ZM115.203 79.9833L115.868 80.7298L115.869 80.7291L115.203 79.9833ZM122.831 50.9629L123.751 50.5708L123.751 50.57L122.831 50.9629ZM123.216 49.9627L122.816 49.0465L122.81 49.0489L123.216 49.9627ZM124.196 50.3561L125.116 49.964L125.116 49.9639L124.196 50.3561ZM116.183 81.1261L115.517 80.3803L115.513 80.3837L116.183 81.1261ZM34.6499 80.0613L34.3308 81.0091L34.3437 81.0133L34.6499 80.0613ZM20.0822 48.9723L21.041 49.2567L21.041 49.2565L20.0822 48.9723ZM28.9709 32.1779L28.1669 31.5834L28.1668 31.5835L28.9709 32.1779ZM40.0002 20.5765L39.3204 19.8431L39.3201 19.8434L40.0002 20.5765ZM44.6348 16.1907L43.9334 15.478L43.9328 15.4785L44.6348 16.1907ZM45.6873 16.2099L44.9601 16.8963L44.961 16.8973L45.6873 16.2099ZM45.6688 17.2852L46.3703 17.9979L46.3712 17.9971L45.6688 17.2852ZM41.0014 21.7016L41.6815 22.4348L41.6817 22.4345L41.0014 21.7016ZM30.1588 33.0943L30.9629 33.6889L30.963 33.6887L30.1588 33.0943ZM21.5051 49.414L20.5464 49.1295L20.5464 49.1297L21.5051 49.414ZM35.1163 78.618L35.4366 77.6707L35.4353 77.6702L35.1163 78.618ZM35.5908 79.5772L36.5419 79.8863L36.5428 79.8832L35.5908 79.5772ZM108.477 27.5028L108.323 28.4909L108.326 28.4913L108.477 27.5028ZM93.6285 21.7599L93.0585 22.5816L93.0587 22.5818L93.6285 21.7599ZM81.6069 2.0876L80.6506 2.38002L80.6509 2.3809L81.6069 2.0876ZM82.0956 1.13494L81.7949 0.181227L81.7911 0.18243L82.0956 1.13494ZM83.0276 1.63251L83.9837 1.33932L83.9832 1.33785L83.0276 1.63251ZM94.4645 20.5017L95.0346 19.6801L95.0345 19.68L94.4645 20.5017ZM108.7 26.0017L108.546 26.9899L108.547 26.99L108.7 26.0017ZM109.324 26.8651L108.335 26.7153L108.334 26.7196L109.324 26.8651ZM74.7079 92.8773V93.8773H74.7153L74.7227 93.8772L74.7079 92.8773ZM68.2985 90.7833L67.7171 91.597L67.7243 91.602L68.2985 90.7833ZM63.8661 84.593L64.7818 84.1912L64.7781 84.1827L64.7742 84.1743L63.8661 84.593ZM64.2567 83.5656L63.865 82.6455L64.6422 84.4883L64.2567 83.5656ZM65.0667 83.7249L64.35 84.4222L64.425 84.4994L64.5148 84.5588L65.0667 83.7249ZM65.2225 83.828L64.6704 84.6619L64.682 84.6694L65.2225 83.828ZM74.6415 86.7611L74.6031 87.7603L74.6802 85.7618L74.6415 86.7611ZM74.9702 86.7723L74.9845 85.7724L74.9553 87.7722L74.9702 86.7723ZM75.2671 86.7632L75.2097 85.7649L75.1887 85.7661L75.1679 85.7682L75.2671 86.7632ZM84.7998 83.73L85.3899 84.5373L85.4245 84.5121L85.4567 84.4839L84.7998 83.73ZM84.8652 83.673L85.5221 84.427L84.2245 82.9052L84.8652 83.673ZM86.0123 84.6398L85.1453 84.1413L85.1241 84.1783L85.1061 84.2169L86.0123 84.6398ZM81.6466 90.7564L82.2205 91.5754L82.227 91.5708L81.6466 90.7564ZM75.2244 92.8759L75.2163 93.8759H75.2244V92.8759ZM74.9543 92.8737L74.9624 91.8737L74.9509 91.8736L74.9395 91.8738L74.9543 92.8737ZM66.3993 86.1499L66.8038 85.2354L63.9023 83.9522L65.5435 86.6673L66.3993 86.1499ZM69.1455 89.5356L68.5635 90.3488L68.572 90.3547L69.1455 89.5356ZM74.7079 91.3582V92.3582L74.7197 92.3581L74.7079 91.3582ZM74.9539 91.3553L74.962 90.3553L74.952 90.3552L74.9421 90.3553L74.9539 91.3553ZM75.2241 91.3574L75.216 92.3574H75.2241V91.3574ZM80.7993 89.5073L81.3731 90.3263L81.3803 90.3212L80.7993 89.5073ZM83.5177 86.1427L84.376 86.6558L85.9927 83.9518L83.1125 85.2284L83.5177 86.1427ZM75.3808 88.2773L75.3243 87.2789L75.3024 87.2802L75.2806 87.2824L75.3808 88.2773ZM74.532 88.2752L74.6428 87.2813L74.6063 87.2773L74.5697 87.2759L74.532 88.2752ZM74.5324 88.2759L74.6369 87.2814L74.6037 87.2779L74.5704 87.2766L74.5324 88.2759ZM64.5109 85.1599L65.0533 84.3198L64.8927 84.2161L64.7051 84.1789L64.5109 85.1599ZM64.298 85.0238L64.8861 84.2151L64.8563 84.1933L64.8249 84.1739L64.298 85.0238ZM64.0751 84.8576L64.743 84.1134L64.7018 84.0764L64.6567 84.0442L64.0751 84.8576ZM63.265 83.9888L64.1512 83.5255L64.1509 83.5247L63.265 83.9888ZM63.2807 83.2444L62.4168 82.7408L62.4157 82.7426L63.2807 83.2444ZM63.9123 82.8714L64.0259 81.8778L63.9644 81.8708L63.9025 81.8714L63.9123 82.8714ZM64.2375 82.9421L63.8279 83.8544L63.8378 83.8587L64.2375 82.9421ZM67.1028 83.1214L67.2469 84.111L67.2478 84.1109L67.1028 83.1214ZM69.1076 82.7142L69.3381 83.6873L69.3387 83.6871L69.1076 82.7142ZM72.7665 82.4242L72.5575 83.4022L72.5684 83.4044L72.7665 82.4242ZM74.3806 82.9574L74.8025 82.0507L74.8014 82.0502L74.3806 82.9574ZM75.003 83.1519L74.9419 84.15L75.0396 84.156L75.1366 84.1429L75.003 83.1519ZM75.5259 82.9545L75.1019 82.0488L75.1012 82.0491L75.5259 82.9545ZM77.1542 82.4123L77.3581 83.3913L77.3631 83.3902L77.1542 82.4123ZM80.8117 82.703L81.0429 81.73L81.0415 81.7297L80.8117 82.703ZM82.8037 83.1087L82.6596 84.0983L82.6677 84.0994L82.8037 83.1087ZM85.6547 82.9182L85.2102 82.0224L85.1487 82.0529L85.092 82.0915L85.6547 82.9182ZM86.5274 83.0731L87.2584 82.3908L87.2562 82.3885L86.5274 83.0731ZM86.6461 83.9608L85.7677 83.4828L85.7668 83.4846L86.6461 83.9608ZM85.8222 84.8601L86.4138 85.6664L86.4225 85.66L86.4311 85.6534L85.8222 84.8601ZM85.7151 84.9273L85.2605 84.0366L85.2045 84.0652L85.1525 84.1006L85.7151 84.9273ZM85.6995 84.9418L86.2897 85.7491L86.4013 85.6675L86.4867 85.5586L85.6995 84.9418ZM75.3819 88.2788L75.325 87.2805L75.3066 87.2815L75.2882 87.2832L75.3819 88.2788ZM66.8373 84.6841L66.7357 83.6893L63.0459 84.066L66.425 85.5952L66.8373 84.6841ZM83.1079 84.6703L83.5208 85.5811L87.0023 84.0029L83.194 83.674L83.1079 84.6703ZM82.5993 84.6148L82.4539 85.6042L82.4624 85.6054L82.4709 85.6066L82.5993 84.6148ZM80.4741 84.183L80.2433 85.156L80.2447 85.1563L80.4741 84.183ZM77.4563 83.8988L77.6623 84.8773L77.6658 84.8766L77.4563 83.8988ZM76.1454 84.3354L75.7225 83.4292L75.7224 83.4293L76.1454 84.3354ZM75.0126 84.6667L74.9618 85.6654L75.0254 85.6687L75.0889 85.6638L75.0126 84.6667ZM73.7621 84.3401L73.3383 85.2458L73.3416 85.2474L73.7621 84.3401ZM72.4669 83.9118L72.2564 84.8895L72.2678 84.8918L72.4669 83.9118ZM69.4417 84.1942L69.6716 85.1674L69.6723 85.1672L69.4417 84.1942ZM67.3129 84.625L67.1674 83.6356L67.1632 83.6362L67.3129 84.625ZM64.3569 85.0532L64.8056 84.1594L64.7952 84.1544L64.3569 85.0532ZM64.0921 84.8794L64.7058 84.0898L64.7018 84.0867L64.0921 84.8794ZM65.0202 83.6825L64.3629 84.4361L64.4672 84.527L64.5922 84.5863L65.0202 83.6825ZM64.7337 85.1298L64.7001 84.1304L64.655 84.1319L64.6102 84.1375L64.7337 85.1298ZM84.6052 84.7549L85.4571 84.2312L85.4525 84.2237L84.6052 84.7549ZM84.7665 83.7554L85.4012 84.5282L85.4072 84.5231L84.7665 83.7554ZM85.9022 84.7875L86.596 85.5076L86.6065 85.4976L86.6166 85.4872L85.9022 84.7875ZM85.8123 84.8681L85.2026 84.0754L85.2018 84.076L85.8123 84.8681ZM85.5588 85.0296L85.1198 84.1311L85.1125 84.1347L85.1054 84.1383L85.5588 85.0296ZM55.2329 53.6188L55.2878 54.6173L55.2886 54.6172L55.2329 53.6188ZM42.5583 50.6334L41.7734 50.0138L39.595 52.7735L42.8997 51.5733L42.5583 50.6334ZM46.3236 48.9034L46.5667 47.9334L46.5642 47.9328L46.3236 48.9034ZM54.9617 51.7955L54.9746 50.7956H54.9745L54.9617 51.7955ZM63.1022 49.2097L63.5857 50.085L64.7366 49.4493L63.8166 48.51L63.1022 49.2097ZM91.8544 53.6187L91.7988 54.6172L91.7995 54.6172L91.8544 53.6187ZM104.53 50.6334L104.189 51.5733L107.489 52.7716L105.315 50.0142L104.53 50.6334ZM100.763 48.9033L100.523 47.9326L100.519 47.9334L100.763 48.9033ZM92.1253 51.7954L92.1125 50.7955H92.1124L92.1253 51.7954ZM83.9869 49.2096H82.9869V49.7993L83.5029 50.0847L83.9869 49.2096ZM69.637 70.0494L70.2986 69.2995L70.2939 69.2954L69.637 70.0494ZM69.556 68.9792L68.7921 68.3339L68.7875 68.3393L69.556 68.9792ZM70.6049 68.8957L69.9497 69.6512L69.9593 69.6594L69.969 69.6675L70.6049 68.8957ZM74.5596 70.5771L74.5628 71.5771L74.5688 71.5771L74.5596 70.5771ZM78.3018 68.8166L77.503 68.215L77.5 68.2191L78.3018 68.8166ZM79.3454 68.6754L79.9639 67.8897L79.9593 67.8861L79.3454 68.6754ZM79.483 69.7417L80.2791 70.3468L80.2829 70.3417L79.483 69.7417ZM74.5732 72.0967L74.5638 71.0967L74.5563 71.0968L74.5488 71.097L74.5732 72.0967ZM116.468 41.9216L117.468 41.9225V41.9216H116.468ZM112.6 41.1624H111.6V42.1624H112.6V41.1624ZM114.98 41.1624V42.1624H115.98V41.1624H114.98ZM114.98 39.0412H115.98V38.0412H114.98V39.0412ZM112.6 39.0412V38.0412H111.6V39.0412H112.6ZM116.468 35.1383V34.1383H115.468V35.1383H116.468ZM116.468 45.066H115.468V46.066H116.468V45.066ZM122.323 45.823H121.323V45.8238L122.323 45.823ZM129.068 45.823H128.068H129.068ZM41.2438 39.5797L42.1428 39.1418L42.1422 39.1406L41.2438 39.5797ZM41.5775 38.561L42.0319 39.4518L42.0337 39.4508L41.5775 38.561ZM42.7423 37.9055L43.2451 38.7699L43.2453 38.7699L42.7423 37.9055ZM49.7248 35.0461L49.5583 34.06L49.5569 34.0603L49.7248 35.0461ZM65.148 38.1106L64.8443 39.0634L64.8491 39.0649L65.148 38.1106ZM65.6382 39.0593L64.6816 38.7679L64.6811 38.7695L65.6382 39.0593ZM64.7069 39.5597L65.021 38.6102L65.0086 38.6063L64.7069 39.5597ZM49.969 36.5453L50.1369 37.5311L50.1379 37.531L49.969 36.5453ZM43.4792 39.2262L43.9816 40.0908L43.9821 40.0905L43.4792 39.2262ZM42.2429 39.9197L41.7875 39.0294L41.7811 39.0328L42.2429 39.9197ZM104.579 39.616L105.037 38.7272L105.034 38.7253L104.579 39.616ZM103.343 38.9217L103.848 38.0589L103.846 38.0574L103.343 38.9217ZM96.8522 36.2423L96.682 37.2277L96.6846 37.2282L96.8522 36.2423ZM82.1142 39.256L81.8123 38.3026L81.8039 38.3053L82.1142 39.256ZM81.6738 37.8054L81.9732 38.7595L81.9775 38.7582L81.6738 37.8054ZM97.0964 34.7427L97.264 33.7569L97.2634 33.7568L97.0964 34.7427ZM104.08 37.6022L104.584 36.7384L104.583 36.7379L104.08 37.6022ZM105.244 38.2576L104.788 39.1478L104.79 39.1486L105.244 38.2576ZM105.577 39.2759L104.68 38.8341L104.678 38.839L105.577 39.2759ZM74.7427 105.672C73.3933 105.672 71.9265 105.389 70.0859 104.737L69.4185 106.623C71.4017 107.325 73.1006 107.672 74.7427 107.672V105.672ZM70.0864 104.738C68.4823 104.169 66.8299 103.413 65.0303 102.424L64.0666 104.176C65.943 105.208 67.6944 106.011 69.4179 106.623L70.0864 104.738ZM65.03 102.424C63.4498 101.555 61.8207 100.558 60.1916 99.4614L59.075 101.121C60.7494 102.248 62.4296 103.277 64.0668 104.176L65.03 102.424ZM60.1939 99.463C58.7273 98.4702 57.4126 97.5297 56.1727 96.5831L54.959 98.1727C56.2336 99.1459 57.5798 100.109 59.0727 101.119L60.1939 99.463ZM56.1731 96.5834C55.1058 95.7676 54.1189 94.9939 53.2249 94.1038L51.8138 95.5211C52.8101 96.5131 53.8912 97.3566 54.9586 98.1724L56.1731 96.5834ZM53.2246 94.1035C52.2852 93.1689 51.4978 92.12 50.6895 91.0418L49.0893 92.2415C49.884 93.3016 50.7552 94.4679 51.8141 95.5214L53.2246 94.1035ZM50.6894 91.0417C49.6587 89.6673 48.7047 88.2217 47.8534 86.748L46.1216 87.7483C47.0127 89.2912 48.0108 90.8034 49.0894 92.2416L50.6894 91.0417ZM47.8537 86.7484C46.7887 84.9025 45.7783 82.8549 44.7672 80.48L42.927 81.2634C43.9641 83.6993 45.0095 85.8208 46.1213 87.7479L47.8537 86.7484ZM44.7672 80.4798C43.7055 77.987 42.6718 75.2183 41.5147 71.7591L39.618 72.3936C40.7869 75.8879 41.839 78.7088 42.9271 81.2635L44.7672 80.4798ZM41.5148 71.7594C40.3478 68.2674 39.285 64.7656 38.204 61.1732L36.2889 61.7495C37.3697 65.3414 38.4403 68.8694 39.6179 72.3933L41.5148 71.7594ZM38.2023 61.1674L38.0715 60.7421L36.1598 61.33L36.2906 61.7553L38.2023 61.1674ZM38.0691 60.7347C37.9911 60.4877 37.9172 60.2487 37.851 60.0126L35.9253 60.5526C36.0006 60.821 36.0824 61.085 36.1621 61.3374L38.0691 60.7347ZM37.6698 59.6589C37.305 59.2017 36.4393 57.9173 35.5383 56.316C34.6377 54.7155 33.7487 52.8803 33.2948 51.3185L31.3742 51.8767C31.8917 53.657 32.8677 55.6483 33.7953 57.2967C34.7223 58.9444 35.6477 60.3314 36.1065 60.9063L37.6698 59.6589ZM33.2953 51.3205C32.9236 50.0314 32.5989 48.4577 32.3615 46.7675L30.381 47.0456C30.6284 48.8081 30.9705 50.4768 31.3737 51.8747L33.2953 51.3205ZM32.3613 46.7661C32.3771 46.8773 32.3025 47.0134 32.1453 47.0363L31.8569 45.0572C30.8879 45.1984 30.2474 46.104 30.3812 47.047L32.3613 46.7661ZM32.1497 47.0357C31.9838 47.0606 31.8686 46.9399 31.8531 46.8305L33.8332 46.5493C33.6997 45.6088 32.8345 44.9103 31.8525 45.0579L32.1497 47.0357ZM31.853 46.83C32.0921 48.5194 32.4177 50.1147 32.8008 51.4426L34.7224 50.8882C34.3712 49.6705 34.0626 48.1701 33.8333 46.5497L31.853 46.83ZM32.8013 51.4441C33.3348 53.2823 34.385 55.3332 35.312 56.9325C35.7802 57.7403 36.2269 58.4497 36.5784 58.9814C36.9058 59.4766 37.1996 59.8934 37.3447 60.0503L38.8131 58.6923C38.8247 58.7049 38.7798 58.6521 38.6589 58.4824C38.553 58.3336 38.4126 58.1293 38.2468 57.8784C37.9153 57.3771 37.4895 56.701 37.0423 55.9295C36.1385 54.3702 35.1866 52.4875 34.722 50.8867L32.8013 51.4441ZM37.3487 60.0546L37.4781 60.1928L38.9385 58.8263L38.8091 58.6881L37.3487 60.0546ZM37.2619 59.8326L37.3326 60.0399L39.2254 59.3938L39.1547 59.1865L37.2619 59.8326ZM37.3117 59.9702C37.3936 60.2829 37.4898 60.591 37.5783 60.8732L39.4866 60.2748C39.3967 59.988 39.3145 59.7234 39.2464 59.4634L37.3117 59.9702ZM37.5773 60.8702L37.7142 61.3115L39.6244 60.7192L39.4876 60.2779L37.5773 60.8702ZM37.7117 61.3034C38.7887 64.8835 39.8557 68.399 41.0254 71.902L42.9224 71.2686C41.7632 67.7971 40.704 64.3076 39.6269 60.7273L37.7117 61.3034ZM41.0256 71.9026C42.1813 75.3573 43.2192 78.14 44.2901 80.6571L46.1304 79.8741C45.0857 77.4185 44.0663 74.6877 42.9222 71.2681L41.0256 71.9026ZM44.2905 80.6582C45.3047 83.0341 46.322 85.1026 47.4024 86.9746L49.1346 85.9749C48.1016 84.1851 47.1191 82.1904 46.13 79.873L44.2905 80.6582ZM47.4026 86.9749C48.2638 88.466 49.2275 89.9273 50.2708 91.317L51.8702 90.1161C50.8755 88.7912 49.956 87.397 49.1345 85.9746L47.4026 86.9749ZM50.2702 91.3161C51.0322 92.3334 51.8699 93.4554 52.8518 94.4328L54.2627 93.0153C53.4012 92.1578 52.6487 91.1553 51.8709 90.117L50.2702 91.3161ZM52.852 94.433C53.7846 95.3606 54.8255 96.1719 55.8482 96.9545L57.0636 95.3662C56.0375 94.581 55.0922 93.8404 54.2625 93.0151L52.852 94.433ZM55.8495 96.9555C57.1013 97.9101 58.4239 98.8569 59.8941 99.8504L61.014 98.1934C59.5716 97.2185 58.2803 96.294 57.0624 95.3652L55.8495 96.9555ZM59.8946 99.8508C61.5308 100.955 63.1723 101.96 64.7714 102.838L65.7345 101.086C64.1921 100.238 62.6026 99.2655 61.0134 98.193L59.8946 99.8508ZM64.7711 102.838C66.5763 103.831 68.2568 104.603 69.9057 105.187L70.5733 103.301C69.0452 102.76 67.4642 102.037 65.7348 101.086L64.7711 102.838ZM69.9058 105.187C71.7216 105.829 73.2683 106.152 74.7366 106.152V104.152C73.5676 104.152 72.255 103.897 70.5733 103.301L69.9058 105.187ZM74.7456 106.152C79.3999 106.11 84.5891 103.531 88.722 100.866C92.8859 98.1801 96.1818 95.2699 97.095 94.3174L95.6513 92.9333C94.8612 93.7573 91.6906 96.571 87.638 99.1849C83.5543 101.819 78.7768 104.115 74.7276 104.152L74.7456 106.152ZM97.0945 94.3179L97.3429 94.0592L95.9003 92.674L95.6518 92.9328L97.0945 94.3179ZM97.3419 94.0602C97.8199 93.5638 98.341 93.0238 98.8875 92.4009L97.3841 91.0819C96.8728 91.6647 96.383 92.1728 95.9013 92.6729L97.3419 94.0602ZM98.8815 92.4077C100.667 90.4095 103.025 86.1202 105.463 80.3598C107.918 74.5591 110.498 67.1579 112.694 58.8442L110.76 58.3335C108.587 66.5613 106.037 73.8722 103.621 79.5803C101.189 85.3288 98.9358 89.3451 97.3901 91.0752L98.8815 92.4077ZM112.694 58.8451L112.75 58.6346L110.816 58.1222L110.76 58.3327L112.694 58.8451ZM112.472 59.103L112.628 58.955L111.249 57.5057L111.094 57.6537L112.472 59.103ZM112.627 58.956C112.971 58.6299 113.31 58.2533 113.662 57.8125L112.1 56.5642C111.791 56.9501 111.514 57.2552 111.251 57.5046L112.627 58.956ZM113.725 57.7245C113.915 57.4258 115.685 54.3375 116.846 51.2018L114.97 50.5076C114.423 51.9862 113.725 53.4688 113.139 54.6198C112.847 55.1935 112.585 55.6806 112.387 56.0382C112.288 56.2171 112.206 56.3628 112.144 56.47C112.113 56.5237 112.088 56.567 112.069 56.5994C112.059 56.6156 112.051 56.6284 112.045 56.638C112.039 56.6483 112.037 56.6524 112.037 56.6523L113.725 57.7245ZM116.846 51.2027C117.212 50.215 117.488 49.2961 117.661 48.4763L115.704 48.0637C115.556 48.7646 115.312 49.587 114.971 50.5067L116.846 51.2027ZM117.66 48.4781C117.635 48.5992 117.507 48.6983 117.357 48.6658L117.778 46.7107C116.826 46.5055 115.904 47.1221 115.704 48.062L117.66 48.4781ZM117.352 48.6648C117.199 48.631 117.137 48.4936 117.159 48.3871L119.117 48.7953C119.31 47.8671 118.737 46.9219 117.783 46.7117L117.352 48.6648ZM117.16 48.3826C116.994 49.1585 116.729 50.0533 116.363 51.0437L118.238 51.7371C118.63 50.6791 118.926 49.6904 119.116 48.7998L117.16 48.3826ZM116.363 51.0434C115.78 52.6191 115.024 54.2163 114.39 55.4519C114.074 56.0678 113.79 56.5888 113.577 56.966C113.471 57.1549 113.383 57.3053 113.319 57.4122C113.24 57.545 113.225 57.5608 113.25 57.5288L114.829 58.7569C114.894 58.6728 114.975 58.5402 115.035 58.4404C115.11 58.3148 115.206 58.1486 115.319 57.9488C115.545 57.5488 115.841 57.0047 116.169 56.3653C116.824 55.0901 117.618 53.4153 118.238 51.7373L116.363 51.0434ZM113.26 57.5163C112.954 57.8976 112.674 58.2123 112.403 58.4816L113.815 59.8988C114.148 59.5664 114.477 59.1944 114.819 58.7694L113.26 57.5163ZM112.143 58.9337C109.942 67.2265 107.347 74.6135 104.881 80.3954C102.399 86.2161 100.091 90.3064 98.4947 92.094L99.9864 93.4262C101.819 91.3742 104.233 87.016 106.721 81.1799C109.226 75.3049 111.852 67.8268 114.076 59.4467L112.143 58.9337ZM98.4901 92.0992C97.9634 92.6971 97.4579 93.223 96.9628 93.7379L98.4045 95.1241C98.8969 94.612 99.4314 94.0564 99.9909 93.4211L98.4901 92.0992ZM96.9643 93.7364L96.7158 93.9937L98.1546 95.3829L98.403 95.1256L96.9643 93.7364ZM96.709 94.0008C96.7213 93.9879 95.967 94.7162 94.6424 95.8336C93.3319 96.9392 91.4905 98.4022 89.3392 99.8625C84.9887 102.816 79.5563 105.628 74.7336 105.672L74.7518 107.672C80.2073 107.622 86.0646 104.503 90.4625 101.517C94.8922 98.5103 98.0518 95.4916 98.1614 95.3758L96.709 94.0008ZM32.3544 63.2965C32.4535 63.2965 32.5426 63.3511 32.5849 63.4338L30.8045 64.3448C31.112 64.9458 31.72 65.2965 32.3544 65.2965V63.2965ZM32.5846 63.4331C30.719 59.7936 29.934 56.459 30.1515 53.3622C30.3685 50.2738 31.5884 47.3348 33.8802 44.4872L32.3222 43.2332C29.8158 46.3473 28.4063 49.6652 28.1565 53.2221C27.9072 56.7706 28.8181 60.4697 30.8048 64.3454L32.5846 63.4331ZM33.8813 44.4859C36.1459 41.6623 39.3608 38.9702 44.3921 35.7516L43.3143 34.0668C38.1954 37.3415 34.7783 40.1709 32.3211 43.2346L33.8813 44.4859ZM44.394 35.7503C55.8642 28.3749 64.9828 16.8329 71.5339 1.52254L69.6951 0.73577C63.2645 15.7646 54.3755 26.9544 43.3123 34.0681L44.394 35.7503ZM71.5352 1.51938C71.4858 1.63601 71.3329 1.71537 71.1836 1.648L72.0061 -0.175018C71.104 -0.582079 70.0702 -0.149266 69.6938 0.738927L71.5352 1.51938ZM71.1873 1.64968C71.0526 1.58955 71.0139 1.44964 71.0592 1.34377L72.8983 2.1296C73.272 1.25507 72.8885 0.218762 72.0024 -0.176702L71.1873 1.64968ZM71.0594 1.34331C64.5072 16.6565 55.4258 28.0739 44.1032 35.355L45.1849 37.0372C56.9131 29.4953 66.2247 17.7266 72.8981 2.13006L71.0594 1.34331ZM44.1053 35.3537C39.1303 38.5354 35.8235 41.2651 33.4707 44.1984L35.0308 45.4498C37.1893 42.7587 40.2919 40.1665 45.1828 37.0385L44.1053 35.3537ZM33.4716 44.1973C31.1753 47.0515 29.8855 50.103 29.6643 53.383C29.4437 56.6539 30.2914 60.0654 32.1231 63.6398L33.903 62.7277C32.1909 59.3867 31.4695 56.3379 31.6597 53.5176C31.8493 50.7064 32.9503 48.0358 35.0299 45.451L33.4716 44.1973ZM32.123 63.6396C32.0702 63.5365 32.1001 63.3953 32.2282 63.3269L33.1702 65.0911C34.0255 64.6345 34.337 63.575 33.9031 62.7279L32.123 63.6396ZM32.2207 63.331C32.265 63.3068 32.3126 63.2965 32.3544 63.2965V65.2965C32.628 65.2965 32.9123 65.2318 33.1777 65.0871L32.2207 63.331ZM100.088 36.012C100.111 36.012 100.147 36.0156 100.19 36.0311L99.5065 37.9108C99.7068 37.9836 99.9049 38.012 100.088 38.012V36.012ZM100.177 36.0265C97.7176 35.1705 94.6459 34.0059 92.1303 32.4257L91.0665 34.1193C93.7888 35.8293 97.047 37.0548 99.5193 37.9154L100.177 36.0265ZM92.1306 32.4258C81.5372 25.7669 73.2815 13.3478 71.5977 1.60565L69.6179 1.88954C71.3898 14.2459 80.0043 27.1657 91.0662 34.1191L92.1306 32.4258ZM71.5977 1.60594C71.6136 1.71702 71.5397 1.85216 71.3838 1.87543L71.0887 -0.102683C70.1201 0.0418012 69.4832 0.948538 69.6179 1.88925L71.5977 1.60594ZM71.3814 1.87577C71.224 1.89889 71.1074 1.794 71.0897 1.6698L73.0697 1.38769C72.9333 0.430232 72.0447 -0.243001 71.091 -0.103028L71.3814 1.87577ZM71.0898 1.67083C72.8032 13.6072 81.1399 26.0936 91.8457 32.8242L92.9101 31.131C82.6715 24.6941 74.6946 12.7075 73.0695 1.38666L71.0898 1.67083ZM91.8461 32.8244C94.4433 34.4556 97.6025 35.6428 99.9986 36.4784L100.657 34.5899C98.2704 33.7576 95.2994 32.6315 92.9098 31.1307L91.8461 32.8244ZM100.002 36.4797C99.8561 36.4293 99.8083 36.2864 99.8438 36.1802L101.74 36.8152C102.042 35.9149 101.579 34.9076 100.653 34.5887L100.002 36.4797ZM99.8432 36.1822C99.8753 36.0856 99.9707 36.012 100.088 36.012V38.012C100.825 38.012 101.499 37.5406 101.741 36.8132L99.8432 36.1822ZM115.693 80.3148C115.768 80.3148 115.844 80.3479 115.893 80.4057L114.372 81.7042C114.716 82.1068 115.203 82.3148 115.693 82.3148V80.3148ZM115.89 80.4021C115.975 80.5011 115.966 80.643 115.868 80.7298L114.538 79.2367C113.82 79.8766 113.748 80.9803 114.375 81.7078L115.89 80.4021ZM115.869 80.7291C119.527 77.4624 122.548 72.4413 124.137 67.0195C125.726 61.5985 125.918 55.6551 123.751 50.5708L121.911 51.355C123.845 55.8917 123.72 61.3348 122.218 66.4569C120.717 71.5783 117.874 76.2569 114.537 79.2375L115.869 80.7291ZM123.751 50.57C123.796 50.6771 123.757 50.8169 123.622 50.8765L122.81 49.0489C121.923 49.4432 121.537 50.48 121.911 51.3558L123.751 50.57ZM123.617 50.8789C123.48 50.9388 123.327 50.8678 123.276 50.7483L125.116 49.9639C124.737 49.0758 123.712 48.6542 122.816 49.0465L123.617 50.8789ZM123.276 50.7482C125.34 55.5914 125.216 61.3847 123.635 66.8233C122.054 72.2616 119.05 77.2241 115.517 80.3803L116.849 81.8719C120.705 78.4277 123.887 73.1206 125.556 67.3816C127.224 61.6429 127.412 55.3515 125.116 49.964L123.276 50.7482ZM115.513 80.3837C115.563 80.3385 115.629 80.3148 115.693 80.3148V82.3148C116.105 82.3148 116.521 82.1677 116.853 81.8685L115.513 80.3837ZM34.8835 79.0994C34.9193 79.0994 34.9443 79.1056 34.9562 79.1094L34.3437 81.0133C34.5112 81.0672 34.6927 81.0994 34.8835 81.0994V79.0994ZM34.969 79.1136C23.8247 75.3614 17.3443 61.7198 21.041 49.2567L19.1235 48.688C15.1645 62.0356 22.027 76.8664 34.3308 81.009L34.969 79.1136ZM21.041 49.2565C22.5663 44.1103 25.4928 38.5647 29.7751 32.7724L28.1668 31.5835C23.7882 37.5061 20.7325 43.2596 19.1235 48.6881L21.041 49.2565ZM29.775 32.7725C32.9372 28.4961 36.8326 24.8786 40.6802 21.3097L39.3201 19.8434C35.4943 23.392 31.4582 27.1323 28.1669 31.5834L29.775 32.7725ZM40.6799 21.3099C42.212 19.89 43.8089 18.4091 45.3369 16.9028L43.9328 15.4785C42.4303 16.9597 40.8558 18.42 39.3204 19.8431L40.6799 21.3099ZM45.3363 16.9034C45.2321 17.006 45.06 17.0021 44.9601 16.8963L46.4145 15.5235C45.7466 14.8159 44.6298 14.7925 43.9334 15.478L45.3363 16.9034ZM44.961 16.8973C44.8724 16.8036 44.8749 16.6638 44.9665 16.5734L46.3712 17.9971C47.0543 17.3231 47.0731 16.2193 46.4136 15.5225L44.961 16.8973ZM44.9673 16.5726C43.4473 18.0687 41.8636 19.537 40.3211 20.9686L41.6817 22.4345C43.2196 21.0071 44.8257 19.5183 46.3703 17.9979L44.9673 16.5726ZM40.3214 20.9684C36.5469 24.4691 32.5613 28.1613 29.3547 32.4999L30.963 33.6887C34.04 29.5256 37.8835 25.9572 41.6815 22.4348L40.3214 20.9684ZM29.3548 32.4997C25.0822 38.2777 22.1066 43.8725 20.5464 49.1295L22.4638 49.6985C23.9399 44.7248 26.7857 39.3378 30.9629 33.6889L29.3548 32.4997ZM20.5464 49.1297C16.8178 61.7025 23.2365 75.6741 34.7973 79.5657L35.4353 77.6702C25.0414 74.1714 18.9953 61.3945 22.4638 49.6983L20.5464 49.1297ZM34.7959 79.5653C34.6555 79.5178 34.604 79.3796 34.6388 79.2712L36.5428 79.8832C36.8336 78.9786 36.3584 77.9824 35.4366 77.6707L34.7959 79.5653ZM34.6398 79.2681C34.6697 79.176 34.764 79.0994 34.8835 79.0994V81.0994C35.6292 81.0994 36.3036 80.6193 36.5419 79.8863L34.6398 79.2681ZM108.59 26.5125C108.606 26.5125 108.618 26.5134 108.624 26.5139C108.63 26.5145 108.632 26.5149 108.628 26.5142L108.326 28.4913C108.392 28.5014 108.484 28.5125 108.59 28.5125V26.5125ZM108.63 26.5146C103.388 25.7014 98.1214 23.658 94.1982 20.9381L93.0587 22.5818C97.2548 25.4908 102.812 27.6361 108.323 28.4909L108.63 26.5146ZM94.1985 20.9383C87.4712 16.2716 84.977 9.66295 82.5629 1.79429L80.6509 2.3809C83.0702 10.2665 85.72 17.4909 93.0585 22.5816L94.1985 20.9383ZM82.5632 1.79517C82.596 1.90268 82.5434 2.04164 82.4001 2.08744L81.7911 0.18243C80.8623 0.479375 80.3725 1.47046 80.6506 2.38002L82.5632 1.79517ZM82.3964 2.08864C82.2471 2.13571 82.1071 2.04106 82.072 1.92717L83.9832 1.33785C83.7021 0.426265 82.7382 -0.116252 81.7949 0.181234L82.3964 2.08864ZM82.0716 1.92569C84.4034 9.52966 86.9511 16.5069 93.8945 21.3234L95.0345 19.68C88.7069 15.2908 86.3139 8.93799 83.9837 1.33932L82.0716 1.92569ZM93.8945 21.3233C97.9135 24.1117 103.248 26.1671 108.546 26.9899L108.853 25.0136C103.822 24.2323 98.7792 22.2781 95.0346 19.6801L93.8945 21.3233ZM108.547 26.99C108.394 26.9664 108.317 26.8317 108.335 26.7153L110.312 27.0149C110.455 26.0725 109.82 25.1626 108.852 25.0134L108.547 26.99ZM108.334 26.7196C108.35 26.616 108.445 26.5125 108.59 26.5125V28.5125C109.457 28.5125 110.187 27.8684 110.313 27.0106L108.334 26.7196ZM74.7079 91.8773C72.5608 91.8773 70.7821 91.3038 68.8727 89.9646L67.7243 91.602C69.9473 93.1611 72.1227 93.8773 74.7079 93.8773V91.8773ZM68.8799 89.9697C67.8878 89.2608 66.8724 87.8786 66.0665 86.5578C65.2787 85.2666 64.7755 84.177 64.7818 84.1912L62.9503 84.9948C62.9765 85.0544 63.5203 86.2245 64.3591 87.5994C65.1799 88.9446 66.3707 90.6349 67.7171 91.5969L68.8799 89.9697ZM64.7742 84.1743C64.7913 84.2114 64.7971 84.2457 64.7971 84.274H62.7971C62.7971 84.523 62.8491 84.7757 62.958 85.0117L64.7742 84.1743ZM64.6422 84.4883C64.559 84.5231 64.437 84.5117 64.35 84.4222L65.7835 83.0276C65.2742 82.5041 64.5139 82.3744 63.8712 82.6429L64.6422 84.4883ZM64.5148 84.5588L64.6705 84.6618L65.7744 82.9941L65.6187 82.891L64.5148 84.5588ZM64.682 84.6694C65.8828 85.4406 67.6815 86.1807 69.4746 86.7379C71.2689 87.2955 73.1724 87.7055 74.6031 87.7603L74.6798 85.7618C73.4984 85.7165 71.7843 85.3613 70.0681 84.828C68.3507 84.2944 66.746 83.618 65.7629 82.9866L64.682 84.6694ZM74.956 87.7722C75.0659 87.7738 75.2028 87.7747 75.3669 87.7582L75.1672 85.7682C75.1216 85.7728 75.0787 85.7738 74.9845 85.7724L74.956 87.7722ZM75.3244 87.7616C76.7319 87.6807 78.7124 87.2553 80.5666 86.6821C82.4028 86.1145 84.2719 85.3545 85.3899 84.5373L84.2097 82.9226C83.3724 83.5346 81.7699 84.2168 79.9759 84.7714C78.1999 85.3204 76.3916 85.697 75.2097 85.7649L75.3244 87.7616ZM85.4567 84.4839L85.5221 84.427L84.2083 82.919L84.1429 82.976L85.4567 84.4839ZM85.132 84.2137C85.132 84.1957 85.1335 84.1826 85.1347 84.1745C85.1359 84.1663 85.1373 84.1609 85.1381 84.1579C85.1394 84.1534 85.141 84.1489 85.1453 84.1413L86.8792 85.1383C87.0294 84.8771 87.132 84.5512 87.132 84.2137H85.132ZM85.1061 84.2169C84.985 84.4763 84.4597 85.5761 83.7034 86.7938C82.9291 88.0408 81.9889 89.2845 81.0662 89.9421L82.227 91.5708C83.4929 90.6686 84.6059 89.1316 85.4025 87.849C86.2172 86.5371 86.7804 85.3586 86.9184 85.0627L85.1061 84.2169ZM81.0728 89.9375C79.1317 91.2976 77.351 91.8759 75.2244 91.8759V93.8759C77.7975 93.8759 79.9737 93.1498 82.2205 91.5754L81.0728 89.9375ZM75.2325 91.8759L74.9624 91.8737L74.9461 93.8737L75.2163 93.8759L75.2325 91.8759ZM74.9395 91.8738L74.6932 91.8774L74.7227 93.8772L74.969 93.8736L74.9395 91.8738ZM65.5435 86.6673C66.3042 87.9256 67.4031 89.5182 68.5635 90.3487L69.7276 88.7224C68.9359 88.1558 68.0179 86.8944 67.2551 85.6326L65.5435 86.6673ZM68.572 90.3547C70.5492 91.7392 72.412 92.3582 74.7079 92.3582V90.3582C72.8536 90.3582 71.3866 89.884 69.7191 88.7164L68.572 90.3547ZM74.7197 92.3581L74.9657 92.3552L74.9421 90.3553L74.6961 90.3582L74.7197 92.3581ZM74.9459 92.3552L75.216 92.3574L75.2321 90.3575L74.962 90.3553L74.9459 92.3552ZM75.2241 92.3574C77.507 92.3574 79.3715 91.7286 81.3731 90.3263L80.2255 88.6883C78.5254 89.8794 77.0558 90.3574 75.2241 90.3574V92.3574ZM81.3803 90.3212C82.5405 89.4929 83.6257 87.9107 84.376 86.6558L82.6594 85.6295C81.909 86.8846 81.0051 88.1317 80.2183 88.6934L81.3803 90.3212ZM83.1125 85.2284C80.6404 86.3241 77.2978 87.1673 75.3243 87.2789L75.4373 89.2757C77.6965 89.1479 81.2758 88.2302 83.9229 87.0569L83.1125 85.2284ZM75.2806 87.2824C75.0853 87.302 74.8503 87.3045 74.6428 87.2813L74.4212 89.269C74.7867 89.3098 75.1644 89.3042 75.481 89.2723L75.2806 87.2824ZM74.5697 87.2759C72.5517 87.1997 69.2413 86.3133 66.8038 85.2354L65.9949 87.0645C68.5799 88.2076 72.1453 89.1858 74.4943 89.2745L74.5697 87.2759ZM74.9696 87.2926C74.8253 87.2926 74.7247 87.2906 74.6369 87.2814L74.4279 89.2704C74.6301 89.2917 74.8238 89.2926 74.9696 89.2926V87.2926ZM74.5704 87.2766C73.2874 87.2278 71.4545 86.8491 69.6302 86.2826C67.8042 85.7156 66.1 84.9956 65.0533 84.3198L63.9685 86C65.2343 86.8173 67.134 87.6017 69.0371 88.1927C70.9421 88.7842 72.9636 89.217 74.4944 89.2752L74.5704 87.2766ZM64.7051 84.1789C64.7611 84.19 64.8053 84.204 64.8332 84.2137C64.8624 84.2239 64.8857 84.2337 64.9017 84.2408C64.9324 84.2545 64.9539 84.2663 64.9623 84.271C64.979 84.2804 64.9848 84.2847 64.9744 84.2778C64.9548 84.2647 64.9267 84.2446 64.8861 84.2151L63.7098 85.8326C63.7446 85.8579 63.8056 85.9023 63.8648 85.9418C63.894 85.9612 63.9367 85.9889 63.9847 86.0158C63.9986 86.0236 64.1356 86.105 64.3167 86.1409L64.7051 84.1789ZM64.8249 84.1739C64.7919 84.1535 64.7639 84.1321 64.743 84.1134L63.4072 85.6019C63.5214 85.7043 63.6448 85.7955 63.7711 85.8738L64.8249 84.1739ZM64.6567 84.0442C64.3662 83.8364 64.2183 83.6538 64.1512 83.5255L62.3789 84.4521C62.6317 84.9357 63.0298 85.3395 63.4935 85.6711L64.6567 84.0442ZM64.1509 83.5247C64.1873 83.5942 64.1861 83.6766 64.1457 83.7463L62.4157 82.7426C62.1108 83.2682 62.0976 83.9152 62.3792 84.4528L64.1509 83.5247ZM64.1446 83.7481C64.1063 83.8138 64.027 83.8703 63.9221 83.8713L63.9025 81.8714C63.2801 81.8775 62.7217 82.2178 62.4168 82.7408L64.1446 83.7481ZM63.7987 83.8649C63.8144 83.8667 63.8278 83.8682 63.8399 83.8697C63.8519 83.8712 63.8617 83.8724 63.87 83.8736C63.8869 83.8759 63.8938 83.8772 63.8949 83.8774C63.8954 83.8775 63.8879 83.8761 63.8753 83.8723C63.8622 83.8683 63.8459 83.8625 63.8279 83.8544L64.6472 82.0299C64.3906 81.9147 64.1424 81.8912 64.0259 81.8778L63.7987 83.8649ZM63.8378 83.8587C64.7107 84.2395 66.0149 84.2904 67.2469 84.111L66.9587 82.1319C65.8832 82.2885 65.0141 82.1899 64.6373 82.0255L63.8378 83.8587ZM67.2478 84.1109C68.0318 83.996 68.716 83.8347 69.3381 83.6873L68.877 81.7412C68.2522 81.8892 67.6454 82.0313 66.9579 82.132L67.2478 84.1109ZM69.3387 83.6871C70.6156 83.3837 71.6377 83.2055 72.5575 83.4022L72.9756 81.4464C71.5629 81.1443 70.1317 81.443 68.8764 81.7413L69.3387 83.6871ZM72.5684 83.4044C73.2875 83.5498 73.6605 83.7257 73.9598 83.8645L74.8014 82.0502C74.4389 81.882 73.9042 81.634 72.9647 81.4441L72.5684 83.4044ZM73.9588 83.864C74.2112 83.9815 74.4952 84.1227 74.9419 84.15L75.0641 82.1538C75.0425 82.1524 75.0337 82.1507 75.0323 82.1505C75.0317 82.1504 75.0292 82.15 75.0208 82.1471C75.0103 82.1435 74.9909 82.1363 74.9538 82.12C74.9147 82.1029 74.87 82.0821 74.8025 82.0507L73.9588 83.864ZM75.1366 84.1429C75.4619 84.0991 75.745 83.9562 75.9505 83.8598L75.1012 82.0491C75.0369 82.0793 74.9873 82.1025 74.9445 82.1218C74.902 82.1411 74.8743 82.1528 74.8551 82.1604C74.8209 82.1739 74.8347 82.1655 74.8695 82.1609L75.1366 84.1429ZM75.9498 83.8602C76.2441 83.7224 76.6194 83.5451 77.3581 83.3913L76.9502 81.4333C75.9992 81.6314 75.4667 81.878 75.1019 82.0488L75.9498 83.8602ZM77.3631 83.3902C78.272 83.196 79.3025 83.3742 80.582 83.6762L81.0415 81.7297C79.7873 81.4337 78.3468 81.1349 76.9453 81.4343L77.3631 83.3902ZM80.5806 83.6759C81.1981 83.8226 81.8796 83.9847 82.6596 84.0983L82.9477 82.1191C82.2669 82.02 81.6659 81.8781 81.0429 81.73L80.5806 83.6759ZM82.6677 84.0994C83.1073 84.1597 83.5437 84.19 83.9589 84.19V82.19C83.639 82.19 83.2935 82.1665 82.9396 82.118L82.6677 84.0994ZM83.9589 84.19C84.6081 84.19 85.1095 84.1133 85.4664 84.0274C85.6446 83.9846 85.786 83.9396 85.8912 83.9012C85.9438 83.882 85.9876 83.8643 86.0228 83.8492C86.0402 83.8417 86.0563 83.8344 86.0709 83.8276C86.078 83.8243 86.0862 83.8204 86.0951 83.816C86.0991 83.814 86.106 83.8106 86.1143 83.8064C86.1181 83.8044 86.1256 83.8004 86.135 83.7953C86.1396 83.7927 86.1477 83.7883 86.1577 83.7825C86.1636 83.779 86.1878 83.765 86.2174 83.7448L85.092 82.0915C85.1216 82.0714 85.1458 82.0574 85.1516 82.0539C85.1615 82.0482 85.1695 82.0438 85.174 82.0413C85.1832 82.0362 85.1905 82.0324 85.194 82.0306C85.2016 82.0267 85.2075 82.0238 85.2104 82.0224C85.2168 82.0192 85.2216 82.0169 85.2241 82.0158C85.2296 82.0132 85.2322 82.0121 85.232 82.0122C85.2317 82.0123 85.2228 82.0161 85.2052 82.0225C85.1701 82.0353 85.1015 82.0582 84.9986 82.0829C84.7936 82.1322 84.4492 82.19 83.9589 82.19V84.19ZM86.0993 83.8139C86.0031 83.8617 85.8793 83.8438 85.7985 83.7578L87.2562 82.3885C86.7262 81.8242 85.8943 81.6829 85.2102 82.0224L86.0993 83.8139ZM85.7964 83.7555C85.7382 83.6932 85.7116 83.5859 85.7677 83.4828L87.5244 84.4389C87.8962 83.7558 87.7644 82.9328 87.2584 82.3908L85.7964 83.7555ZM85.7668 83.4846C85.6881 83.6299 85.5315 83.8226 85.2132 84.0669L86.4311 85.6534C86.8891 85.3018 87.2707 84.9073 87.5254 84.4371L85.7668 83.4846ZM85.2305 84.0539C85.2261 84.0572 85.2373 84.0485 85.2605 84.0366L86.1698 85.8179C86.2684 85.7676 86.35 85.7132 86.4138 85.6664L85.2305 84.0539ZM85.1525 84.1006C85.07 84.1567 84.986 84.2311 84.9124 84.3251L86.4867 85.5586C86.4497 85.6057 86.4139 85.6422 86.3848 85.6691C86.3553 85.6962 86.3199 85.7253 86.2778 85.754L85.1525 84.1006ZM85.1094 84.1345C84.1064 84.8677 82.3596 85.6226 80.4489 86.2191C78.5517 86.8113 76.6267 87.2062 75.325 87.2805L75.4389 89.2772C76.9622 89.1903 79.0585 88.7483 81.0449 88.1282C83.018 87.5123 85.0174 86.6792 86.2897 85.7491L85.1094 84.1345ZM75.2882 87.2832C75.2121 87.2904 75.1107 87.2926 74.9696 87.2926V89.2926C75.1129 89.2926 75.2972 89.2912 75.4756 89.2744L75.2882 87.2832ZM66.425 85.5952C68.8837 86.7078 72.3592 87.6733 74.6027 87.7603L74.6802 85.7618C72.7713 85.6878 69.5546 84.8162 67.2496 83.7731L66.425 85.5952ZM74.9553 87.7722C75.0614 87.7738 75.2018 87.7747 75.3663 87.7583L75.1679 85.7682C75.1212 85.7728 75.0739 85.7738 74.9851 85.7724L74.9553 87.7722ZM75.3242 87.7616C77.4854 87.6378 81.0711 86.6917 83.5208 85.5811L82.6951 83.7596C80.4231 84.7895 77.0788 85.6578 75.2099 85.7649L75.3242 87.7616ZM83.194 83.674C83.0423 83.6609 82.887 83.6437 82.7277 83.6231L82.4709 85.6066C82.6535 85.6302 82.8374 85.6507 83.0219 85.6666L83.194 83.674ZM82.7447 83.6255C81.9932 83.515 81.3288 83.357 80.7034 83.2096L80.2447 85.1563C80.8606 85.3014 81.6052 85.4795 82.4539 85.6042L82.7447 83.6255ZM80.7048 83.21C79.5823 82.9437 78.3957 82.6748 77.2468 82.921L77.6658 84.8766C78.302 84.7403 79.0461 84.872 80.2433 85.156L80.7048 83.21ZM77.2504 82.9202C76.4649 83.0855 76.0542 83.2744 75.7225 83.4292L76.5683 85.2416C76.8245 85.122 77.0821 84.9995 77.6623 84.8773L77.2504 82.9202ZM75.7224 83.4293C75.4329 83.5644 75.253 83.6454 74.9363 83.6696L75.0889 85.6638C75.7867 85.6104 76.2423 85.3938 76.5685 85.2415L75.7224 83.4293ZM75.0634 83.668C74.8329 83.6563 74.6792 83.6238 74.5646 83.5891C74.4432 83.5523 74.3424 83.5069 74.1827 83.4328L73.3416 85.2474C73.6987 85.4129 74.1592 85.6246 74.9618 85.6654L75.0634 83.668ZM74.1859 83.4343C73.8537 83.2789 73.4411 83.0893 72.6659 82.9319L72.2678 84.8918C72.8291 85.0058 73.0826 85.1262 73.3383 85.2458L74.1859 83.4343ZM72.6773 82.9342C71.4955 82.6798 70.329 82.9562 69.2111 83.2212L69.6723 85.1672C70.8726 84.8828 71.5907 84.7461 72.2564 84.8895L72.6773 82.9342ZM69.2118 83.221C68.5868 83.3686 67.9172 83.5254 67.1674 83.6356L67.4584 85.6143C68.3031 85.4901 69.049 85.3145 69.6716 85.1674L69.2118 83.221ZM67.1632 83.6362C67.0229 83.6575 66.881 83.6745 66.7357 83.6893L66.9389 85.679C67.1063 85.6619 67.2816 85.6411 67.4625 85.6137L67.1632 83.6362ZM64.6871 84.1331C64.7356 84.1331 64.7765 84.1449 64.8056 84.1595L63.9083 85.947C64.1499 86.0682 64.4154 86.1331 64.6871 86.1331V84.1331ZM64.7952 84.1544C64.8033 84.1583 64.799 84.157 64.7803 84.1445C64.7622 84.1324 64.738 84.1148 64.7057 84.0898L63.4785 85.669C63.582 85.7494 63.7371 85.8635 63.9187 85.9521L64.7952 84.1544ZM64.7018 84.0867C64.7673 84.1371 64.7971 84.2079 64.7971 84.274H62.7971C62.7971 84.8155 63.0452 85.3357 63.4824 85.672L64.7018 84.0867ZM64.6484 84.4857C64.5639 84.5217 64.4494 84.5115 64.3629 84.4361L65.6775 82.9288C65.1716 82.4876 64.4677 82.3889 63.865 82.6455L64.6484 84.4857ZM64.5922 84.5863C64.5028 84.5439 64.4514 84.4585 64.4514 84.3713H66.4514C66.4514 83.6752 66.048 83.0627 65.4482 82.7787L64.5922 84.5863ZM64.4514 84.3713C64.4514 84.2612 64.5423 84.1357 64.7001 84.1304L64.7673 86.1292C65.7235 86.0971 66.4514 85.3031 66.4514 84.3713H64.4514ZM64.6102 84.1375C64.617 84.1366 64.6463 84.1331 64.6871 84.1331V86.1331C64.7607 86.1331 64.8213 86.1266 64.8573 86.1221L64.6102 84.1375ZM85.2336 84.108C85.3243 84.108 85.4102 84.155 85.4571 84.2312L83.7532 85.2785C84.0781 85.807 84.6445 86.108 85.2336 86.108V84.108ZM85.4525 84.2237C85.5138 84.3216 85.4954 84.4507 85.4012 84.5282L84.1319 82.9826C83.4454 83.5463 83.287 84.5348 83.7579 85.286L85.4525 84.2237ZM85.4072 84.5231L85.5059 84.4408L84.2245 82.9052L84.1258 82.9876L85.4072 84.5231ZM85.132 84.2137C85.132 84.19 85.1346 84.1748 85.136 84.1677C85.1376 84.1603 85.1391 84.1557 85.1404 84.1526C85.1416 84.1495 85.1442 84.1436 85.1498 84.1346C85.1553 84.1259 85.1668 84.1092 85.1878 84.0878L86.6166 85.4872C86.9473 85.1495 87.132 84.6642 87.132 84.2137H85.132ZM85.2083 84.0674C85.2038 84.0717 85.1994 84.0759 85.1952 84.0799C85.191 84.0839 85.1876 84.0871 85.185 84.0894C85.1822 84.0919 85.1817 84.0923 85.1832 84.091C85.184 84.0903 85.186 84.0887 85.1889 84.0863C85.1917 84.084 85.1964 84.0802 85.2026 84.0754L86.4219 85.6608C86.5004 85.6004 86.5765 85.5264 86.596 85.5076L85.2083 84.0674ZM85.2018 84.076C85.147 84.1183 85.134 84.1242 85.1198 84.1311L85.9979 85.9281C86.1663 85.8457 86.2948 85.7587 86.4227 85.6601L85.2018 84.076ZM85.1054 84.1383C85.144 84.1187 85.1889 84.108 85.2336 84.108V86.108C85.4973 86.108 85.764 86.0472 86.0123 85.9209L85.1054 84.1383ZM55.178 52.6203C52.1578 52.7863 49.9789 51.8431 48.0678 50.9243C47.1362 50.4764 46.1769 49.9863 45.2594 49.7044C44.3039 49.4109 43.2864 49.3051 42.217 49.6935L42.8997 51.5733C43.4302 51.3807 43.9766 51.4026 44.6721 51.6163C45.4057 51.8416 46.1845 52.238 47.2013 52.7268C49.1869 53.6814 51.7454 54.812 55.2878 54.6173L55.178 52.6203ZM42.5583 50.6334C43.3433 51.253 43.3431 51.2532 43.3429 51.2535C43.3428 51.2535 43.3426 51.2538 43.3425 51.2539C43.3423 51.2542 43.3421 51.2544 43.342 51.2546C43.3416 51.2551 43.3414 51.2553 43.3413 51.2555C43.341 51.2558 43.3412 51.2556 43.3417 51.2549C43.3428 51.2536 43.3455 51.2503 43.3497 51.2451C43.3582 51.2349 43.3728 51.2174 43.3932 51.194C43.434 51.1469 43.4973 51.0764 43.5801 50.9915C43.7476 50.8199 43.9857 50.599 44.2708 50.3947C44.8726 49.9635 45.5035 49.7303 46.083 49.874L46.5642 47.9328C45.1368 47.5789 43.8851 48.2107 43.106 48.7689C42.7006 49.0593 42.3737 49.3642 42.1488 49.5947C42.0354 49.7109 41.9457 49.8105 41.8825 49.8833C41.8508 49.9198 41.8257 49.9497 41.8074 49.9719C41.7983 49.9829 41.7908 49.9921 41.7852 49.9991C41.7823 50.0026 41.7799 50.0056 41.778 50.0081C41.777 50.0093 41.7761 50.0104 41.7754 50.0113C41.775 50.0118 41.7746 50.0123 41.7743 50.0127C41.7741 50.0129 41.7739 50.0132 41.7738 50.0133C41.7736 50.0135 41.7734 50.0138 42.5583 50.6334ZM46.0805 49.8734C47.3526 50.1922 48.1267 50.7811 49.492 51.4834C50.8221 52.1676 52.4225 52.7631 54.9489 52.7954L54.9745 50.7956C52.8101 50.7679 51.5125 50.2736 50.4068 49.7049C49.3363 49.1542 48.1368 48.3269 46.5667 47.9334L46.0805 49.8734ZM54.9488 52.7954C59.953 52.8599 62.7063 50.5708 63.5857 50.085L62.6187 48.3343C61.5047 48.9497 59.3158 50.8515 54.9746 50.7956L54.9488 52.7954ZM63.8166 48.51C63.0182 48.2132 62.2735 48.65 62.2663 48.6607C62.264 48.6643 62.2606 48.6695 62.2596 48.6712C62.258 48.6736 62.2567 48.6757 62.2566 48.6758C62.2553 48.6779 62.2563 48.6764 62.2554 48.6777C62.255 48.6784 62.2541 48.6798 62.2528 48.6817C62.2503 48.6858 62.2454 48.6933 62.2382 48.7042C62.2237 48.726 62.1998 48.7616 62.1662 48.809C62.099 48.9039 61.9936 49.046 61.8498 49.2204C61.5613 49.57 61.1222 50.0448 60.5307 50.5288C59.3496 51.4953 57.5782 52.4865 55.1772 52.6203L55.2886 54.6172C58.2119 54.4542 60.3749 53.2406 61.7973 52.0767C62.5075 51.4955 63.0374 50.9236 63.3926 50.493C63.5705 50.2773 63.7056 50.0958 63.7984 49.9647C63.8449 49.8991 63.8808 49.8461 63.9063 49.8075C63.9191 49.7882 63.9291 49.7727 63.9365 49.7612C63.9403 49.7554 63.9432 49.7508 63.9452 49.7476C63.9456 49.747 63.9475 49.744 63.9468 49.7451C63.9467 49.7451 63.9465 49.7456 63.9463 49.7459C63.946 49.7463 63.9451 49.7477 63.9446 49.7486C63.9436 49.7501 63.9403 49.7552 63.938 49.7587C63.9309 49.7694 63.1862 50.2061 62.3878 49.9094L63.8166 48.51ZM91.7995 54.6172C95.342 54.8119 97.9005 53.6814 99.8862 52.7268C100.903 52.238 101.682 51.8416 102.416 51.6162C103.111 51.4026 103.658 51.3806 104.189 51.5733L104.871 49.6934C103.802 49.3051 102.784 49.4109 101.828 49.7044C100.911 49.9862 99.9514 50.4764 99.0197 50.9243C97.1084 51.8431 94.9295 52.7863 91.9093 52.6202L91.7995 54.6172ZM104.53 50.6334C105.315 50.0142 105.315 50.014 105.315 50.0137C105.315 50.0136 105.315 50.0133 105.314 50.0131C105.314 50.0127 105.314 50.0122 105.313 50.0118C105.313 50.0108 105.312 50.0097 105.311 50.0085C105.309 50.006 105.306 50.003 105.304 49.9995C105.298 49.9925 105.29 49.9833 105.281 49.9722C105.263 49.9501 105.238 49.9202 105.206 49.8837C105.143 49.8108 105.053 49.7111 104.94 49.5949C104.715 49.3643 104.388 49.0594 103.983 48.7689C103.203 48.2102 101.951 47.5791 100.523 47.9326L101.003 49.8741C101.585 49.73 102.217 49.9639 102.818 50.3947C103.103 50.5989 103.341 50.8197 103.508 50.9912C103.591 51.0761 103.654 51.1466 103.695 51.1936C103.715 51.217 103.73 51.2344 103.738 51.2447C103.743 51.2498 103.745 51.2531 103.746 51.2545C103.747 51.2551 103.747 51.2553 103.747 51.255C103.747 51.2549 103.746 51.2546 103.746 51.2541C103.746 51.2539 103.746 51.2537 103.746 51.2534C103.745 51.2533 103.745 51.2531 103.745 51.253C103.745 51.2527 103.745 51.2525 104.53 50.6334ZM100.519 47.9334C98.9507 48.3269 97.7504 49.154 96.6793 49.7048C95.5728 50.2736 94.2748 50.7679 92.1125 50.7955L92.138 52.7954C94.6626 52.7631 96.2633 52.1675 97.5938 51.4834C98.9596 50.7812 99.7347 50.1922 101.006 49.8733L100.519 47.9334ZM92.1124 50.7955C87.7735 50.8515 85.5827 48.9496 84.471 48.3346L83.5029 50.0847C84.3816 50.5708 87.1359 52.8599 92.1382 52.7954L92.1124 50.7955ZM84.9869 49.2096C84.2702 50.1687 83.1448 49.7489 83.1422 49.7448C83.1413 49.7435 83.1402 49.7418 83.14 49.7413C83.1398 49.741 83.1394 49.7405 83.1399 49.7412C83.1405 49.7421 83.1414 49.7436 83.1425 49.7454C83.1449 49.7491 83.1479 49.754 83.1517 49.7599C83.1592 49.7716 83.1694 49.7873 83.1821 49.8067C83.2077 49.8453 83.2436 49.8985 83.29 49.9641C83.3828 50.0953 83.5177 50.2768 83.6955 50.4926C84.0504 50.9233 84.58 51.4953 85.2899 52.0765C86.7118 53.2406 88.8746 54.4542 91.7988 54.6172L91.9101 52.6203C89.5082 52.4864 87.7372 51.4953 86.5569 50.529C85.9657 50.045 85.527 49.5703 85.239 49.2207C85.0953 49.0463 84.9901 48.9043 84.923 48.8095C84.8896 48.7621 84.8657 48.7267 84.8514 48.705C84.8442 48.6942 84.8394 48.6867 84.837 48.683C84.8358 48.6811 84.8352 48.68 84.835 48.6798C84.8349 48.6797 84.8349 48.6796 84.8348 48.6795C84.8348 48.6795 84.8347 48.6794 84.8347 48.6792C84.8346 48.6791 84.8343 48.6787 84.8341 48.6783C84.8337 48.6778 84.8326 48.6759 84.8317 48.6745C84.8291 48.6704 83.7037 48.2506 82.9869 49.2096H84.9869ZM74.5276 71.097C73.5093 71.097 72.486 70.6949 71.6607 70.2327C71.2567 70.0065 70.9202 69.7772 70.6804 69.6004C70.5609 69.5124 70.4666 69.4382 70.4012 69.3851C70.3685 69.3586 70.3431 69.3375 70.3256 69.3227C70.3168 69.3153 70.3101 69.3095 70.3054 69.3055C70.3006 69.3013 70.2983 69.2993 70.2986 69.2995L68.9755 70.7994C69.0567 70.871 69.7068 71.4308 70.6835 71.9777C71.6482 72.518 73.022 73.097 74.5276 73.097V71.097ZM70.2939 69.2954C70.3986 69.3867 70.3998 69.5285 70.3245 69.6191L68.7875 68.3393C68.1797 69.0693 68.2506 70.1678 68.9802 70.8035L70.2939 69.2954ZM70.3199 69.6245C70.23 69.7309 70.0616 69.7482 69.9497 69.6512L71.2602 68.1403C70.5248 67.5025 69.4173 67.5938 68.7921 68.3339L70.3199 69.6245ZM69.969 69.6675C69.9592 69.6594 70.0085 69.701 70.0754 69.7544C70.1442 69.8094 70.2409 69.8845 70.3616 69.973C70.6022 70.1493 70.943 70.382 71.3531 70.6147C72.1492 71.0665 73.3148 71.581 74.5628 71.5771L74.5565 69.5771C73.8225 69.5794 73.0209 69.2616 72.3402 68.8753C71.6806 68.501 71.2423 68.1252 71.2408 68.124L69.969 69.6675ZM74.5688 71.5771C77.4597 71.5505 79.0377 69.5026 79.1036 69.4142L77.5 68.2191C77.541 68.164 76.4752 69.5595 74.5504 69.5772L74.5688 71.5771ZM79.1006 69.4183C79.0166 69.5297 78.8483 69.5557 78.7315 69.4648L79.9593 67.8861C79.192 67.2893 78.0889 67.4372 77.503 68.215L79.1006 69.4183ZM78.7269 69.4612C78.6232 69.3796 78.609 69.2403 78.683 69.1417L80.2829 70.3417C80.8566 69.5768 80.7194 68.4844 79.9639 67.8897L78.7269 69.4612ZM78.6868 69.1366C78.6584 69.174 77.2032 71.0719 74.5638 71.0967L74.5826 73.0966C78.1969 73.0626 80.1646 70.4974 80.2791 70.3468L78.6868 69.1366ZM74.5488 71.097C74.5493 71.0969 74.548 71.097 74.5441 71.097C74.54 71.097 74.5352 71.097 74.5276 71.097V73.097C74.541 73.097 74.5685 73.0971 74.5975 73.0964L74.5488 71.097ZM115.724 41.682H111.855V43.682H115.724V41.682ZM111.855 41.682C112.017 41.682 112.111 41.8102 112.111 41.9216H110.111C110.111 42.8728 110.871 43.682 111.855 43.682V41.682ZM112.111 41.9216V38.2808H110.111V41.9216H112.111ZM112.111 38.2808C112.111 38.3937 112.017 38.5212 111.855 38.5212V36.5212C110.871 36.5212 110.111 37.3311 110.111 38.2808H112.111ZM111.855 38.5212H115.724V36.5212H111.855V38.5212ZM115.724 38.5212C115.562 38.5212 115.468 38.3943 115.468 38.2808H117.468C117.468 37.3304 116.707 36.5212 115.724 36.5212V38.5212ZM115.468 38.2808V41.9216H117.468V38.2808H115.468ZM115.468 41.9208C115.468 41.8102 115.562 41.682 115.724 41.682V43.682C116.708 43.682 117.468 42.8736 117.468 41.9225L115.468 41.9208ZM112.6 42.1624H114.98V40.1624H112.6V42.1624ZM115.98 41.1624V39.0412H113.98V41.1624H115.98ZM114.98 38.0412H112.6V40.0412H114.98V38.0412ZM111.6 39.0412V41.1624H113.6V39.0412H111.6ZM143.256 45.5855H115.724V47.5855H143.256V45.5855ZM115.724 45.5855C115.886 45.5855 115.98 45.7131 115.98 45.8252H113.98C113.98 46.7771 114.741 47.5855 115.724 47.5855V45.5855ZM115.98 45.8252V34.378H113.98V45.8252H115.98ZM115.98 34.378C115.98 34.4926 115.883 34.6192 115.724 34.6192V32.6192C114.744 32.6192 113.98 33.4236 113.98 34.378H115.98ZM115.724 34.6192H143.256V32.6192H115.724V34.6192ZM143.256 34.6192C143.097 34.6192 143 34.4926 143 34.378H145C145 33.4236 144.236 32.6192 143.256 32.6192V34.6192ZM143 34.378C143 34.266 143.094 34.1383 143.256 34.1383V36.1383C144.239 36.1383 145 35.3299 145 34.378H143ZM143.256 34.1383H116.468V36.1383H143.256V34.1383ZM115.468 35.1383V45.066H117.468V35.1383H115.468ZM116.468 46.066H143.256V44.066H116.468V46.066ZM143.256 46.066C143.096 46.066 143 45.9391 143 45.8252H145C145 44.8715 144.237 44.066 143.256 44.066V46.066ZM143 45.8252C143 45.7131 143.094 45.5855 143.256 45.5855V47.5855C144.239 47.5855 145 46.7771 145 45.8252H143ZM111.607 39.8623H95.3113V41.8623H111.607V39.8623ZM95.3113 39.8623C95.4723 39.8623 95.5667 39.9886 95.5667 40.102H93.5667C93.5667 41.0545 94.3294 41.8623 95.3113 41.8623V39.8623ZM95.5667 40.102C95.5667 40.2163 95.471 40.3424 95.3113 40.3424V38.3424C94.3299 38.3424 93.5667 39.1486 93.5667 40.102H95.5667ZM95.3113 40.3424H111.607V38.3424H95.3113V40.3424ZM111.607 40.3424C111.447 40.3424 111.352 40.216 111.352 40.102H113.352C113.352 39.1496 112.59 38.3424 111.607 38.3424V40.3424ZM111.352 40.102C111.352 39.9892 111.446 39.8623 111.607 39.8623V41.8623C112.591 41.8623 113.352 41.0531 113.352 40.102H111.352ZM121.577 45.5833C121.74 45.5833 121.834 45.7136 121.834 45.823H119.834C119.834 46.7743 120.592 47.5833 121.577 47.5833V45.5833ZM121.834 45.823V39.7467H119.834V45.823H121.834ZM121.834 39.7467C121.834 39.8581 121.739 39.9875 121.577 39.9875V37.9875C120.593 37.9875 119.834 38.7955 119.834 39.7467H121.834ZM121.577 39.9875C121.42 39.9875 121.323 39.8616 121.323 39.7467H123.323C123.323 38.7919 122.559 37.9875 121.577 37.9875V39.9875ZM121.323 39.7467V45.823H123.323V39.7467H121.323ZM121.323 45.8238C121.322 45.7095 121.42 45.5833 121.577 45.5833V47.5833C122.559 47.5833 123.323 46.7784 123.323 45.8222L121.323 45.8238ZM128.324 45.5833C128.484 45.5833 128.579 45.7105 128.579 45.823H126.579C126.579 46.7775 127.342 47.5833 128.324 47.5833V45.5833ZM128.579 45.823V39.7467H126.579V45.823H128.579ZM128.579 39.7467C128.579 39.8612 128.483 39.9875 128.324 39.9875V37.9875C127.343 37.9875 126.579 38.7923 126.579 39.7467H128.579ZM128.324 39.9875C128.163 39.9875 128.068 39.8594 128.068 39.7467H130.068C130.068 38.7942 129.307 37.9875 128.324 37.9875V39.9875ZM128.068 39.7467V45.823H130.068V39.7467H128.068ZM128.068 45.823C128.068 45.7124 128.162 45.5833 128.324 45.5833V47.5833C129.308 47.5833 130.068 46.7756 130.068 45.823H128.068ZM135.07 45.5833C135.231 45.5833 135.326 45.7105 135.326 45.823H133.326C133.326 46.7775 134.089 47.5833 135.07 47.5833V45.5833ZM135.326 45.823V39.7467H133.326V45.823H135.326ZM135.326 39.7467C135.326 39.8609 135.23 39.9875 135.07 39.9875V37.9875C134.089 37.9875 133.326 38.7926 133.326 39.7467H135.326ZM135.07 39.9875C134.911 39.9875 134.814 39.8612 134.814 39.7467H136.814C136.814 38.7923 136.051 37.9875 135.07 37.9875V39.9875ZM134.814 39.7467V45.823H136.814V39.7467H134.814ZM134.814 45.823C134.814 45.7105 134.91 45.5833 135.07 45.5833V47.5833C136.052 47.5833 136.814 46.7775 136.814 45.823H134.814ZM41.9102 39.0003C42.011 39.0003 42.1013 39.0566 42.1428 39.1418L40.3447 40.0175C40.6464 40.637 41.2649 41.0003 41.9102 41.0003V39.0003ZM42.1422 39.1406C42.1937 39.246 42.1601 39.3864 42.0319 39.4518L41.1232 37.6701C40.2591 38.1108 39.9277 39.1642 40.3453 40.0188L42.1422 39.1406ZM42.0337 39.4508C42.3977 39.2642 42.8133 39.0211 43.2451 38.7699L42.2395 37.0411C41.7891 37.3031 41.427 37.5144 41.1213 37.6711L42.0337 39.4508ZM43.2453 38.7699C44.8684 37.8254 47.1671 36.4961 49.8926 36.0319L49.5569 34.0603C46.431 34.5927 43.8459 36.1065 42.2394 37.0412L43.2453 38.7699ZM49.8912 36.0322C50.6427 35.9053 51.8987 35.9832 53.4742 36.2283C55.0155 36.4681 56.7515 36.8489 58.4043 37.258C61.7081 38.0757 64.616 38.9906 64.8443 39.0634L65.4517 37.1578C65.203 37.0785 62.2487 36.1491 58.8848 35.3165C57.2038 34.9005 55.4046 34.5046 53.7817 34.2521C52.1932 34.0049 50.6562 33.8748 49.5583 34.06L49.8912 36.0322ZM64.8491 39.0649C64.7015 39.0186 64.6485 38.8765 64.6816 38.7679L66.5948 39.3506C66.8717 38.4415 66.3801 37.4486 65.4469 37.1563L64.8491 39.0649ZM64.6811 38.7695C64.7129 38.6645 64.8479 38.5531 65.021 38.6103L64.3929 40.5091C65.3514 40.8262 66.3211 40.2547 66.5953 39.3491L64.6811 38.7695ZM65.0086 38.6063C63.4133 38.1015 60.4014 37.2209 57.4297 36.5252C55.9445 36.1775 54.454 35.8723 53.148 35.6844C51.8754 35.5013 50.6659 35.4113 49.8 35.5597L50.1379 37.531C50.6673 37.4402 51.6034 37.4827 52.8631 37.664C54.0892 37.8405 55.5175 38.1316 56.9738 38.4726C59.8849 39.1541 62.8466 40.0199 64.4052 40.5131L65.0086 38.6063ZM49.801 35.5595C46.9368 36.0475 44.5802 37.4286 42.9763 38.3619L43.9821 40.0905C45.6077 39.1446 47.6751 37.9505 50.1369 37.5311L49.801 35.5595ZM42.9767 38.3616C42.5016 38.6377 42.114 38.8624 41.7875 39.0294L42.6983 40.81C43.0827 40.6134 43.5213 40.3583 43.9816 40.0908L42.9767 38.3616ZM41.7811 39.0328C41.8264 39.0092 41.8726 39.0003 41.9102 39.0003V41.0003C42.1725 41.0003 42.4462 40.9413 42.7048 40.8067L41.7811 39.0328ZM104.911 38.6966C104.953 38.6966 104.997 38.7066 105.037 38.7272L104.121 40.5048C104.373 40.635 104.645 40.6966 104.911 40.6966V38.6966ZM105.034 38.7253C104.708 38.5591 104.318 38.3343 103.848 38.0589L102.837 39.7845C103.301 40.0564 103.739 40.31 104.124 40.5066L105.034 38.7253ZM103.846 38.0574C102.242 37.1244 99.8844 35.7432 97.0197 35.2564L96.6846 37.2282C99.1466 37.6465 101.215 38.8406 102.84 39.786L103.846 38.0574ZM97.0224 35.2569C96.1555 35.1072 94.9454 35.1966 93.6727 35.3794C92.3664 35.5671 90.8759 35.8722 89.3908 36.2201C86.4193 36.9161 83.4077 37.7975 81.8123 38.3026L82.4161 40.2093C83.975 39.7157 86.9362 38.8491 89.8469 38.1674C91.3029 37.8264 92.731 37.5352 93.9571 37.3591C95.2167 37.1781 96.1526 37.1363 96.682 37.2277L97.0224 35.2569ZM81.8039 38.3053C81.971 38.2508 82.1066 38.3554 82.14 38.4657L80.2258 39.0453C80.5017 39.9562 81.4747 40.5167 82.4245 40.2066L81.8039 38.3053ZM82.14 38.4657C82.1724 38.5727 82.1217 38.7129 81.9732 38.7595L81.3744 36.8513C80.4418 37.1439 79.951 38.1377 80.2258 39.0453L82.14 38.4657ZM81.9775 38.7582C82.2055 38.6855 85.1119 37.7702 88.415 36.9526C90.0674 36.5435 91.8031 36.1629 93.3445 35.9234C94.9201 35.6785 96.1767 35.6012 96.9293 35.7287L97.2634 33.7568C96.1641 33.5705 94.6264 33.7002 93.0374 33.9471C91.4143 34.1993 89.6151 34.5951 87.9343 35.0112C84.571 35.8438 81.618 36.7736 81.3701 36.8526L81.9775 38.7582ZM96.9288 35.7286C99.6552 36.1921 101.953 37.5213 103.577 38.4664L104.583 36.7379C102.976 35.8024 100.391 34.2885 97.264 33.7569L96.9288 35.7286ZM103.576 38.4659C104.009 38.7183 104.424 38.9615 104.788 39.1478L105.699 37.3673C105.395 37.2117 105.033 37.0006 104.584 36.7384L103.576 38.4659ZM104.79 39.1486C104.664 39.0842 104.627 38.9429 104.68 38.8341L106.474 39.7178C106.897 38.8599 106.561 37.8062 105.698 37.3666L104.79 39.1486ZM104.678 38.839C104.72 38.7523 104.811 38.6966 104.911 38.6966V40.6966C105.556 40.6966 106.175 40.3338 106.477 39.7128L104.678 38.839Z" fill="#C08E71" mask="url(#path-2-inside-1_944_6)"/>
</svg>
