<svg width="26" height="24" viewBox="0 0 26 24" fill="none" xmlns="http://www.w3.org/2000/svg">
<path d="M7 15.5355L1 15.5355M1 15.5355L1 21.5355M1 15.5355L5.24264 19.7782C6.78102 21.3166 8.74103 22.3642 10.8748 22.7886C13.0086 23.2131 15.2203 22.9952 17.2303 22.1627C19.2403 21.3301 20.9583 19.9202 22.167 18.1113C23.3757 16.3023 24.0208 14.1756 24.0208 12C24.0208 9.82441 23.3757 7.69768 22.167 5.88873C20.9583 4.07979 19.2403 2.6699 17.2303 1.83733C15.2203 1.00477 13.0086 0.786929 10.8748 1.21137C8.74103 1.6358 6.78102 2.68345 5.24264 4.22183" stroke="#C08E71" stroke-width="2" stroke-linecap="round" stroke-linejoin="round"/>
</svg>
