<svg width="202" height="80" viewBox="0 0 202 80" fill="none" xmlns="http://www.w3.org/2000/svg">
<path fill-rule="evenodd" clip-rule="evenodd" d="M39.3744 0.32592C36.5316 2.01374 34.1576 4.17197 32.3316 6.72857C32.0651 7.10167 31.8543 7.4121 31.8631 7.41837C31.872 7.42464 32.0678 7.53779 32.2984 7.66979C33.2974 8.242 34.4726 9.06301 35.4976 9.90505C35.8562 10.1996 36.0281 10.312 36.072 10.2804C36.1064 10.2556 36.4086 10.004 36.7436 9.72113C37.6344 8.96906 39.0442 7.94109 39.7489 7.52979L39.9755 7.39755L40.7105 7.88178C44.6017 10.4455 47.3972 13.6802 48.8117 17.256C49.166 18.1516 49.5268 19.4732 49.6616 20.3687C49.7161 20.731 49.7144 20.7861 49.6478 20.8234C49.4558 20.9309 48.34 21.798 47.8065 22.2543C46.2891 23.5521 44.5955 25.485 43.6046 27.0502L43.3192 27.5009L43.2864 27.1582C43.2683 26.9697 43.2289 26.4969 43.1988 26.1075C43.0383 24.0269 42.3713 21.3911 41.4701 19.2758L41.117 18.4474L41.4045 18.0916C41.8547 17.5346 43.0702 16.3336 43.6357 15.8871C44.2314 15.4168 45.096 14.8315 45.7478 14.4573C45.9986 14.3132 46.2039 14.1835 46.2039 14.1689C46.2039 14.1131 45.4896 13.1947 45.0715 12.7129C44.8311 12.4359 44.4682 12.0454 44.2652 11.8452L43.8961 11.4812L43.7006 11.6384C43.4832 11.8132 42.3871 12.9923 41.9086 13.5662C41.4326 14.1369 40.7945 15.0088 40.361 15.6806C40.0032 16.235 39.9619 16.2817 39.9021 16.1987C39.866 16.1486 39.6463 15.8188 39.4138 15.466C37.7941 13.0077 35.4517 10.6654 33.0134 9.06573C30.0621 7.12955 26.7571 5.92414 23.2992 5.52261C22.6146 5.44316 20.902 5.33944 20.0637 5.32671C19.9752 5.32533 19.7073 5.76465 19.1797 6.77673C17.78 9.46153 16.925 12.4217 16.69 15.3968L16.6565 15.821L17.7589 15.8506C18.8889 15.8809 20.1531 16.0049 21.1501 16.1833C21.7259 16.2863 21.7922 16.2774 21.7945 16.0975C21.7954 16.0271 22.1622 15.0278 22.443 14.3311C22.5523 14.0597 22.8689 13.3711 23.1464 12.8009L23.6511 11.7642L24.3874 11.8007C30.366 12.0969 35.3472 14.2944 38.4223 17.9922L38.7995 18.4458L38.5774 18.9544C37.4554 21.5232 36.8167 24.1597 36.6491 26.9142L36.613 27.5063L36.2218 26.9184C35.2228 25.4168 34.1335 24.1356 32.7421 22.8258C32.2256 22.3395 31.041 21.3668 30.5098 20.9927C30.1877 20.7659 30.1878 20.7665 30.3027 20.0986C30.5878 18.4407 31.2466 16.6622 32.1707 15.0563L32.4916 14.4985L32.2594 14.3972C31.1676 13.9207 29.1864 13.2591 29.1026 13.343C29.0507 13.3949 28.738 14.6277 28.5772 15.4139C28.3542 16.5053 28.1219 18.484 28.1077 19.4143C28.1073 19.4419 27.7464 19.2854 27.3057 19.0666C23.2686 17.0625 18.9077 16.2914 14.4975 16.8019C11.6048 17.1367 8.56671 18.1484 5.90493 19.663L5.32553 19.9928L5.32627 20.6161C5.32903 22.9746 5.77564 25.6832 6.52875 27.9086C6.88502 28.9614 7.62946 30.6891 7.72675 30.6891C7.74944 30.6891 7.92296 30.5977 8.11236 30.486C9.04457 29.9363 10.5613 29.228 11.7112 28.8055C12.0096 28.6958 12.2674 28.5919 12.2841 28.5744C12.3008 28.5569 12.2519 28.2206 12.1754 27.8271C12.0243 27.0494 11.8675 25.7841 11.7872 24.6936C11.7054 23.5828 11.6369 23.7397 12.3649 23.3693C15.022 22.0172 17.7198 21.1793 20.4392 20.8616C21.1377 20.78 23.4417 20.7788 24.0635 20.8597C25.3579 21.0282 26.4887 21.2956 27.5716 21.6891L28.1952 21.9157L28.2271 22.2437C28.4989 25.0323 29.2817 27.7736 30.5013 30.208C30.6747 30.5541 30.8057 30.8372 30.7924 30.8372C30.7792 30.8372 30.4839 30.6946 30.1362 30.5202C27.8469 29.3722 24.769 28.4756 22.4856 28.2915C22.255 28.2729 22.0217 28.2411 21.967 28.2207C21.8005 28.1587 21.3131 26.6976 21.0785 25.5572C20.8705 24.5455 20.8069 23.9639 20.7752 22.7815C20.7488 21.7975 20.7352 21.6589 20.6661 21.659C20.5413 21.6591 18.9863 21.8937 18.7133 21.9536C17.5788 22.2023 17.2064 22.3123 17.2295 22.3917C17.2425 22.4364 17.3115 22.6951 17.3828 22.9665C17.7492 24.3608 18.2714 25.752 18.9642 27.18C19.2194 27.7062 19.4283 28.1413 19.4283 28.1469C19.4283 28.1526 19.1121 28.1719 18.7256 28.1898C15.243 28.3515 11.5692 29.4251 8.58974 31.1517C5.54097 32.9186 3.00937 35.3006 1.04873 38.2473C0.588126 38.9396 0 39.9257 0 40.0056C0 40.0807 0.814214 41.4183 1.22246 42.014C2.78372 44.2922 4.73094 46.2573 6.98424 47.8288L7.38552 48.1086L7.69455 47.5779C8.28445 46.5649 9.30291 45.1248 10.0184 44.2921C10.3045 43.9591 10.307 43.9535 10.2207 43.8428C10.1727 43.7811 9.90884 43.4639 9.63452 43.1379C9.36016 42.8119 8.94817 42.2924 8.71888 41.9835C8.23268 41.3283 7.39657 40.0754 7.39657 40.002C7.39657 39.9284 8.28002 38.6005 8.75009 37.9676C10.1089 36.1381 11.9657 34.279 13.5646 33.1473C14.9434 32.1714 16.4367 31.394 17.875 30.9033C18.6751 30.6304 20.3039 30.245 20.6576 30.245C20.706 30.245 20.9642 30.5444 21.2853 30.9729C22.8301 33.0344 24.7059 34.8017 26.9209 36.2826C27.3466 36.5672 27.4552 36.66 27.3623 36.66C27.2945 36.66 26.9406 36.6831 26.5759 36.7113C23.7983 36.9261 21.3029 37.5554 18.8217 38.6667L18.437 38.839L18.2546 38.7002C16.8304 37.6159 15.2591 35.7391 14.3244 34.0058C14.2363 33.8423 14.1593 33.7542 14.1185 33.7699C13.9036 33.8524 12.6055 34.9235 11.9085 35.5934L11.4154 36.0674L12.125 36.7603C13.2532 37.8621 14.3931 38.7775 15.6718 39.6089L16.2719 39.9991L15.6681 40.3891C10.9534 43.4348 7.5088 48.1657 6.09571 53.5362C5.61878 55.3487 5.3274 57.5567 5.32602 59.3689L5.32553 59.9957L5.63372 60.1794C6.23309 60.5366 8.12015 61.4646 8.75369 61.7137C11.0091 62.6004 13.0589 63.0845 15.3972 63.2826L15.7793 63.3151L15.7798 63.0271C15.7817 61.8673 16.0022 59.5013 16.1928 58.5946C16.2327 58.405 16.2614 58.2478 16.2566 58.2455C16.2517 58.2431 15.915 58.1237 15.5081 57.98C14.5605 57.6455 13.4912 57.1863 12.5249 56.6989L11.7605 56.3134L11.7714 55.8007C11.8039 54.2618 12.1423 51.9702 12.5721 50.3781C13.2739 47.7787 14.3341 45.6218 15.8708 43.667C16.2912 43.1323 17.5543 41.8539 18.0812 41.4298L18.4352 41.1449L18.6368 41.2478C19.0216 41.4442 20.3939 41.9776 21.1542 42.2262C22.9547 42.8151 24.6675 43.1469 26.6219 43.2855L27.479 43.3463L26.9279 43.7113C24.7091 45.1807 22.7499 47.0403 21.1526 49.193C20.8574 49.5908 20.7208 49.7365 20.6435 49.7364C20.2206 49.7356 18.68 49.3744 17.8197 49.0743C16.85 48.736 15.6496 48.1739 14.8231 47.6711C14.6362 47.5573 14.479 47.4704 14.4739 47.4778C14.4348 47.5344 14.0294 48.5193 13.8894 48.8977C13.6448 49.5591 13.3591 50.52 13.3479 50.719L13.3385 50.8872L14.0535 51.0774C15.4897 51.4594 17.0417 51.7036 18.68 51.8055C19.0686 51.8297 19.3934 51.857 19.4019 51.8663C19.4105 51.8755 19.2424 52.2384 19.0284 52.6726C18.5195 53.7053 18.2485 54.3535 17.8731 55.436C16.0402 60.7213 16.2247 66.4153 18.3954 71.5576C18.6873 72.2489 19.4416 73.7552 19.7927 74.3477L19.9755 74.6561L20.5032 74.6559C23.288 74.655 26.2876 74.0874 28.9206 73.0631C29.4157 72.8705 30.575 72.3479 30.6375 72.2891C30.6597 72.2682 30.5645 72.0539 30.4259 71.8129C29.7319 70.6057 29.0196 69.0272 28.5732 67.7073C28.561 67.6711 28.5128 67.6541 28.4647 67.6688C27.8493 67.858 24.7471 68.2349 23.7583 68.2407C23.6629 68.2412 23.4508 67.8593 22.9225 66.7361C21.7471 64.2369 20.9976 61.5474 20.8053 59.1388C20.7395 58.3152 20.7703 56.3286 20.8589 55.6827C20.9559 54.9754 21.1543 54.0178 21.3343 53.3881C21.5014 52.8037 21.8269 51.8728 21.8896 51.8002C21.9055 51.7817 22.2506 51.7305 22.6563 51.6863C25.2149 51.4074 27.9178 50.5974 30.3391 49.384L30.8208 49.1426L30.5549 49.674C29.3621 52.0577 28.5681 54.7203 28.2774 57.3111C28.2318 57.7182 28.1879 58.0585 28.1799 58.0673C28.1408 58.1104 27.1792 58.4522 26.677 58.6017C25.4015 58.9811 24.2504 59.1558 22.7627 59.1957L21.6345 59.2259L21.6669 59.5762C21.7366 60.3307 21.9612 61.5006 22.2425 62.5744L22.2898 62.7551L22.9178 62.5911C24.5842 62.1559 25.9458 61.6172 28.0653 60.5544C28.0831 60.5454 28.1116 60.7336 28.1286 60.9725C28.2441 62.5974 28.3398 63.387 28.5549 64.4909C28.9645 66.5933 29.658 68.5821 30.6585 70.524C32.6236 74.3378 35.6242 77.4786 39.4146 79.689L39.9479 80L40.1543 79.8865C42.6371 78.5211 45.1468 76.4001 46.8981 74.1873C47.301 73.6782 48.0288 72.6564 48.0257 72.6042C48.0243 72.5793 47.7212 72.3813 47.3523 72.1642C46.3203 71.5568 45.3853 70.8849 44.031 69.7778L43.8886 69.6613L43.5299 69.9782C42.7392 70.677 41.6322 71.5127 40.6143 72.1794L39.977 72.5967L39.8236 72.5077C39.1198 72.0993 37.5314 70.952 36.6662 70.227C35.9464 69.6239 34.3343 67.9763 33.7576 67.2543C31.9457 64.9858 30.7357 62.418 30.3045 59.9264C30.1821 59.2197 30.1824 59.2186 30.5378 58.979C30.7069 58.8651 31.1 58.5678 31.4115 58.3184C33.3192 56.7908 34.9084 55.0583 36.2238 53.0718L36.613 52.4841L36.6249 52.7017C36.7685 55.3437 37.2472 57.6308 38.1576 60.0251C38.3319 60.4835 38.6187 61.1603 38.7298 61.3752C38.8067 61.524 38.8063 61.525 38.5199 61.8857C37.4256 63.2637 35.6539 64.7343 34.0177 65.6228L33.6774 65.8075L33.9125 66.1256C34.4004 66.7859 35.2643 67.7924 35.7601 68.2783L36.0245 68.5374L36.3379 68.2372C37.4794 67.1434 39.0009 65.2626 39.7727 63.9911L39.9529 63.6943L40.3385 64.2882C42.5674 67.7212 45.6447 70.4801 49.2577 72.2845C51.0767 73.193 52.8144 73.7848 54.9072 74.2085C56.1385 74.4579 58.0948 74.6536 59.3726 74.6554L59.9424 74.6561L60.2747 74.0763C61.5871 71.7866 62.5339 69.1575 62.9686 66.5959C63.1193 65.7081 63.2025 65.0289 63.2264 64.4909L63.2407 64.1702L62.0819 64.139C60.7731 64.1038 58.8906 63.8973 58.2795 63.7219C58.2173 63.704 58.1599 63.8136 58.0132 64.2307C57.4176 65.9233 56.3511 68.2422 56.1689 68.2404C55.8534 68.2373 54.4568 68.1231 53.7238 68.0404C49.6899 67.5854 45.9647 66.091 43.3686 63.8862C42.6678 63.2911 41.6853 62.2826 41.2558 61.7178L41.1171 61.5353L41.2895 61.1503C42.4418 58.5767 43.089 55.924 43.2709 53.0283L43.3044 52.4958L43.8156 53.2522C45.2572 55.3855 47.1269 57.3306 49.1995 58.8532C49.4785 59.0581 49.7049 59.2601 49.7049 59.304C49.7048 59.4388 49.5718 60.1444 49.4342 60.7403C49.1118 62.1369 48.4857 63.6808 47.6969 65.0247C47.5484 65.2776 47.4347 65.4917 47.4442 65.5004C47.5479 65.5958 49.1599 66.2065 49.9027 66.4317C50.7406 66.6859 50.8179 66.6958 50.8593 66.5553C51.3402 64.9197 51.6787 62.9201 51.7576 61.2482C51.776 60.8605 51.7974 60.5433 51.8054 60.5433C51.8134 60.5433 52.2483 60.7516 52.7718 61.0063C54.747 61.9671 56.6862 62.6106 58.7221 62.9808C63.9923 63.9391 69.2435 63.0253 74.0564 60.3125L74.5662 60.0251L74.5408 58.7668C74.5116 57.3135 74.4259 56.4519 74.183 55.1681C73.867 53.4976 73.4473 52.1011 72.782 50.5054C72.6073 50.0867 72.2614 49.3539 72.213 49.3001C72.2046 49.2908 71.9797 49.4092 71.7133 49.5634C70.7289 50.1328 68.3988 51.1886 67.7882 51.342C67.7139 51.3606 67.643 51.3922 67.6306 51.4121C67.6184 51.432 67.6613 51.7349 67.726 52.0852C67.9735 53.4246 68.1451 54.9849 68.1464 55.9088L68.1471 56.3323L67.1239 56.8299C65.4626 57.6378 63.9078 58.2166 62.3276 58.6152C59.5632 59.3125 56.8141 59.3984 54.2673 58.8671C53.4986 58.7067 51.9041 58.2043 51.7623 58.0778C51.7412 58.059 51.691 57.7456 51.6509 57.3813C51.4875 55.8998 51.1089 54.1886 50.6212 52.7282C50.2591 51.6437 50.0168 51.0472 49.5285 50.0379C49.3001 49.5658 49.1132 49.1715 49.1132 49.1616C49.1132 49.1518 49.3982 49.2866 49.7466 49.4613C51.9931 50.5878 54.7022 51.3933 57.2248 51.6848C57.5774 51.7255 57.9023 51.759 57.9468 51.7593C58.0055 51.7596 58.0887 51.9267 58.2481 52.3642C58.8358 53.9777 59.172 55.9002 59.1724 57.6506L59.1726 58.3354L59.5301 58.3003C60.3765 58.217 62.5295 57.788 62.643 57.6801C62.703 57.623 62.5164 56.8882 62.1797 55.8554C61.7937 54.6718 61.5118 53.9728 60.9673 52.8499C60.7119 52.3232 60.5126 51.8826 60.5244 51.8708C60.5362 51.859 60.8748 51.8293 61.2769 51.8047C64.4275 51.6124 67.2987 50.8627 70.0455 49.5151C72.3608 48.3793 74.1481 47.095 76.0155 45.2253C77.4775 43.7615 78.6719 42.2079 79.6564 40.4893L79.9362 40.0009L79.6795 39.5518C78.2116 36.9826 76.1413 34.6007 73.8427 32.8362C73.2048 32.3465 72.5459 31.8952 72.5161 31.9275C72.5059 31.9385 72.3258 32.2361 72.1159 32.5889C71.4926 33.6365 70.7631 34.6636 69.9842 35.59C69.783 35.8294 69.6298 36.0514 69.6437 36.0835C69.6576 36.1156 69.8613 36.3639 70.0963 36.6353C70.6748 37.3035 71.4654 38.3577 72.0511 39.2416C72.4817 39.8914 72.5293 39.9848 72.4789 40.0805C72.3339 40.3557 71.6372 41.3874 71.19 41.9893C68.2637 45.927 64.7121 48.4816 60.8258 49.4439C60.0914 49.6258 59.1941 49.7813 59.1579 49.733C59.1491 49.7214 58.9182 49.4121 58.6446 49.0457C57.0824 46.9536 55.1183 45.1021 52.9575 43.6847C52.5399 43.4107 52.4651 43.3445 52.565 43.3371C52.6328 43.332 53.0322 43.3027 53.4525 43.2719C56.0992 43.0781 58.7348 42.4011 61.2059 41.2805L61.4887 41.1523L61.9455 41.5282C63.2529 42.6037 64.524 44.1341 65.4723 45.7743L65.7634 46.2778L66.228 45.9289C67.0446 45.3155 68.4429 44.06 68.4429 43.9401C68.4429 43.8269 66.9514 42.4178 66.15 41.7739C65.7161 41.4252 64.9778 40.8838 64.5093 40.5706C64.0409 40.2574 63.6637 39.9953 63.6711 39.9882C63.6785 39.981 64.0506 39.7306 64.4981 39.4318C66.8954 37.831 68.9282 35.8455 70.5445 33.5265C72.3998 30.8645 73.6299 27.903 74.2089 24.7046C74.4419 23.4176 74.5227 22.5222 74.528 21.1664L74.5328 19.9583L74.0643 19.695C72.1206 18.6025 70.1591 17.8107 68.1717 17.3164C66.9123 17.0031 66.052 16.8637 64.3699 16.7003L64.1184 16.6759L64.088 17.7734C64.0545 18.9836 63.9634 19.979 63.8001 20.9187C63.6412 21.8328 63.5979 21.7282 64.2269 21.9481C65.3449 22.3392 66.7797 22.961 67.7156 23.46L68.1471 23.6901V24.071C68.1471 25.7754 67.7032 28.4986 67.1136 30.412C66.0914 33.7289 64.2246 36.6187 61.869 38.5301L61.4837 38.8428L61.154 38.6923C60.1111 38.2162 58.7814 37.7421 57.6068 37.4276C56.1307 37.0324 55.0169 36.8539 52.8945 36.6724L52.4597 36.6353L52.9931 36.2814C55.1956 34.8201 57.0831 33.0367 58.6897 30.8989C58.9599 30.5392 59.2069 30.2451 59.2384 30.2452C59.3976 30.2458 60.2522 30.4079 60.7813 30.5378C62.1882 30.8834 63.4994 31.4147 64.8433 32.1838C65.1552 32.3623 65.4256 32.4932 65.4443 32.4746C65.6232 32.2968 66.6958 29.2204 66.6091 29.1336C66.5982 29.1227 66.2574 29.0253 65.8519 28.9172C64.3781 28.5242 62.6953 28.262 61.1838 28.1898C60.8099 28.1719 60.5037 28.1441 60.5035 28.1279C60.5033 28.1117 60.6682 27.7654 60.87 27.3583C63.0853 22.8888 63.7942 18.0614 62.9449 13.2289C62.7003 11.8376 62.1923 10.0759 61.6548 8.755C61.3769 8.0722 60.4891 6.26719 60.1744 5.74491L59.9364 5.35015L59.0737 5.36559C56.1771 5.41755 53.5203 5.93262 51.0117 6.92866C50.2847 7.21729 49.2918 7.676 49.2732 7.73181C49.2657 7.75446 49.4079 8.03835 49.5893 8.3627C50.2007 9.45595 50.8022 10.768 51.1714 11.8144C51.2672 12.0858 51.3518 12.3153 51.3595 12.3243C51.3671 12.3334 51.7357 12.2723 52.1787 12.1886C53.6128 11.9176 56.1358 11.6891 56.2613 11.8188C56.2852 11.8435 56.4715 12.1969 56.6754 12.604C59.3158 17.8768 59.8759 23.1449 58.2674 27.5771C58.1475 27.9076 58.0373 28.1901 58.0225 28.2049C58.0077 28.2196 57.7002 28.2625 57.339 28.3001C54.8733 28.5571 52.2894 29.3073 49.8618 30.4711C49.4463 30.6702 49.1142 30.8175 49.1239 30.7982C49.9078 29.2354 50.3469 28.1768 50.7646 26.8423C51.1404 25.6418 51.4938 23.9906 51.6257 22.8185C51.6563 22.5471 51.6926 22.2325 51.7064 22.1194L51.7315 21.9138L52.3331 21.6938C53.9721 21.0948 55.8468 20.7715 57.6856 20.7709L58.2942 20.7707L58.2614 20.5116C58.1386 19.5407 58.0135 18.8147 57.8492 18.1181C57.7452 17.677 57.6456 17.3017 57.628 17.284C57.5864 17.2424 56.5562 17.5088 55.7701 17.7644C54.8146 18.0751 53.6079 18.569 52.6931 19.0239C52.2346 19.2519 51.8408 19.4383 51.8178 19.4383C51.7948 19.4383 51.776 19.2984 51.776 19.1275C51.776 17.8916 51.4818 15.8386 51.0791 14.2638C49.7317 8.99521 46.5965 4.46622 42.1481 1.36262C41.57 0.959321 40.01 -0.00731079 39.949 4.17105e-05C39.9313 0.00216357 39.6727 0.148819 39.3744 0.32592ZM123.151 17.9386C123.384 19.4957 124.232 20.5197 125.553 20.8413C126.748 21.1323 128.195 21.0289 129.085 20.5888C129.484 20.3916 129.95 19.9949 130.187 19.6502C130.456 19.2583 130.719 18.5008 130.787 17.9209L130.811 17.7112H130.154H129.497L129.437 17.8963C129.197 18.6383 128.776 19.0646 128.028 19.322C127.685 19.4402 127.566 19.4556 126.999 19.4563C126.309 19.4572 125.989 19.3926 125.53 19.1596C125.081 18.9319 124.721 18.4746 124.556 17.9209L124.493 17.7112H123.805H123.117L123.151 17.9386ZM96.9252 18.217C96.9136 18.2781 96.8678 19.6382 96.8235 21.2394C96.6521 27.424 96.5776 29.1355 96.4444 29.949C96.2012 31.4347 95.7913 32.2856 95.1551 32.6258C94.9672 32.7263 94.8812 32.7368 94.257 32.7347C93.8773 32.7334 93.4834 32.7075 93.3817 32.677L93.1968 32.6216V33.725C93.1968 34.3777 93.2162 34.8403 93.2442 34.8577C93.3784 34.9407 94.2269 35.0853 94.7254 35.1101C96.806 35.2136 98.2533 34.0263 98.983 31.6174C99.3432 30.4282 99.427 29.5824 99.5585 25.8039C99.6137 24.2162 99.6805 22.4509 99.7067 21.8809C99.733 21.311 99.7546 20.7947 99.7548 20.7337L99.7551 20.6226H102.344H104.933V27.7284V34.8342H106.387H107.842V26.4701V18.106H102.394H96.9462L96.9252 18.217ZM165.042 26.4701V34.8342H166.497H167.951V31.602V28.3699H170.562C173.539 28.3699 173.982 28.3363 174.855 28.0442C176.679 27.4341 177.783 26.0701 178.064 24.0813C178.144 23.5163 178.094 22.3042 177.968 21.7576C177.568 20.0209 176.361 18.8368 174.505 18.3578C173.581 18.1195 173.287 18.106 169.014 18.106H165.042V26.4701ZM40.3531 21.0479C40.9957 22.4584 41.3966 23.8504 41.6017 25.3845C41.7242 26.3004 41.725 28.6113 41.6032 29.6035C41.4343 30.9801 41.1585 32.1445 40.5676 33.9758L40.3112 34.7705L40.3928 35.2094C40.4377 35.4508 40.4899 35.7759 40.5086 35.9319L40.5428 36.2153L40.3778 36.1838C40.2869 36.1665 40.2048 36.1458 40.1953 36.1379C40.143 36.0945 39.5569 34.6185 39.3739 34.0693C38.6629 31.9357 38.3325 30.3114 38.2122 28.3576C38.0506 25.7343 38.6021 22.9479 39.7261 20.7083C39.9888 20.1848 39.9503 20.164 40.3531 21.0479ZM172.588 20.5751C173.472 20.6832 174.102 20.927 174.545 21.3324C174.841 21.6029 175.002 21.8509 175.158 22.2797C175.247 22.5228 175.265 22.6835 175.268 23.2379C175.269 23.6452 175.246 23.988 175.207 24.12C174.99 24.8593 174.498 25.4297 173.842 25.7031C173.178 25.9793 172.962 25.9977 170.331 25.9996L167.951 26.0013V23.2626V20.5239H170.061C171.221 20.5239 172.358 20.5469 172.588 20.5751ZM114.306 22.3997C112.971 22.5876 111.938 23.0965 111.035 24.0112C110.163 24.8951 109.63 25.9333 109.338 27.3149C109.219 27.8817 109.204 28.0546 109.204 28.9127C109.204 29.7705 109.219 29.9438 109.338 30.5096C109.86 32.985 111.4 34.5971 113.71 35.0858C114.408 35.2334 115.679 35.2448 116.373 35.1096C118.121 34.7689 119.421 33.8159 120.165 32.3286C120.358 31.9443 120.628 31.1474 120.588 31.0826C120.57 31.0535 120.073 31.0346 119.327 31.0346C118.198 31.0346 118.093 31.0417 118.067 31.1209C118.051 31.1684 117.942 31.4071 117.823 31.6514C117.452 32.4173 116.926 32.8941 116.202 33.1204C115.744 33.2639 114.695 33.2757 114.203 33.1429C113.379 32.9205 112.677 32.3519 112.314 31.6112C112.082 31.1395 111.9 30.4409 111.856 29.8512L111.822 29.4062H116.316H120.811L120.81 29.1964C120.806 28.2936 120.601 26.9629 120.349 26.2163C119.661 24.1795 118.274 22.8957 116.327 22.493C115.786 22.3812 114.77 22.3343 114.306 22.3997ZM150.451 22.4062C148.111 22.6508 146.739 23.7072 146.262 25.6312C146.209 25.8483 146.151 26.1204 146.135 26.2357L146.106 26.4454H147.382H148.658L148.69 26.2032C148.708 26.07 148.767 25.8313 148.822 25.6728C149.135 24.7583 149.794 24.3568 151.087 24.2915C152.44 24.2233 153.345 24.5561 153.683 25.246C153.809 25.5021 153.826 25.5927 153.839 26.1C153.852 26.612 153.843 26.6892 153.74 26.8893C153.666 27.0354 153.559 27.1486 153.43 27.2209C153.169 27.366 152.541 27.5099 151.753 27.6056C149.675 27.8578 148.837 28.0052 148.092 28.2492C146.794 28.6747 146.019 29.4097 145.725 30.4918C145.603 30.9415 145.606 32.1136 145.73 32.5643C146.075 33.8212 147.03 34.6803 148.453 35.0139C148.93 35.1259 150.439 35.1394 151.063 35.0374C151.952 34.8917 152.888 34.501 153.563 33.9931L153.943 33.7073L154.018 33.9655C154.156 34.4413 154.497 34.801 154.992 34.9917C155.499 35.187 156.601 35.1591 157.461 34.9292L157.646 34.8797V33.9522V33.0247L157.254 33.0474C156.77 33.0754 156.635 33.0433 156.524 32.8742C156.444 32.7515 156.435 32.4658 156.409 29.0877C156.377 25.0202 156.381 25.0675 156.037 24.3847C155.685 23.6856 155.028 23.1273 154.169 22.7959C153.219 22.4293 151.726 22.2728 150.451 22.4062ZM183.912 22.3983C182.411 22.5886 181.245 23.1158 180.355 24.0064C179.188 25.1745 178.603 26.763 178.603 28.7638C178.603 32.1899 180.312 34.4975 183.287 35.0874C184.026 35.2339 185.331 35.2459 186.048 35.1128C188.5 34.6577 190.086 33.0538 190.641 30.4661C190.745 29.9818 190.757 29.8013 190.756 28.7647C190.754 27.5112 190.692 27.055 190.406 26.1987C189.752 24.2404 188.212 22.8949 186.172 22.4987C185.561 22.3802 184.446 22.3306 183.912 22.3983ZM195.817 22.4061C193.425 22.6564 191.982 23.7543 191.6 25.6168C191.466 26.2677 191.315 26.1987 192.872 26.1987H194.223L194.258 26.0136C194.348 25.5324 194.73 25.0011 195.181 24.7299C195.813 24.3499 197.136 24.3135 197.898 24.6551C198.254 24.8148 198.583 25.1666 198.671 25.4808C198.759 25.7944 198.715 26.3673 198.583 26.6244C198.253 27.2693 197.516 27.5299 196.021 27.5306L195.269 27.531V28.5179V29.5048L196.243 29.5052C197.669 29.5058 198.156 29.6124 198.613 30.0242C198.974 30.3486 199.087 30.6409 199.089 31.2566C199.091 31.683 199.075 31.7835 198.97 31.996C198.752 32.4391 198.366 32.7448 197.737 32.971C197.35 33.1103 196.23 33.1474 195.713 33.038C194.749 32.834 194.093 32.2233 193.918 31.3676L193.855 31.0592L192.509 31.0461L191.162 31.0329L191.195 31.3894C191.287 32.3717 191.787 33.3829 192.46 33.9473C193.105 34.487 194.084 34.9049 195.083 35.0662C195.792 35.1806 197.305 35.1817 197.914 35.0681C199.579 34.7578 200.839 33.9491 201.388 32.8381C201.641 32.3271 201.724 32.0085 201.759 31.4293C201.82 30.3848 201.503 29.5454 200.793 28.8782C200.576 28.6732 199.93 28.3419 199.66 28.2962C199.548 28.2772 199.463 28.2397 199.472 28.2128C199.481 28.1859 199.608 28.1216 199.755 28.0699C200.721 27.7296 201.385 26.7149 201.383 25.5838C201.381 24.2622 200.666 23.2876 199.321 22.7704C198.391 22.4131 197.067 22.2754 195.817 22.4061ZM121.649 28.7653V34.8355L123.33 34.8225L125.011 34.8095L125.295 34.2667C125.452 33.9682 125.855 33.19 126.191 32.5375C128.641 27.7805 129.568 26.0035 129.6 26.0025C129.621 26.0018 129.637 27.9887 129.637 30.4177V34.8342H130.969H132.3V28.7647V22.6951L130.611 22.6953L128.922 22.6955L128.294 23.9413C127.542 25.4333 125.866 28.726 125.023 30.3674C124.689 31.0182 124.393 31.5586 124.364 31.5681C124.327 31.5803 124.312 30.2489 124.312 27.1403V22.6951H122.98H121.649V28.7653ZM135.685 23.6944C135.667 24.244 135.619 25.9149 135.578 27.4077C135.537 28.9004 135.481 30.3215 135.453 30.5658C135.318 31.7373 134.966 32.4765 134.399 32.7761C134.238 32.8614 134.112 32.8824 133.755 32.8836C133.511 32.8844 133.205 32.867 133.077 32.845L132.842 32.8049V33.8413C132.842 34.4113 132.859 34.8881 132.88 34.9008C132.986 34.9664 133.768 35.0913 134.223 35.1152C135.909 35.204 137.079 34.3438 137.681 32.5743C137.998 31.6409 138.058 30.9562 138.183 26.7908L138.242 24.8417L140.128 24.8288L142.014 24.8158V29.825V34.8342H143.346H144.677V28.7647V22.6951H140.197H135.717L135.685 23.6944ZM30.6643 23.2705C32.4865 24.5304 33.9861 26.157 35.162 28.1492C35.7743 29.1865 36.3928 30.5701 36.7939 31.7994C37.0077 32.4546 37.4236 34.1107 37.5539 34.8254C37.6352 35.2718 37.6466 35.2959 37.939 35.6408C38.1047 35.8363 38.3134 36.089 38.4027 36.2023L38.5652 36.4084L38.4113 36.488L38.2574 36.5677L37.7858 36.2129C36.722 35.4128 35.2375 34.0554 34.4449 33.1581C32.0136 30.406 30.6076 27.4749 30.2072 24.3235C30.0892 23.3945 30.0641 22.9419 30.1308 22.9419C30.1628 22.9419 30.4029 23.0898 30.6643 23.2705ZM49.7855 23.5215C49.6154 26.5025 48.3555 29.5856 46.2011 32.293C45.4767 33.2033 44.2865 34.4235 43.2936 35.274C43.0907 35.4477 42.9074 35.619 42.8862 35.6545C42.865 35.6901 42.7718 35.929 42.679 36.1856C42.5862 36.4421 42.4765 36.7329 42.4352 36.8318L42.3601 37.0118L42.2371 36.9222C42.0885 36.8139 42.084 36.7277 42.186 35.9346C42.3352 34.7748 42.7684 32.8732 43.1403 31.7457C43.8146 29.7015 44.8154 27.8153 46.0601 26.243C46.5625 25.6083 47.7496 24.4165 48.3681 23.9259C48.8653 23.5315 49.7012 22.9478 49.7741 22.9441C49.7999 22.9428 49.8048 23.1849 49.7855 23.5215ZM115.776 24.4237C117.065 24.7329 117.876 25.7804 118.115 27.4447L118.142 27.6297H115.014C112.067 27.6297 111.885 27.6247 111.885 27.5434C111.886 27.2911 112.161 26.3685 112.355 25.9669C112.978 24.6829 114.325 24.0754 115.776 24.4237ZM185.575 24.569C186.127 24.7102 186.51 24.9323 186.938 25.3593C187.222 25.6424 187.365 25.8381 187.545 26.1883C187.986 27.0455 188.182 28.2354 188.073 29.3968C187.895 31.2904 187.147 32.4842 185.85 32.9438C185.361 33.1172 184.468 33.1603 183.915 33.0372C182.656 32.757 181.82 31.8709 181.425 30.3989C181.307 29.9592 181.297 29.8444 181.294 28.8387C181.291 27.9434 181.306 27.6838 181.382 27.3583C181.734 25.8479 182.561 24.894 183.798 24.5693C184.288 24.4407 185.073 24.4405 185.575 24.569ZM153.848 29.7421C153.848 31.3829 153.74 31.8469 153.249 32.3283C152.406 33.1557 150.573 33.4977 149.378 33.0506C149.06 32.9312 148.663 32.5826 148.529 32.3041C148.195 31.6066 148.352 30.585 148.863 30.1359C149.313 29.7404 150.002 29.538 151.595 29.3329C152.542 29.2108 153.243 29.0476 153.594 28.8672C153.693 28.8161 153.791 28.7845 153.812 28.7971C153.832 28.8096 153.848 29.2349 153.848 29.7421ZM24.5469 30.2692C27.2917 30.6626 30.0051 31.9146 32.495 33.9365C33.0421 34.3808 34.7502 36.0772 35.2847 36.707L35.6007 37.0794L36.2671 37.323C36.6336 37.457 36.9335 37.5923 36.9335 37.6238C36.9335 37.6552 36.8882 37.722 36.8327 37.7723C36.7385 37.8575 36.6963 37.8596 36.1915 37.8034C34.5374 37.6193 32.3341 37.0818 30.7974 36.4874C27.8037 35.3293 25.366 33.5459 23.6477 31.2566C23.4236 30.9581 23.1572 30.5826 23.0557 30.4223L22.8713 30.1307L23.4551 30.1636C23.7761 30.1816 24.2675 30.2292 24.5469 30.2692ZM57.0029 30.1781C57.0029 30.2391 56.3572 31.1674 56.0313 31.5751C55.5884 32.129 54.6673 33.0792 54.1209 33.5458C51.7586 35.5628 48.9059 36.8565 45.2522 37.5679C44.7381 37.668 44.6588 37.698 44.4478 37.8726C43.9596 38.2766 43.5674 38.5844 43.5409 38.5844C43.5258 38.5844 43.4881 38.5174 43.4572 38.4354C43.4042 38.2946 43.4177 38.2638 43.7014 37.8803C44.4424 36.8785 45.6591 35.5281 46.6186 34.6424C49.3001 32.167 52.5025 30.6129 55.7208 30.2252C56.3332 30.1515 57.0029 30.1268 57.0029 30.1781ZM29.1315 38.3143C30.843 38.4918 32.3308 38.8296 34.1968 39.4645L34.7392 39.649L35.1771 39.5657C35.4179 39.5199 35.7341 39.4675 35.8798 39.4493L36.1446 39.4162V39.5859C36.1446 39.7437 36.1265 39.7633 35.8857 39.8656C33.8117 40.7468 31.7227 41.348 29.8821 41.5933C26.5225 42.0411 23.5328 41.6061 20.7478 40.2644C20.5107 40.1502 20.3046 40.037 20.2897 40.0129C20.2588 39.9629 20.8446 39.6586 21.4835 39.3929C22.8858 38.8098 24.5177 38.4148 26.1099 38.2732C26.6858 38.2219 28.4757 38.2463 29.1315 38.3143ZM54.7107 38.3801C55.874 38.5438 57.1895 38.8923 58.2357 39.3139C58.6662 39.4874 59.6657 39.9622 59.6657 39.9933C59.6657 40.028 58.8168 40.4439 58.3495 40.6382C56.3235 41.4802 53.8713 41.8832 51.6173 41.7446C49.571 41.6188 48.3839 41.3794 45.9517 40.6026L45.1818 40.3566L44.6017 40.4575C43.8812 40.5826 43.7168 40.5871 43.7578 40.4802C43.7742 40.4373 43.7877 40.364 43.7877 40.3175C43.7877 40.2569 43.9312 40.1723 44.2931 40.0198C45.1057 39.6772 45.9231 39.3815 46.5662 39.1975C46.8958 39.1032 47.2986 38.9827 47.4613 38.9296C48.2 38.689 49.6428 38.432 51.1596 38.271C51.2681 38.2595 51.9449 38.2559 52.6636 38.263C53.6708 38.273 54.14 38.2998 54.7107 38.3801ZM108.933 38.8868C107.324 39.1542 106.238 40.4153 106.069 42.2142C105.93 43.692 106.331 45.0136 107.173 45.8527C108.119 46.7952 109.602 47.0772 111.014 46.5831C111.75 46.3255 112.415 45.7122 112.794 44.9421C113.166 44.185 113.235 43.8494 113.235 42.7788C113.235 41.9918 113.22 41.8119 113.127 41.4738C112.662 39.7855 111.378 38.8216 109.617 38.8387C109.387 38.8409 109.079 38.8626 108.933 38.8868ZM130.009 38.8828C127.988 39.2001 126.791 41.0878 127.07 43.5192C127.26 45.1828 128.111 46.2816 129.523 46.6879C130.022 46.8315 130.972 46.8436 131.462 46.7126C132.33 46.4801 133.049 45.9181 133.401 45.1968C133.586 44.8191 133.779 44.158 133.779 43.9059V43.7657H133.286C132.818 43.7657 132.793 43.7709 132.793 43.8697C132.793 44.0518 132.64 44.571 132.506 44.8451C132.211 45.449 131.636 45.843 130.917 45.9339C129.539 46.1082 128.475 45.3248 128.126 43.8802C128.026 43.4645 128.013 42.3402 128.104 41.9153C128.343 40.7995 128.986 40.0231 129.861 39.795C130.233 39.6981 130.914 39.6981 131.291 39.795C131.911 39.9546 132.438 40.4218 132.648 40.9999L132.757 41.2985H133.243C133.791 41.2985 133.769 41.3206 133.656 40.8885C133.411 39.9475 132.637 39.2437 131.528 38.9545C131.162 38.8592 130.391 38.8228 130.009 38.8828ZM137.031 38.8802C136.637 38.943 135.998 39.1881 135.684 39.3964C135.212 39.7105 134.797 40.2004 134.524 40.768C134.217 41.4051 134.118 41.8401 134.088 42.6801C134.045 43.888 134.306 44.8329 134.896 45.6013C135.535 46.432 136.629 46.8872 137.798 46.8084C139.406 46.7001 140.425 45.8229 140.76 44.2592C140.873 43.7329 140.901 43.7657 140.346 43.7657H139.861L139.778 44.1551C139.556 45.1883 138.92 45.8136 137.968 45.9339C136.165 46.162 134.971 44.7867 135.078 42.6061C135.152 41.097 135.828 40.0721 136.935 39.7894C137.324 39.6899 138.177 39.7148 138.502 39.8352C139.056 40.0403 139.516 40.4958 139.691 41.0117L139.78 41.2738L140.282 41.2878L140.784 41.302L140.753 41.1645C140.59 40.4331 140.386 40.0522 139.944 39.6552C139.644 39.3853 139.03 39.0726 138.571 38.9555C138.193 38.859 137.405 38.8205 137.031 38.8802ZM150.995 38.8834C149.015 39.2375 147.892 40.9715 148.126 43.3126C148.332 45.3775 149.558 46.6723 151.437 46.8082C152.189 46.8626 153.083 46.6633 153.622 46.3209C154.397 45.8287 154.94 45.0324 155.191 44.0228C155.321 43.4977 155.345 42.2747 155.236 41.7179C155.148 41.272 154.881 40.6215 154.64 40.2659C154.227 39.6577 153.493 39.1497 152.739 38.9518C152.382 38.8579 151.361 38.8179 150.995 38.8834ZM191.596 38.9008C190.189 39.1759 189.207 40.1516 188.875 41.6047C188.76 42.1047 188.761 43.405 188.876 43.9065C189.251 45.5476 190.282 46.5541 191.818 46.7788C193.218 46.9836 194.576 46.4264 195.287 45.3553C195.773 44.624 195.981 43.8408 195.979 42.7542C195.978 41.8777 195.872 41.3579 195.567 40.731C195.127 39.8266 194.392 39.2187 193.42 38.956C193.011 38.8454 192.031 38.8158 191.596 38.9008ZM93.1968 42.8282V46.6278H93.6899H94.183V43.2476V39.8674H96.1801H98.1771V43.2476V46.6278H98.6702H99.1633V42.8282V39.0286H96.1801H93.1968V42.8282ZM100.248 42.8251V46.6278H100.741H101.234V45.0734V43.519L102.455 43.5173C103.829 43.5154 104.235 43.465 104.744 43.2337C105.537 42.8738 105.918 42.1223 105.857 41.0382C105.803 40.0602 105.361 39.4598 104.476 39.1607C104.187 39.063 104.047 39.0555 102.208 39.0395L100.248 39.0224V42.8251ZM116.669 39.4133V39.7981L116.212 39.8558C115.345 39.9656 114.78 40.2284 114.226 40.7803C113.795 41.2093 113.617 41.511 113.483 42.0386C113.378 42.4515 113.378 43.1553 113.482 43.5628C113.768 44.675 114.783 45.5121 116.028 45.6617C116.177 45.6797 116.382 45.7065 116.484 45.7213L116.669 45.7482V46.188V46.6278H117.162H117.655V46.1872V45.7467L117.938 45.7176C118.955 45.6134 119.653 45.329 120.175 44.8064C120.728 44.2536 120.959 43.6638 120.959 42.8035C120.959 42.2181 120.875 41.8551 120.636 41.3991C120.187 40.5438 119.297 39.9929 118.141 39.8546L117.655 39.7964V39.4125V39.0286H117.162H116.669V39.4133ZM121.55 42.8282V46.6278H124.188H126.827V46.2083V45.7889H124.682H122.537V44.4566V43.1242H124.509H126.481V42.7048V42.2854H124.509H122.537V41.0764V39.8674H124.657H126.777V39.448V39.0286H124.164H121.55V42.8282ZM141.472 42.8282V46.6278H142.102H142.733L144.208 44.0495C145.02 42.6314 145.856 41.1714 146.068 40.805L146.452 40.1388L146.452 43.3833L146.452 46.6278H146.945H147.438V42.8267V39.0256L146.811 39.0394L146.184 39.0532L145.011 41.1011C144.365 42.2274 143.532 43.6819 143.16 44.3332L142.483 45.5175L142.47 42.273L142.457 39.0286H141.964H141.472V42.8282ZM155.969 42.8282V46.6278H156.462H156.955V44.8513V43.0749H158.952H160.949V44.8513V46.6278H161.442H161.936V42.8282V39.0286H161.442H160.949V40.6076V42.1867H158.952H156.955V40.6076V39.0286H156.462H155.969V42.8282ZM164.955 39.2629C164.9 39.3918 164.35 40.7964 163.733 42.3841C163.116 43.9718 162.524 45.4928 162.418 45.7642C162.312 46.0356 162.194 46.3417 162.156 46.4444L162.087 46.6311L162.615 46.6171L163.143 46.6031L163.563 45.4554L163.982 44.3077L165.582 44.3205L167.182 44.3332L167.293 44.6293C167.354 44.7921 167.506 45.214 167.632 45.5669C168.044 46.7285 167.991 46.6277 168.192 46.6285C168.29 46.6289 168.47 46.6648 168.592 46.7083C168.922 46.8256 169.402 46.813 169.713 46.6788C170.315 46.4188 170.738 45.6646 170.835 44.6786C170.864 44.3834 171.009 40.5773 171.009 40.1123V39.8674H172.414H173.819V43.2476V46.6278H174.312H174.806V42.8282V39.0286H172.439H170.072L170.072 39.2383C170.071 39.7342 169.923 44.1134 169.897 44.3826C169.829 45.0983 169.66 45.58 169.408 45.7784C169.255 45.8989 168.953 45.9619 168.868 45.8912C168.834 45.8628 168.744 45.6782 168.668 45.4811C168.591 45.284 168.457 44.934 168.368 44.7033C168.206 44.2829 166.236 39.2062 166.19 39.0902C166.173 39.046 166.009 39.0286 165.61 39.0286H165.054L164.955 39.2629ZM175.89 42.8312V46.6338L177.9 46.6177C179.863 46.602 179.916 46.599 180.192 46.488C181.14 46.1075 181.554 45.3895 181.5 44.2186C181.454 43.2165 181.057 42.6033 180.244 42.2785C179.973 42.1706 179.879 42.1633 178.43 42.1387L176.901 42.1127L176.888 40.5706L176.875 39.0286H176.383H175.89V42.8312ZM182.153 42.8282V46.6278H182.646H183.139V44.8513V43.0749H185.136H187.133V44.8513V46.6278H187.626H188.119V42.8282V39.0286H187.626H187.133V40.6076V42.1867H185.136H183.139V40.6076V39.0286H182.646H182.153V42.8282ZM196.65 42.8282V46.6278H199.288H201.926V46.2083V45.7889H199.781H197.636V44.4566V43.1242H199.609H201.581V42.7048V42.2854H199.609H197.636V41.0764V39.8674H199.757H201.877V39.448V39.0286H199.264H196.65V42.8282ZM110.353 39.7957C111.221 40.0002 111.892 40.7203 112.168 41.7426C112.29 42.1906 112.289 43.4596 112.167 43.9082C111.778 45.3413 110.711 46.0926 109.292 45.9333C108.503 45.8448 107.765 45.3208 107.41 44.5964C107.135 44.0369 107.041 43.5872 107.041 42.8282C107.041 42.0738 107.135 41.6186 107.403 41.0739C107.713 40.444 108.316 39.9429 108.951 39.7879C109.298 39.7035 109.978 39.7072 110.353 39.7957ZM152.33 39.7745C152.767 39.8666 153.108 40.062 153.481 40.4338C154.038 40.9896 154.272 41.5846 154.324 42.5814C154.381 43.683 154.103 44.5895 153.519 45.2025C153.084 45.659 152.695 45.8545 152.065 45.9344C150.929 46.0783 149.919 45.5387 149.433 44.5292C149.178 43.9977 149.099 43.5972 149.099 42.8282C149.099 42.0565 149.177 41.6591 149.437 41.1189C149.743 40.4817 150.337 39.9608 150.944 39.7975C151.267 39.7108 151.972 39.6991 152.33 39.7745ZM193.073 39.7949C194.428 40.1482 195.212 41.6293 194.977 43.3933C194.827 44.5208 194.34 45.29 193.522 45.6932C192.723 46.0869 191.725 46.04 190.992 45.5743C190.43 45.2172 189.958 44.4392 189.822 43.6482C189.503 41.7867 190.262 40.1643 191.625 39.7978C191.98 39.702 192.711 39.7006 193.073 39.7949ZM104.108 40.0096C104.676 40.2343 104.916 40.6686 104.873 41.3929C104.848 41.8063 104.738 42.0768 104.506 42.2921C104.155 42.6172 103.807 42.6792 102.332 42.6797L101.234 42.6801V41.2695V39.8589L102.529 39.8778C103.737 39.8955 103.842 39.9042 104.108 40.0096ZM165.769 40.4472C165.853 40.6847 166.121 41.423 166.364 42.088C166.607 42.7529 166.821 43.3469 166.839 43.408L166.873 43.519H165.588C164.728 43.519 164.302 43.502 164.302 43.4675C164.302 43.4392 164.378 43.2116 164.471 42.9617C164.766 42.1682 165.421 40.3926 165.489 40.2005C165.525 40.0988 165.569 40.0155 165.586 40.0155C165.603 40.0155 165.685 40.2098 165.769 40.4472ZM116.669 42.7856V44.9143L116.388 44.8813C115.423 44.7677 114.69 44.2203 114.471 43.4485C114.346 43.0083 114.389 42.2531 114.561 41.8784C114.873 41.195 115.689 40.6787 116.484 40.6611L116.669 40.657V42.7856ZM118.342 40.7374C119.168 40.9426 119.683 41.4126 119.9 42.1594C120.027 42.5976 119.984 43.3035 119.805 43.6946C119.666 43.9998 119.369 44.3435 119.101 44.5105C118.87 44.6542 118.284 44.8422 117.948 44.8802L117.655 44.9134V42.7852V40.657H117.837C117.936 40.657 118.164 40.6931 118.342 40.7374ZM36.4648 41.5933C36.4924 41.719 36.4543 41.7955 36.1889 42.1479C35.1261 43.5586 33.6247 45.1368 32.397 46.1336C30.0205 48.0631 27.2858 49.3253 24.6552 49.7068C24.0379 49.7963 22.9236 49.8953 22.8917 49.8634C22.8794 49.851 23.0412 49.5898 23.2514 49.2829C24.8958 46.8823 27.3029 44.9719 30.2547 43.7249C30.9531 43.4299 32.4915 42.9113 32.9147 42.8282C33.0775 42.7962 33.4547 42.7075 33.753 42.631C34.0513 42.5545 34.5061 42.4527 34.7636 42.4049L35.2318 42.3178L35.7944 41.8593C36.1038 41.6071 36.3741 41.4113 36.395 41.4242C36.4158 41.4371 36.4472 41.5132 36.4648 41.5933ZM44.7086 42.3366C47.4415 42.7918 49.8356 43.635 51.9529 44.8882C53.8061 45.9851 55.5804 47.65 56.7058 49.3479C56.9936 49.7822 57.0435 49.885 56.9659 49.8842C56.7728 49.882 55.6832 49.7695 55.2592 49.708C54.2539 49.5623 52.8422 49.1638 51.776 48.7248C51.5997 48.6522 51.1764 48.4536 50.8354 48.2835C48.5802 47.1584 46.6726 45.6215 44.6152 43.2723L44.2912 42.9022L43.6203 42.6617C43.2513 42.5294 42.9494 42.4087 42.9494 42.3934C42.9494 42.3782 42.9993 42.3127 43.0602 42.2478C43.1635 42.1377 43.1943 42.132 43.5163 42.1627C43.7062 42.1808 44.2428 42.2591 44.7086 42.3366ZM179.767 43.115C180.264 43.34 180.526 43.7665 180.526 44.3506C180.526 45.064 180.222 45.5013 179.608 45.6706C179.318 45.7505 179.095 45.7642 178.085 45.7642H176.901L176.888 44.3666L176.875 42.9691L178.195 42.985C179.45 43.0002 179.527 43.0066 179.767 43.115ZM37.7172 43.1064C37.8259 43.1825 37.8306 43.2073 37.7987 43.5382C37.7399 44.1499 37.4841 45.5895 37.2981 46.3564C36.5733 49.3442 35.5585 51.5381 33.9087 53.6842C33.4266 54.3113 32.201 55.5527 31.5587 56.0644C31.0593 56.4623 30.1243 57.1011 30.0906 57.0674C30.0556 57.0324 30.1774 55.8081 30.2793 55.1707C30.7325 52.3356 32.0513 49.6318 34.2174 47.0966C34.6945 46.5381 35.9598 45.2864 36.5884 44.7511C36.9113 44.476 37.0278 44.3418 37.0961 44.1663C37.1449 44.0409 37.2637 43.733 37.3601 43.482C37.4565 43.231 37.5504 43.0256 37.5687 43.0256C37.587 43.0256 37.6538 43.0619 37.7172 43.1064ZM42.1112 43.7717C43.5031 44.8066 45.1515 46.3947 46.216 47.7266C48.358 50.4065 49.6138 53.5009 49.7864 56.5243L49.8191 57.0978L49.5278 56.9132C48.7732 56.4351 47.5894 55.462 47.0239 54.8549C45.209 52.9066 44.057 50.9494 43.14 48.2562C42.9445 47.682 42.5228 46.0126 42.3575 45.1584C42.2915 44.8174 42.2353 44.6578 42.1475 44.5623C42.0815 44.4906 41.8773 44.2448 41.6937 44.0161C41.3837 43.6301 41.3661 43.5956 41.449 43.535C41.5986 43.4255 41.689 43.4578 42.1112 43.7717ZM39.7693 43.9639C39.9526 44.3187 40.4897 45.7326 40.6801 46.3619C40.7942 46.7388 40.9514 47.2598 41.0296 47.5195C41.2134 48.1308 41.4903 49.5251 41.6022 50.4027C41.7247 51.3646 41.7246 53.6814 41.6021 54.5971C41.4415 55.7972 41.0807 57.1818 40.632 58.3205C40.424 58.8483 39.9876 59.7082 39.942 59.68C39.8932 59.6499 39.53 58.9077 39.3153 58.3996C38.4835 56.4307 38.0605 53.8094 38.2121 51.5623C38.3427 49.6268 38.7134 47.8486 39.4069 45.8319L39.6042 45.2581L39.5016 44.6538C39.363 43.8371 39.3642 43.8151 39.5457 43.8151C39.659 43.8151 39.7099 43.849 39.7693 43.9639ZM97.758 50.4302C96.6138 50.5849 95.3599 51.1958 94.687 51.9263C93.675 53.025 93.182 54.4439 93.1846 56.2502C93.1865 57.5133 93.3884 58.4629 93.8625 59.4393C94.3955 60.5366 95.093 61.2659 96.0917 61.7698C97.5488 62.505 99.6931 62.505 101.15 61.7698C102.536 61.0706 103.423 59.8559 103.867 58.0513C104.135 56.96 104.095 55.2634 103.775 54.153C103.209 52.1842 101.857 50.9312 99.829 50.4958C99.4039 50.4045 98.224 50.3671 97.758 50.4302ZM121.674 50.4302C120.376 50.6056 119.101 51.2884 118.361 52.2046C116.89 54.0256 116.659 57.2315 117.831 59.5641C118.728 61.3497 120.384 62.3191 122.537 62.3191C124.695 62.3191 126.358 61.3347 127.246 59.5317C127.558 58.8978 127.667 58.5836 127.82 57.8772C127.916 57.4322 127.932 57.2131 127.934 56.2995C127.936 55.3685 127.922 55.1724 127.821 54.6985C127.323 52.3707 125.967 50.973 123.745 50.4958C123.319 50.4045 122.14 50.3671 121.674 50.4302ZM142.652 50.4289C141.133 50.6068 139.76 51.4378 138.972 52.6578C137.672 54.668 137.712 57.9613 139.061 60.0745C139.391 60.5922 140.056 61.2457 140.578 61.5673C142.035 62.4637 144.252 62.5738 145.881 61.8308C146.555 61.5237 147.314 60.8938 147.753 60.2766C148.236 59.5985 148.642 58.5799 148.803 57.6436C148.917 56.9768 148.916 55.5569 148.802 54.8953C148.533 53.3397 147.746 52.0398 146.606 51.2693C145.575 50.5719 144.103 50.2591 142.652 50.4289ZM104.883 56.3726V62.073H105.598H106.313L106.325 57.3257L106.338 52.5783L106.52 53.0449C106.62 53.3015 107.027 54.3664 107.423 55.4113C107.82 56.4562 108.233 57.5443 108.342 57.8292C108.451 58.1142 108.591 58.4806 108.653 58.6434C108.715 58.8063 108.847 59.1505 108.946 59.4083C109.045 59.6661 109.311 60.3656 109.538 60.9627L109.95 62.0483H110.608H111.265L111.567 61.2341C111.733 60.7863 112.019 60.0202 112.202 59.5317C112.588 58.5013 114.083 54.4969 114.486 53.4128C114.637 53.0057 114.78 52.6515 114.803 52.6258C114.825 52.5999 114.844 54.715 114.844 57.3259V62.073H115.534H116.225V56.3726V50.6721L115.183 50.6855L114.14 50.6988L113.907 51.3403C113.779 51.6931 113.539 52.3482 113.376 52.796C113.072 53.6236 112.655 54.7674 111.371 58.2938C110.976 59.3771 110.642 60.2739 110.63 60.2868C110.617 60.2997 110.582 60.2461 110.552 60.1677C110.522 60.0893 110.401 59.7698 110.284 59.4577C110.166 59.1455 109.877 58.3795 109.642 57.7552C109.406 57.131 109.062 56.2206 108.878 55.7321C108.693 55.2435 108.374 54.3997 108.169 53.8569C107.964 53.3141 107.612 52.3815 107.386 51.7844L106.977 50.6988L105.93 50.6855L104.883 50.6721V56.3726ZM130.032 50.9573C130.032 51.2674 129.913 55.1051 129.835 57.3358C129.786 58.7353 129.724 59.3127 129.564 59.8771C129.319 60.7364 128.834 61.0693 128.014 60.942C127.827 60.913 127.639 60.8757 127.596 60.859C127.526 60.8323 127.517 60.9014 127.517 61.4521V62.0754L127.645 62.1241C127.715 62.1509 127.961 62.2056 128.19 62.2456C129.469 62.4688 130.444 61.8006 130.917 60.3769C131.199 59.5291 131.199 59.5251 131.441 52.8571L131.474 51.9561L133.576 51.9689L135.678 51.9818L135.69 57.0274L135.703 62.073H136.442H137.182V56.3736V50.6741H133.607H130.032V50.9573ZM148.779 50.8592C148.877 50.961 149.889 52.009 151.028 53.1881L153.099 55.332L152.986 55.4827C150.769 58.4419 148.138 61.9648 148.11 62.0113C148.081 62.0598 148.272 62.0725 149.001 62.0708L149.928 62.0687L150.151 61.7624C150.273 61.594 150.817 60.8489 151.359 60.1067C151.901 59.3645 152.728 58.232 153.197 57.5901C153.666 56.9481 154.065 56.4229 154.085 56.4229C154.104 56.4229 154.414 56.7294 154.773 57.1041L155.427 57.7852V59.9291V62.073H156.166H156.906V59.9244V57.7757L157.553 57.0993C157.908 56.7273 158.213 56.4183 158.231 56.4126C158.248 56.4069 158.32 56.4846 158.39 56.5853C158.461 56.686 159.072 57.5233 159.748 58.4461C160.424 59.3688 161.299 60.5624 161.691 61.0984L162.404 62.073H163.331C164.06 62.073 164.251 62.0597 164.222 62.0113C164.202 61.9774 163.079 60.4765 161.727 58.6761C160.376 56.8757 159.265 55.3837 159.259 55.3605C159.248 55.3172 159.79 54.7455 162.274 52.1792L163.707 50.6988L162.784 50.6842L161.862 50.6696L161.689 50.8602C161.237 51.3594 157.001 55.8518 156.957 55.8793C156.922 55.9006 156.906 55.0723 156.906 53.2924V50.6741H156.167H155.427L155.415 53.3129L155.402 55.9517L154.736 55.2362C154.37 54.8427 153.904 54.3436 153.701 54.1273C153.497 53.9109 152.687 53.0462 151.901 52.2057L150.471 50.6775L149.536 50.6759L148.602 50.6741L148.779 50.8592ZM164.352 56.3736V62.073H168.321H172.291V61.4068V60.7406H169.06H165.83L165.843 58.7792L165.856 56.8177L168.827 56.8049L171.798 56.7922V56.1762V55.5601L168.827 55.5474L165.856 55.5347V53.7582V51.9818L169.049 51.9691L172.241 51.9564V51.3153V50.6741H168.297H164.352V56.3736ZM173.03 56.3736V62.073H173.795H174.559V59.4083V56.7436H177.542H180.526V59.4083V62.073H181.29H182.054V56.3736V50.6741H181.29H180.526V53.0427V55.4113H177.542H174.559V53.0427V50.6741H173.795H173.03V56.3736ZM183.534 56.3736V62.073L184.458 62.0726L185.383 62.0723L185.799 61.3448C186.028 60.9446 186.484 60.151 186.813 59.581C187.142 59.0111 187.729 57.9896 188.118 57.3111C188.507 56.6326 188.974 55.8221 189.155 55.51C189.337 55.1979 189.813 54.3707 190.214 53.6719C190.614 52.973 190.962 52.4012 190.985 52.4012C191.01 52.4012 191.029 54.4958 191.029 57.2371V62.073H191.768H192.508V56.3736V50.6741H191.552H190.596L190.349 51.1059C190.214 51.3434 189.949 51.8041 189.76 52.1298C188.969 53.4991 186.653 57.5318 185.78 59.0629C185.431 59.6735 185.116 60.2057 185.079 60.2454C185.024 60.3061 185.013 59.5464 185.013 55.4959V50.6741H184.273H183.534V56.3736ZM193.987 56.3736V62.073H197.957H201.926V61.4068V60.7406H198.697H195.467V58.7668V56.793H198.45H201.433V56.1762V55.5593H198.45H195.467V53.7582V51.9571H198.647H201.828V51.3156V50.6741H197.908H193.987V56.3736ZM99.2054 51.7363C99.3776 51.7525 99.7032 51.8286 99.9289 51.9054C101.522 52.4475 102.467 53.9451 102.551 56.0569C102.62 57.7951 102.146 59.1681 101.161 60.0893C100.744 60.4792 100.289 60.736 99.7282 60.8983C99.1698 61.0601 98.0852 61.0604 97.5214 60.899C96.1394 60.5034 95.1925 59.4281 94.8183 57.8292C94.6728 57.2078 94.6385 55.9898 94.7469 55.2997C95.0255 53.5262 95.942 52.3373 97.3975 51.8615C97.7356 51.751 98.412 51.664 98.7196 51.6914C98.8145 51.6999 99.0331 51.7201 99.2054 51.7363ZM123.091 51.7342C123.496 51.7686 124.171 51.9912 124.522 52.206C125.322 52.6952 125.872 53.4302 126.2 54.4491C126.416 55.119 126.452 55.39 126.455 56.3242C126.457 57.3155 126.409 57.6443 126.157 58.372C125.913 59.0793 125.676 59.4694 125.199 59.953C124.722 60.4374 124.302 60.6971 123.696 60.884C123.352 60.9899 123.204 61.0061 122.561 61.0079C121.938 61.0097 121.761 60.9926 121.437 60.8995C120.104 60.5165 119.168 59.4859 118.76 57.9526C118.583 57.289 118.535 55.929 118.663 55.2386C118.994 53.4602 119.883 52.3292 121.316 51.8604C121.633 51.757 122.369 51.6631 122.635 51.6923C122.703 51.6997 122.908 51.7186 123.091 51.7342ZM144.455 51.8113C144.672 51.8634 145.038 51.9994 145.269 52.1135C145.607 52.2809 145.774 52.4075 146.134 52.7682C146.505 53.1404 146.622 53.2989 146.834 53.7133C147.451 54.9187 147.596 56.5359 147.217 57.9966C146.698 59.9928 145.214 61.1262 143.254 61.0224C142.643 60.99 142.276 60.9017 141.778 60.6668C140.623 60.1216 139.811 58.9197 139.594 57.4326C139.514 56.8895 139.514 55.7885 139.594 55.2879C139.817 53.8905 140.535 52.7326 141.533 52.1621C142.323 51.7101 143.463 51.5733 144.455 51.8113Z" fill="#C08E71"/>
</svg>
